<svg xmlns="http://www.w3.org/2000/svg" width="317" height="293" fill="none"><path fill="#15131D" fill-rule="evenodd" d="M248 24.177c0-12.978-10.521-23.5-23.5-23.5H192c-13.255 0-24 10.745-24 24v32c0 13.255 10.745 24 24 24h21.5c12.979 0 23.5 10.522 23.5 23.5 0 12.979 10.521 23.5 23.5 23.5H293c13.255 0 24-10.745 24-24v-32c0-13.255-10.745-24-24-24h-21.5c-12.979 0-23.5-10.521-23.5-23.5Zm-248 80.5c0-13.255 10.745-24 24-24h32c13.255 0 24 10.745 24 24v21c0 13.255 10.745 24 24 24h23c13.255 0 24 10.745 24 24v32c0 13.255-10.745 24-24 24h-23c-13.255 0-24 10.745-24 24v15c0 13.255-10.745 24-24 24H24c-13.255 0-24-10.745-24-24v-32c0-13.255 10.745-24 24-24h23c13.255 0 24-10.745 24-24v-4c0-13.255-10.745-24-24-24H24c-13.255 0-24-10.745-24-24v-32Z" clip-rule="evenodd"/></svg>