<svg xmlns="http://www.w3.org/2000/svg" width="451" height="266" fill="none"><path fill="#15131D" fill-rule="evenodd" d="M303 25c0-.928 0-1.393-.013-1.785C302.573 10.576 292.424.427 279.785.013 279.393 0 278.928 0 278 0h-16.6c-13.441 0-20.162 0-25.296 2.616a23.999 23.999 0 0 0-10.488 10.488C223 18.238 223 24.96 223 38.4V46c0 9.308 0 13.962 1.274 17.715a23.999 23.999 0 0 0 15.011 15.011C243.038 80 247.692 80 257 80h18c8.837 0 16 7.163 16 16s-7.163 16-16 16h-93.6c-13.441 0-20.162 0-25.296 2.616a23.998 23.998 0 0 0-10.488 10.488C143 130.238 143 136.959 143 150.4v3.2c0 13.441 0 20.162 2.616 25.296a23.998 23.998 0 0 0 10.488 10.488C161.238 192 167.959 192 181.4 192h56.1c8.841 0 13.261 0 16.842 1.15a24.004 24.004 0 0 1 15.508 15.508c1.15 3.581 1.15 8.001 1.15 16.842s0 13.261 1.15 16.842a24.004 24.004 0 0 0 15.508 15.508c3.581 1.15 8.001 1.15 16.842 1.15h8.1c13.441 0 20.162 0 25.296-2.616a23.998 23.998 0 0 0 10.488-10.488C351 240.762 351 234.041 351 220.6V206c0-2.786 0-4.179-.116-5.352-1.122-11.395-10.137-20.41-21.532-21.532C328.179 179 326.786 179 324 179h-2.5c-.464 0-.696 0-.893-.003-12.947-.212-23.392-10.657-23.604-23.604-.003-.197-.003-.429-.003-.893s0-.696.003-.893c.212-12.947 10.657-23.392 23.604-23.604.197-.003.429-.003.893-.003h91.1c13.441 0 20.162 0 25.296-2.616a23.998 23.998 0 0 0 10.488-10.488C451 111.762 451 105.041 451 91.6v-3.2c0-13.441 0-20.162-2.616-25.296a23.999 23.999 0 0 0-10.488-10.488C432.762 50 426.041 50 412.6 50H328c-.928 0-1.393 0-1.785-.013-12.639-.414-22.788-10.563-23.202-23.202C303 26.393 303 25.928 303 25ZM80 151c0-10.245 0-15.367-1.538-19.454a24.002 24.002 0 0 0-14.008-14.008C60.367 116 55.244 116 45 116h-6.6c-13.441 0-20.162 0-25.296 2.616a23.999 23.999 0 0 0-10.488 10.488C0 134.238 0 140.959 0 154.4v16.1c0 1.393 0 2.089.029 2.678.606 12.329 10.464 22.187 22.793 22.793.589.029 1.285.029 2.678.029s2.09 0 2.678.029c12.329.606 22.187 10.464 22.793 22.793.029.589.029 1.285.029 2.678v9.5c0 10.245 0 15.367 1.538 19.454a24.002 24.002 0 0 0 14.008 14.008C70.633 266 75.756 266 86 266h6.6c13.441 0 20.162 0 25.296-2.616a23.998 23.998 0 0 0 10.488-10.488C131 247.762 131 241.041 131 227.6v-16.1c0-1.393 0-2.089-.029-2.678-.606-12.329-10.464-22.187-22.793-22.793-.589-.029-1.285-.029-2.678-.029s-2.089 0-2.678-.029c-12.329-.606-22.187-10.464-22.793-22.793C80 162.589 80 161.893 80 160.5V151Z" clip-rule="evenodd"/></svg>