<svg xmlns="http://www.w3.org/2000/svg" width="40" height="40" fill="none"><rect width="40" height="40" fill="#15131D" rx="20"/><g fill="#757185" clip-path="url(#a)"><path d="M19.997 22.715a2.714 2.714 0 1 0 0-5.429 2.714 2.714 0 0 0 0 5.429Z"/><path d="M23.39 11.857h-6.785a4.756 4.756 0 0 0-4.75 4.751v6.786a4.756 4.756 0 0 0 4.751 4.75h6.786a4.756 4.756 0 0 0 4.75-4.752v-6.785a4.756 4.756 0 0 0-4.752-4.75Zm-3.392 12.215A4.075 4.075 0 0 1 15.927 20a4.075 4.075 0 0 1 4.071-4.071A4.076 4.076 0 0 1 24.07 20a4.076 4.076 0 0 1-4.072 4.072Zm4.75-8.143a.679.679 0 1 1 0-1.358.679.679 0 0 1 0 1.358Z"/></g><defs><clipPath id="a"><path fill="#fff" d="M11.428 11.429H28.57v17.143H11.428z"/></clipPath></defs></svg>