<svg xmlns="http://www.w3.org/2000/svg" width="40" height="40" fill="none"><rect width="40" height="40" fill="#15131D" rx="20"/><g fill="#757185" clip-path="url(#a)"><path d="M18.447 18.62a.954.954 0 0 0 0 1.903.91.91 0 0 0 .876-.951.908.908 0 0 0-.876-.952Zm3.128 0a.955.955 0 1 0 .877.952.913.913 0 0 0-.875-.952h-.002Z"/><path d="M25.743 11.429H14.257a1.764 1.764 0 0 0-1.757 1.768v11.586a1.763 1.763 0 0 0 1.757 1.768h9.72l-.454-1.586 1.097 1.018 1.037.96 1.843 1.629V13.197a1.76 1.76 0 0 0-1.757-1.768Zm-3.309 11.196s-.308-.368-.565-.696a2.705 2.705 0 0 0 1.553-1.018c-.308.205-.639.375-.986.506a5.64 5.64 0 0 1-1.242.368 6.004 6.004 0 0 1-2.22-.008 7.194 7.194 0 0 1-1.26-.369 5.133 5.133 0 0 1-.982-.508c.367.502.898.86 1.5 1.012-.257.325-.574.711-.574.711a3.108 3.108 0 0 1-2.614-1.303 11.477 11.477 0 0 1 1.232-4.997 4.238 4.238 0 0 1 2.41-.9l.086.103a5.782 5.782 0 0 0-2.254 1.123s.188-.103.506-.249a6.439 6.439 0 0 1 1.947-.54.85.85 0 0 1 .146-.017 6.987 6.987 0 0 1 4.311.806 5.706 5.706 0 0 0-2.134-1.089l.12-.137c.878.043 1.72.357 2.411.9a11.479 11.479 0 0 1 1.232 4.997 3.132 3.132 0 0 1-2.623 1.305Z"/></g><defs><clipPath id="a"><path fill="#fff" d="M11.428 11.429H28.57v17.143H11.428z"/></clipPath></defs></svg>