<svg xmlns="http://www.w3.org/2000/svg" width="756" height="756" fill="none"><path fill="#000" d="M399.522 387.103c-10.974-6.336-19.846-21.702-19.81-34.322l.334-117.755c.035-12.619 8.965-17.708 19.939-11.372l102.487 59.17c10.973 6.336 19.845 21.703 19.809 34.322l-.334 104.299c-.035 12.619-8.965 17.708-19.939 11.372l-102.486-45.714ZM359.372 386.573c10.974-6.336 19.845-21.702 19.81-34.322l-.334-117.755c-.036-12.619-8.966-17.708-19.94-11.372l-23.335 13.371v4.359l-41.954 25.592-4.836-2.835-32.361 18.683c-10.974 6.336-19.846 21.703-19.81 34.322l.334 104.299c.036 12.619 8.965 17.708 19.939 11.372l102.487-45.714Z"/><path fill="#000" d="M359.461 358.405h37.303v41.87h-37.303v-41.87Z"/><path fill="#000" d="m257.813 446.336 102.477-59.165c10.983-6.341 28.727-6.341 39.638 0l101.811 59.166c10.911 6.341 10.853 16.619-.129 22.96l-102.478 59.165c-8.052 4.649-20.982 5.052-28.677 3.62-3.645-.678-4.914-1.385-5.905-1.683l-4.742-1.985-102.124-59.119c-10.912-6.34-10.854-16.618.129-22.959Z"/><path fill="#fff" stroke="#000" stroke-miterlimit="10" d="M399.522 364.225c-10.974 6.336-19.846 21.702-19.81 34.322l.334 117.755c.035 12.619 8.965 17.708 19.939 11.372l102.487-59.17c10.973-6.336 19.845-21.703 19.809-34.322l-.334-117.755c-.035-12.62-8.965-17.708-19.939-11.373l-102.486 59.171Z"/><path fill="#308BAF" stroke="#000" stroke-miterlimit="10" d="M408.529 373.347c-9.054 5.227-16.374 17.905-16.344 28.317l.275 97.153c.03 10.411 7.397 14.61 16.451 9.382l84.555-48.818c9.054-5.227 16.374-17.905 16.344-28.317l-.275-97.153c-.029-10.411-7.397-14.61-16.451-9.382l-84.555 48.818Z"/><path fill="#000" d="m408.528 373.347 84.556-48.818c1.871-1.081 3.663-1.737 5.34-2.04 1.757 2.13 2.941 4.985 3.692 7.519 1.832 6.186 3.439 18.663 3.976 46.726.54 28.276-1.18 41.747-2.546 50.744-2.171 14.302-8.471 21.597-12.052 25.112-4.446 4.364-17.012 14.445-40.497 27.756-36.917 20.923-54.089 24.926-54.089 24.926-.996.358-1.893.653-2.715.9-1.091-1.891-1.725-4.355-1.733-7.355l-.276-97.153c-.03-10.412 7.29-23.09 16.344-28.317Z"/><path fill="url(#a)" stroke="#000" stroke-miterlimit="10" d="M359.901 364.225c10.974 6.336 19.846 21.702 19.81 34.322l-.334 117.755c-.036 12.619-8.966 17.708-19.939 11.372l-102.487-59.17c-10.973-6.336-19.845-21.703-19.809-34.322l.333-117.755c.036-12.62 8.966-17.708 19.94-11.373l102.486 59.171Z"/><path fill="#308BAF" stroke="#000" stroke-miterlimit="10" d="m257.813 281.483 102.477-59.166c10.983-6.341 28.727-6.341 39.638 0l101.811 59.167c10.911 6.34 10.853 16.618-.129 22.959l-102.478 59.166c-10.982 6.34-28.726 6.34-39.637-.001l-101.811-59.166c-10.912-6.341-10.854-16.619.129-22.959Z"/><path fill="url(#b)" stroke="#000" stroke-miterlimit="10" d="m293.44 268.153 53.43-30.848c5.726-3.306 14.977-3.306 20.666 0l53.082 30.848c5.689 3.306 5.659 8.665-.067 11.971l-53.43 30.847c-5.726 3.306-14.977 3.306-20.666 0l-53.082-30.848c-5.689-3.306-5.659-8.665.067-11.97Z"/><path fill="#000" d="m420.617 271.828-53.082-30.849c-5.688-3.305-14.94-3.305-20.666 0l-53.43 30.848c-2.058 1.189-3.368 2.644-3.953 4.173-1.046-2.737.264-5.717 3.953-7.847l53.43-30.848c5.726-3.306 14.978-3.306 20.666 0l53.082 30.848c3.644 2.117 4.929 5.075 3.887 7.798-.577-1.51-1.863-2.947-3.887-4.123Z"/><path fill="#fff" d="M300.148 325.693h159.534l-18.125 10.465H318.155l-18.007-10.465ZM422.117 347.382l-23.519 13.578c-10.464 6.041-27.369 6.041-37.765 0l-23.365-13.578h84.649Z"/><path stroke="#000" stroke-miterlimit="10" d="M483.504 270.784c-3.847-1.706-8.906-1.17-14.441 2.025L357.09 337.457c-11.99 6.923-21.683 23.712-21.644 37.499l.364 128.656c.022 7.447 2.878 12.494 7.39 14.47"/><path fill="#000" d="M339.271 515.3c-4.512-1.976-5.6-5.97-5.621-13.417l-.365-128.656c-.039-13.787 9.654-30.577 21.644-37.499l111.973-64.648c5.535-3.196 9.932-3.541 13.779-1.835l2.823 1.539s-3.176-1.247-7.157-.952c-3.981.295-15.104 7.492-15.104 7.492s-96.138 55.322-104.153 60.133c-8.016 4.812-13.477 11.581-16.299 17.924-2.822 6.343-4.711 10.045-5.332 18.734-.621 8.689-.013 34.867-.013 34.867l.358 92.168s-.583 6.3 1.138 9.714c1.72 3.414 2.875 5.163 6.258 7.218 3.382 2.055-3.929-2.782-3.929-2.782Z"/><path fill="#88E5BE" d="m468.904 392.269.011 3.913 6.882-3.973-.011-3.913-6.882 3.973Z"/><path fill="#88E5BE" d="m452.284 390.553-3.405 1.966.032 11.293 3.405-1.966-.022-7.696 3.406-1.966.021 7.696 3.406-1.966-.011-3.695 16.66-9.618.01 3.695 3.405-1.966-.022-7.697 3.406-1.966.022 7.697 3.405-1.966-.032-11.293-3.405 1.966-.012-3.913-3.405 1.966-.011-3.913-3.405 1.966-.011-3.913-3.406 1.966.011 3.828-9.846 5.684-.01-3.828-3.409 1.968.011 3.828-3.405 2.051.011 3.913-3.405 1.966.011 3.913Zm6.811-3.847-.012-4.083 3.408-1.968.012 4.083-3.408 1.968Zm13.254-7.652-.012-4.083 3.406-1.966.011 4.083-3.405 1.966ZM475.71 361.347l.011 3.917 3.405-1.966-.011-3.917-3.405 1.966ZM455.645 372.932l.011 3.916 3.405-1.966-.011-3.916-3.405 1.966Z"/><path fill="#88E5BE" d="m459.127 397.914.011 3.913 6.885-3.975-.012-3.913-6.884 3.975ZM430.625 446.662l.011 3.913 6.882-3.973-.011-3.913-6.882 3.973Z"/><path fill="#88E5BE" d="m414.005 444.946-3.406 1.966.033 11.294 3.405-1.966-.022-7.697 3.405-1.966.022 7.697 3.405-1.966-.01-3.696 16.66-9.618.01 3.695 3.405-1.966-.022-7.696 3.405-1.966.022 7.696 3.406-1.966-.032-11.293-3.406 1.966-.011-3.913-3.405 1.966-.011-3.913-3.405 1.966-.012-3.913-3.405 1.966.011 3.828-9.846 5.685-.011-3.828-3.408 1.968.011 3.827-3.405 2.052.011 3.912-3.405 1.966.011 3.913Zm6.811-3.847-.012-4.083 3.408-1.967.012 4.083-3.408 1.967Zm13.254-7.652-.012-4.083 3.406-1.966.011 4.083-3.405 1.966ZM437.43 415.741l.011 3.916 3.406-1.966-.011-3.916-3.406 1.966Z"/><path fill="#88E5BE" d="m417.366 427.325.011 3.917 3.405-1.966-.011-3.917-3.405 1.966ZM420.847 452.308l.011 3.912 6.885-3.974-.011-3.913-6.885 3.975Z"/><path fill="#000" stroke="#000" stroke-miterlimit="10" d="M421.391 504.963c.239-.138.454-.15.61-.06.156.091 1.014.454 1.015.729l-.759.855.009 3.12c.001.542-.38 1.21-.858 1.486l-10.44 7.027c-.239.138-.946-.565-1.103-.654-.158-.089-.256-.28-.257-.551l-.011-4.145c-.002-.549.385-1.22.864-1.496l10.93-6.311Z"/><path fill="#308BAF" stroke="#000" stroke-miterlimit="10" d="M422.276 505.566c.477-.276.861-.05.862.5l.012 4.145c.002.542-.379 1.209-.857 1.485l-10.931 6.311c-.478.276-.868.053-.869-.489l-.012-4.145c-.001-.549.386-1.22.864-1.496l10.931-6.311Z"/><path fill="url(#c)" stroke="#000" stroke-miterlimit="10" d="M346.183 462.492c-.734-.423-1.33-.083-1.333.76l-.029 42.097c-.002.843.59 1.87 1.324 2.293l19.512 11.266c.734.424 1.331.084 1.333-.759l.03-42.098c.002-.843-.591-1.869-1.324-2.293l-19.513-11.266Z"/><path fill="#000" stroke="#000" stroke-miterlimit="10" d="m348.661 490.601 1.346-.83c.278-.306.742-.344 1.27-.039l10.635 6.14c.853.492 1.534 1.682 1.531 2.662l-.034 12.211c-.001.502-.184.849-.474 1.005l-1.1.686-1.769-1.843-8.833-5.1c-.853-.493-1.535-1.682-1.532-2.662l.029-10.355-1.069-1.875Z"/><path fill="#88E5BE" stroke="#000" stroke-linejoin="round" stroke-miterlimit="10" d="M349.67 490.74c-.853-.493-1.539-.092-1.542.887l-.035 12.212c-.002.98.679 2.169 1.532 2.662l10.635 6.14c.853.492 1.539.092 1.541-.888l.035-12.211c.003-.98-.678-2.17-1.531-2.662l-10.635-6.14Z"/><path fill="#000" d="M354.968 499.359c-1.119-.645-2.031-.125-2.034 1.16-.004 1.284.902 2.854 2.02 3.499 1.127.651 2.038.131 2.042-1.154.004-1.285-.902-2.854-2.028-3.505Z"/><path fill="#000" stroke="#000" stroke-miterlimit="10" d="m348.661 469.736 1.346-.83c.278-.305.742-.344 1.27-.039l10.635 6.14c.853.493 1.534 1.682 1.531 2.662l-.034 12.211c-.001.502-.184.849-.474 1.005l-1.1.686-1.769-1.843-8.833-5.1c-.853-.492-1.535-1.682-1.532-2.662l.029-10.355-1.069-1.875Z"/><path fill="#308BAF" stroke="#000" stroke-miterlimit="10" d="M349.67 469.875c-.853-.492-1.539-.092-1.542.888l-.035 12.211c-.002.98.679 2.17 1.532 2.662l10.635 6.14c.853.492 1.539.092 1.541-.888l.035-12.211c.003-.98-.678-2.169-1.531-2.662l-10.635-6.14Z"/><path fill="url(#d)" d="M493.895 434.555c1.365-8.997 3.085-22.468 2.545-50.744-.536-28.062-2.143-40.539-3.975-46.726-.649-2.19-1.647-4.591-3.033-6.585l6.849-4.004a28.503 28.503 0 0 1 1.302 3.511c1.832 6.187 3.439 18.664 3.975 46.727.54 28.276-1.179 41.746-2.545 50.744-1.101 7.252-3.264 12.696-5.595 16.765a55.035 55.035 0 0 1-2.834 2.411c1.393-3.335 2.585-7.317 3.311-12.099Z"/><path fill="#000" d="m237.128 418.086-.013 4.624 50.8 29.329c1.114.644 2.015.13 2.019-1.15.003-1.274-.892-2.83-2.006-3.473l-50.8-29.33ZM237.128 406.566l-.013 4.623 50.8 29.33c1.114.643 2.015.129 2.019-1.151.003-1.274-.892-2.83-2.006-3.473l-50.8-29.329ZM237.128 395.054l-.013 4.624 50.8 29.329c1.114.643 2.015.13 2.019-1.15.003-1.275-.892-2.831-2.006-3.474l-50.8-29.329ZM237.128 383.592l-.013 4.624 50.8 29.329c1.114.643 2.015.129 2.019-1.151.003-1.274-.892-2.83-2.006-3.473l-50.8-29.329ZM237.128 372.08l-.013 4.624 50.8 29.329c1.114.643 2.015.129 2.019-1.151.003-1.274-.892-2.83-2.006-3.473l-50.8-29.329ZM342.118 244.047a1.16 1.16 0 0 1-1.143-1.177 1.16 1.16 0 0 1 1.164-1.157 1.16 1.16 0 0 1 1.143 1.177 1.162 1.162 0 0 1-1.164 1.157ZM352.021 240.803a1.16 1.16 0 0 1-1.143-1.177 1.16 1.16 0 0 1 1.164-1.156 1.16 1.16 0 0 1 1.143 1.177 1.16 1.16 0 0 1-1.164 1.156ZM345.439 240.745a1.16 1.16 0 0 1-1.143-1.178 1.159 1.159 0 0 1 1.164-1.156 1.162 1.162 0 0 1 1.144 1.177 1.163 1.163 0 0 1-1.165 1.157ZM348.701 244.105a1.16 1.16 0 0 1-1.144-1.177 1.159 1.159 0 0 1 1.164-1.156 1.162 1.162 0 0 1 1.144 1.177 1.16 1.16 0 0 1-1.164 1.156ZM355.31 241.831a1.16 1.16 0 0 1 1.144 1.176 1.162 1.162 0 0 1-1.165 1.157 1.16 1.16 0 0 1-1.143-1.177 1.16 1.16 0 0 1 1.164-1.156ZM342.059 250.704a1.16 1.16 0 0 1-1.144-1.177 1.16 1.16 0 0 1 1.165-1.156 1.16 1.16 0 0 1 1.143 1.177 1.16 1.16 0 0 1-1.164 1.156ZM342 257.356a1.16 1.16 0 0 1-1.144-1.176 1.16 1.16 0 0 1 1.165-1.157 1.16 1.16 0 0 1 1.143 1.177 1.16 1.16 0 0 1-1.164 1.156ZM341.941 264.016a1.16 1.16 0 0 1-1.144-1.177 1.16 1.16 0 0 1 1.164-1.156 1.159 1.159 0 0 1 1.143 1.176 1.16 1.16 0 0 1-1.163 1.157ZM351.903 254.12a1.161 1.161 0 0 1-1.144-1.177 1.16 1.16 0 0 1 1.165-1.156 1.16 1.16 0 0 1 1.143 1.177 1.16 1.16 0 0 1-1.164 1.156ZM351.844 260.772a1.16 1.16 0 0 1-1.144-1.177 1.16 1.16 0 0 1 1.164-1.156 1.16 1.16 0 0 1 1.144 1.177 1.16 1.16 0 0 1-1.164 1.156ZM345.32 254.062a1.161 1.161 0 0 1-1.143-1.178 1.16 1.16 0 0 1 1.164-1.156c.637.006 1.15.533 1.144 1.177a1.162 1.162 0 0 1-1.165 1.157ZM345.261 260.714a1.16 1.16 0 0 1-1.143-1.178 1.16 1.16 0 0 1 1.164-1.156 1.162 1.162 0 0 1 1.144 1.177 1.162 1.162 0 0 1-1.165 1.157ZM348.641 250.763a1.162 1.162 0 0 1-1.144-1.177 1.161 1.161 0 0 1 1.165-1.157 1.16 1.16 0 0 1 1.143 1.177 1.16 1.16 0 0 1-1.164 1.157ZM348.582 257.415a1.16 1.16 0 0 1-1.144-1.177 1.16 1.16 0 0 1 1.165-1.156 1.16 1.16 0 0 1 1.143 1.177 1.16 1.16 0 0 1-1.164 1.156ZM348.523 264.074a1.16 1.16 0 0 1-1.144-1.177 1.16 1.16 0 0 1 1.165-1.156 1.161 1.161 0 0 1 1.143 1.177 1.16 1.16 0 0 1-1.164 1.156ZM355.251 248.488c.637.006 1.15.533 1.144 1.177a1.163 1.163 0 0 1-1.165 1.157 1.16 1.16 0 0 1-1.143-1.178 1.16 1.16 0 0 1 1.164-1.156ZM355.192 255.14a1.16 1.16 0 0 1 1.143 1.177 1.16 1.16 0 0 1-1.164 1.156 1.159 1.159 0 0 1-1.143-1.176 1.161 1.161 0 0 1 1.164-1.157ZM355.133 261.8a1.16 1.16 0 0 1 1.143 1.176 1.161 1.161 0 0 1-1.164 1.157 1.16 1.16 0 0 1-1.143-1.177 1.159 1.159 0 0 1 1.164-1.156ZM345.38 247.398a1.162 1.162 0 0 1-1.144-1.177 1.161 1.161 0 0 1 1.164-1.157 1.16 1.16 0 0 1 1.144 1.176 1.162 1.162 0 0 1-1.164 1.158ZM351.962 247.453a1.16 1.16 0 0 1-1.143-1.173v-.002a1.158 1.158 0 0 1 1.164-1.152 1.159 1.159 0 0 1 1.143 1.172v.003a1.159 1.159 0 0 1-1.164 1.152ZM345.024 287.336a1.16 1.16 0 0 1-1.143-1.177 1.161 1.161 0 0 1 1.164-1.157 1.161 1.161 0 0 1 1.144 1.177 1.162 1.162 0 0 1-1.165 1.157ZM351.607 287.391a1.157 1.157 0 0 1-1.143-1.172l-.001-.002a1.16 1.16 0 0 1 1.165-1.153 1.157 1.157 0 0 1 1.142 1.173l.001.002a1.159 1.159 0 0 1-1.164 1.152ZM341.881 270.674a1.16 1.16 0 0 1-1.143-1.178 1.16 1.16 0 0 1 1.164-1.156 1.16 1.16 0 0 1 1.143 1.177 1.161 1.161 0 0 1-1.164 1.157ZM341.822 277.325a1.159 1.159 0 0 1-1.143-1.176 1.16 1.16 0 0 1 1.164-1.157 1.16 1.16 0 0 1 1.143 1.177 1.16 1.16 0 0 1-1.164 1.156ZM341.763 283.985a1.16 1.16 0 0 1-1.144-1.177 1.16 1.16 0 0 1 1.165-1.156 1.16 1.16 0 0 1 1.143 1.176 1.161 1.161 0 0 1-1.164 1.157ZM351.725 274.089a1.16 1.16 0 0 1-1.143-1.177 1.16 1.16 0 0 1 1.164-1.156 1.16 1.16 0 0 1 1.143 1.177 1.16 1.16 0 0 1-1.164 1.156ZM351.666 280.741a1.16 1.16 0 0 1-1.144-1.177 1.16 1.16 0 0 1 1.165-1.156 1.16 1.16 0 0 1 1.143 1.177 1.16 1.16 0 0 1-1.164 1.156ZM345.142 274.031a1.161 1.161 0 0 1-1.143-1.177 1.161 1.161 0 0 1 1.164-1.157 1.16 1.16 0 0 1 1.144 1.177 1.162 1.162 0 0 1-1.165 1.157ZM345.083 280.683a1.16 1.16 0 0 1-1.143-1.177 1.161 1.161 0 0 1 1.164-1.157 1.16 1.16 0 0 1 1.144 1.177 1.161 1.161 0 0 1-1.165 1.157ZM348.464 270.732a1.16 1.16 0 0 1-1.144-1.177 1.162 1.162 0 0 1 1.164-1.157 1.16 1.16 0 0 1 1.143 1.177 1.16 1.16 0 0 1-1.163 1.157ZM348.404 277.384a1.162 1.162 0 0 1-1.144-1.177 1.16 1.16 0 0 1 1.165-1.156 1.16 1.16 0 0 1 1.143 1.177 1.16 1.16 0 0 1-1.164 1.156ZM348.345 284.044a1.161 1.161 0 0 1-1.144-1.178 1.161 1.161 0 0 1 1.165-1.156 1.16 1.16 0 0 1 1.143 1.177 1.162 1.162 0 0 1-1.164 1.157ZM355.073 268.457c.637.006 1.15.533 1.144 1.177a1.162 1.162 0 0 1-1.164 1.157 1.162 1.162 0 0 1-1.144-1.178 1.16 1.16 0 0 1 1.164-1.156ZM355.014 275.11a1.16 1.16 0 0 1 1.144 1.177 1.16 1.16 0 0 1-1.165 1.155 1.159 1.159 0 0 1-1.143-1.176 1.16 1.16 0 0 1 1.164-1.156ZM354.955 281.769a1.16 1.16 0 0 1 1.143 1.177 1.16 1.16 0 0 1-1.164 1.156 1.16 1.16 0 0 1-1.143-1.177 1.16 1.16 0 0 1 1.164-1.156ZM345.202 267.367a1.16 1.16 0 0 1-1.143-1.177 1.161 1.161 0 0 1 1.164-1.157 1.16 1.16 0 0 1 1.143 1.176 1.161 1.161 0 0 1-1.164 1.158ZM351.784 267.422a1.16 1.16 0 0 1-1.143-1.173v-.002a1.16 1.16 0 0 1 1.164-1.152 1.158 1.158 0 0 1 1.143 1.173l.001.002a1.16 1.16 0 0 1-1.165 1.152ZM344.846 307.305a1.161 1.161 0 0 1-1.143-1.177 1.162 1.162 0 0 1 1.164-1.157 1.161 1.161 0 0 1 1.144 1.177 1.161 1.161 0 0 1-1.165 1.157ZM351.429 307.36a1.157 1.157 0 0 1-1.143-1.172l-.001-.003a1.16 1.16 0 0 1 1.165-1.152 1.159 1.159 0 0 1 1.143 1.173v.001a1.16 1.16 0 0 1-1.164 1.153ZM341.704 290.643a1.16 1.16 0 0 1-1.144-1.178 1.16 1.16 0 0 1 1.164-1.156 1.161 1.161 0 0 1 1.144 1.177 1.162 1.162 0 0 1-1.164 1.157ZM341.644 297.294a1.159 1.159 0 0 1-1.143-1.176 1.161 1.161 0 0 1 1.164-1.157 1.16 1.16 0 0 1 1.143 1.178 1.159 1.159 0 0 1-1.164 1.155ZM341.585 303.954a1.162 1.162 0 0 1-1.144-1.177 1.16 1.16 0 0 1 1.165-1.156 1.159 1.159 0 0 1 1.143 1.176 1.161 1.161 0 0 1-1.164 1.157ZM351.547 294.058a1.16 1.16 0 0 1-1.143-1.177 1.16 1.16 0 0 1 1.164-1.156 1.16 1.16 0 0 1 1.143 1.177 1.159 1.159 0 0 1-1.164 1.156ZM351.488 300.71a1.16 1.16 0 0 1-1.144-1.177 1.16 1.16 0 0 1 1.165-1.156 1.16 1.16 0 0 1 1.143 1.177 1.16 1.16 0 0 1-1.164 1.156ZM344.965 294a1.161 1.161 0 0 1-1.144-1.177 1.161 1.161 0 0 1 1.164-1.157c.638.006 1.15.533 1.145 1.177a1.163 1.163 0 0 1-1.165 1.157ZM344.906 300.652a1.161 1.161 0 0 1-1.144-1.177 1.16 1.16 0 0 1 1.164-1.156 1.16 1.16 0 0 1 1.144 1.176 1.16 1.16 0 0 1-1.164 1.157ZM348.286 290.701a1.16 1.16 0 0 1-1.144-1.177 1.16 1.16 0 0 1 1.165-1.156 1.16 1.16 0 0 1 1.143 1.176 1.16 1.16 0 0 1-1.164 1.157ZM348.227 297.353a1.16 1.16 0 0 1-1.144-1.177 1.159 1.159 0 0 1 1.164-1.156 1.161 1.161 0 0 1 1.144 1.177 1.16 1.16 0 0 1-1.164 1.156ZM348.167 304.013a1.163 1.163 0 0 1-1.144-1.177 1.161 1.161 0 0 1 1.165-1.157 1.162 1.162 0 0 1 1.144 1.177 1.163 1.163 0 0 1-1.165 1.157ZM354.896 288.426a1.161 1.161 0 0 1 1.143 1.177 1.16 1.16 0 0 1-1.164 1.157 1.16 1.16 0 0 1-1.143-1.178 1.16 1.16 0 0 1 1.164-1.156ZM354.816 297.412a1.162 1.162 0 0 1-1.144-1.177 1.16 1.16 0 0 1 1.164-1.156 1.16 1.16 0 0 1 1.144 1.177 1.161 1.161 0 0 1-1.164 1.156ZM354.756 304.071a1.16 1.16 0 0 1-1.143-1.177 1.16 1.16 0 0 1 1.164-1.156 1.16 1.16 0 0 1 1.144 1.177 1.161 1.161 0 0 1-1.165 1.156ZM348.108 310.67a1.16 1.16 0 0 1-1.144-1.177 1.16 1.16 0 0 1 1.165-1.156 1.16 1.16 0 0 1 1.143 1.176 1.16 1.16 0 0 1-1.164 1.157ZM354.697 310.729a1.16 1.16 0 0 1-1.143-1.177 1.16 1.16 0 0 1 1.164-1.157 1.162 1.162 0 0 1 1.144 1.177 1.161 1.161 0 0 1-1.165 1.157ZM338.89 244.951a1.16 1.16 0 0 1 1.143 1.177 1.161 1.161 0 0 1-1.164 1.157 1.161 1.161 0 0 1-1.143-1.178 1.16 1.16 0 0 1 1.164-1.156ZM325.639 253.825a1.16 1.16 0 0 1-1.144-1.177 1.161 1.161 0 0 1 1.164-1.157 1.162 1.162 0 0 1 1.144 1.177 1.16 1.16 0 0 1-1.164 1.157ZM325.579 260.477a1.16 1.16 0 0 1-1.143-1.177 1.16 1.16 0 0 1 1.164-1.156 1.16 1.16 0 0 1 1.143 1.177 1.16 1.16 0 0 1-1.164 1.156ZM325.52 267.136a1.161 1.161 0 0 1-1.144-1.177 1.16 1.16 0 0 1 1.165-1.156 1.16 1.16 0 0 1 1.143 1.177 1.16 1.16 0 0 1-1.164 1.156ZM335.482 257.241a1.16 1.16 0 0 1-1.143-1.177 1.16 1.16 0 0 1 1.164-1.156 1.159 1.159 0 0 1 1.143 1.176 1.161 1.161 0 0 1-1.164 1.157ZM335.423 263.893a1.162 1.162 0 0 1-1.144-1.177 1.161 1.161 0 0 1 1.165-1.157 1.16 1.16 0 0 1 1.143 1.177 1.16 1.16 0 0 1-1.164 1.157ZM328.9 257.182a1.16 1.16 0 0 1-1.144-1.177 1.16 1.16 0 0 1 1.164-1.156c.638.006 1.15.532 1.145 1.177a1.161 1.161 0 0 1-1.165 1.156ZM328.841 263.834a1.16 1.16 0 0 1-1.144-1.177 1.16 1.16 0 0 1 1.164-1.156 1.16 1.16 0 0 1 1.144 1.177 1.16 1.16 0 0 1-1.164 1.156ZM332.221 253.884a1.16 1.16 0 0 1-1.144-1.178 1.16 1.16 0 0 1 1.165-1.156 1.162 1.162 0 0 1 1.143 1.177 1.162 1.162 0 0 1-1.164 1.157ZM332.162 260.535a1.16 1.16 0 0 1-1.144-1.176 1.16 1.16 0 0 1 1.164-1.157 1.161 1.161 0 0 1 1.144 1.177 1.16 1.16 0 0 1-1.164 1.156ZM332.102 267.195a1.161 1.161 0 0 1-1.144-1.177 1.16 1.16 0 0 1 1.165-1.156 1.16 1.16 0 0 1 1.144 1.176 1.162 1.162 0 0 1-1.165 1.157ZM338.81 253.942a1.16 1.16 0 0 1-1.143-1.177 1.16 1.16 0 0 1 1.163-1.156 1.16 1.16 0 0 1 1.144 1.176 1.16 1.16 0 0 1-1.164 1.157ZM338.751 260.594a1.161 1.161 0 0 1-1.144-1.176 1.16 1.16 0 0 1 1.164-1.157 1.16 1.16 0 0 1 1.144 1.177 1.16 1.16 0 0 1-1.164 1.156ZM338.691 267.254a1.161 1.161 0 0 1-1.143-1.177 1.161 1.161 0 0 1 1.164-1.157c.637.006 1.15.533 1.144 1.177a1.163 1.163 0 0 1-1.165 1.157ZM328.959 250.518a1.16 1.16 0 0 1-1.143-1.177 1.16 1.16 0 0 1 1.164-1.156 1.16 1.16 0 0 1 1.144 1.176 1.162 1.162 0 0 1-1.165 1.157ZM335.542 250.573a1.157 1.157 0 0 1-1.143-1.172l-.001-.002a1.158 1.158 0 0 1 1.165-1.152 1.157 1.157 0 0 1 1.142 1.172l.001.003a1.158 1.158 0 0 1-1.164 1.151ZM328.604 290.457a1.16 1.16 0 0 1-1.143-1.177 1.16 1.16 0 0 1 1.163-1.157 1.16 1.16 0 0 1 1.144 1.176 1.162 1.162 0 0 1-1.164 1.158ZM335.186 290.512a1.16 1.16 0 0 1-1.143-1.173v-.002a1.157 1.157 0 0 1 1.164-1.152 1.159 1.159 0 0 1 1.143 1.172v.003a1.159 1.159 0 0 1-1.164 1.152ZM325.461 273.794a1.16 1.16 0 0 1-1.144-1.177 1.16 1.16 0 0 1 1.165-1.156 1.16 1.16 0 0 1 1.143 1.176 1.16 1.16 0 0 1-1.164 1.157ZM325.402 280.446a1.16 1.16 0 0 1-1.144-1.177 1.16 1.16 0 0 1 1.164-1.156 1.161 1.161 0 0 1 1.144 1.177 1.16 1.16 0 0 1-1.164 1.156ZM325.342 287.106a1.161 1.161 0 0 1-1.143-1.178 1.16 1.16 0 0 1 1.164-1.156 1.16 1.16 0 0 1 1.143 1.177 1.162 1.162 0 0 1-1.164 1.157ZM335.305 277.21a1.16 1.16 0 0 1-1.144-1.177 1.16 1.16 0 0 1 1.164-1.156 1.16 1.16 0 0 1 1.144 1.176 1.161 1.161 0 0 1-1.164 1.157ZM335.245 283.862a1.16 1.16 0 0 1-1.143-1.177 1.16 1.16 0 0 1 1.164-1.156 1.159 1.159 0 0 1 1.143 1.176 1.16 1.16 0 0 1-1.164 1.157ZM328.722 277.151a1.16 1.16 0 0 1-1.143-1.177 1.16 1.16 0 0 1 1.164-1.156 1.162 1.162 0 0 1 1.144 1.177 1.161 1.161 0 0 1-1.165 1.156ZM328.663 283.803a1.16 1.16 0 0 1-1.143-1.177 1.16 1.16 0 0 1 1.164-1.156 1.16 1.16 0 0 1 1.143 1.177 1.16 1.16 0 0 1-1.164 1.156ZM332.043 273.853a1.162 1.162 0 0 1-1.144-1.178 1.16 1.16 0 0 1 1.165-1.156 1.161 1.161 0 0 1 1.143 1.177 1.162 1.162 0 0 1-1.164 1.157ZM331.984 280.504a1.16 1.16 0 0 1-1.144-1.176 1.161 1.161 0 0 1 1.165-1.157 1.16 1.16 0 0 1 1.143 1.178 1.16 1.16 0 0 1-1.164 1.155ZM331.925 287.164a1.16 1.16 0 0 1-1.144-1.177 1.16 1.16 0 0 1 1.164-1.156 1.161 1.161 0 0 1 1.144 1.177 1.161 1.161 0 0 1-1.164 1.156ZM338.632 273.911a1.16 1.16 0 0 1-1.143-1.177 1.16 1.16 0 0 1 1.164-1.156 1.16 1.16 0 0 1 1.143 1.177 1.16 1.16 0 0 1-1.164 1.156ZM338.573 280.563a1.161 1.161 0 0 1-1.144-1.176 1.16 1.16 0 0 1 1.165-1.157 1.16 1.16 0 0 1 1.143 1.177 1.16 1.16 0 0 1-1.164 1.156ZM338.514 287.223a1.161 1.161 0 0 1-1.144-1.177 1.162 1.162 0 0 1 1.164-1.157c.637.006 1.15.533 1.144 1.177a1.162 1.162 0 0 1-1.164 1.157ZM328.781 270.488a1.161 1.161 0 0 1-1.143-1.178 1.16 1.16 0 0 1 1.164-1.156 1.16 1.16 0 0 1 1.144 1.176 1.163 1.163 0 0 1-1.165 1.158ZM335.364 270.543a1.158 1.158 0 0 1-1.143-1.173l-.001-.002a1.159 1.159 0 0 1 1.165-1.152 1.158 1.158 0 0 1 1.143 1.172v.002a1.16 1.16 0 0 1-1.164 1.153ZM325.283 293.763a1.16 1.16 0 0 1-1.143-1.177 1.159 1.159 0 0 1 1.164-1.156 1.159 1.159 0 0 1 1.143 1.176 1.16 1.16 0 0 1-1.164 1.157ZM335.127 297.179a1.162 1.162 0 0 1-1.144-1.177 1.16 1.16 0 0 1 1.165-1.156 1.16 1.16 0 0 1 1.143 1.177 1.16 1.16 0 0 1-1.164 1.156ZM335.068 303.831a1.16 1.16 0 0 1-1.144-1.177 1.16 1.16 0 0 1 1.165-1.156 1.16 1.16 0 0 1 1.143 1.176 1.16 1.16 0 0 1-1.164 1.157ZM328.544 297.12a1.16 1.16 0 0 1-1.143-1.177 1.16 1.16 0 0 1 1.164-1.156c.637.006 1.15.533 1.144 1.177a1.16 1.16 0 0 1-1.165 1.156ZM331.865 293.822a1.16 1.16 0 0 1-1.143-1.177 1.16 1.16 0 0 1 1.164-1.157 1.16 1.16 0 0 1 1.143 1.177 1.16 1.16 0 0 1-1.164 1.157ZM331.806 300.474a1.16 1.16 0 0 1-1.144-1.177 1.16 1.16 0 0 1 1.165-1.156 1.159 1.159 0 0 1 1.143 1.177 1.16 1.16 0 0 1-1.164 1.156ZM338.454 293.881a1.16 1.16 0 0 1-1.143-1.178 1.16 1.16 0 0 1 1.164-1.156 1.16 1.16 0 0 1 1.143 1.177 1.161 1.161 0 0 1-1.164 1.157ZM338.395 300.532a1.159 1.159 0 0 1-1.143-1.176 1.161 1.161 0 0 1 1.164-1.157 1.16 1.16 0 0 1 1.143 1.177 1.16 1.16 0 0 1-1.164 1.156ZM309.385 263.348a1.16 1.16 0 0 1-1.144-1.177 1.16 1.16 0 0 1 1.165-1.156 1.159 1.159 0 0 1 1.143 1.176 1.161 1.161 0 0 1-1.164 1.157ZM319.288 260.104a1.16 1.16 0 0 1-1.144-1.177 1.16 1.16 0 0 1 1.165-1.156 1.16 1.16 0 0 1 1.143 1.177 1.16 1.16 0 0 1-1.164 1.156ZM312.705 260.046a1.16 1.16 0 0 1-1.143-1.177 1.16 1.16 0 0 1 1.164-1.157c.637.006 1.15.533 1.144 1.177a1.162 1.162 0 0 1-1.165 1.157ZM315.967 263.407a1.161 1.161 0 0 1-1.144-1.178 1.161 1.161 0 0 1 1.165-1.156 1.161 1.161 0 0 1 1.143 1.177 1.162 1.162 0 0 1-1.164 1.157ZM322.636 254.473a1.16 1.16 0 0 1 1.144 1.177 1.162 1.162 0 0 1-1.165 1.156 1.16 1.16 0 0 1-1.143-1.177 1.16 1.16 0 0 1 1.164-1.156ZM322.577 261.132a1.16 1.16 0 0 1 1.143 1.177 1.16 1.16 0 0 1-1.164 1.156 1.16 1.16 0 0 1-1.143-1.177 1.16 1.16 0 0 1 1.164-1.156ZM312.468 286.668a1.16 1.16 0 0 1-1.143-1.177 1.16 1.16 0 0 1 1.164-1.156 1.16 1.16 0 0 1 1.144 1.176 1.162 1.162 0 0 1-1.165 1.157ZM319.051 286.723a1.158 1.158 0 0 1-1.143-1.172v-.002a1.16 1.16 0 0 1 1.164-1.153 1.157 1.157 0 0 1 1.142 1.173l.001.002a1.159 1.159 0 0 1-1.164 1.152ZM309.325 270.006a1.16 1.16 0 0 1-1.143-1.178 1.16 1.16 0 0 1 1.164-1.156 1.16 1.16 0 0 1 1.143 1.177 1.161 1.161 0 0 1-1.164 1.157ZM309.266 276.657a1.16 1.16 0 0 1-1.144-1.176 1.161 1.161 0 0 1 1.165-1.157 1.16 1.16 0 0 1 1.143 1.178 1.16 1.16 0 0 1-1.164 1.155ZM309.207 283.317a1.161 1.161 0 0 1-1.144-1.177 1.16 1.16 0 0 1 1.165-1.156 1.159 1.159 0 0 1 1.143 1.176 1.161 1.161 0 0 1-1.164 1.157ZM319.169 273.421a1.16 1.16 0 0 1-1.143-1.177 1.16 1.16 0 0 1 1.164-1.156 1.16 1.16 0 0 1 1.143 1.177 1.16 1.16 0 0 1-1.164 1.156ZM319.11 280.073a1.16 1.16 0 0 1-1.143-1.177 1.159 1.159 0 0 1 1.164-1.156 1.16 1.16 0 0 1 1.143 1.177 1.16 1.16 0 0 1-1.164 1.156ZM312.587 273.363a1.16 1.16 0 0 1-1.143-1.177 1.159 1.159 0 0 1 1.163-1.156 1.16 1.16 0 0 1 1.144 1.176 1.161 1.161 0 0 1-1.164 1.157ZM312.527 280.015a1.16 1.16 0 0 1-1.143-1.177 1.16 1.16 0 0 1 1.164-1.156 1.16 1.16 0 0 1 1.144 1.176 1.16 1.16 0 0 1-1.165 1.157ZM315.908 270.064a1.16 1.16 0 0 1-1.144-1.177 1.16 1.16 0 0 1 1.165-1.156 1.16 1.16 0 0 1 1.143 1.176 1.161 1.161 0 0 1-1.164 1.157ZM315.849 276.716a1.16 1.16 0 0 1-1.144-1.176 1.16 1.16 0 0 1 1.164-1.157 1.161 1.161 0 0 1 1.144 1.177 1.16 1.16 0 0 1-1.164 1.156ZM315.789 283.376a1.161 1.161 0 0 1-1.143-1.177 1.16 1.16 0 0 1 1.164-1.157 1.16 1.16 0 0 1 1.143 1.177 1.162 1.162 0 0 1-1.164 1.157ZM322.517 267.789c.637.006 1.15.533 1.144 1.177a1.16 1.16 0 0 1-1.164 1.157 1.162 1.162 0 0 1-1.144-1.178 1.16 1.16 0 0 1 1.164-1.156ZM322.458 274.442a1.16 1.16 0 0 1 1.144 1.177 1.162 1.162 0 0 1-1.165 1.156 1.161 1.161 0 0 1-1.143-1.177 1.16 1.16 0 0 1 1.164-1.156ZM322.378 283.434a1.16 1.16 0 0 1-1.143-1.177 1.16 1.16 0 0 1 1.164-1.156 1.162 1.162 0 0 1 1.144 1.177 1.161 1.161 0 0 1-1.165 1.156ZM312.646 266.699a1.16 1.16 0 0 1-1.143-1.177 1.161 1.161 0 0 1 1.164-1.157 1.161 1.161 0 0 1 1.144 1.177 1.162 1.162 0 0 1-1.165 1.157ZM319.229 266.754a1.157 1.157 0 0 1-1.143-1.172l-.001-.003a1.16 1.16 0 0 1 1.164-1.152 1.158 1.158 0 0 1 1.143 1.173v.001a1.159 1.159 0 0 1-1.163 1.153ZM318.992 293.39a1.16 1.16 0 0 1-1.144-1.177 1.16 1.16 0 0 1 1.164-1.156 1.161 1.161 0 0 1 1.144 1.177 1.16 1.16 0 0 1-1.164 1.156ZM315.73 290.033a1.16 1.16 0 0 1-1.144-1.177 1.16 1.16 0 0 1 1.165-1.156 1.16 1.16 0 0 1 1.143 1.177 1.16 1.16 0 0 1-1.164 1.156ZM322.319 290.092a1.16 1.16 0 0 1-1.143-1.177 1.16 1.16 0 0 1 1.164-1.157 1.16 1.16 0 0 1 1.143 1.177 1.16 1.16 0 0 1-1.164 1.157ZM322.26 296.744a1.16 1.16 0 0 1-1.143-1.177 1.158 1.158 0 0 1 1.164-1.156 1.16 1.16 0 0 1 1.143 1.177 1.16 1.16 0 0 1-1.164 1.156ZM306.156 264.252a1.162 1.162 0 0 1 1.144 1.177 1.162 1.162 0 0 1-1.164 1.157 1.16 1.16 0 0 1-1.144-1.177 1.162 1.162 0 0 1 1.164-1.157ZM292.905 273.126a1.161 1.161 0 0 1-1.144-1.177 1.16 1.16 0 0 1 1.165-1.156 1.159 1.159 0 0 1 1.143 1.176 1.16 1.16 0 0 1-1.164 1.157ZM292.846 279.778a1.16 1.16 0 0 1-1.144-1.176 1.16 1.16 0 0 1 1.165-1.157 1.16 1.16 0 0 1 1.143 1.177 1.16 1.16 0 0 1-1.164 1.156ZM302.749 276.542a1.16 1.16 0 0 1-1.144-1.177 1.16 1.16 0 0 1 1.165-1.156 1.16 1.16 0 0 1 1.143 1.177 1.16 1.16 0 0 1-1.164 1.156ZM302.69 283.194a1.16 1.16 0 0 1-1.144-1.177 1.16 1.16 0 0 1 1.164-1.156 1.16 1.16 0 0 1 1.144 1.177 1.16 1.16 0 0 1-1.164 1.156ZM296.166 276.483a1.16 1.16 0 0 1-1.143-1.177 1.16 1.16 0 0 1 1.164-1.156c.637.006 1.15.533 1.144 1.177a1.161 1.161 0 0 1-1.165 1.156ZM299.487 273.185a1.161 1.161 0 0 1-1.144-1.177 1.161 1.161 0 0 1 1.165-1.157 1.16 1.16 0 0 1 1.143 1.177 1.16 1.16 0 0 1-1.164 1.157ZM299.428 279.837a1.16 1.16 0 0 1-1.144-1.177 1.16 1.16 0 0 1 1.165-1.156 1.16 1.16 0 0 1 1.143 1.177 1.16 1.16 0 0 1-1.164 1.156ZM306.076 273.244a1.16 1.16 0 0 1-1.143-1.178 1.16 1.16 0 0 1 1.164-1.156 1.162 1.162 0 0 1 1.144 1.177 1.163 1.163 0 0 1-1.165 1.157ZM306.017 279.895a1.159 1.159 0 0 1-1.143-1.176 1.161 1.161 0 0 1 1.164-1.157 1.16 1.16 0 0 1 1.143 1.177 1.16 1.16 0 0 1-1.164 1.156ZM305.958 286.555a1.162 1.162 0 0 1-1.144-1.177 1.16 1.16 0 0 1 1.164-1.156 1.16 1.16 0 0 1 1.144 1.176 1.161 1.161 0 0 1-1.164 1.157ZM296.225 269.82a1.162 1.162 0 0 1-1.143-1.177 1.162 1.162 0 0 1 1.164-1.157 1.16 1.16 0 0 1 1.144 1.176 1.163 1.163 0 0 1-1.165 1.158ZM302.808 269.875a1.16 1.16 0 0 1-1.143-1.173v-.001a1.158 1.158 0 0 1 1.164-1.153 1.159 1.159 0 0 1 1.143 1.172v.003a1.16 1.16 0 0 1-1.164 1.152ZM410.041 274.554a1.16 1.16 0 0 1-1.143-1.177 1.16 1.16 0 0 1 1.164-1.156 1.158 1.158 0 0 1 1.143 1.176 1.16 1.16 0 0 1-1.164 1.157ZM416.623 274.609a1.158 1.158 0 0 1-1.143-1.172v-.003a1.158 1.158 0 0 1 1.164-1.151 1.158 1.158 0 0 1 1.143 1.172v.001a1.159 1.159 0 0 1-1.164 1.153ZM406.839 264.544a1.16 1.16 0 0 1-1.144-1.177 1.16 1.16 0 0 1 1.165-1.156 1.159 1.159 0 0 1 1.143 1.177 1.16 1.16 0 0 1-1.164 1.156ZM406.78 271.203a1.16 1.16 0 0 1-1.144-1.177 1.16 1.16 0 0 1 1.164-1.156 1.161 1.161 0 0 1 1.144 1.177 1.16 1.16 0 0 1-1.164 1.156ZM410.1 267.901a1.16 1.16 0 0 1-1.143-1.177 1.16 1.16 0 0 1 1.164-1.156 1.16 1.16 0 0 1 1.144 1.177 1.161 1.161 0 0 1-1.165 1.156ZM413.362 271.262a1.16 1.16 0 0 1-1.144-1.177 1.16 1.16 0 0 1 1.165-1.156 1.16 1.16 0 0 1 1.143 1.176 1.162 1.162 0 0 1-1.164 1.157ZM419.951 271.32a1.161 1.161 0 0 1-1.144-1.177 1.16 1.16 0 0 1 1.164-1.156 1.16 1.16 0 0 1 1.144 1.177 1.16 1.16 0 0 1-1.164 1.156ZM406.72 277.861a1.16 1.16 0 0 1-1.143-1.177 1.16 1.16 0 0 1 1.164-1.157 1.16 1.16 0 0 1 1.143 1.177 1.16 1.16 0 0 1-1.164 1.157ZM406.661 284.513a1.161 1.161 0 0 1-1.144-1.177 1.16 1.16 0 0 1 1.165-1.156 1.16 1.16 0 0 1 1.143 1.177 1.16 1.16 0 0 1-1.164 1.156ZM416.564 281.277a1.161 1.161 0 0 1-1.143-1.177 1.16 1.16 0 0 1 1.164-1.157 1.16 1.16 0 0 1 1.143 1.177 1.162 1.162 0 0 1-1.164 1.157ZM409.982 281.218a1.161 1.161 0 0 1-1.144-1.177 1.16 1.16 0 0 1 1.164-1.156 1.16 1.16 0 0 1 1.144 1.177 1.16 1.16 0 0 1-1.164 1.156ZM413.303 277.92a1.16 1.16 0 0 1-1.144-1.178 1.16 1.16 0 0 1 1.164-1.156c.637.006 1.15.533 1.144 1.177a1.162 1.162 0 0 1-1.164 1.157ZM413.243 284.571a1.159 1.159 0 0 1-1.143-1.176 1.16 1.16 0 0 1 1.164-1.157 1.161 1.161 0 0 1 1.144 1.177 1.161 1.161 0 0 1-1.165 1.156ZM419.891 277.978a1.16 1.16 0 0 1-1.143-1.177 1.16 1.16 0 0 1 1.164-1.156 1.16 1.16 0 0 1 1.144 1.176 1.161 1.161 0 0 1-1.165 1.157ZM393.798 257.706a1.16 1.16 0 0 1-1.143-1.177 1.161 1.161 0 0 1 1.164-1.157 1.161 1.161 0 0 1 1.144 1.176 1.163 1.163 0 0 1-1.165 1.158ZM390.537 254.355a1.161 1.161 0 0 1-1.144-1.177 1.161 1.161 0 0 1 1.164-1.157 1.161 1.161 0 0 1 1.144 1.177 1.162 1.162 0 0 1-1.164 1.157ZM393.62 277.675a1.161 1.161 0 0 1-1.143-1.177 1.161 1.161 0 0 1 1.164-1.157 1.161 1.161 0 0 1 1.144 1.176 1.162 1.162 0 0 1-1.165 1.158ZM400.203 277.73a1.158 1.158 0 0 1-1.143-1.173v-.001a1.159 1.159 0 0 1 1.164-1.153 1.159 1.159 0 0 1 1.143 1.173v.002a1.159 1.159 0 0 1-1.164 1.152ZM390.477 261.013a1.16 1.16 0 0 1-1.143-1.178 1.16 1.16 0 0 1 1.164-1.156 1.16 1.16 0 0 1 1.143 1.177 1.16 1.16 0 0 1-1.164 1.157ZM390.418 267.664a1.159 1.159 0 0 1-1.143-1.176 1.161 1.161 0 0 1 1.164-1.157 1.16 1.16 0 0 1 1.143 1.177 1.16 1.16 0 0 1-1.164 1.156ZM390.359 274.324a1.162 1.162 0 0 1-1.144-1.177 1.16 1.16 0 0 1 1.165-1.156 1.159 1.159 0 0 1 1.143 1.176 1.161 1.161 0 0 1-1.164 1.157ZM400.322 264.428a1.16 1.16 0 0 1-1.144-1.177 1.16 1.16 0 0 1 1.164-1.156 1.161 1.161 0 0 1 1.144 1.177 1.16 1.16 0 0 1-1.164 1.156ZM400.262 271.08a1.16 1.16 0 0 1-1.143-1.177 1.159 1.159 0 0 1 1.164-1.156 1.16 1.16 0 0 1 1.143 1.177 1.16 1.16 0 0 1-1.164 1.156ZM393.739 264.37a1.163 1.163 0 0 1-1.144-1.177 1.161 1.161 0 0 1 1.164-1.157 1.16 1.16 0 0 1 1.144 1.177 1.161 1.161 0 0 1-1.164 1.157ZM393.679 271.022a1.16 1.16 0 0 1-1.143-1.177 1.161 1.161 0 0 1 1.164-1.157 1.16 1.16 0 0 1 1.144 1.177 1.16 1.16 0 0 1-1.165 1.157ZM397.06 261.071a1.16 1.16 0 0 1-1.144-1.177 1.161 1.161 0 0 1 1.165-1.157 1.161 1.161 0 0 1 1.143 1.177 1.16 1.16 0 0 1-1.164 1.157ZM397.001 267.723a1.16 1.16 0 0 1-1.144-1.177 1.16 1.16 0 0 1 1.164-1.156 1.16 1.16 0 0 1 1.143 1.177 1.16 1.16 0 0 1-1.163 1.156ZM396.941 274.382a1.161 1.161 0 0 1-1.144-1.177 1.16 1.16 0 0 1 1.165-1.156 1.16 1.16 0 0 1 1.143 1.177 1.16 1.16 0 0 1-1.164 1.156ZM403.59 267.781a1.16 1.16 0 0 1-1.144-1.176 1.161 1.161 0 0 1 1.164-1.157 1.16 1.16 0 0 1 1.144 1.178 1.16 1.16 0 0 1-1.164 1.155ZM403.53 274.441a1.16 1.16 0 0 1-1.143-1.177 1.16 1.16 0 0 1 1.164-1.156 1.16 1.16 0 0 1 1.144 1.177 1.161 1.161 0 0 1-1.165 1.156ZM390.3 280.982a1.16 1.16 0 0 1-1.144-1.178 1.16 1.16 0 0 1 1.165-1.156 1.16 1.16 0 0 1 1.143 1.177 1.162 1.162 0 0 1-1.164 1.157ZM390.241 287.633a1.16 1.16 0 0 1-1.144-1.176 1.161 1.161 0 0 1 1.164-1.157 1.16 1.16 0 0 1 1.144 1.177 1.16 1.16 0 0 1-1.164 1.156ZM390.181 294.293a1.16 1.16 0 0 1-1.143-1.177 1.159 1.159 0 0 1 1.164-1.156 1.159 1.159 0 0 1 1.143 1.176 1.16 1.16 0 0 1-1.164 1.157ZM400.144 284.397A1.16 1.16 0 0 1 399 283.22a1.16 1.16 0 0 1 1.164-1.156 1.162 1.162 0 0 1 1.144 1.177 1.16 1.16 0 0 1-1.164 1.156ZM400.084 291.049a1.16 1.16 0 0 1-1.143-1.177 1.16 1.16 0 0 1 1.164-1.156 1.16 1.16 0 0 1 1.143 1.177 1.159 1.159 0 0 1-1.164 1.156ZM393.561 284.339a1.16 1.16 0 0 1-1.143-1.177 1.16 1.16 0 0 1 1.164-1.157 1.162 1.162 0 0 1 1.144 1.177 1.163 1.163 0 0 1-1.165 1.157ZM393.502 290.991a1.16 1.16 0 0 1-1.143-1.177 1.16 1.16 0 0 1 1.164-1.157 1.162 1.162 0 0 1 1.144 1.177 1.162 1.162 0 0 1-1.165 1.157ZM396.882 281.04a1.16 1.16 0 0 1-1.144-1.177 1.16 1.16 0 0 1 1.165-1.156 1.159 1.159 0 0 1 1.143 1.176 1.16 1.16 0 0 1-1.164 1.157ZM396.823 287.692a1.16 1.16 0 0 1-1.144-1.177 1.16 1.16 0 0 1 1.165-1.156 1.16 1.16 0 0 1 1.143 1.177 1.16 1.16 0 0 1-1.164 1.156ZM403.471 281.099a1.16 1.16 0 0 1-1.143-1.178 1.16 1.16 0 0 1 1.164-1.156 1.162 1.162 0 0 1 1.144 1.177 1.162 1.162 0 0 1-1.165 1.157ZM403.412 287.751a1.16 1.16 0 0 1-1.143-1.177 1.158 1.158 0 0 1 1.164-1.156 1.159 1.159 0 0 1 1.143 1.177 1.16 1.16 0 0 1-1.164 1.156ZM377.663 253.917a1.16 1.16 0 0 1-1.143-1.177 1.16 1.16 0 0 1 1.163-1.156 1.16 1.16 0 0 1 1.144 1.176 1.16 1.16 0 0 1-1.164 1.157ZM384.245 253.972a1.158 1.158 0 0 1-1.143-1.172v-.001a1.159 1.159 0 0 1 1.164-1.153 1.157 1.157 0 0 1 1.143 1.172l.001.002a1.16 1.16 0 0 1-1.165 1.152ZM374.461 243.907a1.16 1.16 0 0 1-1.144-1.177 1.16 1.16 0 0 1 1.164-1.156 1.16 1.16 0 0 1 1.144 1.177 1.16 1.16 0 0 1-1.164 1.156ZM374.401 250.566a1.16 1.16 0 0 1-1.143-1.177 1.16 1.16 0 0 1 1.164-1.156 1.16 1.16 0 0 1 1.143 1.177 1.16 1.16 0 0 1-1.164 1.156ZM377.722 247.264a1.16 1.16 0 0 1-1.143-1.177 1.16 1.16 0 0 1 1.164-1.156 1.16 1.16 0 0 1 1.143 1.177 1.16 1.16 0 0 1-1.164 1.156ZM380.984 250.625a1.16 1.16 0 0 1-1.144-1.177 1.16 1.16 0 0 1 1.164-1.156 1.16 1.16 0 0 1 1.144 1.176 1.161 1.161 0 0 1-1.164 1.157ZM387.594 248.35a1.161 1.161 0 0 1 1.143 1.177 1.16 1.16 0 0 1-1.164 1.156 1.16 1.16 0 0 1-1.143-1.177 1.16 1.16 0 0 1 1.164-1.156ZM377.485 273.886a1.16 1.16 0 0 1-1.143-1.177 1.16 1.16 0 0 1 1.164-1.156 1.16 1.16 0 0 1 1.144 1.176 1.162 1.162 0 0 1-1.165 1.157ZM384.068 273.941a1.157 1.157 0 0 1-1.143-1.172l-.001-.001a1.16 1.16 0 0 1 1.165-1.153 1.157 1.157 0 0 1 1.142 1.172l.001.003a1.158 1.158 0 0 1-1.164 1.151ZM374.342 257.224a1.16 1.16 0 0 1-1.143-1.177 1.16 1.16 0 0 1 1.164-1.157 1.16 1.16 0 0 1 1.143 1.177 1.16 1.16 0 0 1-1.164 1.157ZM374.283 263.876a1.162 1.162 0 0 1-1.144-1.177 1.16 1.16 0 0 1 1.165-1.156 1.16 1.16 0 0 1 1.143 1.177 1.16 1.16 0 0 1-1.164 1.156ZM374.224 270.535a1.16 1.16 0 0 1-1.144-1.177 1.16 1.16 0 0 1 1.164-1.156 1.161 1.161 0 0 1 1.144 1.177 1.16 1.16 0 0 1-1.164 1.156ZM384.186 260.64a1.162 1.162 0 0 1-1.144-1.177 1.161 1.161 0 0 1 1.165-1.157 1.16 1.16 0 0 1 1.143 1.177 1.162 1.162 0 0 1-1.164 1.157ZM384.127 267.292a1.161 1.161 0 0 1-1.144-1.177 1.161 1.161 0 0 1 1.165-1.157 1.16 1.16 0 0 1 1.143 1.177 1.161 1.161 0 0 1-1.164 1.157ZM377.603 260.581a1.16 1.16 0 0 1-1.143-1.177 1.16 1.16 0 0 1 1.164-1.156 1.16 1.16 0 0 1 1.144 1.177 1.16 1.16 0 0 1-1.165 1.156ZM377.544 267.233a1.16 1.16 0 0 1-1.143-1.177 1.16 1.16 0 0 1 1.164-1.156 1.161 1.161 0 0 1 1.144 1.177 1.16 1.16 0 0 1-1.165 1.156ZM380.924 257.283a1.16 1.16 0 0 1-1.143-1.178 1.159 1.159 0 0 1 1.164-1.156 1.16 1.16 0 0 1 1.143 1.177 1.161 1.161 0 0 1-1.164 1.157ZM380.865 263.934a1.16 1.16 0 0 1-1.144-1.176 1.161 1.161 0 0 1 1.165-1.157 1.16 1.16 0 0 1 1.143 1.177 1.16 1.16 0 0 1-1.164 1.156ZM380.806 270.594a1.16 1.16 0 0 1-1.144-1.177 1.16 1.16 0 0 1 1.165-1.156 1.159 1.159 0 0 1 1.143 1.176 1.161 1.161 0 0 1-1.164 1.157ZM387.514 257.341a1.16 1.16 0 0 1-1.144-1.177 1.16 1.16 0 0 1 1.164-1.156 1.16 1.16 0 0 1 1.144 1.176 1.161 1.161 0 0 1-1.164 1.157ZM387.454 263.993a1.16 1.16 0 0 1-1.143-1.177 1.16 1.16 0 0 1 1.164-1.156 1.161 1.161 0 0 1 1.144 1.177 1.161 1.161 0 0 1-1.165 1.156ZM387.395 270.653a1.161 1.161 0 0 1-1.143-1.177 1.161 1.161 0 0 1 1.164-1.157 1.161 1.161 0 0 1 1.143 1.177 1.161 1.161 0 0 1-1.164 1.157ZM377.307 293.856a1.161 1.161 0 0 1-1.143-1.178 1.16 1.16 0 0 1 1.164-1.156 1.16 1.16 0 0 1 1.144 1.176 1.163 1.163 0 0 1-1.165 1.158ZM383.89 293.911a1.158 1.158 0 0 1-1.143-1.173l-.001-.002a1.159 1.159 0 0 1 1.165-1.152 1.159 1.159 0 0 1 1.143 1.172v.003a1.16 1.16 0 0 1-1.164 1.152ZM374.165 277.193a1.16 1.16 0 0 1-1.144-1.177 1.162 1.162 0 0 1 1.164-1.157 1.162 1.162 0 0 1 1.144 1.177 1.16 1.16 0 0 1-1.164 1.157ZM374.105 283.845a1.16 1.16 0 0 1-1.143-1.177 1.159 1.159 0 0 1 1.164-1.156 1.16 1.16 0 0 1 1.143 1.177 1.16 1.16 0 0 1-1.164 1.156ZM374.046 290.505a1.162 1.162 0 0 1-1.144-1.178 1.161 1.161 0 0 1 1.165-1.156 1.16 1.16 0 0 1 1.143 1.177 1.162 1.162 0 0 1-1.164 1.157ZM384.008 280.609a1.16 1.16 0 0 1-1.143-1.177 1.159 1.159 0 0 1 1.164-1.156 1.159 1.159 0 0 1 1.143 1.176 1.162 1.162 0 0 1-1.164 1.157ZM383.949 287.261a1.162 1.162 0 0 1-1.144-1.177 1.16 1.16 0 0 1 1.165-1.156 1.159 1.159 0 0 1 1.143 1.176 1.16 1.16 0 0 1-1.164 1.157ZM377.426 280.55a1.16 1.16 0 0 1-1.144-1.177 1.16 1.16 0 0 1 1.164-1.156c.638.006 1.15.532 1.145 1.177a1.161 1.161 0 0 1-1.165 1.156ZM377.366 287.202a1.16 1.16 0 0 1-1.143-1.177 1.16 1.16 0 0 1 1.164-1.156 1.16 1.16 0 0 1 1.144 1.177 1.16 1.16 0 0 1-1.165 1.156ZM380.747 277.252a1.16 1.16 0 0 1-1.144-1.178 1.16 1.16 0 0 1 1.165-1.156 1.162 1.162 0 0 1 1.143 1.177 1.162 1.162 0 0 1-1.164 1.157ZM380.688 283.903a1.16 1.16 0 0 1-1.145-1.176 1.161 1.161 0 0 1 1.165-1.157 1.162 1.162 0 0 1 1.144 1.178 1.16 1.16 0 0 1-1.164 1.155ZM380.628 290.563a1.161 1.161 0 0 1-1.144-1.177 1.16 1.16 0 0 1 1.165-1.156 1.16 1.16 0 0 1 1.143 1.177 1.16 1.16 0 0 1-1.164 1.156ZM387.336 277.31a1.161 1.161 0 0 1-1.144-1.177 1.16 1.16 0 0 1 1.164-1.156 1.16 1.16 0 0 1 1.144 1.176 1.16 1.16 0 0 1-1.164 1.157ZM387.276 283.962a1.16 1.16 0 0 1-1.143-1.176 1.16 1.16 0 0 1 1.164-1.157 1.16 1.16 0 0 1 1.144 1.177 1.161 1.161 0 0 1-1.165 1.156ZM387.217 290.622a1.16 1.16 0 0 1-1.143-1.177 1.161 1.161 0 0 1 1.164-1.157 1.162 1.162 0 0 1 1.144 1.177 1.163 1.163 0 0 1-1.165 1.157ZM373.987 297.162a1.16 1.16 0 0 1-1.144-1.177 1.16 1.16 0 0 1 1.165-1.156 1.16 1.16 0 0 1 1.143 1.176 1.16 1.16 0 0 1-1.164 1.157ZM373.927 303.814a1.16 1.16 0 0 1-1.143-1.176 1.16 1.16 0 0 1 1.164-1.157 1.16 1.16 0 0 1 1.143 1.177 1.159 1.159 0 0 1-1.164 1.156ZM383.831 300.578a1.16 1.16 0 0 1-1.144-1.177 1.16 1.16 0 0 1 1.164-1.156 1.159 1.159 0 0 1 1.143 1.176 1.16 1.16 0 0 1-1.163 1.157ZM377.248 300.519a1.16 1.16 0 0 1-1.143-1.177 1.16 1.16 0 0 1 1.164-1.156 1.162 1.162 0 0 1 1.144 1.177 1.161 1.161 0 0 1-1.165 1.156ZM380.569 297.221a1.16 1.16 0 0 1-1.144-1.178 1.161 1.161 0 0 1 1.165-1.156 1.161 1.161 0 0 1 1.143 1.177 1.161 1.161 0 0 1-1.164 1.157ZM387.158 297.28a1.16 1.16 0 0 1-1.143-1.178 1.16 1.16 0 0 1 1.164-1.156 1.16 1.16 0 0 1 1.143 1.177 1.161 1.161 0 0 1-1.164 1.157ZM361.242 257.038a1.16 1.16 0 0 1-1.143-1.177 1.161 1.161 0 0 1 1.164-1.157 1.161 1.161 0 0 1 1.144 1.176 1.162 1.162 0 0 1-1.165 1.158ZM367.825 257.093a1.158 1.158 0 0 1-1.143-1.173l-.001-.002a1.16 1.16 0 0 1 1.164-1.152 1.158 1.158 0 0 1 1.143 1.173l.001.001a1.16 1.16 0 0 1-1.164 1.153ZM358.1 240.376a1.16 1.16 0 0 1-1.144-1.178 1.16 1.16 0 0 1 1.164-1.156 1.161 1.161 0 0 1 1.144 1.177 1.162 1.162 0 0 1-1.164 1.157ZM358.04 247.027a1.16 1.16 0 0 1-1.144-1.176 1.162 1.162 0 0 1 1.165-1.157 1.16 1.16 0 0 1 1.143 1.177 1.16 1.16 0 0 1-1.164 1.156ZM357.981 253.687a1.161 1.161 0 0 1-1.144-1.177 1.16 1.16 0 0 1 1.165-1.156 1.159 1.159 0 0 1 1.143 1.176 1.161 1.161 0 0 1-1.164 1.157ZM367.943 243.791a1.16 1.16 0 0 1-1.143-1.177 1.159 1.159 0 0 1 1.164-1.156 1.16 1.16 0 0 1 1.143 1.177 1.16 1.16 0 0 1-1.164 1.156ZM367.884 250.443a1.16 1.16 0 0 1-1.144-1.177 1.16 1.16 0 0 1 1.165-1.156 1.16 1.16 0 0 1 1.143 1.177 1.16 1.16 0 0 1-1.164 1.156ZM361.361 243.733a1.162 1.162 0 0 1-1.144-1.177 1.161 1.161 0 0 1 1.164-1.157 1.16 1.16 0 0 1 1.144 1.177 1.161 1.161 0 0 1-1.164 1.157ZM361.302 250.385a1.16 1.16 0 0 1-1.144-1.177 1.161 1.161 0 0 1 1.164-1.157c.637.006 1.15.533 1.144 1.177a1.161 1.161 0 0 1-1.164 1.157ZM364.682 240.434a1.16 1.16 0 0 1-1.144-1.177 1.161 1.161 0 0 1 1.165-1.157 1.162 1.162 0 0 1 1.143 1.177 1.161 1.161 0 0 1-1.164 1.157ZM364.623 247.086a1.16 1.16 0 0 1-1.144-1.177 1.158 1.158 0 0 1 1.164-1.156 1.16 1.16 0 0 1 1.144 1.177 1.161 1.161 0 0 1-1.164 1.156ZM364.563 253.745a1.16 1.16 0 0 1-1.144-1.177 1.16 1.16 0 0 1 1.165-1.156 1.16 1.16 0 0 1 1.143 1.177 1.16 1.16 0 0 1-1.164 1.156ZM371.211 247.144a1.159 1.159 0 0 1-1.143-1.176 1.161 1.161 0 0 1 1.164-1.157 1.16 1.16 0 0 1 1.144 1.178 1.16 1.16 0 0 1-1.165 1.155ZM371.152 253.804a1.16 1.16 0 0 1-1.143-1.177 1.16 1.16 0 0 1 1.164-1.156 1.16 1.16 0 0 1 1.144 1.177 1.162 1.162 0 0 1-1.165 1.156ZM361.064 277.007a1.16 1.16 0 0 1-1.142-1.177 1.16 1.16 0 0 1 1.163-1.157 1.161 1.161 0 0 1 1.144 1.177 1.162 1.162 0 0 1-1.165 1.157ZM367.647 277.062a1.159 1.159 0 0 1-1.143-1.172v-.003a1.159 1.159 0 0 1 1.164-1.152 1.159 1.159 0 0 1 1.143 1.173v.002a1.158 1.158 0 0 1-1.164 1.152ZM357.922 260.345a1.16 1.16 0 0 1-1.144-1.178 1.16 1.16 0 0 1 1.164-1.156c.637.006 1.15.533 1.144 1.177a1.162 1.162 0 0 1-1.164 1.157ZM357.862 266.996a1.159 1.159 0 0 1-1.143-1.176 1.16 1.16 0 0 1 1.164-1.157 1.16 1.16 0 0 1 1.143 1.177 1.16 1.16 0 0 1-1.164 1.156ZM357.803 273.656a1.16 1.16 0 0 1-1.143-1.177 1.16 1.16 0 0 1 1.164-1.156 1.159 1.159 0 0 1 1.143 1.176 1.161 1.161 0 0 1-1.164 1.157ZM367.765 263.76a1.16 1.16 0 0 1-1.143-1.177 1.16 1.16 0 0 1 1.164-1.156 1.16 1.16 0 0 1 1.143 1.177 1.159 1.159 0 0 1-1.164 1.156ZM367.706 270.412a1.16 1.16 0 0 1-1.143-1.177 1.16 1.16 0 0 1 1.164-1.156 1.16 1.16 0 0 1 1.143 1.177 1.16 1.16 0 0 1-1.164 1.156ZM361.183 263.702a1.16 1.16 0 0 1-1.143-1.177 1.16 1.16 0 0 1 1.164-1.156 1.16 1.16 0 0 1 1.144 1.176 1.163 1.163 0 0 1-1.165 1.157ZM361.124 270.354a1.162 1.162 0 0 1-1.144-1.177 1.16 1.16 0 0 1 1.164-1.156 1.16 1.16 0 0 1 1.144 1.176 1.161 1.161 0 0 1-1.164 1.157ZM364.504 260.403a1.16 1.16 0 0 1-1.144-1.177 1.16 1.16 0 0 1 1.165-1.156 1.16 1.16 0 0 1 1.143 1.176 1.16 1.16 0 0 1-1.164 1.157ZM364.445 267.055a1.16 1.16 0 0 1-1.144-1.177 1.16 1.16 0 0 1 1.165-1.156 1.16 1.16 0 0 1 1.143 1.177 1.16 1.16 0 0 1-1.164 1.156ZM364.385 273.715a1.161 1.161 0 0 1-1.143-1.178 1.16 1.16 0 0 1 1.164-1.156 1.162 1.162 0 0 1 1.144 1.177 1.163 1.163 0 0 1-1.165 1.157ZM371.093 260.462a1.16 1.16 0 0 1-1.143-1.178 1.16 1.16 0 0 1 1.164-1.156 1.16 1.16 0 0 1 1.143 1.177 1.16 1.16 0 0 1-1.164 1.157ZM371.034 267.114a1.162 1.162 0 0 1-1.144-1.177 1.16 1.16 0 0 1 1.165-1.156 1.16 1.16 0 0 1 1.143 1.177 1.161 1.161 0 0 1-1.164 1.156ZM370.975 273.773a1.16 1.16 0 0 1-1.144-1.177 1.16 1.16 0 0 1 1.164-1.156 1.16 1.16 0 0 1 1.144 1.177 1.16 1.16 0 0 1-1.164 1.156ZM360.887 296.976a1.16 1.16 0 0 1-1.143-1.177 1.16 1.16 0 0 1 1.163-1.156 1.16 1.16 0 0 1 1.144 1.176 1.16 1.16 0 0 1-1.164 1.157ZM367.47 297.031a1.158 1.158 0 0 1-1.144-1.172v-.002a1.159 1.159 0 0 1 1.164-1.152 1.158 1.158 0 0 1 1.143 1.172v.001a1.159 1.159 0 0 1-1.163 1.153ZM357.744 280.314a1.162 1.162 0 0 1-1.144-1.178 1.16 1.16 0 0 1 1.165-1.156 1.16 1.16 0 0 1 1.143 1.177 1.162 1.162 0 0 1-1.164 1.157ZM357.685 286.965a1.16 1.16 0 0 1-1.144-1.176 1.16 1.16 0 0 1 1.164-1.156 1.16 1.16 0 0 1 1.144 1.177 1.16 1.16 0 0 1-1.164 1.155ZM357.625 293.625a1.16 1.16 0 0 1-1.143-1.177 1.16 1.16 0 0 1 1.164-1.156 1.16 1.16 0 0 1 1.144 1.177 1.16 1.16 0 0 1-1.165 1.156ZM367.588 283.729a1.16 1.16 0 0 1-1.144-1.177 1.161 1.161 0 0 1 1.165-1.156 1.16 1.16 0 0 1 1.143 1.177 1.16 1.16 0 0 1-1.164 1.156ZM367.529 290.382a1.16 1.16 0 0 1-1.144-1.178 1.161 1.161 0 0 1 1.165-1.156 1.161 1.161 0 0 1 1.143 1.177 1.162 1.162 0 0 1-1.164 1.157ZM361.005 283.671a1.16 1.16 0 0 1-1.143-1.177 1.16 1.16 0 0 1 1.164-1.156 1.16 1.16 0 0 1 1.144 1.176 1.161 1.161 0 0 1-1.165 1.157ZM360.946 290.323a1.16 1.16 0 0 1-1.143-1.177 1.16 1.16 0 0 1 1.164-1.156 1.16 1.16 0 0 1 1.144 1.176 1.161 1.161 0 0 1-1.165 1.157ZM364.326 280.372a1.161 1.161 0 0 1-1.144-1.177 1.16 1.16 0 0 1 1.165-1.156 1.16 1.16 0 0 1 1.143 1.177 1.16 1.16 0 0 1-1.164 1.156ZM364.267 287.024a1.16 1.16 0 0 1-1.144-1.176 1.16 1.16 0 0 1 1.165-1.157 1.16 1.16 0 0 1 1.143 1.177 1.16 1.16 0 0 1-1.164 1.156ZM364.208 293.684a1.16 1.16 0 0 1-1.144-1.177 1.161 1.161 0 0 1 1.164-1.157 1.162 1.162 0 0 1 1.144 1.177 1.162 1.162 0 0 1-1.164 1.157ZM370.915 280.431a1.16 1.16 0 0 1-1.143-1.177 1.161 1.161 0 0 1 1.164-1.157 1.16 1.16 0 0 1 1.143 1.177 1.16 1.16 0 0 1-1.164 1.157ZM370.856 287.083a1.16 1.16 0 0 1-1.143-1.177 1.16 1.16 0 0 1 1.164-1.156 1.16 1.16 0 0 1 1.143 1.177 1.16 1.16 0 0 1-1.164 1.156ZM370.797 293.742a1.16 1.16 0 0 1-1.143-1.177 1.16 1.16 0 0 1 1.164-1.156 1.161 1.161 0 0 1 1.143 1.177 1.16 1.16 0 0 1-1.164 1.156ZM357.566 300.283a1.16 1.16 0 0 1-1.143-1.178 1.16 1.16 0 0 1 1.164-1.156 1.16 1.16 0 0 1 1.143 1.177 1.16 1.16 0 0 1-1.164 1.157ZM357.507 306.935a1.161 1.161 0 0 1-1.144-1.177 1.16 1.16 0 0 1 1.165-1.156 1.159 1.159 0 0 1 1.143 1.177 1.16 1.16 0 0 1-1.164 1.156ZM357.448 313.594a1.16 1.16 0 0 1-1.144-1.177 1.16 1.16 0 0 1 1.165-1.156 1.16 1.16 0 0 1 1.143 1.177 1.16 1.16 0 0 1-1.164 1.156ZM367.41 303.699a1.163 1.163 0 0 1-1.144-1.177 1.161 1.161 0 0 1 1.165-1.157 1.16 1.16 0 0 1 1.143 1.177 1.162 1.162 0 0 1-1.164 1.157ZM367.351 310.351a1.161 1.161 0 0 1-1.144-1.177 1.161 1.161 0 0 1 1.165-1.157 1.16 1.16 0 0 1 1.143 1.177 1.161 1.161 0 0 1-1.164 1.157ZM360.827 303.64a1.161 1.161 0 0 1-1.143-1.177 1.16 1.16 0 0 1 1.164-1.156 1.16 1.16 0 0 1 1.144 1.177 1.161 1.161 0 0 1-1.165 1.156ZM360.768 310.292a1.16 1.16 0 0 1-1.143-1.177 1.16 1.16 0 0 1 1.164-1.156 1.16 1.16 0 0 1 1.144 1.176 1.161 1.161 0 0 1-1.165 1.157ZM364.148 300.342a1.16 1.16 0 0 1-1.143-1.178 1.159 1.159 0 0 1 1.164-1.156 1.161 1.161 0 0 1 1.144 1.177 1.163 1.163 0 0 1-1.165 1.157ZM364.089 306.993a1.16 1.16 0 0 1-1.144-1.176 1.16 1.16 0 0 1 1.165-1.157 1.16 1.16 0 0 1 1.143 1.177 1.16 1.16 0 0 1-1.164 1.156ZM370.737 300.4a1.16 1.16 0 0 1-1.143-1.177 1.162 1.162 0 0 1 1.164-1.157c.637.006 1.15.533 1.144 1.177a1.161 1.161 0 0 1-1.165 1.157ZM370.678 307.052a1.16 1.16 0 0 1-1.143-1.177 1.16 1.16 0 0 1 1.164-1.156 1.16 1.16 0 0 1 1.144 1.177 1.162 1.162 0 0 1-1.165 1.156ZM295.181 281.325c.21-.311.547-.526.947-.523a1.16 1.16 0 0 1 1.033 1.654l-1.98-1.131ZM309.863 289.709l-1.831-1.045c.074-.578.546-1.028 1.137-1.023a1.162 1.162 0 0 1 1.143 1.177c-.004.367-.185.68-.449.891ZM337.282 305.588c.173-.43.587-.734 1.075-.729a1.16 1.16 0 0 1 1.143 1.176c-.002.28-.115.526-.28.725l-1.938-1.172ZM350.277 312.607c.119-.522.562-.918 1.113-.913a1.158 1.158 0 0 1 1.139 1.153l-2.252-.24ZM363.023 313.008a1.155 1.155 0 0 1-.137-.532 1.16 1.16 0 0 1 1.165-1.156c.427.003.784.253.98.604l-2.008 1.084ZM376.091 305.776c.109-.535.558-.943 1.118-.938.129.001.247.037.363.077l-1.481.861ZM379.819 303.608a1.147 1.147 0 0 1-.453-.912 1.161 1.161 0 0 1 1.165-1.157c.578.006 1.032.447 1.111 1.01l-1.823 1.059ZM392.327 296.337c.071-.58.545-1.032 1.136-1.026.163.001.316.038.456.1l-1.592.926ZM396.129 294.126a1.15 1.15 0 0 1-.509-.952 1.16 1.16 0 0 1 1.164-1.156c.601.006 1.076.48 1.124 1.074l-1.779 1.034ZM408.793 286.764c-.002-.024-.014-.046-.014-.071a1.16 1.16 0 0 1 1.164-1.156c.229.002.429.088.607.206l-1.757 1.021Z"/><path fill="#000" stroke="#000" stroke-linejoin="round" stroke-miterlimit="10" d="m291.993 196.221-.022-7.707 6.708-3.873-.022-7.708 6.707-4.04-.013-4.621-2.055 3.562-4.66-2.608-.023-7.715 6.708-3.872 4.661 2.608-2.101 3.641 4.176-2.411 4.66 2.608-4.286 4.728 9.405-5.43 9.636-5.563-.021-7.54 6.532-3.772.175-.297-.021-7.518 6.707-3.873 4.661 2.608-6.686 11.588-3.594 4.496 5.663-3.27 4.66 2.608-2.116 3.643 4.186-2.416 4.66 2.608-2.181 3.681 4.25-2.454 4.661 2.608-4.016 7.093-.618-.432.036 12.976-.09.052.09 1.833-2.047 4.596-4.66-2.608-.043-15.161-6.708 3.873.042 15.161-1.023.591 2.191-.329-3.214 6.219-1.447 3.135h-3.198l.006 1.964-4.621 2.668 1.696 2.283-5.992 5.861-4.66-2.624.014-2.884-.014-5.186 13.555-7.826-.02-7.279-16.472 9.51-16.344 9.436.018 6.43.862.353 12.702-7.334 4.661 2.609-13.54 15.537-4.661-2.608-.013-4.615-2.055 3.388-4.661-2.608-.043-15.161-6.708 3.873.043 15.16-.407.235v3.638l-1.64 2.609-4.661-2.609-.062-22.245 6.707-3.873Zm39.524-22.651 6.708-3.872-.023-8.043-6.708 3.872.023 8.043Zm-19.395 11.198-.022-8.043-6.714 3.876.023 8.043 6.713-3.876Z"/><path fill="#DD734F" d="m329.392 202.21.022 7.708 13.555-7.827-.022-7.707-13.555 7.826Z"/><path fill="#DD734F" d="m296.653 198.83-6.708 3.873.063 22.245 6.708-3.873-.043-15.161 6.708-3.872.043 15.16 6.708-3.872-.021-7.279 32.816-18.946.02 7.279 6.708-3.873-.043-15.161 6.707-3.872.043 15.16 6.708-3.872-.063-22.246-6.708 3.873-.021-7.707-6.708 3.872-.022-7.707-6.708 3.872-.022-7.708-6.707 3.873.021 7.54-19.394 11.198-.022-7.54-6.713 3.876.021 7.54-6.707 4.04.022 7.708-6.708 3.872.022 7.708Zm13.416-7.578-.023-8.043 6.714-3.876.023 8.043-6.714 3.876Zm26.108-15.073-.023-8.043 6.708-3.873.022 8.043-6.707 3.873ZM342.796 141.301l.022 7.714 6.708-3.872-.022-7.714-6.708 3.872ZM303.273 164.12l.022 7.714 6.708-3.872-.022-7.715-6.708 3.873Z"/><path fill="#DD734F" d="m310.132 213.33.021 7.707 13.562-7.829-.022-7.708-13.561 7.83Z"/><path stroke="#000" stroke-miterlimit="10" d="m342.947 194.384.022 7.707-13.555 7.827-.022-7.708 13.555-7.826Zm0 0-.02-7.279-32.816 18.946.021 7.279m32.815-18.946 6.708-3.873-.043-15.161 6.707-3.872.043 15.16 6.708-3.872-.063-22.246-6.708 3.873-.021-7.707-6.708 3.872-.022-7.707-6.708 3.872-.022-7.708m-32.686 64.315-6.708 3.872-.043-15.16-6.708 3.872.043 15.161-6.708 3.873-.063-22.245 6.708-3.873-.022-7.708 6.708-3.872-.022-7.708 6.707-4.04-.021-7.54m.129 45.368.021 7.707 13.562-7.829-.022-7.708-13.561 7.83Zm32.686-64.315-6.707 3.873.021 7.54-19.394 11.198-.022-7.54-6.713 3.876m32.815-18.947-.022-7.714 6.708-3.872.022 7.714-6.708 3.872Zm-32.815 18.947-6.708 3.872-.022-7.714 6.708-3.873.022 7.715Zm.066 23.29-.023-8.043 6.714-3.876.023 8.043-6.714 3.876Zm26.108-15.073-.023-8.043 6.708-3.873.022 8.043-6.707 3.873Z"/><path fill="#000" d="M540.487 423.743h19.168l45.566-23.505c3.715-2.145 9.725-2.15 13.416-.006l45.278 23.511h19.005v16.135c-.011 1.406-.947 2.812-2.804 3.884l-61.935 35.758c-3.715 2.145-9.715 2.145-13.406 0l-61.533-35.759c-1.845-1.072-2.763-2.478-2.755-3.883v-16.135Z"/><path fill="#308BAF" stroke="#000" stroke-miterlimit="10" d="M543.286 419.861c-3.715 2.145-3.734 5.621-.043 7.766l61.532 35.758c3.691 2.145 9.691 2.145 13.406 0l61.935-35.758c3.715-2.145 3.744-5.626.053-7.771l-61.532-35.758c-3.691-2.145-9.701-2.14-13.416.005l-61.935 35.758Z"/><path stroke="#308BAF" stroke-miterlimit="10" d="M540.498 431.347c-.122 1.485.792 2.992 2.745 4.126l61.532 35.759c3.691 2.145 9.691 2.145 13.406 0l61.935-35.758c1.964-1.134 2.897-2.64 2.797-4.126"/><path fill="url(#e)" stroke="#000" stroke-miterlimit="10" d="M572.535 424.325c-.028-.5-.027-1.001 0-1.502V406.75l4.574.052c1.796-1.953 4.116 2.263 6.965.619 15.358-8.867 40.175-8.862 55.424 0 3.21 1.866 5.734-2.074 7.588.177l3.768.043v14.763c.048.633.044 1.266 0 1.899v.086h-.003c-.41 5.502-4.249 10.94-11.525 15.141-15.358 8.867-40.175 8.862-55.433-.006-7.224-4.198-11.004-9.634-11.355-15.135h-.003v-.064Z"/><path fill="#fff" stroke="#000" stroke-miterlimit="10" d="M584.073 391.141c-15.358 8.867-15.43 23.242-.181 32.104 15.259 8.867 40.075 8.872 55.433.005 15.358-8.867 15.431-23.242.173-32.109-15.25-8.862-40.067-8.867-55.425 0Z"/><path fill="url(#f)" stroke="#000" stroke-miterlimit="10" d="M597.461 398.922c-7.914 4.569-7.952 11.977-.093 16.544 7.864 4.57 20.653 4.573 28.567.003 7.915-4.57 7.952-11.978.089-16.547-7.859-4.567-20.648-4.57-28.563 0Z"/><path stroke="#000" stroke-miterlimit="10" d="M590.896 395.105c-11.566 6.678-11.62 17.503-.136 24.176 11.49 6.678 30.178 6.682 41.744.004 11.565-6.677 11.62-17.502.13-24.18-11.484-6.673-30.173-6.677-41.738 0Z"/><path fill="#000" d="M626.025 401.271c-7.859-4.567-20.649-4.57-28.563 0-3.451 1.992-5.402 4.524-5.857 7.124-.58-3.38 1.37-6.883 5.857-9.473 7.914-4.57 20.704-4.567 28.563 0 4.435 2.577 6.354 6.058 5.766 9.423-.443-2.583-2.361-5.095-5.766-7.074Z"/><path fill="#308BAF" stroke="#000" stroke-miterlimit="10" d="M595.924 409.262c0-8.715 7.064-15.779 15.779-15.779s15.779 7.064 15.779 15.779l-.008.003c-.014 2.338-1.566 4.675-4.656 6.459-6.181 3.569-16.17 3.567-22.311-.002-3.068-1.783-4.596-4.121-4.583-6.46Z"/><path fill="url(#g)" stroke="#000" stroke-miterlimit="10" d="M616.631 378.232v19.08c-.004.731-.49 1.462-1.456 2.02-1.932 1.116-5.055 1.115-6.975-.001-.959-.558-1.437-1.288-1.433-2.019v-19.08h9.864Z"/><path fill="#DD734F" stroke="#000" stroke-miterlimit="10" d="M611.7 380.949c-9.855 0-17.844-7.989-17.844-17.844 0-9.854 7.989-17.843 17.844-17.843 9.854 0 17.843 7.989 17.843 17.843 0 9.855-7.989 17.844-17.843 17.844Z"/><path stroke="#000" stroke-miterlimit="10" d="M682.92 423.743v16.695c-.011 1.406-.947 2.812-2.804 3.884l-61.935 35.759c-3.715 2.144-9.715 2.144-13.406-.001l-61.533-35.758c-1.845-1.073-2.763-2.478-2.755-3.884v-16.695"/><path fill="#000" stroke="#000" stroke-miterlimit="10" d="m659.794 422.424-.001-1.408v-1.42h11.672v1.302l-.023 1.526c.142.965-.424 1.96-1.701 2.698-2.291 1.322-6 1.321-8.273 0-1.27-.738-1.826-1.733-1.674-2.698Z"/><path fill="#fff" stroke="#000" stroke-miterlimit="10" d="M661.492 416.249c-2.29 1.323-2.3 3.471-.024 4.794 2.273 1.321 5.982 1.322 8.273 0 2.288-1.321 2.3-3.471.027-4.792-2.276-1.323-5.988-1.323-8.276-.002Z"/><path fill="#000" stroke="#000" stroke-linejoin="round" stroke-miterlimit="10" d="m112.214 447.523-1.761 6.228-5.661-2.953-.07-24.591 7.42-4.284 5.661 2.953-2.469 10.796 4.265-2.462-.024-8.518 7.419-4.284-.012-4.355-1.77 3.066-5.661-2.953-.024-8.525 7.419-4.284 5.661 2.953-2.007 3.477 3.789-2.188 5.662 2.953-1.28 2.87 6.437-3.716 1.688-.975-.024-8.339 7.055-4.073.36-1.631-.02-7.105 7.413-4.28 5.661 2.953-7.996 12.806-.985 3.153 3.369-1.861 5.661 2.953-3.253 4.189 5.035-2.907-.044-15.567 7.419-4.283 5.661 2.953-5.421 8.417-.208-.205.038 13.426-7.419 4.284.068 24.092 7.497-4.328 5.661 2.952-14.892 17.138-5.661-2.953-.096-8.484.049-8.089-7.414 4.279.018 5.951.057-.03-.057.295.005 1.833-.404.233-1.354 7.003-5.66-2.953-.024-8.048-1.687.975-9.108 5.257-1.687.975.018 6.515.334-.262 1.107 5.227-3.195 3.804-5.661-2.953-.022-8.048-7.42 4.284.023 8.048.102 8.48-5.005 2.89-4.322 8.717-5.661-2.953-.025-8.526 7.498-4.328-.066-23.084Zm34.755-12.85 7.419-4.283-.049-17.424-7.419 4.283.049 17.424Zm-19.902 11.49 7.42-4.283-.05-17.424-7.419 4.284.049 17.423Z"/><path fill="#88E5BE" d="m132.606 406.31.024 8.526-7.419 4.283-.024-8.525 7.419-4.284ZM167.341 386.256l.024 8.526-7.413 4.28-.025-8.526 7.414-4.28ZM174.858 416.567l7.419-4.284-.07-24.591-7.419 4.283.045 15.567-7.42 4.283-.024-8.518-7.414 4.094-.023-8.339-7.42 4.283.024 8.339-12.482 7.207-.024-8.339-7.42 4.284.024 8.525-7.419 4.284.024 8.518-7.413 4.28-.044-15.567-7.419 4.284.07 24.591 7.419-4.283.069 24.092-7.498 4.328.024 8.526 14.989-8.654-.103-8.48-.023-8.048 7.42-4.284.023 8.048 7.419-4.283-.023-8.048 12.483-7.207.023 8.048 7.419-4.283-.023-8.048 7.413-4.28-.048 8.089.095 8.484 14.916-8.612-.024-8.525-7.496 4.328-.069-24.092Zm-34.711 28.266-7.419 4.284-.05-17.424 7.42-4.284.049 17.424Zm19.901-11.49-7.419 4.283-.049-17.424 7.419-4.283.049 17.424Z"/><path stroke="#000" stroke-linejoin="round" stroke-miterlimit="10" d="m132.63 414.836-.024-8.526-7.419 4.284.024 8.525 7.419-4.283Zm0 0 7.42-4.284.024 8.339 12.482-7.207-.024-8.339 7.42-4.283m-27.322 15.774.024 8.525-7.419 4.284.024 8.518-7.413 4.28-.044-15.567-7.419 4.284.07 24.591 7.419-4.283.069 24.092-7.498 4.328.024 8.526 14.989-8.654-.103-8.48-.023-8.048 7.42-4.284.023 8.048 7.419-4.283-.023-8.048 12.483-7.207.023 8.048 7.419-4.283-.023-8.048 7.413-4.28-.048 8.089.095 8.484 14.916-8.612-.024-8.525-7.496 4.328-.069-24.092 7.419-4.284-.07-24.591-7.419 4.283.045 15.567-7.42 4.283-.024-8.518-7.414 4.094-.023-8.339m0 0 7.413-4.28-.024-8.526-7.414 4.28.025 8.526Zm-19.805 45.771-7.419 4.284-.05-17.424 7.42-4.284.049 17.424Zm19.901-11.49-7.419 4.283-.049-17.424 7.419-4.283.049 17.424Z"/><path fill="url(#h)" stroke="#000" stroke-miterlimit="10" d="m413.529 556.485 67.915 39.467a5.415 5.415 0 0 0 5.431.008L606.7 526.779a3.72 3.72 0 0 0 1.244-5.273l-3.407-5.154-188.568 28.184-3.828 6.935a3.72 3.72 0 0 0 1.388 5.014Z"/><path fill="#308BAF" stroke="#000" stroke-miterlimit="10" d="m416.211 544.676 66.692 38.758a5.417 5.417 0 0 0 5.431.007l115.96-66.949a.161.161 0 0 0 0-.28l-66.857-38.854a5.088 5.088 0 0 0-5.101-.007l-116.125 67.045a.161.161 0 0 0 0 .28Z"/><path fill="#000" stroke="#000" stroke-miterlimit="10" d="m499.051 505.526 15.745 9.15 15.856-9.155.004-5.934h-31.609l.004 5.939Z"/><path fill="#000" stroke="#000" stroke-miterlimit="10" d="m530.081 510.008 15.753 9.155 23.619-13.637-.004-5.939-39.372 4.482.004 5.939ZM479.59 516.761l15.745 9.15 15.856-9.154.004-5.934-31.609-.001.004 5.939Z"/><path fill="#000" stroke="#000" stroke-miterlimit="10" d="m510.452 521.341 15.753 9.154 15.856-9.154-.004-5.939h-30.866l-.739 5.939Z"/><path fill="#000" stroke="#000" stroke-miterlimit="10" d="m530.582 532.117 15.753 9.154 42.452-24.509.004-5.431-15.757-3.724-41.226 18.513-1.226 5.997ZM518.511 494.29l15.744 9.15 15.856-9.154.004-5.934h-31.608l.004 5.938ZM471.407 566.282l15.753 9.155 15.856-9.155.004-5.934h-31.609l-.004 5.934Z"/><path fill="#000" stroke="#000" stroke-miterlimit="10" d="m490.866 555.047 15.753 9.154 15.856-9.154.004-5.934H490.87l-.004 5.934Z"/><path fill="#000" stroke="#000" stroke-miterlimit="10" d="m510.327 543.811 15.753 9.155 15.855-9.154.004-5.935h-31.608l-.004 5.934ZM460.123 528.001l15.745 9.15 15.857-9.155.004-5.934h-31.61l.004 5.939Z"/><path fill="#000" stroke="#000" stroke-miterlimit="10" d="m490.993 532.576 15.753 9.155 15.856-9.155-.004-5.939h-31.609l.004 5.939Z"/><path fill="#000" stroke="#000" stroke-miterlimit="10" d="m471.532 543.811 15.753 9.155 15.856-9.155-.004-5.938-31.609-.001.004 5.939Z"/><path fill="#000" stroke="#000" stroke-miterlimit="10" d="m432.739 543.811 35.087 20.39 15.856-9.154-.004-5.939-19.338-5.301 7.924-4.575.004-5.935-39.533 4.575.004 5.939Z"/><path fill="#fff" stroke="#000" stroke-miterlimit="10" d="m518.99 488.633 13.867 8.058a2.8 2.8 0 0 0 2.807.004l13.967-8.063a.324.324 0 0 0 .001-.561l-13.867-8.059a2.802 2.802 0 0 0-2.807-.004l-13.967 8.064a.325.325 0 0 0-.001.561ZM480.07 511.103l13.867 8.059a2.802 2.802 0 0 0 2.807.004l13.967-8.064a.324.324 0 0 0 .001-.561l-13.867-8.058a2.8 2.8 0 0 0-2.807-.004l-13.967 8.063a.324.324 0 0 0-.001.561ZM471.895 560.629l13.867 8.058a2.798 2.798 0 0 0 2.806.004l13.967-8.063a.324.324 0 0 0 .001-.561l-13.867-8.059a2.802 2.802 0 0 0-2.807-.004l-13.966 8.064a.324.324 0 0 0-.001.561ZM491.354 549.394l13.867 8.058a2.8 2.8 0 0 0 2.807.004l13.966-8.063a.324.324 0 0 0 .001-.561l-13.867-8.059a2.802 2.802 0 0 0-2.807-.004l-13.966 8.064a.324.324 0 0 0-.001.561ZM472.012 538.154l13.867 8.058a2.8 2.8 0 0 0 2.807.004l13.966-8.064a.324.324 0 0 0 .001-.561l-13.867-8.058a2.798 2.798 0 0 0-2.806-.004l-13.967 8.064a.324.324 0 0 0-.001.561Z"/><path fill="#fff" stroke="#000" stroke-miterlimit="10" d="m433.219 538.153 33.201 19.294a2.8 2.8 0 0 0 2.807.004l13.967-8.063a.325.325 0 0 0 0-.561l-18.366-10.673a.324.324 0 0 1 .001-.561l6.955-4.016a.324.324 0 0 0 .001-.561l-13.867-8.058a2.8 2.8 0 0 0-2.807-.004l-21.891 12.638a.325.325 0 0 0-.001.561ZM460.601 522.343l13.867 8.059a2.8 2.8 0 0 0 2.807.004l13.967-8.064a.324.324 0 0 0 .001-.561l-13.867-8.058a2.8 2.8 0 0 0-2.807-.004l-13.967 8.064a.323.323 0 0 0-.001.56ZM491.473 526.918l13.867 8.059a2.8 2.8 0 0 0 2.807.004l13.966-8.064a.324.324 0 0 0 .001-.561l-13.867-8.058a2.8 2.8 0 0 0-2.807-.004l-13.966 8.063a.324.324 0 0 0-.001.561ZM510.932 515.683l13.867 8.059a2.802 2.802 0 0 0 2.807.004l13.966-8.064a.324.324 0 0 0 .001-.561l-13.867-8.059a2.802 2.802 0 0 0-2.807-.004l-13.966 8.064a.324.324 0 0 0-.001.561ZM530.561 504.35l13.867 8.059a2.802 2.802 0 0 0 2.807.004l21.73-12.546a.324.324 0 0 0 .001-.561l-13.867-8.058a2.797 2.797 0 0 0-2.807-.004l-21.73 12.545a.324.324 0 0 0-.001.561ZM510.815 538.158l13.867 8.059a2.8 2.8 0 0 0 2.807.004l13.966-8.064a.324.324 0 0 0 .001-.561l-13.867-8.058a2.8 2.8 0 0 0-2.807-.004l-13.967 8.063a.324.324 0 0 0 0 .561ZM531.07 526.464l13.867 8.058a2.8 2.8 0 0 0 2.807.004l40.563-23.419a.325.325 0 0 0 .001-.561l-13.867-8.058a2.8 2.8 0 0 0-2.807-.004l-40.563 23.419a.324.324 0 0 0-.001.561ZM499.532 499.868l13.866 8.059a2.802 2.802 0 0 0 2.807.004l13.967-8.064a.324.324 0 0 0 .001-.561l-13.867-8.058a2.797 2.797 0 0 0-2.807-.004l-13.967 8.063a.324.324 0 0 0 0 .561Z"/><path fill="url(#i)" stroke="#000" stroke-miterlimit="10" d="M154.192 521.023a8.504 8.504 0 0 1 0-.749V506.56l9.96 2.431 23.956-13.922c9.517-5.53 24.981-5.537 34.56-.007l95.795 55.308 22.962 6.502v12.236a8.03 8.03 0 0 1 0 .821v.321l-.025.013c-.297 3.361-2.626 6.672-7.047 9.241l-26.842 15.599c-9.516 5.53-24.981 5.524-34.549 0L161.378 530.68c-4.491-2.594-6.86-5.94-7.157-9.333l-.029-.016v-.308Z"/><path fill="#88E5BE" stroke="#000" stroke-miterlimit="10" d="M334.251 546.108c9.568 5.523 9.619 14.488.102 20.018l-26.842 15.599c-9.517 5.53-24.981 5.524-34.549 0l-111.584-64.423c-9.579-5.53-9.629-14.482-.113-20.012l26.843-15.599c9.517-5.53 24.981-5.537 34.559-.007l111.584 64.424Z"/><path fill="url(#j)" stroke="#000" stroke-miterlimit="10" d="m260.025 574.116-89.296-51.434 59.091-34.116 2.07-1.195s.183-.256 1.263.367l86.93 50.19s1.587.598.177 1.411l-60.235 34.777Z"/><path stroke="#000" stroke-miterlimit="10" d="m321.395 538.685-61.369 35.431v13.518M232.203 487.19l-61.474 35.492v13.397"/><path fill="#000" stroke="#000" stroke-miterlimit="10" d="M309.539 537.432c1.849 1.067 1.859 2.795.015 3.867l-44.858 25.742c-1.844 1.072-4.828 1.072-6.677.005l-75.279-43.278c-1.848-1.068-1.858-2.796-.013-3.868l44.857-25.742c1.844-1.072 4.828-1.072 6.677-.004l75.278 43.278Z"/><path fill="#308BAF" stroke="#000" stroke-miterlimit="10" stroke-width=".873" d="M183.857 490.31c-1.477.853-1.494 2.23-.027 3.083 1.468.852 3.854.852 5.331 0 1.467-.847 1.475-2.23.008-3.083-1.467-.852-3.845-.847-5.312 0ZM194.993 496.782c-1.477.852-1.485 2.235-.018 3.087 1.458.848 3.845.848 5.322-.005 1.467-.847 1.475-2.23.017-3.077-1.467-.853-3.854-.852-5.321-.005ZM183.812 496.781c-1.477.853-1.485 2.235-.018 3.088 1.468.853 3.845.847 5.322-.005 1.477-.853 1.484-2.224.017-3.077-1.468-.853-3.844-.858-5.321-.006ZM195.02 490.311c-1.467.847-1.475 2.229-.008 3.082 1.468.853 3.845.847 5.312 0 1.477-.853 1.494-2.23.027-3.083-1.468-.852-3.854-.852-5.331.001Z"/><path fill="#308BAF" stroke="#000" stroke-miterlimit="10" stroke-width=".873" d="M183.857 489.62c-1.477.853-1.494 2.23-.027 3.082 1.468.853 3.854.853 5.331 0 1.467-.847 1.475-2.229.008-3.082-1.467-.853-3.845-.847-5.312 0ZM194.993 496.091c-1.477.853-1.485 2.236-.018 3.088 1.458.848 3.845.847 5.322-.005 1.467-.847 1.475-2.23.017-3.077-1.467-.853-3.854-.853-5.321-.006ZM183.812 496.091c-1.477.853-1.485 2.235-.018 3.088 1.468.853 3.845.847 5.322-.006 1.477-.852 1.484-2.223.017-3.076-1.468-.853-3.844-.859-5.321-.006ZM195.02 489.62c-1.467.847-1.475 2.23-.008 3.083 1.468.852 3.845.847 5.312 0 1.477-.853 1.494-2.23.027-3.083-1.468-.853-3.854-.852-5.331 0Z"/><path fill="#000" stroke="#000" stroke-miterlimit="10" d="M299.921 563.359h-.017v-2.473h2.002c.134-.089.239-.188.387-.273 3.309-1.911 8.678-1.911 11.97.002.144.085.248.183.38.271h2.074v2.473h-.116c.371 1.483-.404 3.048-2.377 4.187-3.314 1.913-8.679 1.911-11.966 0-1.962-1.14-2.723-2.704-2.337-4.187Z"/><path fill="#308BAF" stroke="#000" stroke-miterlimit="10" d="M302.293 556.702c-3.313 1.913-3.327 5.021-.035 6.933 3.287 1.911 8.652 1.913 11.965 0 3.31-1.91 3.327-5.02.04-6.931-3.292-1.912-8.661-1.912-11.97-.002Z"/><path fill="#000" d="M175.106 505.335c-1.17.675-1.177 1.77-.014 2.446 1.154.671 3.044.67 4.214-.005 1.162-.671 1.168-1.765.014-2.436-1.163-.676-3.053-.676-4.214-.005ZM284.276 573.217l3.154 1.833c.189.11.422.11.612.001l3.18-1.837a.61.61 0 0 0 .002-1.056l-3.154-1.833a.611.611 0 0 0-.612-.001l-3.181 1.836a.61.61 0 0 0-.001 1.057Z"/><path fill="#308BAF" d="M231.524 524.814c-1.476.852-2.051 2.103-1.496 3.265l2.637 5.503c.535 1.119 2.048 1.999 3.985 2.316l9.486 1.542c2.011.329 4.172 0 5.648-.852l6.661-3.846c1.476-.852 2.051-2.103 1.49-3.269l-2.63-5.5c-.543-1.123-2.055-2.002-3.986-2.316l-3.266-.53c-.459.697-1.165 1.351-2.138 1.913-3.689 2.13-9.653 2.13-13.319 0l-3.072 1.774Z"/><path fill="url(#k)" d="M236.98 516.685c-2.388 1.378-2.394 3.613-.022 4.992 2.373 1.379 6.224 1.379 8.613 0 2.387-1.379 2.407-3.614.034-4.993-2.372-1.378-6.237-1.378-8.625.001Z"/><path fill="#DD734F" stroke="#000" stroke-miterlimit="10" d="m222.266 207.121-2.9 4.955a8.758 8.758 0 0 1-.756 1.292l-.101.173-.01-.005c-2.093 2.828-5.948 4.611-11.276 4.742-11.855.293-26.425-7.649-32.546-17.734-2.482-4.089-3.167-7.891-2.347-11l-.026-.014.059-.11a8.897 8.897 0 0 1 1.875-3.49l1.564-2.914 1.275.662c2.086-1.151 4.754-1.848 7.979-1.928 11.851-.293 26.423 7.646 32.546 17.734 1.388 2.288 2.195 4.482 2.516 6.523l2.148 1.114Z"/><path fill="#88E5BE" stroke="#000" stroke-linejoin="round" stroke-miterlimit="10" d="M192.839 206.554c-12.729-6.889-19.814-18.452-15.823-25.825 3.991-7.373 17.545-7.765 30.275-.876 12.729 6.89 19.814 18.452 15.823 25.826-3.991 7.373-17.545 7.765-30.275.875Z"/><path fill="#88E5BE" stroke="#000" stroke-linejoin="round" stroke-miterlimit="10" d="M195.516 201.609c-8.014-4.338-12.474-11.617-9.962-16.259 2.512-4.642 11.046-4.889 19.06-.551 8.014 4.337 12.474 11.616 9.962 16.258-2.513 4.642-11.046 4.889-19.06.552Z"/><path fill="#000" d="M213.857 202.066c.35-1.875-.139-4.114-1.589-6.503-3.854-6.351-13.028-11.349-20.49-11.164-3.134.077-5.456 1.065-6.823 2.645.579-3.109 3.467-5.214 8.124-5.329 7.461-.184 16.635 4.814 20.489 11.165 2.235 3.683 2.177 7.003.289 9.186Z"/><path fill="#DD734F" stroke="#000" stroke-miterlimit="10" d="m214.572 238.442-5.681-3.053a9.915 9.915 0 0 0-1.482-.797l-.199-.106-.007.011c-3.661-1.487-8.402-.938-13.588 2.056-11.539 6.662-20.858 22.808-20.822 36.063.016 5.374 1.585 9.42 4.192 11.922l-.017.028.121.071a9.994 9.994 0 0 0 3.842 2.249l3.206 1.877.834-1.38c2.675-.118 5.642-1.012 8.78-2.824 11.535-6.66 20.859-22.805 20.821-36.063-.008-3.007-.519-5.584-1.406-7.729l1.406-2.325Z"/><path fill="#88E5BE" stroke="#000" stroke-linejoin="round" stroke-miterlimit="10" d="M186.649 290.259c-8.144-4.732-8.122-19.968.049-34.028 8.171-14.061 21.397-21.622 29.542-16.889 8.144 4.733 8.122 19.968-.049 34.028-8.171 14.061-21.397 21.622-29.542 16.889Z"/><path fill="#88E5BE" stroke="#000" stroke-linejoin="round" stroke-miterlimit="10" d="M192.13 280.829c-5.127-2.98-5.113-12.571.031-21.423 5.144-8.852 13.471-13.613 18.598-10.633 5.128 2.979 5.114 12.571-.031 21.423-5.144 8.852-13.47 13.612-18.598 10.633Z"/><path fill="#000" d="M209.469 248.213c1.434 1.593 2.276 4.026 2.285 7.165.024 8.347-5.846 18.512-13.108 22.705-3.051 1.762-5.856 2.174-8.092 1.459 2.376 2.642 6.378 2.968 10.91.352 7.262-4.193 13.132-14.357 13.108-22.704-.014-4.84-2.013-7.99-5.103-8.977Z"/><path fill="#88E5BE" stroke="#000" stroke-linejoin="round" stroke-miterlimit="10" d="m179.694 309.324 5.682-3.053c.47-.307.963-.572 1.482-.797l.198-.106.007.011c3.662-1.487 8.402-.938 13.588 2.056 11.539 6.662 20.858 22.808 20.822 36.063-.016 5.374-1.585 9.421-4.192 11.922l.018.028-.122.071a9.987 9.987 0 0 1-3.842 2.249l-3.206 1.878-.834-1.381c-2.675-.118-5.641-1.012-8.779-2.824-11.536-6.66-20.86-22.805-20.822-36.063.008-3.007.52-5.584 1.406-7.729l-1.406-2.325Z"/><path fill="#DD734F" stroke="#000" stroke-miterlimit="10" d="M178.118 344.255c-8.171-14.061-8.193-29.296-.048-34.029 8.144-4.733 21.37 2.829 29.541 16.889 8.171 14.061 8.193 29.296.049 34.029-8.145 4.732-21.371-2.829-29.542-16.889Z"/><path fill="#DD734F" stroke="#000" stroke-miterlimit="10" d="M183.581 341.08c-5.145-8.852-5.158-18.443-.031-21.423 5.127-2.98 13.454 1.781 18.598 10.633 5.145 8.852 5.158 18.444.031 21.423-5.127 2.98-13.454-1.781-18.598-10.633Z"/><path fill="#000" d="M184.796 319.095c-1.434 1.593-2.276 4.026-2.285 7.165-.024 8.347 5.846 18.512 13.108 22.705 3.051 1.762 5.856 2.174 8.092 1.459-2.375 2.642-6.378 2.968-10.91.352-7.262-4.193-13.132-14.357-13.108-22.704.014-4.84 2.014-7.99 5.103-8.977Z"/><path fill="#000" stroke="#000" stroke-miterlimit="10" d="m545.202 259.462-1.094-1.217 3.754-2.51c2.995-2.424 7.514-2.461 12.56.453l22.942 13.245c8.978 5.183 16.238 17.749 16.208 28.063v.326c-.015 4.874-1.667 8.35-4.338 10.138l-.004.032-3.905 2.705-1.252-1.39c-2.077-.096-4.381-.792-6.816-2.198l-22.941-13.246c-8.978-5.183-16.238-17.748-16.208-28.063v-.326c.007-2.339.404-4.343 1.094-6.012Z"/><path fill="#308BAF" stroke="#000" stroke-miterlimit="10" d="M556.08 259.127c-8.977-5.183-16.285-1.029-16.314 9.286l-.001.326c-.029 10.315 7.231 22.881 16.208 28.063l22.943 13.246c8.976 5.183 16.284 1.028 16.313-9.286l.001-.326c.03-10.315-7.231-22.881-16.208-28.063l-22.942-13.246Z"/><path fill="url(#l)" stroke="#000" stroke-miterlimit="10" d="M557.178 265.274c-6.673-3.853-12.098-.752-12.12 6.917-.022 7.668 5.368 17.003 12.041 20.856l20.719 11.962c6.673 3.853 12.098.761 12.119-6.907.022-7.669-5.367-17.013-12.041-20.866l-20.718-11.962Z"/><path fill="#308BAF" stroke="#000" stroke-miterlimit="10" d="M557.595 268.013c-4.776-2.758-8.662-.544-8.677 4.944-.016 5.489 3.844 12.175 8.621 14.932 4.785 2.763 8.67.549 8.686-4.939.015-5.489-3.845-12.175-8.63-14.937Z"/><path fill="#88E5BE" stroke="#000" stroke-linejoin="round" stroke-miterlimit="10" d="M555.052 269.369c-4.776-2.758-8.662-.544-8.677 4.944-.016 5.489 3.844 12.174 8.621 14.932 4.785 2.763 8.67.549 8.686-4.94.015-5.488-3.845-12.174-8.63-14.936Z"/><path fill="#000" stroke="#000" stroke-miterlimit="10" d="m545.202 207.894-1.094-1.217 3.754-2.511c2.995-2.423 7.514-2.46 12.56.453l22.942 13.246c8.978 5.183 16.238 17.748 16.208 28.063v.326c-.015 4.873-1.667 8.35-4.338 10.138l-.004.032-3.905 2.705-1.252-1.391c-2.077-.095-4.381-.792-6.816-2.197l-22.941-13.246c-8.978-5.183-16.238-17.748-16.208-28.063v-.326c.007-2.34.404-4.344 1.094-6.012Z"/><path fill="#308BAF" stroke="#000" stroke-miterlimit="10" d="M556.08 207.559c-8.977-5.183-16.285-1.029-16.314 9.286l-.001.326c-.029 10.315 7.231 22.88 16.208 28.063l22.943 13.246c8.976 5.183 16.284 1.028 16.313-9.287l.001-.326c.03-10.315-7.231-22.88-16.208-28.063l-22.942-13.245Z"/><path fill="url(#m)" stroke="#000" stroke-miterlimit="10" d="M557.178 213.706c-6.673-3.853-12.098-.752-12.12 6.916-.022 7.669 5.368 17.004 12.041 20.857l20.719 11.962c6.673 3.853 12.098.761 12.119-6.907.022-7.669-5.367-17.013-12.041-20.866l-20.718-11.962Z"/><path fill="#308BAF" stroke="#000" stroke-miterlimit="10" d="M577.415 229.084c-4.776-2.758-8.661-.544-8.677 4.945-.015 5.488 3.845 12.174 8.621 14.931 4.785 2.763 8.671.549 8.686-4.939.016-5.489-3.844-12.174-8.63-14.937Z"/><path fill="#88E5BE" stroke="#000" stroke-linejoin="round" stroke-miterlimit="10" d="M574.873 230.44c-4.777-2.758-8.662-.544-8.678 4.944-.015 5.489 3.845 12.174 8.621 14.932 4.785 2.763 8.671.549 8.686-4.939.016-5.489-3.844-12.175-8.629-14.937Z"/><path fill="#000" d="M452.325 204.033c-.361.209-.722.633-.906 1.173l-5.294 15.482-11.91 8.872c-.832.617-1.157 1.983-.555 2.309l8.649 4.679-1.998 14.815c-.109.814.411 1.127 1.002.786.156-.09.317-.226.473-.411l10.64-12.589 10.677.282a.898.898 0 0 0 .472-.135c.589-.34 1.108-1.253.991-1.937l-2.071-12.465 8.595-14.636c.598-1.018.263-2.002-.567-1.66l-11.921 4.886-5.364-9.328c-.189-.324-.551-.332-.913-.123Z"/><path fill="#000" d="m476.053 211.588-4.928-2.972-5.609 3.668-6.493 3.132-.907-8.45-5.28-3.071-3.514 11.521-3.132 13.979-5.431 22.88 4.974 3.066 10.464-17.468 19.856-26.285Z"/><path stroke="#000" stroke-miterlimit="10" d="M452.325 204.033c-.361.209-.722.633-.906 1.173l-5.294 15.482-11.91 8.872c-.832.617-1.157 1.983-.555 2.309l8.649 4.679-1.998 14.815c-.109.814.411 1.127 1.002.786.156-.09.317-.226.473-.411l10.64-12.589 10.677.282a.898.898 0 0 0 .472-.135c.589-.34 1.108-1.253.991-1.937l-2.071-12.465 8.595-14.636c.598-1.018.263-2.002-.567-1.66l-11.921 4.886-5.364-9.328c-.189-.324-.551-.332-.913-.123Z"/><path stroke="#000" stroke-miterlimit="10" d="m476.053 211.588-4.928-2.972-5.609 3.668-6.493 3.132-.907-8.45-5.28-3.071-3.514 11.521-3.132 13.979-5.431 22.88 4.974 3.066 10.464-17.468 19.856-26.285Z"/><path fill="#88E5BE" stroke="#000" stroke-linejoin="round" stroke-miterlimit="10" d="M457.519 207.089c-.361.208-.722.633-.906 1.172l-5.294 15.483-11.91 8.872c-.832.617-1.157 1.983-.556 2.308l8.65 4.68-1.997 14.814c-.11.814.411 1.127 1.001.787.156-.091.317-.227.473-.411l10.64-12.589 10.677.281a.896.896 0 0 0 .472-.134c.589-.341 1.108-1.254.991-1.937l-2.071-12.466 8.595-14.636c.598-1.017.262-2.002-.567-1.659l-11.921 4.886-5.365-9.329c-.188-.324-.551-.331-.912-.122Z"/><path fill="#000" d="M372.53 249.809c-.361.208-.721.633-.905 1.172l-5.294 15.482-11.91 8.873c-.833.617-1.158 1.983-.556 2.308l8.65 4.68-1.998 14.814c-.11.814.411 1.127 1.001.787.156-.091.318-.227.473-.411l10.64-12.589 10.677.281a.895.895 0 0 0 .472-.135c.59-.34 1.108-1.253.992-1.936l-2.071-12.466 8.595-14.636c.598-1.018.262-2.002-.568-1.659l-11.921 4.886-5.364-9.329c-.188-.324-.551-.331-.913-.122Z"/><path fill="#000" d="m396.258 257.363-4.928-2.972-5.609 3.669-6.493 3.131-.906-8.449-5.281-3.072-3.514 11.521-3.131 13.979-5.432 22.88 4.974 3.066 10.464-17.467 19.856-26.286Z"/><path stroke="#000" stroke-miterlimit="10" d="M372.53 249.809c-.361.208-.721.633-.905 1.172l-5.294 15.482-11.91 8.873c-.833.617-1.158 1.983-.556 2.308l8.65 4.68-1.998 14.814c-.11.814.411 1.127 1.001.787.156-.091.318-.227.473-.411l10.64-12.589 10.677.281a.895.895 0 0 0 .472-.135c.59-.34 1.108-1.253.992-1.936l-2.071-12.466 8.595-14.636c.598-1.018.262-2.002-.568-1.659l-11.921 4.886-5.364-9.329c-.188-.324-.551-.331-.913-.122Z"/><path stroke="#000" stroke-miterlimit="10" d="m396.258 257.363-4.928-2.972-5.609 3.669-6.493 3.131-.906-8.449-5.281-3.072-3.514 11.521-3.131 13.979-5.432 22.88 4.974 3.066 10.464-17.467 19.856-26.286Z"/><path fill="#88E5BE" stroke="#000" stroke-linejoin="round" stroke-miterlimit="10" d="M377.724 252.864c-.361.209-.722.633-.906 1.173l-5.294 15.482-11.909 8.872c-.833.617-1.158 1.983-.556 2.309l8.649 4.679-1.997 14.815c-.11.814.411 1.127 1.001.786.156-.09.317-.226.473-.411l10.64-12.589 10.677.282a.898.898 0 0 0 .472-.135c.59-.34 1.108-1.253.992-1.937l-2.072-12.466 8.596-14.635c.597-1.018.262-2.003-.568-1.66l-11.921 4.886-5.364-9.328c-.189-.325-.551-.332-.913-.123Z"/><path fill="#000" d="M412.544 200.978c-.361.208-.722.633-.906 1.172l-5.294 15.483-11.91 8.872c-.832.617-1.157 1.983-.555 2.308l8.649 4.68-1.997 14.814c-.11.815.411 1.128 1.001.787.156-.09.317-.226.473-.411l10.64-12.589 10.677.282a.898.898 0 0 0 .472-.135c.59-.341 1.108-1.254.991-1.937l-2.07-12.466 8.594-14.635c.598-1.018.262-2.003-.567-1.66l-11.921 4.886-5.364-9.329c-.189-.324-.551-.331-.913-.122Z"/><path fill="#000" d="m436.271 208.532-4.928-2.972-5.609 3.669-6.492 3.132-.907-8.45-5.281-3.072-3.513 11.522-3.132 13.978-5.431 22.88 4.974 3.066 10.463-17.467 19.856-26.286Z"/><path stroke="#000" stroke-miterlimit="10" d="M412.544 200.978c-.361.208-.722.633-.906 1.172l-5.294 15.483-11.91 8.872c-.832.617-1.157 1.983-.555 2.308l8.649 4.68-1.997 14.814c-.11.815.411 1.128 1.001.787.156-.09.317-.226.473-.411l10.64-12.589 10.677.282a.898.898 0 0 0 .472-.135c.59-.341 1.108-1.254.991-1.937l-2.07-12.466 8.594-14.635c.598-1.018.262-2.003-.567-1.66l-11.921 4.886-5.364-9.329c-.189-.324-.551-.331-.913-.122Z"/><path stroke="#000" stroke-miterlimit="10" d="m436.271 208.532-4.928-2.972-5.609 3.669-6.492 3.132-.907-8.45-5.281-3.072-3.513 11.522-3.132 13.978-5.431 22.88 4.974 3.066 10.463-17.467 19.856-26.286Z"/><path fill="#88E5BE" stroke="#000" stroke-linejoin="round" stroke-miterlimit="10" d="M417.738 204.033c-.362.209-.722.633-.906 1.173l-5.294 15.482-11.91 8.872c-.832.617-1.157 1.983-.556 2.309l8.65 4.679-1.998 14.815c-.109.814.411 1.127 1.002.786.156-.09.317-.226.473-.411l10.64-12.589 10.677.282a.898.898 0 0 0 .472-.135c.589-.34 1.108-1.253.991-1.937l-2.071-12.465 8.595-14.636c.598-1.018.262-2.002-.567-1.66l-11.921 4.886-5.365-9.328c-.188-.324-.55-.332-.912-.123Z"/><path fill="#308BAF" stroke="#000" stroke-miterlimit="10" d="M247.638 253.162a9.401 9.401 0 1 1 0-18.802 9.401 9.401 0 0 1 0 18.802Z"/><path fill="url(#n)" stroke="#000" stroke-miterlimit="10" d="M409.502 177.658c-9.742 0-17.639-7.898-17.639-17.639 0-9.742 7.897-17.639 17.639-17.639 9.741 0 17.639 7.897 17.639 17.639 0 9.741-7.898 17.639-17.639 17.639Z"/><path fill="#DD734F" stroke="#000" stroke-miterlimit="10" d="M383.671 598.5c-5.915 0-10.71-4.795-10.71-10.71 0-5.915 4.795-10.71 10.71-10.71 5.915 0 10.71 4.795 10.71 10.71 0 5.915-4.795 10.71-10.71 10.71Z"/><defs><linearGradient id="h" x1="510.119" x2="510.119" y1="516.352" y2="596.686" gradientUnits="userSpaceOnUse"><stop stop-color="#AC6AFF"/><stop offset="1" stop-color="#1A1A32"/></linearGradient><linearGradient id="a" x1="308.426" x2="308.426" y1="302.33" y2="530.399" gradientUnits="userSpaceOnUse"><stop stop-color="#AC6AFF"/><stop offset="1" stop-color="#1A1A32"/></linearGradient><linearGradient id="c" x1="355.92" x2="355.92" y1="462.31" y2="519.09" gradientUnits="userSpaceOnUse"><stop stop-color="#AC6AFF"/><stop offset="1" stop-color="#1A1A32"/></linearGradient><linearGradient id="d" x1="495.546" x2="495.546" y1="326.496" y2="446.654" gradientUnits="userSpaceOnUse"><stop stop-color="#AC6AFF"/><stop offset="1" stop-color="#1A1A32"/></linearGradient><linearGradient id="e" x1="611.702" x2="611.702" y1="400.772" y2="446.177" gradientUnits="userSpaceOnUse"><stop stop-color="#AC6AFF"/><stop offset="1" stop-color="#1A1A32"/></linearGradient><linearGradient id="f" x1="611.698" x2="611.698" y1="395.495" y2="418.895" gradientUnits="userSpaceOnUse"><stop stop-color="#AC6AFF"/><stop offset="1" stop-color="#1A1A32"/></linearGradient><linearGradient id="g" x1="611.699" x2="611.699" y1="378.232" y2="400.168" gradientUnits="userSpaceOnUse"><stop stop-color="#AC6AFF"/><stop offset="1" stop-color="#1A1A32"/></linearGradient><linearGradient id="b" x1="356.996" x2="356.996" y1="234.825" y2="313.451" gradientUnits="userSpaceOnUse"><stop stop-color="#AC6AFF"/><stop offset="1" stop-color="#1A1A32"/></linearGradient><linearGradient id="i" x1="247.81" x2="247.81" y1="490.918" y2="599.248" gradientUnits="userSpaceOnUse"><stop stop-color="#AC6AFF"/><stop offset="1" stop-color="#1A1A32"/></linearGradient><linearGradient id="j" x1="245.786" x2="245.786" y1="487.319" y2="574.116" gradientUnits="userSpaceOnUse"><stop stop-color="#AC6AFF"/><stop offset="1" stop-color="#1A1A32"/></linearGradient><linearGradient id="k" x1="241.278" x2="241.278" y1="515.65" y2="522.711" gradientUnits="userSpaceOnUse"><stop stop-color="#AC6AFF"/><stop offset="1" stop-color="#1A1A32"/></linearGradient><linearGradient id="l" x1="567.498" x2="567.498" y1="263.618" y2="306.667" gradientUnits="userSpaceOnUse"><stop stop-color="#AC6AFF"/><stop offset="1" stop-color="#1A1A32"/></linearGradient><linearGradient id="m" x1="567.498" x2="567.498" y1="212.05" y2="255.098" gradientUnits="userSpaceOnUse"><stop stop-color="#AC6AFF"/><stop offset="1" stop-color="#1A1A32"/></linearGradient><linearGradient id="n" x1="409.502" x2="409.502" y1="142.38" y2="177.658" gradientUnits="userSpaceOnUse"><stop stop-color="#AC6AFF"/><stop offset="1" stop-color="#1A1A32"/></linearGradient></defs></svg>