<svg xmlns="http://www.w3.org/2000/svg" width="528" height="528" fill="none"><path fill="#0E0C15" d="m55.662 478.042 4.403 3.737 4.803 3.329 5.2 2.914 5.587 2.489 5.97 2.051 6.337 1.613 6.696 1.168 7.042.724 7.375.27 7.694-.181 8.001-.639 8.296-1.098 8.574-1.56 8.837-2.02 9.08-2.474 9.307-2.924 9.513-3.37 9.701-3.812 9.869-4.247 10.021-4.677 10.147-5.102 10.258-5.514 10.344-5.918 10.409-6.305 10.45-6.68 10.471-7.043 10.469-7.39 10.443-7.727 10.396-8.05 10.327-8.354 10.236-8.636 10.124-8.901 9.987-9.148 9.83-9.374 9.654-9.581 9.449-9.767 9.23-9.935 8.989-10.079 8.732-10.2 8.454-10.303 8.163-10.379 7.85-10.433 7.521-10.467 7.177-10.476 6.815-10.466 6.438-10.43 6.057-10.374 5.664-10.298 5.254-10.196 4.84-10.078 4.412-9.934 3.98-9.771 3.535-9.591 3.088-9.388 2.638-9.168 2.185-8.933 1.732-8.68 1.276-8.407.817-8.121.359-7.82-.101-7.499-.557-7.168-1.005-6.83-1.449-6.471-1.887-6.114-2.321-5.736-2.746-5.353-3.168-4.961-3.583-4.557-3.984-4.15-1.893-1.935-1.938-1.892-1.983-1.844-2.029-1.797-4.358-3.722-2.065-1.744-2.106-1.694-2.144-1.645-2.187-1.593-4.702-3.279-2.213-1.534-2.248-1.478-2.284-1.427-2.318-1.37-5.013-2.83-2.334-1.307-2.365-1.25-2.396-1.192-2.423-1.134-5.289-2.38-2.43-1.066-2.454-1.007-2.478-.947-2.502-.888-5.528-1.928-2.495-.815-2.514-.755-2.533-.694-5.763-1.493-2.517-.622-2.531-.56-2.546-.496-5.966-1.063-2.52-.426-2.531-.364-2.537-.298-6.137-.651-2.504-.229-2.51-.167-8.785-.354-2.47-.035-2.468.03-6.43.125-2.415.093-2.413.158-6.561.492-2.354.217-2.349.281-6.668.845-2.281.336-6.815 1.193-2.209.39-2.2.455-6.88 1.517-2.12.503-6.992 1.844-2.039.548-2.019.611-7.017 2.137-1.931.65-7.089 2.434-1.841.688-7.147 2.718-1.739.719-7.192 2.991-7.291 3.286-1.561.712-7.304 3.539-1.455.728-7.299 3.779-7.366 4.046-1.262.702-7.333 4.262-7.369 4.514-1.064.66-7.311 4.7-7.32 4.931-.859.601-7.237 5.094-7.22 5.302-7.196 5.505-7.155 5.698-.484.398-7.019 5.81-6.957 5.98-6.884 6.139-6.796 6.282-6.7 6.422-6.59 6.546-6.466 6.659-6.334 6.764-6.19 6.856-6.036 6.934-5.871 7.001-.373.452-5.764 7.143-5.58 7.182-5.38 7.217-5.175 7.235-.575.826-5.016 7.325-4.785 7.319L46.534 205l-.69 1.113-4.354 7.352-4.1 7.307-.728 1.311-3.881 7.333-.714 1.423-3.647 7.341-3.361 7.254-.734 1.608-3.102 7.233-.704 1.711-2.833 7.196-.674 1.81-2.549 7.144-.641 1.903-2.254 7.078-.602 1.993-1.95 6.991-.557 2.079-2.147 9.05-.447 2.173-1.317 6.833-.398 2.249-.333 2.258-.984 6.755-.278 2.325-.623 6.593-.22 2.39-.154 2.393-.263 6.468-.093 2.449-.028 2.449.038 2.45.113 6.371.102 2.494.167 2.493.5 6.198.236 2.531.298 2.521.363 2.516.908 6.043.432 2.542.493 2.531.56 2.518 1.325 5.853.63 2.538.692 2.521.752 2.501 1.76 5.632.823 2.513.884 2.491.946 2.466 2.196 5.38 1.014 2.468 1.075 2.443 1.133 2.415 1.19 2.387 2.654 5.115 1.258 2.374 1.313 2.343 1.368 2.313 1.425 2.275 3.109 4.819 1.485 2.254 1.54 2.22 1.59 2.18 1.646 2.141 3.554 4.486 1.7 2.11 1.749 2.067 1.799 2.024 1.843 1.98 3.99 4.126 1.895 1.941 1.94 1.893 1.983 1.844 2.025 1.797 4.406 3.74 2.07 1.747 2.108 1.698 2.145 1.645 2.185 1.592 7.02 4.87 2.25 1.482 2.288 1.426 2.317 1.37 5.171 2.905 2.34 1.309 2.37 1.25 2.396 1.195 2.423 1.131 5.51 2.465 2.436 1.068 2.457 1.005 2.483.946 2.499.883 5.811 2.017 2.501.816 2.519.75 2.533.687 6.095 1.577 2.523.618 2.536.555 2.546.488 6.345 1.142 2.526.419 2.533.353 2.539.289 6.561.711 2.506.22 2.509.154 6.782.295 2.468.086 2.468.024 9.396-.161 2.412-.109 9.503-.688 2.347-.237 7.291-.908 2.279-.294 2.269-.358 7.408-1.289 2.193-.414 2.18-.477 7.495-1.651 2.095-.525 7.623-2.015 2.009-.571 7.73-2.364 1.913-.611 7.82-2.705 1.814-.647 7.884-3.031 1.711-.681 7.933-3.348 1.6-.705 7.96-3.651 1.489-.727 7.968-3.942 8.041-4.262 1.284-.698 8.015-4.523 8.055-4.822 1.069-.651 7.99-5.052 7.997-5.33.846-.585 7.898-5.529 7.871-5.784 7.828-6.022 7.77-6.253.438-.361 7.606-6.391 7.515-6.59 7.412-6.773 7.291-6.944 7.154-7.101 7.002-7.243 6.836-7.369 6.655-7.484 6.462-7.578.331-.401 6.33-7.748 6.109-7.815 5.874-7.861 5.628-7.891.56-.812 5.43-8 5.154-7.997 4.873-7.981.683-1.122 4.629-8.036 5.054-9.32 4.06-8.002.71-1.456 3.778-8.002.691-1.569 3.48-7.982 3.134-7.858.697-1.76 2.81-7.802.664-1.86 2.474-7.722.625-1.959.561-1.98 2.149-7.694.518-2.069 1.789-7.573.47-2.153 1.423-7.432.418-2.233.353-2.244 1.055-7.33.298-2.315.232-2.326.669-7.198.172-2.386.106-2.395.273-7.038.042-2.446-.023-2.448-.138-6.853-.089-2.494-.158-2.493-.553-6.639-.225-2.528-.288-2.524-.355-2.521-.982-6.432-.426-2.545-.487-2.535-.555-2.522-1.414-6.199-.625-2.539-.687-2.522-.75-2.51-1.852-5.926-.822-2.511-.881-2.495-.944-2.471-2.289-5.625-1.012-2.467-1.074-2.444-1.131-2.417-1.191-2.394-2.733-5.303-1.254-2.374-1.313-2.347-1.372-2.312-1.424-2.283-3.166-4.947-1.485-2.255-1.539-2.218-1.595-2.181-1.645-2.145-3.586-4.56-1.699-2.107-1.748-2.066-1.799-2.027-1.848-1.981"/><path fill="#0E0C15" d="m454.661 35.216 4.324 3.692 3.934 4.103 3.533 4.507 3.121 4.906 2.703 5.3 2.276 5.682 1.849 6.052 1.411 6.414.97 6.767.526 7.105.071 7.435-.385 7.752-.841 8.053-1.297 8.34-1.747 8.612-2.2 8.861-2.649 9.099-3.094 9.315-3.538 9.518-3.98 9.701-4.411 9.861-4.833 10.004-5.244 10.127-5.65 10.225-6.041 10.305-6.419 10.36-6.791 10.396-7.15 10.407-7.492 10.4-7.818 10.369-8.125 10.314-8.414 10.24-8.691 10.142-8.945 10.021-9.181 9.877-9.403 9.715-9.599 9.529-9.774 9.324-9.932 9.1-10.064 8.858-10.174 8.597-10.264 8.313-10.333 8.014-10.377 7.697-10.402 7.364-10.402 7.017-10.382 6.658-10.338 6.286-10.273 5.9-10.186 5.503-10.076 5.093-9.947 4.673-9.799 4.247-9.628 3.811-9.442 3.376-9.234 2.933-9.011 2.485-8.765 2.034-8.506 1.578-8.229 1.12-7.934.663-7.629.208-7.31-.24-6.98-.689-6.633-1.134-6.281-1.574-5.91-2.011-5.533-2.445-5.144-2.869-4.752-3.281-4.353-3.687-3.953-4.081-3.538-4.466"/><path fill="#0E0C15" d="m426.365 18.416 4.941 2.788 4.58 3.198 4.205 3.603 3.828 4.003 3.431 4.401 3.024 4.794 2.617 5.178 2.2 5.552 1.776 5.917 1.351 6.27.92 6.615.478 6.948.038 7.27-.41 7.583-.855 7.878-1.302 8.159-1.744 8.423-2.187 8.669-2.623 8.902-3.061 9.116-3.497 9.314-3.924 9.493-4.349 9.653-4.761 9.793-5.163 9.91-5.555 10.011-5.94 10.087-6.311 10.144-6.672 10.177-7.021 10.191-7.356 10.186-7.673 10.153-7.973 10.104-8.256 10.031-8.524 9.935-8.772 9.819-9.004 9.68-9.216 9.521-9.41 9.34-9.58 9.143-9.732 8.923-9.86 8.688-9.968 8.431-10.053 8.158-10.12 7.864-10.164 7.556-10.185 7.231-10.187 6.893-10.165 6.542-10.12 6.178-10.056 5.802-9.971 5.417-9.864 5.013-9.735 4.603-9.59 4.188-9.422 3.763-9.239 3.336-9.037 2.902-8.814 2.466-8.577 2.024-8.321 1.577-8.047 1.13-7.76.681-7.462.236-7.15-.203-6.823-.641-6.488-1.078-6.137-1.509-5.778-1.938-5.404-2.364-5.027-2.778-4.643-3.185-4.252-3.583-3.853-3.968-3.453-4.348-3.047-4.716-2.633-5.075"/><path fill="#0E0C15" d="m389.867 5.817 5.731 1.484 5.41 1.888 5.08 2.288 4.744 2.686 4.392 3.081 4.035 3.472 3.662 3.858 3.28 4.243 2.891 4.623 2.491 4.993 2.09 5.353 1.681 5.706 1.268 6.047.851 6.381.431 6.702-.001 7.013-.43 7.314-.863 7.598-1.29 7.87-1.718 8.124-2.142 8.363-2.567 8.587-2.987 8.794-3.404 8.986-3.819 9.156-4.226 9.31-4.621 9.449-5.012 9.56-5.387 9.657-5.755 9.731-6.114 9.788-6.46 9.819-6.795 9.835-7.117 9.828-7.422 9.8-7.711 9.751-7.98 9.68-3.989 4.642-.003.006-.003.003-4.244 4.94-8.476 9.479-8.697 9.347-8.903 9.195-9.087 9.02-9.253 8.832-9.393 8.622-9.521 8.394-9.622 8.151-9.705 7.886-9.766 7.606-9.805 7.308-9.829 6.997-9.829 6.672-9.808 6.335-9.764 5.988-9.702 5.624-9.618 5.252-9.518 4.866-9.391 4.473-9.25 4.068-9.09 3.664-8.911 3.249-8.718 2.834-8.502 2.414-8.272 1.988-8.027 1.557-7.763 1.124-7.485.694-7.197.264-6.896-.161-6.582-.586-6.256-1.006-5.92-1.421-5.57-1.837-5.213-2.248-4.847-2.65-4.477-3.043-4.096-3.427-3.717-3.803-3.326-4.167-2.935-4.525-2.535-4.873-2.131-5.217-1.73-5.538"/><path fill="#0E0C15" d="m357.577 1.457 6.006.637 5.723 1.021 5.431 1.41 5.123 1.794 4.809 2.178 4.485 2.554 4.151 2.932 3.807 3.303 3.453 3.672 3.089 4.036 2.715 4.398 2.336 4.75 1.952 5.094 1.566 5.428 1.171 5.752.773 6.068.371 6.374-.034 6.67-.446 6.955-.855 7.225-1.264 7.482-1.666 7.725-2.074 7.951-2.471 8.163-2.874 8.359-3.266 8.541-3.662 8.704-4.047 8.85-4.422 8.978-4.789 9.088-5.146 9.178-5.496 9.249-5.832 9.301-6.162 9.335-6.48 9.346-6.781 9.342-7.073 9.315-7.341 9.269-7.601 9.205-7.843 9.118-8.067 9.014-8.275 8.888-8.469 8.744-8.645 8.582-8.798 8.401-8.935 8.206-9.05 7.99-9.147 7.759-9.226 7.51-9.284 7.243-9.322 6.963-9.344 6.671-9.34 6.362-9.32 6.044-9.281 5.713-9.221 5.371-9.142 5.018-9.045 4.652-8.926 4.279-8.792 3.899-8.638 3.513-8.473 3.122-8.285 2.727-8.083 2.329-7.866 1.923-7.631 1.515-7.381 1.107-7.12.692-6.843.288-6.558-.117-6.261-.52-5.95-.921-5.631-1.316-5.3-1.712-4.96-2.104-4.61-2.486-4.257-2.862-3.9-3.229-3.535-3.587-3.166-3.934-2.79-4.279-2.412-4.611-2.03-4.934-1.642-5.248-1.26-5.549-.877-5.833-.494-6.109"/><path fill="#0E0C15" d="m305.865 5.331 6.751-1.18 6.549-.827 6.333-.476 6.103-.117 5.866.24 5.612.6 5.343.96 5.067 1.327 4.779 1.688 4.48 2.045 4.176 2.4 3.862 2.753 3.537 3.103 3.205 3.447 2.862 3.786 2.511 4.128 2.157 4.456 1.794 4.778 1.431 5.089 1.062 5.394.689 5.689.313 5.974-.068 6.25-.452 6.517-.835 6.768-1.216 7.01-1.597 7.235-1.971 7.447-2.345 7.643-2.722 7.826-3.089 7.996-3.457 8.147-3.813 8.286-4.166 8.402-4.507 8.506-4.839 8.586-5.165 8.657-5.481 8.704-5.784 8.736-6.082 8.745-6.362 8.741-6.631 8.718-6.886 8.674-7.122 8.613-7.348 8.534-7.558 8.439-7.75 8.32-7.932 8.188-8.093 8.033-8.237 7.87-8.365 7.685-8.471 7.487-8.562 7.27-8.633 7.04-8.688 6.792-8.724 6.531-8.742 6.258-8.741 5.971-8.722 5.675-8.685 5.369-8.629 5.048-8.556 4.723-8.464 4.379-8.355 4.032-8.23 3.679-8.087 3.316-7.932 2.953-7.758 2.584-7.568 2.211-7.366 1.834-7.148 1.452-6.915 1.069-6.669.685-6.413.305-6.147-.074-5.867-.454-5.58-.827-5.28-1.199-4.971-1.569-4.65-1.936-4.328-2.297-3.994-2.649-3.659-2.993-3.319-3.329-2.973-3.659-2.622-3.98-2.266-4.297-1.907-4.6-1.545-4.894-1.183-5.178-.828-5.45-.465-5.709-.108-5.955.25-6.193.608-6.419.966-6.633"/><path fill="#0E0C15" d="m240.811 27.14 7.214-3.25 7.112-2.959 6.997-2.663 6.869-2.357 6.724-2.047 6.571-1.732 6.404-1.407 6.223-1.085 6.036-.759 5.83-.43 5.619-.103 5.396.228 5.158.563 4.913.898 4.654 1.232 4.383 1.567 4.111 1.899 3.828 2.224 3.535 2.551 3.235 2.87 2.925 3.19 2.61 3.506 2.285 3.814 1.956 4.12 1.621 4.414 1.287 4.703.948 4.982.603 5.25.255 5.516-.095 5.766-.448 6.014-.8 6.243-1.153 6.463-1.499 6.67-1.849 6.865-2.19 7.046-2.534 7.212-2.87 7.366-3.21 7.506-3.538 7.63-3.858 7.74-4.173 7.833-4.478 7.908-4.776 7.972-5.062 8.013-5.343 8.04-5.614 8.055-5.871 8.045-6.117 8.026-6.348 7.987-6.569 7.93-6.771 7.858-6.964 7.769-7.142 7.662-7.306 7.538-7.456 7.403-7.586 7.248-7.601 6.992-.099.089-7.8 6.899-7.881 6.702-7.949 6.491-8.001 6.264-8.03 6.026-8.048 5.776-8.047 5.512-8.031 5.243-7.996 4.961-7.946 4.669-7.879 4.368-7.796 4.056-7.696 3.737-7.58 3.412-7.45 3.081-7.31 2.748-7.149 2.409-6.976 2.067-6.791 1.719-6.59 1.368-6.376 1.017-6.152.663-5.919.313-5.671-.037-5.416-.384-5.153-.73-4.877-1.074-4.591-1.414-4.3-1.753-3.999-2.087-3.695-2.413-3.386-2.73-3.072-3.043-2.752-3.347-2.43-3.646-2.1-3.935-1.769-4.221-1.436-4.494L9.65 326.2l-.77-5.007-.44-5.251-.108-5.481.225-5.701.555-5.912.886-6.113 1.212-6.298 1.532-6.475 1.85-6.633 2.16-6.785 2.47-6.919 2.77-7.042 3.07-7.156"/><path fill="#0E0C15" d="m342.459 71.93-.434 5.456-.752 5.665-1.072 5.862-1.384 6.049-1.698 6.223-2.009 6.385-2.319 6.536-2.626 6.674-2.926 6.799-3.224 6.911-3.513 7.008-3.795 7.091-4.071 7.162-4.338 7.214-4.597 7.253-4.848 7.276-5.091 7.288-5.326 7.283-5.545 7.262-5.753 7.227-5.95 7.175-6.133 7.111-6.308 7.03-6.468 6.935-6.612 6.824-6.748 6.699-6.866 6.564-6.968 6.412-7.06 6.248-7.134 6.07-7.192 5.88-7.238 5.679-7.267 5.464-7.283 5.236-7.283 5.004-7.268 4.757-7.239 4.505-7.192 4.244-7.134 3.97-7.056 3.691-6.968 3.403-6.867 3.111-6.75 2.811-6.621 2.513-6.48 2.206-6.324 1.895-6.156 1.585-5.977 1.265-5.785.95-5.582.629-5.37.311-5.15-.005-4.921-.319-4.68-.631-4.432-.944-4.174-1.256-3.91-1.562-3.64-1.863-3.365-2.16-3.085-2.448-2.8-2.735-2.51-3.01-2.218-3.284-1.92-3.547-1.618-3.808-1.317-4.056-1.015-4.298-.712-4.529-.411-4.747-.11-4.959.193-5.165.493-5.353.794-5.541 1.091-5.709 1.387-5.872 1.673-6.02 1.956-6.156 2.238-6.283 2.514-6.397 2.784-6.501 3.053-6.591 3.313-6.672 3.566-6.74 3.811-6.793 4.048-6.837 4.28-6.867 4.5-6.886 4.718-6.891 4.925-6.888 5.123-6.869 5.31-6.841 5.491-6.8 5.657-6.746 5.817-6.682 5.963-6.606 6.104-6.517 6.231-6.417 6.349-6.309 6.455-6.187 6.551-6.054 6.632-5.913 6.703-5.763 6.765-5.598 6.813-5.425 6.85-5.24 6.874-5.05 6.888-4.85 6.89-4.637 6.877-4.423 6.855-4.197 6.817-3.962 6.77-3.722 6.712-3.468 6.638-3.214 6.556-2.952 6.46-2.686 6.352-2.414 6.237-2.135 6.103-1.853 5.962-1.565 5.805-1.27 5.644-.976 5.466-.68 5.282-.379 5.087-.081 4.883.219 4.664.523 4.437.827 4.204 1.133 3.957 1.436 3.707 1.735 3.449 2.034 3.182 2.328 2.908 2.617 2.629 2.907 2.337 3.192 2.046 3.473 1.744 3.748 1.444 4.016 1.137 4.273.829 4.527.519 4.772.2 5.007-.114 5.236Z"/><path fill="#0E0C15" d="m320.39 79.524-.411 4.863-.694 5.05-.974 5.225-1.254 5.388-1.532 5.541-1.807 5.686-2.081 5.817-2.353 5.938-2.619 6.048-2.882 6.148-3.139 6.233-3.389 6.304-3.632 6.366-3.866 6.413-4.098 6.447-4.32 6.467-4.533 6.474-4.739 6.472-4.935 6.451-5.118 6.421-4.769 5.746-.521.631-5.455 6.315-5.607 6.247-5.747 6.161-5.879 6.064-5.994 5.955-6.101 5.832-6.191 5.698-6.271 5.556-6.339 5.398-6.391 5.231-6.43 5.051-6.456 4.86-6.472 4.663-6.473 4.456-6.458 4.238-6.434 4.016-6.393 3.783-6.341 3.544-6.276 3.295-6.196 3.043-6.109 2.782-6.006 2.518-5.892 2.251-5.767 1.981-5.632 1.709-5.483 1.428-5.325 1.151-5.155.865-4.975.583-4.79.302-4.595.019-4.39-.261-4.179-.538-3.959-.815-3.731-1.092-3.497-1.367-3.256-1.636-3.01-1.9-2.763-2.16-2.511-2.412-2.254-2.661-1.993-2.904-1.727-3.142-1.458-3.376-1.19-3.598-.92-3.812-.651-4.02-.381-4.221-.113-4.409.157-4.593.428-4.764.695-4.933.961-5.085 1.226-5.231 1.482-5.365 1.738-5.491 1.988-5.602 2.236-5.707 2.48-5.799 2.719-5.887 2.955-5.957 3.179-6.017 3.402-6.069 3.612-6.111 3.82-6.135 4.022-6.155 4.213-6.162 4.401-6.156 4.579-6.142 4.749-6.117 4.906-6.082 5.06-6.035 5.201-5.976 5.334-5.91 5.459-5.83 5.574-5.74 5.679-5.643 5.775-5.532 5.858-5.415 5.933-5.29 5.996-5.152 6.05-5.005 6.093-4.852 6.126-4.684 6.145-4.512 6.16-4.332 6.157-4.145 6.147-3.948 6.123-3.748 6.094-3.536 6.046-3.32 5.993-3.094 5.928-2.864 5.85-2.627 5.764-2.392 5.668-2.146 5.561-1.897 5.441-1.645 5.314-1.384 5.171-1.123 5.025-.858 4.867-.593 4.699-.327 4.524-.058 4.338.21 4.146.483 3.94.753 3.729 1.026 3.51 1.297 3.284 1.562 3.051 1.828 2.814 2.089 2.569 2.35 2.319 2.604 2.061 2.86 1.797 3.108 1.531 3.353 1.26 3.589.987 3.82.714 4.043.437 4.26.158 4.467-.126 4.671Z"/><path fill="#0E0C15" d="m300.445 90.211-.376 4.255-.623 4.416-.87 4.567-1.111 4.709-1.352 4.84-1.592 4.964-1.83 5.08-2.065 5.183-2.296 5.277-2.528 5.364-2.746 5.436-2.965 5.499-3.173 5.549-3.381 5.59-3.578 5.619-3.772 5.636-3.957 5.64-4.134 5.639-4.303 5.621-4.464 5.594-4.613 5.554-4.754 5.502-4.886 5.443-5.009 5.367-5.12 5.282-5.224 5.188-5.316 5.08-5.394 4.967-5.462 4.842-5.52 4.706-5.567 4.56-5.602 4.406-5.629 4.24-5.638 4.068-5.638 3.889-5.629 3.701-5.608 3.508-5.574 3.308-5.527 3.099-5.475 2.883-5.406 2.664-5.327 2.438-5.241 2.21-5.144 1.977-5.036 1.743-4.918 1.506-4.791 1.263-4.653 1.019-4.507.774-4.352.528-4.192.28-4.022.036-3.844-.207-3.66-.45-3.47-.694-3.274-.934-3.069-1.175-2.859-1.411-2.647-1.64-2.431-1.868-2.21-2.091-1.986-2.307-1.757-2.523-1.527-2.729-1.294-2.934-1.055-3.132-.822-3.319-.586-3.505-.351-3.677-.113-3.847.12-4.006.36-4.159.595-4.309.828-4.442 1.059-4.573 1.285-4.691 1.51-4.8 1.73-4.903 1.948-4.996 2.163-5.078 2.375-5.152 2.577-5.217 2.782-5.273 2.973-5.318 3.162-5.352 3.342-5.38 3.52-5.395 3.69-5.403 3.857-5.4 4.011-5.386 4.163-5.365 4.301-5.335 4.435-5.293 4.561-5.244 4.678-5.181 4.789-5.116 4.887-5.034 4.983-4.949 5.065-4.854 5.14-4.752 5.204-4.638 5.259-4.517 5.309-4.387 5.342-4.252 5.373-4.105 5.392-3.954 5.398-3.794 5.398-3.63 5.39-3.458 5.368-3.278 5.339-3.092 5.298-2.904 5.249-2.702 5.191-2.5 5.124-2.295 5.045-2.084 4.959-1.868 4.865-1.651 4.759-1.426 4.643-1.201 4.522-.971 4.387-.737 4.25-.504 4.103-.27 3.946-.036 3.783.202 3.614.437 3.432.676 3.245.913 3.054 1.15 2.856 1.384 2.65 1.613 2.443 1.844 2.227 2.07 2.007 2.293 1.782 2.514 1.552 2.732 1.317 2.943 1.082 3.149.845 3.349.602 3.545.362 3.73.119 3.912-.129 4.088Z"/><path fill="#0E0C15" d="m283.271 103.626-.336 3.645-.547 3.783-.753 3.911-.961 4.028-1.166 4.145-1.372 4.247-1.572 4.341-1.774 4.431-1.969 4.51-2.167 4.582-2.353 4.643-2.536 4.696-2.717 4.737-2.89 4.772-3.059 4.795-3.222 4.808-2.751 3.921-.63.895-3.53 4.808-3.675 4.795-3.808 4.772-3.937 4.736-4.055 4.694-4.169 4.639-4.274 4.579-4.367 4.507-4.456 4.422-4.532 4.337-4.601 4.237-4.66 4.129-4.707 4.015-4.751 3.893-4.777 3.76-4.8 3.62-3.806 2.75-.03.023-.974.703-4.812 3.321-4.803 3.163-4.786 3-4.758 2.827-4.719 2.652-4.675 2.468-4.618 2.283-4.553 2.088-4.479 1.899-4.398 1.697-4.306 1.501-4.206 1.297-4.099 1.092-3.984.882-3.861.675-3.729.462-3.591.255-3.448.043-3.3-.162-3.14-.371-2.981-.58-2.815-.784-2.637-.99-2.46-1.191-2.28-1.39-2.096-1.585-1.906-1.774-1.716-1.961-1.522-2.145-1.324-2.327-1.123-2.498-.92-2.67-.721-2.834-.519-2.99-.316-3.142-.113-3.286.09-3.426.293-3.556.493-3.684.696-3.803.895-3.916 1.088-4.016 1.282-4.111 1.472-4.203 1.66-4.28 1.845-4.353 2.028-4.419 2.203-4.475 2.377-4.524 2.544-4.562 2.706-4.594 2.864-4.617 3.015-4.631 3.163-4.638 3.307-4.638 3.44-4.626 3.569-4.607 3.694-4.581 3.805-4.547 3.916-4.502 4.015-4.452 4.111-4.393 4.199-4.325 4.278-4.248 4.35-4.168 4.414-4.079 4.471-3.981 4.517-3.877 4.556-3.765 4.59-3.649 4.613-3.523 4.628-3.39 4.638-3.252 4.634-3.111 4.625-2.962 4.608-2.806 4.58-2.648 4.547-2.483 4.503-2.31 4.453-2.137 4.393-1.958 4.324-1.778 4.251-1.59 4.167-1.404 4.076-1.211 3.977-1.016 3.871-.816 3.755-.618 3.634-.417 3.507-.217 3.372-.013 3.234.188 3.084.391 2.93.595 2.769.798 2.601 1 2.433 1.201 2.258 1.4 2.077 1.594 1.893 1.787 1.703 1.977 1.511 2.167 1.311 2.352 1.113 2.531.91 2.708.707 2.877.502 3.043.296 3.202.086 3.356-.122 3.505Z"/><path fill="#0E0C15" d="m269.378 119.34-.289 3.057-.465 3.169-.64 3.273-.809 3.374-.981 3.465-1.153 3.552-1.318 3.63-1.488 3.704-1.651 3.768-1.812 3.827-1.968 3.879-2.122 3.92-2.271 3.954-1.225 2.024-1.19 1.958-2.554 4.002-2.69 4.012-2.821 4.016-2.946 4.011-3.065 3.998-3.177 3.979-3.284 3.95-3.383 3.912-3.476 3.871-3.562 3.817-3.642 3.755-3.715 3.689-3.778 3.615-3.837 3.532-3.885 3.445-3.926 3.349-3.959 3.247-3.985 3.137-4.004 3.02-4.01 2.9-4.015 2.773-4.008 2.64-3.994 2.506-.356.21-.018.012-.008.005-3.588 2.137-3.94 2.214-3.905 2.066-3.856 1.908-3.804 1.751-3.742 1.588-3.676 1.426-3.601 1.259-3.519 1.088-3.431.92-3.334.747-3.232.571-3.125.396-3.01.22-2.89.048-2.768-.127-2.639-.3-2.504-.474-2.362-.646-2.22-.818-2.072-.986-1.921-1.152-1.766-1.315-1.61-1.478-1.45-1.63-1.288-1.787-1.125-1.936-.955-2.086-.785-2.226-.62-2.365-.449-2.496-.278-2.624-.11-2.746.062-2.864.228-2.975.403-3.083.568-3.182.737-3.278.9-3.364 1.063-3.445 1.222-3.518 1.382-3.588 1.535-3.649 1.691-3.705 1.84-3.752 1.985-3.793 2.125-3.828 2.264-3.854 2.397-3.874 2.523-3.888 2.65-3.893 2.768-3.89 2.885-3.883 2.993-3.868 3.095-3.846 3.191-3.814 3.285-3.782 3.369-3.737 3.449-3.687 3.523-3.629 3.591-3.568 3.652-3.496 3.704-3.422 3.753-3.34 3.792-3.251 3.826-3.161 3.853-3.057 3.872-2.952 3.884-2.841 3.891-2.724 3.889-2.604 3.883-2.478 3.866-2.349 3.843-2.216 3.813-2.074 3.776-1.928 3.734-1.782 3.682-1.632 3.626-1.479 3.561-1.325 3.49-1.164 3.415-1.004 3.33-.838 3.238-.671 3.144-.504 3.039-.336 2.934-.167 2.819.003 2.701.17 2.576.344 2.445.513 2.311.684 2.171.853 2.027 1.02 1.879 1.187 1.731 1.35 1.575 1.508 1.414 1.67 1.253 1.825 1.09 1.981.92 2.131.751 2.277.581 2.417.409 2.556.237 2.688.063 2.812-.112 2.939Z"/><path fill="#0E0C15" d="m170.067 248.111-2.583 1.367-.321.169-3.146 1.559-1.775.818h-.004l-.092.043-.005.001-.027.014-.056.026-.028.012-1.115.515-3.056 1.297-3 1.164-2.94 1.032-2.875.891-2.803.756-2.726.613-2.644.47-2.554.328-2.465.185-2.368.044-2.268-.098-2.163-.239-2.054-.381-1.94-.521-1.823-.661-1.703-.799-1.579-.936-1.455-1.068-1.329-1.199-1.197-1.327-1.066-1.456-.93-1.577-.794-1.698-.656-1.815-.518-1.926-.381-2.038-.24-2.141-.103-2.243.035-2.337.177-2.43.316-2.519.454-2.601.592-2.678.725-2.753.858-2.816.991-2.879 1.121-2.937 1.247-2.986 1.375-3.031 1.497-3.075 1.619-3.105 1.734-3.136 1.847-3.155 1.954-3.174 2.064-3.183 2.163-3.191 2.265-3.188 2.358-3.18 2.447-3.169 2.534-3.15 2.612-3.126 2.687-3.097 2.759-3.061 2.826-3.022 2.884-2.973 2.942-2.922 2.989-2.864 3.036-2.801 3.075-2.736 3.107-2.66 3.136-2.586 3.155-2.502 3.172-2.414 3.183-2.322 3.189-2.228 3.187-2.127 3.178-2.025 3.166-1.917 3.149-1.807 3.124-1.689 3.09-1.574 3.056-1.449 3.013-1.327 2.969-1.203 2.913-1.071 2.856-.944 2.792-.809 2.723-.675 2.647-.537 2.568-.401 2.486-.263 2.395-.123 2.302.013 2.205.154 2.102.293 1.994.434 1.884.572 1.769.709 1.651.85 1.531.98 1.406 1.115 1.282 1.245 1.151 1.377 1.017 1.504.883 1.628.744 1.751.608 1.87.467 1.984.329 2.096.187 2.201.045 2.307-.096 2.405-.242 2.502-.382 2.592-.527 2.676-.664 2.758-.807 2.831-.942 2.9-1.08 2.965-1.215 3.023-1.341 3.061-.008.015-.017.037-.007.016-.078.161-1.378 2.908-.634 1.251-.035.068-.936 1.843-1.31 2.417"/><path fill="#0E0C15" d="m252.378 160.682-.052.144-.025.068-.059.162-.02.057-.002.005-.044.124-.005.011-.247.678"/><path fill="#0E0C15" d="m252.548 160.102-.174.538-.108.326-.005.015-.018.062-.063.192-.005.015M252.6 159.757l-.345 1.206-.008.028M252.576 159.614l-.346 1.436.346-1.436ZM161.097 252.311l-.172.04-2.111.377-2.042.264-1.969.15-1.894.038-1.815-.076-1.731-.187-1.645-.3-1.555-.412-1.463-.525-1.366-.635-1.269-.742-1.169-.848-1.07-.954-.966-1.055-.86-1.158-.752-1.255-.644-1.35-.535-1.446-.424-1.537-.315-1.624-.204-1.707-.091-1.788.019-1.863.13-1.94.242-2.01.353-2.076.462-2.138.57-2.197.677-2.251.782-2.299.886-2.344.989-2.386 1.092-2.424 1.189-2.454 1.287-2.483 1.38-2.506 1.469-2.523 1.557-2.538 1.645-2.545 1.724-2.55 1.807-2.549 1.88-2.542 1.955-2.535 2.022-2.519 2.086-2.5 2.145-2.476 2.204-2.446 2.256-2.415 2.308-2.377 2.35-2.334 2.392-2.289 2.425-2.24 2.458-2.183 2.484-2.126 2.505-2.064 2.524-1.998 2.538-1.925 2.546-1.853 2.547-1.776 2.548-1.696 2.541-1.613 2.532-1.526 2.516-1.439 2.496-1.343 2.472-1.249 2.441-1.153 2.408-1.054 2.371-.949 2.327-.849 2.281-.744 2.231-.638 2.173-.53 2.114-.421 2.049-.309 1.981-.199 1.913-.088 1.835.023 1.757.131 1.677.245 1.588.356 1.501.467 1.409.579 1.316.685 1.217.794 1.12.901 1.017 1.004.914 1.106.808 1.209.701 1.307.591 1.406.481 1.498.369 1.591.26 1.678.146 1.763.033 1.845-.079 1.921-.194 2-.308 2.07-.307 1.555M252.102 161.481l-.04.102-.579 1.438M516.535 248.227l-2.521 7.868-2.891 8.029-3.258 8.171-3.619 8.296-3.97 8.41-4.315 8.499-4.651 8.573-4.976 8.633-5.297 8.67-5.605 8.692-5.904 8.696-6.191 8.68-6.463 8.646-6.722 8.597-6.967 8.527-7.197 8.439-7.412 8.333-7.614 8.211-7.802 8.066-7.969 7.91-8.119 7.735-8.258 7.545-8.369 7.339-8.469 7.118-8.55 6.88-8.612 6.631-8.658 6.362-8.684 6.084-8.695 5.792-8.682 5.496-8.655 5.183-8.61 4.86-8.543 4.528-8.463 4.189-8.363 3.838-8.247 3.48-8.115 3.119-7.965 2.755-7.805 2.385"/><path fill="#0E0C15" d="m526.186 192.877-.681 7.303-1.086 7.553-1.491 7.785-1.893 8.005-2.296 8.209-2.695 8.397-3.091 8.57-3.483 8.724-3.871 8.863-4.247 8.981-4.616 9.085-4.976 9.163-5.327 9.23-5.67 9.271-5.999 9.295-6.319 9.301-6.629 9.285-6.92 9.253-7.197 9.201-7.459 9.125-7.707 9.032-7.938 8.922-8.151 8.787-8.353 8.638-8.532 8.465-8.694 8.284-8.837 8.078-8.958 7.858-9.065 7.621-9.151 7.369-9.215 7.098-9.262 6.811-9.293 6.513-9.297 6.203-9.286 5.88-9.254 5.547-9.202 5.201-9.132 4.849-9.042 4.48-8.933 4.103-8.809 3.723-8.664 3.335-8.504 2.945-8.327 2.549-8.133 2.15-7.92 1.746-7.694 1.34-7.456.929-7.197.522"/><path fill="#0E0C15" d="m523.268 145.912.987 6.466.566 6.785.141 7.087-.29 7.383-.719 7.662-1.148 7.926-1.572 8.174-1.999 8.41-2.42 8.624-2.84 8.824-3.258 9.009-3.676 9.175-4.081 9.322-4.479 9.448-4.87 9.557-5.247 9.647-5.617 9.715-5.98 9.762-6.327 9.789-6.665 9.796-6.99 9.783-7.3 9.748-7.589 9.693-7.868 9.617-8.126 9.521-8.37 9.403-8.597 9.262-8.805 9.107-8.996 8.93-9.165 8.73-9.315 8.521-9.445 8.285-9.552 8.038-9.644 7.769-9.709 7.487-9.761 7.183-9.786 6.868-9.793 6.542-9.776 6.202-9.744 5.849-9.687 5.489-9.612 5.11-9.512 4.725-9.398 4.327-9.263 3.926-9.11 3.518-8.94 3.105-8.749 2.69-8.543 2.266-8.318 1.842-8.08 1.415-7.822.98-7.551.552-7.27.124-6.973-.301-6.666-.719"/><path fill="#0E0C15" d="m514.247 113.688 1.87 5.985 1.442 6.335 1.016 6.677.578 7.005.136 7.325-.31 7.63-.755 7.924-1.199 8.2-1.642 8.459-2.082 8.701-2.523 8.929-2.958 9.137-3.392 9.332-3.823 9.504-4.246 9.662-4.659 9.794-5.062 9.908-5.458 10.003-5.842 10.073-6.214 10.127-6.578 10.155-6.929 10.165-7.266 10.152-7.585 10.119-7.889 10.063-8.176 9.984-8.444 9.886-8.694 9.764-8.933 9.622-9.147 9.458-9.345 9.276-9.521 9.07-9.673 8.852-9.806 8.609-9.92 8.353L331.207 436l-10.079 7.78-10.129 7.465-10.155 7.141-10.162 6.799-10.144 6.447-10.105 6.084-10.045 5.704-9.966 5.316-9.862 4.912-9.74 4.502-9.598 4.083-9.437 3.663-9.257 3.231-9.061 2.8-8.843 2.363-8.61 1.922-8.36 1.475-8.089 1.027-7.807.582-7.513.139-7.204-.303-6.884-.739-6.549-1.173-6.205-1.603-5.849-2.029"/><path fill="#0E0C15" d="m499.462 83.716 2.746 5.34 2.326 5.718 1.895 6.089 1.459 6.448 1.021 6.798.574 7.134.123 7.464-.333 7.776-.789 8.08-1.244 8.36-1.694 8.628-2.145 8.88-2.596 9.111-3.041 9.329-3.485 9.524-3.925 9.707-4.358 9.867-4.782 10.006-5.193 10.126-5.597 10.221-5.989 10.296-6.371 10.352-6.743 10.384-7.101 10.394-7.445 10.384-7.772 10.349-8.08 10.293-8.374 10.216-8.648 10.116-8.905 9.991-9.147 9.849-9.365 9.68-9.565 9.496-9.745 9.287-9.902 9.064-10.034 8.818-10.15 8.554-10.242 8.27-10.311 7.969-10.36 7.651-10.384 7.316-10.391 6.969-10.37 6.61-10.329 6.235-10.268 5.852-10.184 5.449-10.076 5.041-9.949 4.619-9.803 4.194-9.637 3.76-9.449 3.321-9.25 2.879-9.023 2.432-8.784 1.982-8.526 1.526-8.248 1.066-7.959.612-7.656.155-7.34-.289-7.008-.741-6.668-1.182-6.316-1.622-5.945-2.059-5.57-2.489-5.186-2.914M166.556 249.938l-.061-.022-1.073-.493-.999-.578-.921-.663-.841-.742-.762-.825-.681-.903-.597-.977-.51-1.057-.425-1.128-.342-1.199-.253-1.267-.167-1.333-.081-1.397.006-1.457.095-1.516.182-1.57.268-1.623.353-1.672.439-1.717.522-1.761.604-1.797.686-1.835.767-1.867.848-1.895.924-1.922 1.001-1.941 1.073-1.961 1.146-1.974 1.214-1.986 1.281-1.993 1.346-1.996 1.41-1.993 1.468-1.991 1.525-1.982 1.58-1.971 1.63-1.958 1.678-1.936 1.723-1.915 1.765-1.889 1.802-1.858 1.839-1.825 1.87-1.791 1.898-1.749 1.923-1.708 1.945-1.663 1.959-1.611 1.975-1.561 1.986-1.505 1.992-1.446 1.995-1.385 1.992-1.323 1.99-1.258 1.981-1.189 1.969-1.118 1.953-1.049 1.935-.97 1.909-.896 1.884-.817 1.853-.737 1.822-.656 1.784-.575 1.743-.493 1.701-.406 1.651-.32 1.604-.235 1.548-.147 1.493-.062 1.434.027 1.373.111 1.309.199 1.242.288 1.171.372 1.1.461 1.025.545.951.626.873.711.793.793.713.871.631.953.545 1.028.309.741"/><path fill="#0E0C15" d="m181.949 240.75.027-.474.134-1.214.202-1.256.267-1.293.334-1.329.398-1.361.463-1.392.525-1.419.589-1.443.649-1.467.712-1.488.77-1.502.825-1.518.883-1.528.936-1.536.987-1.54 1.039-1.546 1.086-1.543 1.135-1.539 1.178-1.536 1.219-1.524 1.258-1.513 1.297-1.499 1.332-1.481 1.365-1.461 1.393-1.436 1.423-1.413 1.446-1.383 1.466-1.354 1.489-1.32 1.502-1.283 1.517-1.246 1.529-1.204 1.536-1.161 1.54-1.117 1.546-1.068 1.542-1.022 1.538-.969 1.534-.914 1.523-.863 1.512-.807 1.495-.747 1.48-.687 1.457-.626 1.435-.567 1.409-.502 1.38-.439 1.348-.374 1.315-.308 1.277-.244 1.239-.175 1.198-.108h.02M167.493 249.473l-1.901.941-3.022 1.391M197.63 228.845l-3.1 2.544-3.517 2.768-3.53 2.665-3.341 2.413-.198.143"/><path fill="#0E0C15" d="m184.133 239.238-2.186 1.511-.618.426-3.444 2.27-3.433 2.155"/><path fill="#0E0C15" d="m175.291 245.073-3.009 1.791-3.3 1.858M467.032 348.633l-5.695 7.984-5.941 7.952-6.18 7.906-6.406 7.84-6.615 7.758-6.815 7.663-6.999 7.546-7.171 7.416-7.326 7.269-7.464 7.11-7.589 6.937-7.694 6.746-7.788 6.543-7.862 6.327-7.919 6.094-7.964 5.85-7.988 5.594M230.598 195.464l-.303.363-2.67 3.214-3.061 3.541-3.146 3.5-3.225 3.453-3.294 3.401-3.363 3.339-3.42 3.272-3.472 3.196-3.515 3.118-3.505 2.988-.048.041"/><path fill="#0E0C15" d="m240.785 181.839-.118.167-.41.587-1.96 2.787-2.599 3.54-2.705 3.526-2.698 3.378"/><path fill="#0E0C15" d="m244.67 175.853-.249.39-1.948 3.048-1.82 2.718-.393.585"/><path fill="#0E0C15" d="m247.9 170.329-.318.55-1.585 2.761-1.579 2.605M251.169 163.793l-1.307 2.757 1.307-2.757ZM251.714 162.514l-.224.505-.671 1.533M160.936 252.371l-1.634.508-.222.07"/><path fill="#0E0C15" d="m161.541 252.155-.109.04-.002.002-.328.112-.021.008-.138.048-.314.11-1.017.358M161.427 252.197l-.303.055.303-.055Z"/><path fill="#0E0C15" d="m162.564 251.756-1.02.394-.09.037-.001-.002-.214.085-.032.011-.026.01-.104.042-.024.01-.005.001-.011.005-.669.259M164.022 251.139l-1.453.618-.52.218-.094.042-.33.141h-.003l-.161.067-.029.014-.005.001-.009.005-.061.025"/><path stroke="url(#a)" stroke-linecap="round" stroke-linejoin="round" stroke-miterlimit="10" stroke-width="2" d="m55.662 478.042 4.403 3.737 4.803 3.329 5.2 2.914 5.587 2.489 5.97 2.051 6.337 1.613 6.696 1.168 7.042.724 7.375.27 7.694-.181 8.001-.639 8.296-1.098 8.574-1.56 8.837-2.02 9.08-2.474 9.307-2.924 9.513-3.37 9.701-3.812 9.869-4.247 10.021-4.677 10.147-5.102 10.258-5.514 10.344-5.918 10.409-6.305 10.45-6.68 10.471-7.043 10.469-7.39 10.443-7.727 10.396-8.05 10.327-8.354 10.236-8.636 10.124-8.901 9.987-9.148 9.83-9.374 9.654-9.581 9.449-9.767 9.23-9.935 8.989-10.079 8.732-10.2 8.454-10.303 8.163-10.379 7.85-10.433 7.521-10.467 7.177-10.477 6.815-10.465 6.438-10.43 6.057-10.374 5.664-10.298 5.254-10.196 4.84-10.078 4.412-9.934 3.98-9.771 3.535-9.591 3.088-9.388 2.638-9.168 2.185-8.933 1.732-8.68 1.276-8.407.816-8.121.36-7.82-.101-7.499-.557-7.168-1.005-6.83-1.449-6.471-1.887-6.114-2.321-5.736-2.746-5.353-3.168-4.961-3.583-4.557M55.662 478.042l-1.94-1.893-1.894-1.941-3.99-4.126-1.844-1.98-1.8-2.024-1.748-2.067-1.7-2.11-3.554-4.486-1.645-2.141-1.59-2.18-1.54-2.22-1.486-2.254-3.11-4.819-1.424-2.275-1.368-2.313-1.314-2.343-1.257-2.374-2.653-5.115-1.191-2.387-1.133-2.415-1.075-2.443-1.014-2.468-2.196-5.38-.946-2.466-.884-2.491-.824-2.513-1.759-5.632-.752-2.501-.692-2.521-.63-2.538-1.325-5.853-.56-2.518-.493-2.531-.432-2.542-.908-6.043-.363-2.516-.298-2.521-.235-2.531-.5-6.198-.168-2.493-.102-2.494-.113-6.371-.038-2.45.028-2.449.093-2.449.263-6.468.154-2.393.22-2.39.623-6.593.278-2.325.984-6.755.333-2.258.398-2.249 1.317-6.833.447-2.173 2.147-9.05.558-2.079 1.95-6.991.6-1.993 2.255-7.078.641-1.903 2.549-7.144.674-1.81 2.833-7.196.704-1.711 3.102-7.233.734-1.608 3.36-7.254 3.648-7.341.714-1.423 3.88-7.333.73-1.311 4.1-7.307 4.354-7.352.689-1.113 4.548-7.302 4.785-7.319 5.016-7.325.575-.826 5.174-7.235 5.382-7.217 5.579-7.182 5.764-7.143.373-.452 5.871-7.001 6.036-6.934 6.19-6.856 6.334-6.764 6.466-6.659 6.59-6.546 6.7-6.422 6.796-6.282 6.884-6.139 6.957-5.98 7.019-5.81.484-.398 7.155-5.698 7.196-5.505 7.22-5.302 7.237-5.094.859-.601 7.32-4.931 7.311-4.7 1.064-.66 7.369-4.514 7.333-4.262 1.262-.702 7.366-4.046 7.299-3.779 1.455-.729 7.304-3.538 1.561-.712 7.291-3.286 7.192-2.991 1.739-.72 7.147-2.717 1.841-.688 7.089-2.435 1.931-.65 7.017-2.136 2.019-.61 2.039-.55 6.992-1.843 2.12-.503 6.88-1.517 2.2-.454 2.209-.391 6.815-1.193 2.281-.336 6.668-.845 2.349-.281 2.354-.217 6.561-.492 2.413-.158 2.415-.093 6.43-.125 2.468-.03 2.47.035 8.785.354 2.51.167 2.504.229 6.137.65 2.537.3 2.531.363 2.52.426 5.966 1.063 2.546.496 2.531.56 2.517.622 5.763 1.493 2.533.694 2.514.755 2.495.815 5.528 1.928 2.502.888 2.478.947 2.454 1.007 2.43 1.066 5.289 2.38 2.423 1.134 2.396 1.193 2.365 1.249 2.334 1.307 5.013 2.83 2.318 1.37 2.284 1.427 2.248 1.479 2.213 1.533 4.702 3.278 2.187 1.594 2.144 1.645 2.106 1.694 2.065 1.744 4.358 3.722 2.029 1.797 1.983 1.844 1.938 1.892 1.893 1.936 3.984 4.149M55.662 478.042l1.983 1.844 2.025 1.797 4.406 3.74 2.07 1.747 2.108 1.698 2.145 1.645 2.185 1.592 7.02 4.87 2.25 1.482 2.288 1.426 2.317 1.37 5.171 2.905 2.34 1.309 2.37 1.25 2.396 1.195 2.423 1.131 5.51 2.465 2.436 1.068 2.457 1.005 2.483.946 2.499.883 5.811 2.018 2.501.815 2.519.75 2.533.687 6.095 1.577 2.523.618 2.536.555 2.546.488 6.345 1.142 2.526.419 2.533.353 2.539.289 6.561.711 2.506.22 2.509.154 6.782.295 2.468.086 2.468.024 9.396-.161 2.412-.11 9.503-.687 2.347-.237 7.291-.907 2.279-.295 2.269-.358 7.408-1.289 2.193-.414 2.18-.477 7.495-1.651 2.095-.525 7.623-2.015 2.009-.571 7.73-2.364 1.913-.611 7.82-2.705 1.814-.647 7.884-3.031 1.711-.681 7.933-3.348 1.6-.705 7.96-3.651 1.489-.727 7.968-3.942 8.041-4.262 1.284-.698 8.015-4.523 8.055-4.822 1.069-.651 7.99-5.052 7.997-5.33.846-.585 7.898-5.529 7.871-5.784 7.828-6.022 7.77-6.253.438-.361 7.606-6.391 7.515-6.59 7.412-6.773 7.291-6.944 7.154-7.101 7.002-7.243 6.836-7.369 6.655-7.484 6.462-7.578.331-.401 6.33-7.748 6.109-7.815 5.874-7.861 5.628-7.891.56-.812 5.43-8 5.154-7.997 4.873-7.981.683-1.122 4.629-8.036 5.054-9.32 4.06-8.002.71-1.456 3.778-8.002.691-1.569 3.48-7.982 3.134-7.858.697-1.76 2.81-7.802.664-1.86 2.474-7.722.625-1.959.561-1.98 2.149-7.694.518-2.069 1.789-7.573.47-2.153 1.423-7.432.418-2.233.353-2.244 1.055-7.33.298-2.315.232-2.326.669-7.198.172-2.386.106-2.395.273-7.038.042-2.446-.023-2.448-.138-6.853-.089-2.494-.158-2.493-.553-6.639-.225-2.528-.288-2.524-.355-2.521-.982-6.432-.426-2.545-.487-2.535-.555-2.522-1.414-6.199-.625-2.539-.687-2.522-.75-2.51-1.852-5.926-.822-2.511-.881-2.495-.944-2.471-2.289-5.625-1.012-2.467-1.074-2.444-1.131-2.417-1.191-2.394-2.733-5.303-1.254-2.374-1.313-2.347-1.372-2.312-1.424-2.283-3.166-4.947-1.485-2.255-1.539-2.218-1.595-2.181-1.645-2.145-3.586-4.56-1.699-2.107-1.748-2.066-1.799-2.027-1.848-1.981m-24.69-22.013 4.324 3.692 3.934 4.103 3.533 4.507 3.121 4.906 2.703 5.3 2.276 5.682 1.849 6.052 1.411 6.414.97 6.767.526 7.105.071 7.435-.385 7.752-.841 8.053-1.297 8.34-1.747 8.612-2.2 8.861-2.649 9.099-3.094 9.315-3.538 9.518-3.98 9.701-4.411 9.861-4.833 10.004-5.244 10.127-5.65 10.225-6.041 10.305-6.419 10.36-6.791 10.396-7.15 10.407-7.492 10.4-7.818 10.369-8.125 10.314-8.414 10.24-8.691 10.142-8.945 10.021-9.181 9.877-9.403 9.715-9.599 9.529-9.774 9.324-9.932 9.1-10.064 8.858-10.174 8.597-10.264 8.313-10.333 8.014-10.377 7.697-10.402 7.364-10.402 7.017-10.382 6.658-10.338 6.286-10.273 5.9-10.186 5.503-10.076 5.093-9.947 4.673-9.799 4.247-9.628 3.811-9.442 3.376-9.234 2.933-9.011 2.485-8.765 2.034-8.506 1.578-8.229 1.12-7.934.663-7.629.208-7.31-.24-6.98-.689-6.633-1.134-6.281-1.574-5.91-2.011-5.533-2.445-5.144-2.869-4.752-3.281-4.353-3.687-3.953-4.081-3.538-4.466m392.412-434.68 4.941 2.787 4.58 3.198 4.205 3.603 3.828 4.003 3.431 4.401 3.024 4.794 2.617 5.178 2.2 5.552 1.776 5.917 1.351 6.27.92 6.615.478 6.948.038 7.27-.41 7.583-.855 7.878-1.302 8.159-1.744 8.423-2.187 8.669-2.623 8.902-3.061 9.116-3.497 9.314-3.924 9.493-4.349 9.653-4.761 9.793-5.163 9.91-5.555 10.011-5.94 10.087-6.311 10.144-6.672 10.177-7.021 10.191-7.356 10.186-7.673 10.153-7.973 10.104-8.256 10.031-8.524 9.935-8.772 9.819-9.004 9.68-9.216 9.521-9.41 9.34-9.58 9.143-9.732 8.923-9.86 8.688-9.968 8.431-10.053 8.158-10.12 7.864-10.164 7.556-10.185 7.231-10.186 6.893-10.166 6.542-10.12 6.178-10.056 5.802-9.971 5.417-9.864 5.013-9.735 4.603-9.59 4.188-9.422 3.763-9.239 3.336-9.037 2.902-8.814 2.466-8.577 2.024-8.321 1.577-8.047 1.13-7.76.681-7.462.236-7.15-.203-6.823-.641-6.488-1.078-6.137-1.509-5.778-1.938-5.404-2.364-5.027-2.778-4.643-3.185-4.252-3.583-3.853-3.968-3.453-4.348-3.047-4.716-2.633-5.075M389.867 5.817l5.731 1.484 5.41 1.888 5.08 2.288 4.744 2.686 4.392 3.081 4.035 3.472 3.662 3.858 3.28 4.243 2.891 4.623 2.491 4.993 2.09 5.353 1.681 5.706 1.268 6.047.851 6.381.431 6.702-.001 7.013-.43 7.314-.863 7.598-1.29 7.87-1.718 8.124-2.142 8.363-2.567 8.587-2.987 8.794-3.404 8.986-3.819 9.156-4.226 9.31-4.621 9.449-5.012 9.56-5.387 9.657-5.755 9.731-6.114 9.788-6.46 9.819-6.795 9.835-7.117 9.828-7.422 9.8-7.711 9.751-7.98 9.68-3.989 4.642-.003.006-.003.003-4.244 4.94-8.476 9.479-8.697 9.347-8.903 9.195-9.087 9.02-9.253 8.832-9.393 8.622-9.521 8.394-9.622 8.151-9.705 7.886-9.766 7.606-9.805 7.308-9.829 6.997-9.829 6.672-9.808 6.335-9.764 5.988-9.702 5.624-9.618 5.252-9.518 4.866-9.391 4.473-9.25 4.068-9.09 3.664-8.911 3.249-8.718 2.834-8.502 2.414-8.272 1.988-8.027 1.557-7.763 1.124-7.485.694-7.197.264-6.896-.161-6.582-.586-6.256-1.006-5.92-1.421-5.57-1.837-5.213-2.248-4.847-2.65-4.477-3.043-4.096-3.427-3.717-3.803-3.326-4.167-2.935-4.525-2.535-4.873-2.131-5.216-1.73-5.539M357.577 1.457l6.006.637 5.723 1.021 5.431 1.41 5.123 1.794 4.809 2.178 4.485 2.554 4.151 2.932 3.807 3.303 3.453 3.672 3.089 4.036 2.715 4.398 2.336 4.75 1.952 5.094 1.566 5.428 1.171 5.752.773 6.068.371 6.374-.035 6.67-.445 6.955-.855 7.225-1.264 7.482-1.666 7.725-2.074 7.951-2.471 8.163-2.874 8.359-3.266 8.541-3.662 8.704-4.047 8.85-4.422 8.978-4.789 9.088-5.146 9.178-5.496 9.249-5.832 9.301-6.162 9.335-6.48 9.346-6.781 9.342-7.073 9.315-7.341 9.269-7.601 9.205-7.843 9.118-8.067 9.014-8.275 8.888-8.469 8.744-8.645 8.582-8.798 8.401-8.935 8.206-9.05 7.99-9.147 7.759-9.226 7.51-9.284 7.243-9.322 6.963-9.344 6.671-9.34 6.362-9.32 6.044-9.281 5.713-9.221 5.371-9.142 5.018-9.045 4.652-8.926 4.279-8.792 3.899-8.638 3.513-8.473 3.122-8.285 2.727-8.083 2.329-7.866 1.923-7.631 1.515-7.381 1.107-7.12.692-6.843.288-6.558-.117-6.261-.52-5.95-.921-5.631-1.316-5.3-1.712-4.96-2.104-4.61-2.486-4.257-2.862-3.9-3.229-3.535-3.587-3.166-3.934-2.79-4.279-2.412-4.611-2.03-4.934-1.642-5.248-1.26-5.549-.877-5.833-.494-6.109M305.865 5.331l6.751-1.18 6.549-.827 6.333-.476 6.103-.117 5.866.24 5.612.6 5.343.96 5.067 1.327 4.779 1.688 4.48 2.045 4.176 2.4 3.862 2.753 3.537 3.103 3.205 3.447 2.862 3.786 2.511 4.128 2.157 4.456 1.794 4.778 1.431 5.089 1.062 5.394.689 5.689.313 5.974-.068 6.25-.452 6.517-.835 6.768-1.216 7.01-1.597 7.235-1.971 7.447-2.345 7.643-2.722 7.826-3.089 7.996-3.457 8.147-3.813 8.286-4.166 8.402-4.507 8.506-4.839 8.586-5.165 8.657-5.481 8.704-5.784 8.736-6.082 8.745-6.362 8.741-6.631 8.718-6.886 8.674-7.122 8.613-7.348 8.534-7.558 8.439-7.75 8.32-7.932 8.188-8.093 8.033-8.237 7.87-8.365 7.685-8.471 7.487-8.562 7.27-8.633 7.04-8.688 6.792-8.724 6.531-8.742 6.258-8.741 5.971-8.722 5.675-8.685 5.369-8.629 5.048-8.556 4.723-8.464 4.379-8.355 4.032-8.23 3.679-8.087 3.316-7.932 2.953-7.758 2.584-7.568 2.211-7.366 1.834-7.148 1.452-6.915 1.069-6.669.685-6.413.305-6.147-.074-5.867-.454-5.58-.827-5.28-1.199-4.971-1.569-4.65-1.936-4.328-2.297-3.994-2.649-3.659-2.993-3.319-3.329-2.973-3.659-2.622-3.98-2.266-4.297-1.907-4.6-1.545-4.894-1.183-5.178-.828-5.45-.465-5.709-.108-5.955.25-6.193.608-6.419.966-6.633M240.81 27.141l7.214-3.252 7.112-2.958 6.997-2.663 6.869-2.357 6.724-2.047 6.571-1.732 6.404-1.407 6.223-1.085 6.036-.759 5.83-.43 5.619-.103 5.396.228 5.158.563 4.913.898 4.654 1.232 4.383 1.567 4.111 1.899 3.828 2.224 3.535 2.551 3.235 2.87 2.925 3.19 2.61 3.506 2.285 3.814 1.956 4.12 1.621 4.414 1.287 4.703.948 4.982.603 5.25.255 5.516-.095 5.766-.448 6.014-.8 6.243-1.153 6.463-1.499 6.67-1.849 6.865-2.19 7.046-2.534 7.212-2.87 7.366-3.21 7.506-3.538 7.63-3.858 7.74-4.173 7.833-4.478 7.908-4.776 7.972-5.062 8.013-5.343 8.04-5.614 8.055-5.871 8.045-6.117 8.026-6.348 7.987-6.569 7.93-6.771 7.858-6.964 7.769-7.142 7.662-7.306 7.538-7.456 7.403-7.586 7.248-7.601 6.992-.099.089-7.8 6.899-7.881 6.702-7.949 6.491-8.001 6.264-8.03 6.026-8.048 5.776-8.047 5.512-8.031 5.243-7.996 4.961-7.946 4.669-7.879 4.368-7.796 4.056-7.696 3.737-7.58 3.412-7.45 3.081-7.31 2.748-7.149 2.409-6.976 2.067-6.791 1.719-6.59 1.368-6.376 1.017-6.152.663-5.919.313-5.671-.037-5.416-.384-5.153-.73-4.877-1.074-4.591-1.414-4.3-1.753-3.999-2.087-3.695-2.413-3.386-2.73-3.072-3.043-2.752-3.347-2.43-3.646-2.1-3.935-1.769-4.221-1.436-4.494L9.65 326.2l-.77-5.007-.44-5.251-.108-5.481.225-5.701.555-5.912.886-6.113 1.212-6.298 1.532-6.475 1.85-6.633 2.16-6.785 2.47-6.919 2.77-7.043 3.07-7.155m145.005 2.684-2.583 1.367-.321.169-3.146 1.559-1.775.818h-.004l-.092.043-.005.001-.027.014-.056.026-.028.012-1.115.515-3.056 1.297-3 1.164-2.94 1.032-2.875.891-2.803.756-2.726.613-2.644.47-2.554.328-2.465.185-2.368.044-2.268-.098-2.163-.239-2.054-.381-1.94-.521-1.823-.661-1.703-.799-1.579-.936-1.455-1.068-1.329-1.199-1.197-1.327-1.066-1.456-.93-1.577-.794-1.698-.656-1.815-.518-1.926-.381-2.038-.24-2.141-.103-2.243.035-2.337.177-2.43.316-2.519.454-2.601.592-2.678.725-2.753.858-2.816.991-2.879 1.121-2.937 1.247-2.986 1.375-3.031 1.497-3.075 1.619-3.105 1.734-3.136 1.847-3.155 1.954-3.174 2.064-3.183 2.163-3.191 2.265-3.188 2.358-3.18 2.447-3.169 2.534-3.15 2.612-3.126 2.687-3.097 2.759-3.061 2.826-3.022 2.884-2.973 2.942-2.922 2.989-2.864 3.036-2.801 3.075-2.736 3.107-2.66 3.136-2.586 3.155-2.502 3.172-2.414 3.183-2.322 3.189-2.228 3.187-2.127 3.178-2.025 3.166-1.917 3.149-1.807 3.124-1.689 3.09-1.574 3.056-1.449 3.013-1.327 2.969-1.203 2.913-1.071 2.856-.944 2.792-.809 2.723-.675 2.647-.537 2.568-.401 2.486-.263 2.395-.123 2.302.013 2.205.154 2.102.293 1.994.434 1.884.572 1.769.709 1.651.85 1.531.98 1.406 1.115 1.282 1.245 1.151 1.377 1.017 1.504.883 1.628.744 1.751.608 1.87.467 1.984.329 2.096.187 2.201.045 2.307-.096 2.405-.242 2.501-.382 2.593-.527 2.676-.664 2.758-.807 2.831-.942 2.9-1.08 2.965-1.215 3.023-1.341 3.061-.008.015-.017.037-.007.016-.078.161-1.378 2.908-.634 1.251-.035.068-.936 1.843-1.31 2.417m4.798-10.194-.052.144-.025.068-.059.162-.02.057-.002.005-.044.124-.005.011-.247.678m.624-1.829-.174.538-.108.326-.005.015-.018.062-.063.192-.005.015m.425-1.493-.345 1.206-.008.028m.329-1.377-.346 1.436m-91.133 91.261-.172.04-2.111.377-2.042.264-1.969.15-1.894.038-1.815-.076-1.731-.187-1.645-.3-1.555-.412-1.463-.525-1.366-.635-1.269-.742-1.169-.848-1.07-.954-.966-1.055-.86-1.158-.752-1.255-.644-1.35-.535-1.446-.424-1.537-.315-1.624-.204-1.707-.091-1.788.019-1.863.13-1.94.242-2.01.353-2.076.462-2.138.57-2.197.677-2.251.782-2.299.886-2.344.989-2.386 1.092-2.424 1.189-2.454 1.287-2.483 1.38-2.506 1.469-2.523 1.557-2.538 1.645-2.545 1.724-2.55 1.807-2.549 1.88-2.542 1.955-2.535 2.022-2.519 2.086-2.5 2.145-2.476 2.204-2.446 2.256-2.415 2.308-2.377 2.35-2.334 2.392-2.289 2.425-2.24 2.458-2.183 2.484-2.126 2.505-2.064 2.524-1.998 2.538-1.925 2.546-1.853 2.547-1.776 2.548-1.696 2.541-1.613 2.532-1.526 2.516-1.439 2.496-1.343 2.472-1.249 2.441-1.153 2.408-1.054 2.371-.949 2.327-.849 2.281-.744 2.231-.638 2.173-.53 2.114-.421 2.049-.309 1.981-.199 1.913-.088 1.835.023 1.757.131 1.677.245 1.588.356 1.501.467 1.409.579 1.316.685 1.217.794 1.12.901 1.017 1.004.914 1.106.808 1.209.701 1.307.591 1.406.481 1.498.369 1.591.26 1.678.146 1.763.033 1.845-.079 1.921-.194 2-.308 2.07-.307 1.555m-.064.24-.04.102-.579 1.438m265.052 85.206-2.521 7.868-2.891 8.029-3.258 8.171-3.619 8.296-3.97 8.41-4.315 8.499-4.651 8.573-4.976 8.633-5.297 8.67-5.605 8.692-5.904 8.696-6.191 8.68-6.463 8.646-6.722 8.597-6.967 8.527-7.197 8.439-7.412 8.333-7.614 8.211-7.802 8.066-7.969 7.91-8.119 7.735-8.258 7.545-8.369 7.339-8.469 7.118-8.55 6.88-8.612 6.631-8.658 6.362-8.684 6.084-8.695 5.792-8.682 5.496-8.655 5.183-8.61 4.86-8.543 4.528-8.463 4.189-8.363 3.838-8.247 3.48-8.115 3.119-7.965 2.755-7.805 2.385m280.857-324.615-.681 7.303-1.086 7.553-1.491 7.785-1.893 8.005-2.296 8.209-2.695 8.397-3.091 8.57-3.483 8.724-3.871 8.863-4.247 8.981-4.616 9.085-4.976 9.163-5.327 9.23-5.67 9.271-5.999 9.295-6.319 9.301-6.629 9.285-6.92 9.253-7.197 9.201-7.459 9.125-7.707 9.032-7.938 8.922-8.151 8.787-8.353 8.638-8.532 8.465-8.694 8.284-8.837 8.078-8.958 7.858-9.065 7.621-9.151 7.369-9.215 7.098-9.262 6.811-9.293 6.513-9.297 6.203-9.286 5.88-9.254 5.547-9.202 5.201-9.132 4.849-9.042 4.48-8.933 4.103-8.809 3.723-8.664 3.335-8.504 2.945-8.327 2.549-8.133 2.15-7.92 1.746-7.694 1.34-7.456.929-7.197.522m333.034-380.542.987 6.466.566 6.785.141 7.087-.29 7.383-.719 7.662-1.148 7.926-1.572 8.174-1.999 8.41-2.42 8.624-2.84 8.824-3.258 9.009-3.676 9.175-4.081 9.322-4.479 9.448-4.87 9.557-5.247 9.647-5.617 9.715-5.98 9.762-6.327 9.789-6.665 9.796-6.99 9.783-7.3 9.748-7.589 9.693-7.868 9.617-8.126 9.521-8.37 9.403-8.597 9.262-8.805 9.107-8.996 8.93-9.165 8.73-9.315 8.521-9.445 8.285-9.552 8.038-9.644 7.769-9.709 7.487-9.761 7.183-9.786 6.868-9.793 6.542-9.776 6.202-9.744 5.849-9.687 5.489-9.612 5.11-9.512 4.725-9.398 4.327-9.263 3.926-9.11 3.518-8.94 3.105-8.749 2.69-8.543 2.266-8.318 1.842-8.08 1.415-7.822.98-7.551.552-7.27.124-6.973-.301-6.666-.719m364.298-410.372 1.87 5.985 1.442 6.335 1.016 6.677.578 7.005.136 7.325-.31 7.63-.755 7.924-1.199 8.2-1.642 8.459-2.082 8.701-2.523 8.929-2.958 9.137-3.392 9.332-3.823 9.504-4.246 9.662-4.659 9.794-5.062 9.908-5.458 10.003-5.842 10.073-6.214 10.127-6.578 10.155-6.929 10.165-7.266 10.152-7.585 10.119-7.889 10.063-8.176 9.984-8.444 9.886-8.694 9.764-8.933 9.622-9.147 9.458-9.345 9.275-9.521 9.071-9.673 8.852-9.806 8.609-9.92 8.353L331.207 436l-10.079 7.78-10.129 7.465-10.155 7.141-10.162 6.799-10.144 6.447-10.105 6.084-10.045 5.704-9.966 5.316-9.862 4.912-9.74 4.502-9.598 4.083-9.437 3.663-9.257 3.231-9.061 2.8-8.843 2.363-8.61 1.922-8.36 1.475-8.089 1.027-7.807.582-7.513.139-7.204-.303-6.884-.739-6.549-1.173-6.205-1.603-5.849-2.029M499.462 83.716l2.746 5.34 2.326 5.718 1.895 6.089 1.459 6.448 1.021 6.798.574 7.134.123 7.464-.333 7.776-.789 8.08-1.244 8.36-1.694 8.628-2.145 8.88-2.596 9.111-3.041 9.329-3.485 9.524-3.925 9.707-4.358 9.867-4.782 10.006-5.193 10.126-5.597 10.221-5.989 10.296-6.371 10.352-6.743 10.384-7.101 10.394-7.445 10.384-7.772 10.349-8.08 10.293-8.374 10.216-8.648 10.116-8.905 9.991-9.147 9.849-9.365 9.68-9.565 9.496-9.745 9.287-9.902 9.064-10.034 8.818-10.15 8.554-10.242 8.27-10.311 7.969-10.36 7.651-10.384 7.316-10.391 6.969-10.37 6.61-10.329 6.235-10.268 5.852-10.184 5.449-10.076 5.041-9.949 4.619-9.803 4.194-9.637 3.76-9.449 3.321-9.25 2.879-9.023 2.432-8.784 1.982-8.526 1.526-8.248 1.066-7.959.612-7.656.155-7.34-.289-7.008-.741-6.668-1.182-6.316-1.622-5.945-2.059-5.57-2.489-5.186-2.914m84.7-248.519-.061-.022-1.073-.493-.999-.578-.921-.663-.841-.742-.762-.825-.681-.903-.597-.977-.51-1.057-.425-1.128-.342-1.199-.253-1.267-.167-1.333-.081-1.397.006-1.457.095-1.516.182-1.57.268-1.623.353-1.672.439-1.717.522-1.761.604-1.797.686-1.835.767-1.867.848-1.895.924-1.922 1.001-1.941 1.073-1.961 1.146-1.974 1.214-1.986 1.281-1.993 1.346-1.996 1.41-1.993 1.468-1.991 1.525-1.982 1.58-1.971 1.63-1.958 1.678-1.936 1.723-1.915 1.765-1.889 1.802-1.858 1.839-1.825 1.87-1.791 1.898-1.749 1.923-1.708 1.945-1.663 1.959-1.611 1.975-1.561 1.986-1.505 1.992-1.446 1.995-1.385 1.992-1.323 1.99-1.258 1.981-1.189 1.969-1.118 1.953-1.049 1.935-.97 1.909-.896 1.884-.817 1.853-.737 1.822-.656 1.784-.575 1.743-.493 1.701-.406 1.651-.32 1.604-.235 1.548-.147 1.493-.062 1.434.027 1.373.111 1.309.199 1.242.288 1.171.372 1.1.461 1.025.545.951.626.873.711.793.793.713.871.631.953.545 1.028.309.741m-67.893 74.141.027-.474.134-1.214.202-1.256.267-1.293.334-1.329.398-1.361.463-1.392.525-1.419.589-1.443.649-1.467.712-1.488.77-1.502.825-1.518.883-1.528.936-1.536.987-1.54 1.039-1.546 1.086-1.543 1.135-1.539 1.178-1.536 1.219-1.524 1.258-1.513 1.297-1.499 1.332-1.481 1.365-1.461 1.393-1.436 1.423-1.413 1.446-1.383 1.466-1.353 1.489-1.321 1.502-1.283 1.517-1.246 1.529-1.204 1.536-1.161 1.54-1.117 1.546-1.068 1.542-1.022 1.538-.969 1.534-.914 1.523-.863 1.512-.807 1.495-.747 1.48-.687 1.457-.626 1.435-.567 1.409-.502 1.38-.439 1.348-.374 1.315-.308 1.277-.244 1.239-.175 1.198-.108h.02m-73.155 67.462-1.901.941-3.022 1.391m35.06-22.96-3.1 2.544-3.517 2.768-3.53 2.665-3.341 2.413-.198.143m.189-.14-2.186 1.511-.618.426-3.444 2.27-3.433 2.155m.839-.527-3.009 1.791-3.3 1.858m298.05 99.911-5.695 7.984-5.941 7.952-6.18 7.906-6.406 7.84-6.615 7.758-6.815 7.663-6.999 7.546-7.171 7.416-7.326 7.269-7.464 7.11-7.589 6.937-7.694 6.746-7.788 6.543-7.862 6.327-7.919 6.094-7.964 5.85-7.988 5.594M230.598 195.464l-.303.363-2.67 3.214-3.061 3.541-3.146 3.5-3.225 3.453-3.294 3.401-3.363 3.339-3.42 3.272-3.472 3.196-3.515 3.118-3.505 2.988-.048.041m43.209-47.051-.118.167-.41.587-1.96 2.787-2.599 3.54-2.705 3.526-2.698 3.378m14.375-19.971-.249.39-1.948 3.048-1.82 2.718-.393.585m7.64-12.265-.318.55-1.585 2.761-1.579 2.605m6.751-12.452-1.307 2.757m1.852-4.036-.224.505-.671 1.533m-89.883 87.819-1.634.508-.222.07m2.461-.794-.109.04-.002.002-.328.112-.021.008-.138.048-.314.11-1.017.358m1.815-.636-.303.055m1.44-.496-1.02.394-.09.037-.001-.002-.214.085-.032.011-.026.01-.104.042-.024.01-.005.001-.011.005-.669.259m3.654-1.469-1.453.618-.52.218-.094.042-.33.14-.003.001-.161.067-.029.014-.005.001-.009.005-.061.025M342.459 71.93l-.434 5.456-.752 5.665-1.072 5.862-1.384 6.049-1.698 6.223-2.009 6.385-2.319 6.536-2.626 6.674-2.926 6.799-3.224 6.911-3.513 7.008-3.795 7.091-4.071 7.162-4.338 7.214-4.597 7.253-4.848 7.276-5.091 7.288-5.326 7.283-5.545 7.262-5.753 7.227-5.95 7.175-6.133 7.111-6.308 7.03-6.468 6.935-6.612 6.824-6.748 6.699-6.866 6.564-6.968 6.412-7.06 6.248-7.134 6.07-7.192 5.88-7.238 5.679-7.267 5.464-7.283 5.236-7.283 5.004-7.268 4.757-7.239 4.505-7.192 4.244-7.134 3.97-7.056 3.69-6.968 3.404-6.867 3.111-6.75 2.811-6.621 2.513-6.48 2.206-6.324 1.895-6.156 1.585-5.977 1.265-5.785.95-5.582.629-5.37.311-5.15-.005-4.921-.319-4.68-.631-4.432-.944-4.174-1.256-3.91-1.562-3.64-1.863-3.365-2.16-3.085-2.448-2.8-2.735-2.51-3.01-2.218-3.284-1.92-3.547-1.618-3.808-1.317-4.056-1.015-4.299-.712-4.528-.411-4.747-.11-4.959.193-5.165.493-5.353.794-5.541 1.091-5.709 1.387-5.872 1.673-6.02 1.956-6.156 2.238-6.283 2.514-6.397 2.784-6.501 3.053-6.591 3.313-6.672 3.566-6.74 3.811-6.793 4.048-6.837 4.28-6.867 4.5-6.886 4.718-6.891 4.925-6.888 5.123-6.869 5.31-6.841 5.491-6.8 5.657-6.746 5.817-6.682 5.963-6.606 6.104-6.517 6.231-6.417 6.349-6.309 6.455-6.187 6.551-6.054 6.632-5.913 6.703-5.763 6.765-5.598 6.813-5.425 6.85-5.24 6.874-5.05 6.888-4.85 6.89-4.637 6.877-4.423 6.855-4.197 6.817-3.962 6.77-3.722 6.712-3.468 6.638-3.214 6.556-2.952 6.46-2.686 6.352-2.414 6.237-2.135 6.103-1.853 5.962-1.565 5.805-1.27 5.644-.976 5.466-.68 5.282-.379 5.087-.081 4.883.219 4.664.523 4.437.827 4.204 1.133 3.957 1.436 3.707 1.735 3.449 2.034 3.182 2.328 2.908 2.617 2.629 2.907 2.337 3.192 2.046 3.473 1.744 3.748 1.444 4.016 1.137 4.273.829 4.527.519 4.772.2 5.007-.114 5.236Zm-22.069 7.594-.411 4.863-.694 5.05-.974 5.225-1.254 5.388-1.532 5.541-1.807 5.686-2.081 5.817-2.353 5.938-2.619 6.048-2.882 6.148-3.139 6.233-3.389 6.304-3.632 6.366-3.866 6.413-4.098 6.447-4.32 6.467-4.533 6.474-4.739 6.472-4.935 6.451-5.118 6.421-4.769 5.746-.521.631-5.455 6.315-5.607 6.247-5.747 6.161-5.879 6.064-5.994 5.955-6.101 5.832-6.191 5.698-6.271 5.556-6.339 5.398-6.391 5.231-6.43 5.052-6.456 4.859-6.472 4.663-6.473 4.456-6.458 4.238-6.434 4.016-6.393 3.783-6.341 3.544-6.276 3.295-6.196 3.043-6.109 2.782-6.006 2.518-5.892 2.251-5.767 1.981-5.632 1.709-5.483 1.428-5.325 1.151-5.155.865-4.975.583-4.79.302-4.595.019-4.39-.261-4.179-.538-3.959-.815-3.731-1.092-3.497-1.367-3.256-1.636-3.01-1.9-2.763-2.16-2.511-2.412-2.254-2.661-1.993-2.904-1.727-3.142-1.458-3.376-1.19-3.598-.92-3.812-.651-4.02-.381-4.221-.113-4.409.157-4.593.428-4.764.695-4.933.961-5.085 1.226-5.231 1.482-5.365 1.738-5.491 1.988-5.602 2.236-5.707 2.48-5.799 2.719-5.887 2.955-5.957 3.179-6.017 3.402-6.069 3.612-6.111 3.82-6.135 4.022-6.155 4.213-6.162 4.401-6.156 4.579-6.142 4.749-6.117 4.906-6.082 5.06-6.035 5.201-5.976 5.334-5.91 5.459-5.83 5.574-5.74 5.679-5.643 5.775-5.532 5.858-5.415 5.933-5.29 5.996-5.152 6.05-5.005 6.093-4.852 6.126-4.684 6.145-4.512 6.16-4.332 6.157-4.145 6.147-3.948 6.123-3.748 6.094-3.536 6.046-3.32 5.993-3.094 5.928-2.864 5.85-2.627 5.764-2.392 5.668-2.146 5.561-1.897 5.441-1.645 5.314-1.384 5.171-1.123 5.025-.858 4.867-.593 4.699-.327 4.524-.058 4.338.21 4.146.483 3.94.753 3.729 1.026 3.51 1.297 3.284 1.562 3.051 1.828 2.814 2.089 2.569 2.35 2.319 2.604 2.061 2.86 1.797 3.108 1.531 3.353 1.26 3.589.987 3.82.714 4.043.437 4.26.158 4.467-.126 4.671Zm-19.945 10.687-.376 4.255-.623 4.416-.87 4.567-1.111 4.709-1.352 4.84-1.592 4.964-1.83 5.08-2.065 5.183-2.296 5.277-2.528 5.364-2.746 5.436-2.965 5.499-3.173 5.549-3.381 5.59-3.578 5.619-3.772 5.636-3.957 5.64-4.134 5.639-4.303 5.621-4.464 5.594-4.613 5.554-4.754 5.502-4.886 5.443-5.009 5.367-5.12 5.282-5.224 5.188-5.316 5.08-5.394 4.967-5.462 4.842-5.52 4.706-5.567 4.56-5.602 4.406-5.629 4.24-5.638 4.068-5.638 3.889-5.629 3.701-5.608 3.508-5.574 3.308-5.527 3.099-5.475 2.883-5.406 2.664-5.327 2.438-5.241 2.21-5.144 1.977-5.036 1.743-4.918 1.506-4.791 1.263-4.653 1.019-4.507.774-4.352.528-4.192.28-4.022.036-3.844-.207-3.66-.45-3.47-.694-3.274-.934-3.069-1.175-2.859-1.411-2.647-1.64-2.431-1.868-2.21-2.091-1.986-2.307-1.757-2.523-1.527-2.729-1.294-2.934-1.055-3.132-.822-3.319-.586-3.505-.351-3.677-.113-3.847.12-4.006.36-4.159.595-4.309.828-4.442 1.059-4.573 1.285-4.691 1.51-4.8 1.73-4.903 1.948-4.996 2.163-5.078 2.375-5.152 2.577-5.217 2.782-5.273 2.973-5.318 3.162-5.352 3.342-5.38 3.52-5.395 3.69-5.403 3.857-5.4 4.011-5.386 4.163-5.365 4.301-5.335 4.435-5.293 4.561-5.244 4.678-5.181 4.789-5.116 4.887-5.034 4.983-4.949 5.065-4.854 5.14-4.752 5.204-4.638 5.259-4.517 5.309-4.387 5.342-4.252 5.373-4.105 5.392-3.954 5.398-3.794 5.398-3.63 5.39-3.458 5.368-3.278 5.339-3.092 5.298-2.904 5.249-2.702 5.191-2.5 5.124-2.295 5.045-2.084 4.959-1.868 4.865-1.651 4.759-1.426 4.643-1.201 4.522-.971 4.387-.737 4.251-.504 4.102-.27 3.946-.036 3.783.202 3.614.437 3.432.676 3.245.913 3.054 1.15 2.856 1.384 2.65 1.613 2.443 1.844 2.227 2.07 2.007 2.293 1.782 2.514 1.552 2.732 1.317 2.943 1.082 3.149.845 3.349.602 3.545.362 3.73.119 3.912-.129 4.088Zm-17.174 13.415-.336 3.645-.547 3.783-.753 3.911-.961 4.029-1.166 4.144-1.372 4.247-1.572 4.341-1.774 4.431-1.969 4.51-2.167 4.582-2.353 4.643-2.536 4.696-2.717 4.737-2.89 4.772-3.059 4.795-3.222 4.808-2.751 3.921-.63.895-3.53 4.808-3.675 4.795-3.808 4.772-3.937 4.736-4.055 4.694-4.169 4.639-4.274 4.579-4.367 4.507-4.456 4.422-4.532 4.337-4.601 4.237-4.66 4.129-4.707 4.015-4.751 3.893-4.777 3.76-4.8 3.62-3.806 2.75-.03.023-.974.703-4.812 3.321-4.803 3.163-4.786 3-4.758 2.827-4.719 2.652-4.675 2.468-4.618 2.283-4.553 2.088-4.479 1.899-4.398 1.697-4.306 1.501-4.206 1.297-4.099 1.092-3.984.882-3.861.675-3.729.462-3.591.255-3.448.043-3.3-.162-3.14-.371-2.981-.58-2.815-.784-2.637-.99-2.46-1.191-2.28-1.39-2.096-1.585-1.906-1.774-1.716-1.961-1.522-2.145-1.324-2.327-1.123-2.498-.92-2.67-.721-2.834-.519-2.99-.316-3.142-.113-3.286.09-3.426.293-3.556.493-3.684.696-3.803.895-3.916 1.088-4.016 1.282-4.111 1.472-4.203 1.66-4.28 1.845-4.353 2.028-4.419 2.203-4.475 2.377-4.524 2.544-4.562 2.706-4.594 2.864-4.617 3.015-4.631 3.163-4.638 3.307-4.638 3.44-4.626 3.569-4.607 3.694-4.581 3.805-4.547 3.916-4.502 4.015-4.452 4.111-4.393 4.199-4.325 4.278-4.248 4.35-4.168 4.414-4.079 4.471-3.981 4.517-3.877 4.556-3.765 4.59-3.649 4.613-3.523 4.628-3.39 4.638-3.252 4.634-3.111 4.625-2.962 4.608-2.806 4.58-2.648 4.547-2.483 4.503-2.31 4.453-2.137 4.393-1.958 4.324-1.778 4.251-1.59 4.167-1.404 4.076-1.211 3.977-1.016 3.871-.816 3.755-.618 3.634-.417 3.507-.217 3.372-.013 3.234.188 3.084.391 2.93.595 2.769.798 2.601 1 2.433 1.201 2.258 1.4 2.077 1.594 1.893 1.787 1.703 1.977 1.511 2.167 1.311 2.352 1.113 2.531.91 2.708.707 2.877.502 3.043.296 3.202.087 3.356-.123 3.505Zm-13.893 15.714-.289 3.057-.465 3.169-.64 3.273-.809 3.374-.981 3.465-1.153 3.552-1.318 3.63-1.488 3.704-1.651 3.768-1.812 3.827-1.968 3.879-2.122 3.92-2.271 3.954-1.225 2.024-1.19 1.958-2.554 4.002-2.69 4.012-2.821 4.016-2.946 4.011-3.065 3.998-3.177 3.979-3.284 3.95-3.383 3.912-3.476 3.871-3.562 3.817-3.642 3.755-3.715 3.689-3.778 3.615-3.837 3.532-3.885 3.445-3.926 3.349-3.959 3.247-3.985 3.137-4.004 3.02-4.01 2.9-4.015 2.773-4.008 2.64-3.994 2.506-.356.21-.018.012-.008.005-3.588 2.137-3.94 2.214-3.905 2.066-3.856 1.908-3.804 1.751-3.742 1.588-3.676 1.426-3.601 1.259-3.519 1.088-3.431.92-3.334.747-3.232.571-3.125.396-3.01.22-2.89.048-2.768-.127-2.639-.3-2.504-.474-2.362-.646-2.22-.818-2.072-.986-1.921-1.152-1.766-1.316-1.61-1.477-1.45-1.63-1.288-1.787-1.125-1.936-.955-2.086-.785-2.226-.62-2.365-.449-2.496-.278-2.624-.11-2.746.062-2.864.228-2.975.403-3.083.568-3.182.737-3.278.9-3.364 1.063-3.445 1.222-3.518 1.382-3.588 1.535-3.649 1.691-3.705 1.84-3.752 1.985-3.793 2.125-3.828 2.264-3.854 2.397-3.874 2.523-3.888 2.65-3.893 2.768-3.89 2.885-3.883 2.993-3.868 3.095-3.846 3.191-3.814 3.285-3.782 3.369-3.737 3.449-3.687 3.523-3.629 3.591-3.568 3.652-3.496 3.704-3.422 3.753-3.34 3.792-3.251 3.826-3.161 3.853-3.057 3.872-2.952 3.884-2.841 3.891-2.724 3.889-2.604 3.883-2.478 3.866-2.349 3.843-2.216 3.813-2.074 3.776-1.928 3.734-1.782 3.682-1.632 3.626-1.479 3.561-1.325 3.49-1.164 3.415-1.004 3.33-.838 3.238-.671 3.144-.504 3.039-.336 2.934-.167 2.819.003 2.701.17 2.576.344 2.445.513 2.311.684 2.171.853 2.027 1.02 1.879 1.187 1.731 1.35 1.575 1.508 1.414 1.67 1.253 1.825 1.09 1.981.92 2.131.751 2.277.581 2.417.409 2.556.237 2.688.063 2.812-.112 2.939Z"/><defs><radialGradient id="a" cx="0" cy="0" r="1" gradientTransform="matrix(0 262.718 -262.667 0 263.841 263.892)" gradientUnits="userSpaceOnUse"><stop offset=".099" stop-color="#FFC876"/><stop offset=".427" stop-color="#79FFF7"/><stop offset=".719" stop-color="#9F53FF"/><stop offset="1" stop-color="#FF98E2"/></radialGradient></defs></svg>