<svg xmlns="http://www.w3.org/2000/svg" width="547" height="550" fill="none"><g opacity=".1"><path fill="#AC6AFF" d="M.5 89h550v1H.5zM.5 182h550v1H.5zM.5 275h550v1H.5zM.5 368h550v1H.5zM.5 461h550v1H.5z"/><path fill="#AC6AFF" d="M43.5 0v550h-1V0zM136.5 0v550h-1V0zM229.5 0v550h-1V0zM322.5 0v550h-1V0zM415.5 0v550h-1V0zM508.5 0v550h-1V0z"/><path fill="url(#a)" d="M.5 0h550v120H.5z"/><path fill="url(#b)" d="M0 0h550v181H0z" transform="matrix(1 0 0 -1 .5 550)"/></g><defs><linearGradient id="a" x1="275.5" x2="275.5" y1="0" y2="120" gradientUnits="userSpaceOnUse"><stop stop-color="#0E0C15"/><stop offset="1" stop-color="#0E0C15" stop-opacity="0"/></linearGradient><linearGradient id="b" x1="275" x2="275" y1="0" y2="181" gradientUnits="userSpaceOnUse"><stop stop-color="#0E0C15"/><stop offset="1" stop-color="#0E0C15" stop-opacity="0"/></linearGradient></defs></svg>