<svg xmlns="http://www.w3.org/2000/svg" width="64" height="64" fill="none"><g filter="url(#a)"><rect width="60" height="60" x="2" y="1" fill="#15131D" rx="12"/><rect width="58.828" height="58.828" x="2.586" y="1.586" stroke="#fff" stroke-opacity=".15" stroke-width="1.172" rx="11.414"/><path stroke="#AC6AFF" stroke-linecap="round" stroke-linejoin="round" stroke-width="2" d="M35 40v-5.4c0-.56 0-.84-.109-1.054a1 1 0 0 0-.437-.437C34.24 33 33.96 33 33.4 33h-2.8c-.56 0-.84 0-1.054.109a1 1 0 0 0-.437.437C29 33.76 29 34.04 29 34.6V40m10 0V25.2c0-1.12 0-1.68-.218-2.108a2 2 0 0 0-.874-.874C37.48 22 36.92 22 35.8 22h-7.6c-1.12 0-1.68 0-2.108.218a2 2 0 0 0-.874.874C25 23.52 25 24.08 25 25.2V40m16 0H23m6.5-13h.01m4.99 0h.01M30 27a.5.5 0 1 1-1 0 .5.5 0 0 1 1 0Zm5 0a.5.5 0 1 1-1 0 .5.5 0 0 1 1 0Z"/></g><defs><filter id="a" width="62.813" height="62.813" x=".594" y=".297" color-interpolation-filters="sRGB" filterUnits="userSpaceOnUse"><feFlood flood-opacity="0" result="BackgroundImageFix"/><feColorMatrix in="SourceAlpha" result="hardAlpha" values="0 0 0 0 0 0 0 0 0 0 0 0 0 0 0 0 0 0 127 0"/><feOffset dy=".703"/><feGaussianBlur stdDeviation=".703"/><feComposite in2="hardAlpha" operator="out"/><feColorMatrix values="0 0 0 0 0 0 0 0 0 0 0 0 0 0 0 0 0 0 0.1 0"/><feBlend in2="BackgroundImageFix" result="effect1_dropShadow_495_15965"/><feColorMatrix in="SourceAlpha" result="hardAlpha" values="0 0 0 0 0 0 0 0 0 0 0 0 0 0 0 0 0 0 127 0"/><feOffset dy=".469"/><feGaussianBlur stdDeviation=".352"/><feComposite in2="hardAlpha" operator="out"/><feColorMatrix values="0 0 0 0 0 0 0 0 0 0 0 0 0 0 0 0 0 0 0.1 0"/><feBlend in2="effect1_dropShadow_495_15965" result="effect2_dropShadow_495_15965"/><feColorMatrix in="SourceAlpha" result="hardAlpha" values="0 0 0 0 0 0 0 0 0 0 0 0 0 0 0 0 0 0 127 0"/><feOffset dy=".117"/><feGaussianBlur stdDeviation=".117"/><feComposite in2="hardAlpha" operator="out"/><feColorMatrix values="0 0 0 0 0 0 0 0 0 0 0 0 0 0 0 0 0 0 0.1 0"/><feBlend in2="effect2_dropShadow_495_15965" result="effect3_dropShadow_495_15965"/><feBlend in="SourceGraphic" in2="effect3_dropShadow_495_15965" result="shape"/></filter></defs></svg>