<svg xmlns="http://www.w3.org/2000/svg" width="1101" height="411" fill="none"><rect width="89" height="89" x="698.5" y="162.5" fill="#0E0C15" rx="44.5"/><rect width="89" height="89" x="698.5" y="162.5" stroke="url(#a)" stroke-width="3" rx="44.5"/><path fill="#AC6AFF" d="m757.83 198.118-.007-5.213-9.62-6.288v4.022l6.345 4.178.005 3.202-2.947 1.996-2.012-1.467v-2.485l-3.277-2.242v4.523l-5.195 3.188-.009 8.42-3.673 2.068-1.886-1.477v-2.438l2.232-1.529v-3.793l-4.017 2.689-3.071-1.999-2.805 1.837 4.384 3.001v1.842l-3.16 2.138-3.223-2.182v-7.261l4.785-3.24.005-3.116 6.136 3.953 5.158-3.434-3.144-1.834-2.058 1.387-4.482-2.964 5.055-2.946 4.378 2.567v-3.828l-4.373-2.565-9.943 5.797-.007 5.215-4.787 3.243v10.791l4.787 3.242.007 5.216 9.62 6.285v-4.019l-6.345-4.178-.005-3.202 2.948-1.996 2.011 1.467v2.485l3.277 2.242v-4.524l5.269-3.187.059-8.421 3.55-2.067 1.885 1.477v2.437l-2.232 1.53v3.793l4.017-2.689 3.071 1.999 2.805-1.837-4.383-3.004v-1.84l3.159-2.137 3.223 2.182v7.261l-4.784 3.24-.005 3.115-6.137-3.954-5.158 3.411 3.145 1.832 2.058-1.361 4.481 2.964-5.054 2.947-4.379-2.567v3.826l4.374 2.564 9.942-5.794.007-5.216 4.787-3.242v-10.793l-4.787-3.243Z"/><circle cx="743" cy="207" r="119.5" stroke="#252134"/><circle cx="743" cy="207" r="179.5" stroke="#252134"/><g filter="url(#b)"><rect width="52" height="52" x="715" y="4" fill="#15131D" rx="12"/><rect width="50.828" height="50.828" x="715.586" y="4.586" stroke="#fff" stroke-opacity=".15" stroke-width="1.172" rx="11.414"/></g><g filter="url(#c)"><path stroke="#fff" stroke-linejoin="round" stroke-width="1.875" d="M749.404 24.785a6.093 6.093 0 0 0-3.248-11.25h-10.312a6.095 6.095 0 0 0-3.248 11.25 6.093 6.093 0 0 0 0 10.313 6.093 6.093 0 1 0 9.342 5.156v-5.915a6.091 6.091 0 0 0 8.527-.089 6.093 6.093 0 0 0-1.061-9.465Z" shape-rendering="crispEdges"/></g><g clip-path="url(#d)"><path fill="#1ABCFE" d="M741 29.941a5.156 5.156 0 1 1 10.312 0 5.156 5.156 0 0 1-10.312 0Z"/><path fill="#0ACF83" d="M730.688 40.254a5.156 5.156 0 0 1 5.156-5.156H741v5.156a5.156 5.156 0 1 1-10.312 0Z"/><path fill="#FF7262" d="M741 14.473v10.312h5.156a5.155 5.155 0 1 0 0-10.312H741Z"/><path fill="#F24E1E" d="M730.688 19.629a5.156 5.156 0 0 0 5.156 5.156H741V14.473h-5.156a5.155 5.155 0 0 0-5.156 5.156Z"/><path fill="#A259FF" d="M730.688 29.941a5.156 5.156 0 0 0 5.156 5.157H741V24.785h-5.156a5.155 5.155 0 0 0-5.156 5.156Z"/></g><g filter="url(#e)"><rect width="52" height="52" x="715" y="355" fill="#15131D" rx="12"/><rect width="50.828" height="50.828" x="715.586" y="355.586" stroke="#fff" stroke-opacity=".15" stroke-width="1.172" rx="11.414"/></g><g filter="url(#f)"><g clip-path="url(#g)"><rect width="29.766" height="29.766" x="726.117" y="366.117" fill="#fff" rx="5.156"/><path fill="#001E36" d="M750.612 366.117h-19.224c-2.911 0-5.271 2.421-5.271 5.406v18.954c0 2.985 2.36 5.406 5.271 5.406h19.224c2.911 0 5.271-2.421 5.271-5.406v-18.954c0-2.985-2.36-5.406-5.271-5.406Z"/><path fill="#31A8FF" d="M732.094 387.801v-13.086c0-.096.04-.144.12-.144.212 0 .407-.003.7-.01a509.775 509.775 0 0 1 2.026-.041c.38-.007.756-.01 1.128-.01 1.012 0 1.864.129 2.556.389a4.417 4.417 0 0 1 1.668 1.044c.401.409.711.901.908 1.444.187.529.282 1.087.28 1.649 0 1.092-.246 1.993-.739 2.703a4.187 4.187 0 0 1-1.997 1.546c-.838.321-1.77.43-2.795.43-.293 0-.5-.003-.619-.01-.12-.007-.3-.01-.539-.01v4.086a.169.169 0 0 1-.045.138.163.163 0 0 1-.062.039.152.152 0 0 1-.073.007h-2.377c-.094 0-.14-.054-.14-.164Zm2.697-10.772v4.268c.172.014.332.021.479.021h.659a4.588 4.588 0 0 0 1.427-.234 2.154 2.154 0 0 0 1.019-.676c.259-.314.389-.751.389-1.311a2.111 2.111 0 0 0-.289-1.126 1.877 1.877 0 0 0-.869-.727 3.621 3.621 0 0 0-1.458-.256c-.319 0-.602.003-.848.01a5.036 5.036 0 0 0-.509.031ZM749.2 380.522a4.558 4.558 0 0 0-1.188-.43 6.181 6.181 0 0 0-1.388-.164 2.527 2.527 0 0 0-.749.092.668.668 0 0 0-.389.256.658.658 0 0 0-.1.348c.004.12.046.235.12.328.117.14.259.255.419.338.285.157.578.297.879.42.67.23 1.31.543 1.907.931.406.263.742.626.978 1.055.199.407.298.856.29 1.311.012.6-.156 1.19-.48 1.689a3.162 3.162 0 0 1-1.387 1.137c-.606.273-1.355.41-2.247.41a7.905 7.905 0 0 1-1.687-.164 5.264 5.264 0 0 1-1.268-.41.258.258 0 0 1-.105-.102.275.275 0 0 1-.035-.144v-2.211a.12.12 0 0 1 .05-.113.094.094 0 0 1 .057-.012.09.09 0 0 1 .053.022c.478.289.997.5 1.538.625.476.122.966.188 1.457.194.466 0 .809-.061 1.029-.184a.587.587 0 0 0 .329-.532c0-.178-.1-.348-.299-.512-.2-.164-.606-.362-1.219-.594a7.275 7.275 0 0 1-1.767-.922 3.097 3.097 0 0 1-.938-1.075 2.88 2.88 0 0 1-.29-1.3 2.986 2.986 0 0 1 .42-1.536c.313-.51.764-.915 1.298-1.168.585-.3 1.317-.45 2.196-.45a9.428 9.428 0 0 1 1.538.112c.368.048.728.148 1.07.297a.188.188 0 0 1 .12.113c.013.05.02.102.02.153v2.069a.154.154 0 0 1-.014.07.156.156 0 0 1-.046.053.214.214 0 0 1-.086.021.198.198 0 0 1-.086-.021Z"/></g><rect width="31.641" height="31.641" x="725.18" y="365.18" stroke="#fff" stroke-width="1.875" rx="6.094"/></g><g filter="url(#h)"><rect width="52" height="52" x="586" y="59" fill="#15131D" rx="12"/><rect width="50.828" height="50.828" x="586.586" y="59.586" stroke="#fff" stroke-opacity=".15" stroke-width="1.172" rx="11.414"/></g><g filter="url(#i)"><path fill="#fff" d="M619.947 75a11.158 11.158 0 0 1 2.495 3.757l.027.068a11.066 11.066 0 0 1 .682 2.642.832.832 0 0 0 .511.66 8.442 8.442 0 0 1 2.815 1.892 8.358 8.358 0 0 1 2.251 4.29 8.322 8.322 0 0 1-.515 4.811 8.386 8.386 0 0 1-3.108 3.726 8.485 8.485 0 0 1-4.666 1.399h-16.876a8.471 8.471 0 0 1-5.967-2.454 8.347 8.347 0 0 1-2.471-5.923c0-2.222.889-4.352 2.471-5.923a8.444 8.444 0 0 1 2.322-1.632.832.832 0 0 0 .475-.685 11.14 11.14 0 0 1 3.261-7.027 11.248 11.248 0 0 1 3.779-2.473 11.311 11.311 0 0 1 7.248-.374A11.268 11.268 0 0 1 619.947 75Z"/><path stroke="#fff" stroke-width="1.875" d="M623.311 78.407h.001l.029.074a11.929 11.929 0 0 1 .731 2.802 9.37 9.37 0 0 1 3.073 2.078 9.263 9.263 0 0 1 1.931 10.125 9.33 9.33 0 0 1-3.455 4.143 9.421 9.421 0 0 1-5.181 1.553H603.563a9.408 9.408 0 0 1-6.627-2.725 9.283 9.283 0 0 1-2.748-6.589c0-2.472.989-4.842 2.748-6.588a9.372 9.372 0 0 1 2.528-1.788 12.088 12.088 0 0 1 3.53-7.555 12.188 12.188 0 0 1 4.093-2.68l16.224 7.15Zm0 0a12.087 12.087 0 0 0-2.687-4.056 12.18 12.18 0 0 0-3.94-2.86l-.387.853m7.014 6.063-7.014-6.063m0 0 .387-.852a12.103 12.103 0 0 0-1.749-.64 12.267 12.267 0 0 0-7.848.405l9.21 1.087Z"/></g><path fill="#1988E0" fill-rule="evenodd" d="M619.946 74.946a11.243 11.243 0 0 1 3.292 8.247 11.25 11.25 0 0 1-3.714 8.066l-7.523 7.101-7.524-7.031-.421-.492a11.245 11.245 0 0 1-2.892-12.514 11.244 11.244 0 0 1 10.722-7.07 11.245 11.245 0 0 1 8.06 3.693Z" clip-rule="evenodd"/><path fill="#2CD4ED" d="M603.562 81.484A8.44 8.44 0 0 1 612 89.922v8.437h-8.438a8.44 8.44 0 0 1-8.437-8.437 8.438 8.438 0 0 1 8.437-8.438Z"/><mask id="j" width="17" height="18" x="595" y="81" maskUnits="userSpaceOnUse" style="mask-type:luminance"><path fill="#0DB4E2" d="M603.562 81.484A8.44 8.44 0 0 1 612 89.922v8.437h-8.438a8.44 8.44 0 0 1-8.437-8.437 8.438 8.438 0 0 1 8.437-8.438Z"/></mask><g mask="url(#j)"><path fill="#0DB4E2" fill-rule="evenodd" d="M619.946 74.946a11.243 11.243 0 0 1 3.292 8.247 11.25 11.25 0 0 1-3.714 8.066l-7.523 7.101-7.524-7.031-.421-.492a11.245 11.245 0 0 1-2.892-12.514 11.244 11.244 0 0 1 10.722-7.07 11.245 11.245 0 0 1 8.06 3.693Z" clip-rule="evenodd"/></g><path fill="#3169FF" d="M612 98.36v-8.65a8.433 8.433 0 0 1 5.352-7.642 8.438 8.438 0 1 1 3.086 16.291H612Z"/><mask id="k" width="17" height="18" x="612" y="81" maskUnits="userSpaceOnUse" style="mask-type:luminance"><path fill="#3153FF" d="M612 98.36v-8.65a8.433 8.433 0 0 1 5.352-7.642 8.438 8.438 0 1 1 3.086 16.291H612Z"/></mask><g mask="url(#k)"><path fill="#3153FF" fill-rule="evenodd" d="M619.946 74.946a11.243 11.243 0 0 1 3.292 8.247 11.25 11.25 0 0 1-3.714 8.066l-7.523 7.101-7.524-7.031-.421-.492a11.245 11.245 0 0 1-2.892-12.514 11.244 11.244 0 0 1 10.722-7.07 11.245 11.245 0 0 1 8.06 3.693Z" clip-rule="evenodd"/></g><g filter="url(#l)"><rect width="52" height="52" x="586" y="305" fill="#15131D" rx="12"/><rect width="50.828" height="50.828" x="586.586" y="305.586" stroke="#fff" stroke-opacity=".15" stroke-width="1.172" rx="11.414"/></g><g filter="url(#m)"><mask id="n" width="33" height="33" x="595.381" y="314.469" fill="#000" maskUnits="userSpaceOnUse"><path fill="#fff" d="M595.381 314.469h33v33h-33z"/><path fill-rule="evenodd" d="M597.672 316.815c.193-.215.478-.346.79-.346h26.898c.314 0 .595.131.791.344.182.19.292.452.292.737v11.816a1.051 1.051 0 0 1-.23.665l-.006.007a.3.3 0 0 1-.037.043l-12.005 14.251-.366.435c0 .003 0 .003-.002.003a2.697 2.697 0 0 1-1.885.761 2.707 2.707 0 0 1-1.885-.762h-.002v-.001l-.366-.436-11.988-14.229a.048.048 0 0 1-.017-.02l-.049-.056-.005-.006a1.055 1.055 0 0 1-.219-.618v-.073a1.056 1.056 0 0 1 .29-.702c.196-.211.479-.344.791-.344h2.641l-3.452-4.095a1.11 1.11 0 0 1-.198-.325 1.07 1.07 0 0 1-.072-.357v-.073c.007-.271.116-.514.29-.699.195-.215.478-.347.791-.347h2.662l-3.445-4.09c-.006-.006-.012-.012-.015-.018a.993.993 0 0 1-.2-.308l-.004-.009-.006-.018a1.034 1.034 0 0 1-.073-.358v-.072c.008-.27.116-.517.291-.7Zm8.689 11.788 5.551 6.588v-.001l-5.551-6.587Zm5.551 12.506-.002.002-8.1-9.614 8.1 9.615.002-.002v-.001Z" clip-rule="evenodd"/></mask><path fill="#FF9D8D" fill-rule="evenodd" d="M597.672 316.815c.193-.215.478-.346.79-.346h26.898c.314 0 .595.131.791.344.182.19.292.452.292.737v11.816a1.051 1.051 0 0 1-.23.665l-.006.007a.3.3 0 0 1-.037.043l-12.005 14.251-.366.435c0 .003 0 .003-.002.003a2.697 2.697 0 0 1-1.885.761 2.707 2.707 0 0 1-1.885-.762h-.002v-.001l-.366-.436-11.988-14.229a.048.048 0 0 1-.017-.02l-.049-.056-.005-.006a1.055 1.055 0 0 1-.219-.618v-.073a1.056 1.056 0 0 1 .29-.702c.196-.211.479-.344.791-.344h2.641l-3.452-4.095a1.11 1.11 0 0 1-.198-.325 1.07 1.07 0 0 1-.072-.357v-.073c.007-.271.116-.514.29-.699.195-.215.478-.347.791-.347h2.662l-3.445-4.09c-.006-.006-.012-.012-.015-.018a.993.993 0 0 1-.2-.308l-.004-.009-.006-.018a1.034 1.034 0 0 1-.073-.358v-.072c.008-.27.116-.517.291-.7Zm8.689 11.788 5.551 6.588v-.001l-5.551-6.587Zm5.551 12.506-.002.002-8.1-9.614 8.1 9.615.002-.002v-.001Z" clip-rule="evenodd"/><path fill="#fff" d="m597.672 316.815 1.354 1.297.02-.021.02-.022-1.394-1.254Zm28.479-.002-1.382 1.268.014.015.014.015 1.354-1.298Zm.219 12.945-1.738-.705-.006.016-.007.016 1.751.673Zm-.157.273-1.459-1.177-.005.006 1.464 1.171Zm-.006.007 1.468 1.167-1.468-1.167Zm-.037.043-1.325-1.326-.057.057-.052.061 1.434 1.208Zm-12.005 14.251-1.434-1.208-.001.002 1.435 1.206Zm-.366.435-1.435-1.206-.44.523v.683h1.875Zm-.002.003v-1.875h-.757l-.545.526 1.302 1.349Zm-1.685.753-.133-1.87-.014.001-.014.001.161 1.868Zm-.2.008v1.875-1.875Zm-1.885-.762 1.301-1.35-.545-.525h-.756v1.875Zm-.001 0 .098-1.872-.012-.001-.086 1.873Zm-.001 0 .76-1.714-.009-.004-.751 1.718Zm0-.001h1.875v-.683l-.439-.523-1.436 1.206Zm-.366-.436 1.436-1.206-.002-.002-1.434 1.208Zm-11.988-14.229 1.434-1.208-.259-.308-.363-.175-.812 1.691Zm-.017-.02 1.663-.865-.101-.195-.144-.167-1.418 1.227Zm-.049-.056 1.418-1.226-.019-.023-.021-.022-1.378 1.271Zm-.005-.006 1.509-1.113-1.509 1.113Zm-.004-.006-1.509 1.114.038.05.04.048 1.431-1.212Zm-.142-.257 1.767-.627-.013-.039-.015-.037-1.739.703Zm-.073-.355h-1.875v.029l.001.028 1.874-.057Zm.006-.143 1.847.324.014-.081.007-.082-1.868-.161Zm.284-.632 1.371 1.28.004-.005-1.375-1.275Zm3.432-.344v1.875h4.033l-2.6-3.084-1.433 1.209Zm-3.452-4.095 1.434-1.208-.02-.024-.021-.023-1.393 1.255Zm-.043-.052 1.479-1.153v-.001l-1.479 1.154Zm-.155-.273 1.752-.67-.003-.007-.003-.007-1.746.684Zm-.072-.357h-1.875v.027l.001.028 1.874-.055Zm0-.073-1.874-.05-.001.025v.025h1.875Zm.29-.699 1.365 1.286.013-.014.012-.013-1.39-1.259Zm3.453-.347v1.875h4.031l-2.597-3.083-1.434 1.208Zm-3.445-4.09 1.434-1.208-.051-.062-.057-.056-1.326 1.326Zm-.015-.018 1.585-1.001-.115-.182-.154-.152-1.316 1.335Zm-.064-.075 1.535-1.077-.028-.04-.03-.038-1.477 1.155Zm-.136-.233-1.767.627.018.052.022.051 1.727-.73Zm-.004-.009-1.74.697 1.74-.697Zm-.006-.018 1.841-.357-.035-.18-.069-.171-1.737.708Zm-.073-.358h-1.875v.025l.001.025 1.874-.05Zm0-.072-1.874-.055-.001.028v.027h1.875Zm8.98 11.088 1.434-1.208-2.867 2.416 1.433-1.208Zm5.551 6.588-1.434 1.208 3.309 3.928v-5.136h-1.875Zm0-.001h1.875v-.684l-.441-.524-1.434 1.208Zm-.002 5.921-1.434 1.208 1.315 1.561 1.444-1.442-1.325-1.327Zm.002-.002h1.875v-4.521l-3.2 3.195 1.325 1.326Zm-8.102-9.612 1.433-1.208-2.867 2.416 1.434-1.208Zm8.1 9.615-1.434 1.208 1.316 1.562 1.444-1.445-1.326-1.325Zm.002-.002 1.326 1.326.549-.55v-.776h-1.875Zm-13.45-26.516c-.841 0-1.634.355-2.185.968l2.789 2.507a.817.817 0 0 1-.604.275v-3.75Zm26.898 0h-26.898v3.75h26.898v-3.75Zm2.172.952a2.941 2.941 0 0 0-2.172-.952v3.75a.811.811 0 0 1-.591-.263l2.763-2.535Zm.786 2.004c0-.773-.3-1.499-.814-2.034l-2.707 2.595a.815.815 0 0 1-.229-.561h3.75Zm0 11.816V317.55h-3.75v11.816h3.75Zm-.211 1.097c.145-.358.211-.73.211-1.097h-3.75a.83.83 0 0 1 .064-.313l3.475 1.41Zm-.435.746c.194-.241.342-.504.448-.779l-3.501-1.345a.86.86 0 0 1 .135-.231l2.918 2.355Zm.003-.004.002-.003-2.928-2.342-.009.011 2.935 2.334Zm-.179.202c.101-.101.179-.202.179-.202l-2.935-2.334.015-.019c.016-.018.047-.054.09-.097l2.651 2.652Zm-12.261 14.566.366-.435-2.871-2.412-.366.435 2.871 2.412Zm-1.438.672H613.806l.031-.001c.021 0 .087-.002.17-.011.115-.013.655-.074 1.12-.539.463-.465.523-1.004.536-1.119.009-.082.011-.147.011-.169v-.039h-3.75c0 .047-.002-.077.012-.205a1.875 1.875 0 0 1 1.654-1.656c.129-.014.253-.011.207-.011v3.75Zm-1.553.749a4.576 4.576 0 0 0 2.855-1.275l-2.604-2.698a.83.83 0 0 1-.516.232l.265 3.741Zm-.332.012c.102 0 .224-.003.361-.015l-.322-3.736a.203.203 0 0 1-.039.001v3.75Zm-3.187-1.287a4.586 4.586 0 0 0 3.187 1.287v-3.75a.833.833 0 0 1-.584-.237l-2.603 2.7Zm1.203.523c.037.002.067.002.079.002h.02v-3.75h.019l.078.003-.196 3.745Zm-.662-.159c.343.153.648.158.674.159l.172-3.746a1.873 1.873 0 0 1 .673.159l-1.519 3.428Zm-1.116-1.715V344.782l.001.051a1.885 1.885 0 0 0 .345 1.022c.222.312.507.514.779.632l1.501-3.436a1.88 1.88 0 0 1 1.123 1.653l.001.064h-3.75Zm.073.769.366.436 2.872-2.411-.366-.436-2.872 2.411Zm-12.233-14.589c.057.11.3.572.87.845l1.623-3.381a1.853 1.853 0 0 1 .834.806l-3.327 1.73Zm.198.306.048.056 2.836-2.454-.049-.055-2.835 2.453Zm-.097-.121.003.004a1.66 1.66 0 0 0 .134.162l2.755-2.543c.077.083.132.159.126.152l-3.018 2.225Zm.074.094-.056-.069-.018-.025 3.018-2.225-.002-.003-.004-.005-.016-.022c-.014-.018-.034-.044-.06-.074l-2.862 2.423Zm-.478-.842c.112.315.267.564.4.744l3.018-2.227c.016.022.071.1.116.229l-3.534 1.254Zm-.18-.925c.01.34.079.679.209 1.001l3.477-1.406c.04.101.059.2.062.291l-3.748.114Zm-.001-.13v.073h3.75v-.073h-3.75Zm.034-.395a2.318 2.318 0 0 0-.034.395h3.75c0 .077-.006.162-.022.254l-3.694-.649Zm.761-1.586a2.924 2.924 0 0 0-.782 1.749l3.736.323a.826.826 0 0 1-.213.487l-2.741-2.559Zm2.161-.94c-.855 0-1.629.366-2.166.945l2.75 2.549a.795.795 0 0 1-.584.256v-3.75Zm2.641 0h-2.641v3.75h2.641v-3.75Zm-4.885-1.011 3.451 4.094 2.867-2.417-3.451-4.094-2.867 2.417Zm-.089-.109c.015.019.066.085.13.156l2.785-2.511.04.046.003.004-2.958 2.305Zm-.427-.755c.109.285.257.538.428.756l2.957-2.307a.852.852 0 0 1 .118.211l-3.503 1.34Zm-.195-.972c.01.345.08.677.201.987l3.491-1.369a.81.81 0 0 1 .056.271l-3.748.111Zm-.001-.128v.073h3.75v-.073h-3.75Zm.801-1.985a2.93 2.93 0 0 0-.8 1.935l3.748.1a.823.823 0 0 1-.219.537l-2.729-2.572Zm2.155-.936c-.851 0-1.636.362-2.18.963l2.779 2.518a.813.813 0 0 1-.599.269v-3.75Zm2.662 0h-2.662v3.75h2.662v-3.75Zm-4.879-1.008 3.445 4.09 2.868-2.415-3.445-4.09-2.868 2.415Zm-.167-.224a1.87 1.87 0 0 0 .275.342l2.652-2.651.055.058c.036.04.111.126.189.249l-3.171 2.002Zm-.014 0c.091.129.187.24.283.334l2.633-2.67c.049.049.103.109.155.183l-3.071 2.153Zm-.327-.579c.094.223.22.445.385.657l2.955-2.309a.88.88 0 0 1 .114.192l-3.454 1.46Zm-.017-.042-.006-.014a.879.879 0 0 1-.017-.047l3.534-1.254-.021-.056-.009-.022-3.481 1.393Zm-.106-.359c.021.111.048.2.07.262l.025.071a.419.419 0 0 0 .011.026l3.481-1.393a1.707 1.707 0 0 1 .094.321l-3.681.713Zm-.107-.664c.009.345.078.688.211 1.015l3.473-1.415c.043.107.062.21.064.299l-3.748.101Zm-.001-.122v.072h3.75v-.072h-3.75Zm.811-1.996a2.929 2.929 0 0 0-.81 1.941l3.748.11a.822.822 0 0 1-.229.542l-2.709-2.593Zm13.72 19.671v.001h3.75v-.001h-3.75Zm3.198 7.248.002-.002-2.65-2.653-.002.001 2.65 2.654Zm-2.649-2.653-.002.001 2.652 2.651.002-.001-2.652-2.651Zm-.549 1.324v.001h3.75v-.001h-3.75Zm5.562 4.431 12.005-14.251-2.868-2.416-12.005 14.251 2.868 2.416Zm-19.361-14.229 11.987 14.229 2.868-2.416-11.988-14.229-2.867 2.416Zm17.108 2.672-5.551-6.588-2.867 2.416 5.55 6.588 2.868-2.416Zm-8.418-4.172 5.55 6.588 2.868-2.417-5.551-6.587-2.867 2.416Zm-2.552 2.894 8.1 9.614 2.868-2.416-8.101-9.614-2.867 2.416Zm10.968 7.199-8.101-9.615-2.867 2.416 8.1 9.615 2.868-2.416Z" mask="url(#n)"/></g><mask id="p" width="30" height="30" x="597" y="316" maskUnits="userSpaceOnUse" style="mask-type:luminance"><path fill="url(#o)" d="M598.46 316.469c-.312 0-.597.131-.79.346-.175.183-.283.43-.291.7v.072c.003.127.028.247.073.358.002.009.006.017.01.027a.993.993 0 0 0 .2.308c.003.006.009.012.015.018l3.445 4.089 1.244 1.477 3.724 4.42 1.244 1.474 3.334 3.958 1.242 1.474v10.341a2.697 2.697 0 0 0 1.885-.761c.002 0 .002 0 .002-.003l.366-.435 8.944-10.616 3.061-3.635c.016-.015.029-.033.043-.05a.983.983 0 0 0 .156-.273c.049-.12.074-.252.074-.392V317.55c0-.285-.11-.547-.292-.737a1.068 1.068 0 0 0-.791-.344H598.46Z"/></mask><g mask="url(#p)"><path fill="url(#q)" fill-rule="evenodd" d="M598.46 316.469c-.312 0-.597.131-.79.346-.175.183-.283.43-.291.7v.072c.003.127.028.247.073.358.002.009.006.017.01.027a.993.993 0 0 0 .2.308c.003.006.009.012.015.018l3.445 4.089 1.244 1.477 3.724 4.42 1.244 1.474 3.334 3.958 1.242 1.474v10.341a2.697 2.697 0 0 0 1.885-.761c.002 0 .002 0 .002-.003l.366-.435 8.944-10.616 3.061-3.635c.016-.015.029-.033.043-.05a.983.983 0 0 0 .156-.273c.049-.12.074-.252.074-.392V317.55c0-.285-.11-.547-.292-.737a1.068 1.068 0 0 0-.791-.344H598.46Z" clip-rule="evenodd"/></g><path fill="#FCD1CA" fill-rule="evenodd" d="M611.91 341.109v4.421c-.732 0-1.397-.29-1.885-.761-.002 0-.002 0-.002-.002l-.366-.436-8.944-10.615-3.043-3.614c-.008-.003-.014-.011-.018-.019l-.048-.056-.01-.012a1.014 1.014 0 0 1-.142-.258 1.045 1.045 0 0 1-.073-.354v-.074a1.055 1.055 0 0 1 .291-.701c.195-.211.478-.345.79-.345h2.641l1.242 1.474 3.334 3.959 5.467 6.489.764.906.002-.002Z" clip-rule="evenodd"/><path fill="#FF9D8D" fill-rule="evenodd" d="M611.91 335.191v5.917l-.002.002-.763-.906-5.467-6.488-3.335-3.958-1.242-1.475-3.452-4.094-.043-.053a1.091 1.091 0 0 1-.227-.63v-.073a1.05 1.05 0 0 1 .291-.699 1.06 1.06 0 0 1 .79-.347h2.663l1.244 1.476 3.724 4.42 1.242 1.475 3.335 3.958 1.242 1.475Z" clip-rule="evenodd"/><g filter="url(#r)"><rect width="52" height="52" x="854" y="59" fill="#15131D" rx="12"/><rect width="50.828" height="50.828" x="854.586" y="59.586" stroke="#fff" stroke-opacity=".15" stroke-width="1.172" rx="11.414"/></g><g filter="url(#s)"><path fill="#fff" d="m884.196 69.55-17.208 1.267c-1.387.12-1.871 1.025-1.871 2.11V91.75c0 .845.302 1.568 1.026 2.534l4.046 5.248c.664.845 1.268 1.026 2.537.966l19.983-1.207c1.69-.12 2.174-.905 2.174-2.232V75.883c0-.723-.302-.904-1.209-1.568l-5.493-3.86c-1.328-.965-1.872-1.087-3.985-.906Z"/><path stroke="#fff" stroke-width="1.875" d="M866.919 69.882h-.012c-.898.078-1.628.43-2.114 1.051-.466.597-.613 1.326-.613 1.994V91.75c0 1.126.424 2.044 1.213 3.097l.008.01 4.045 5.248.006.007c.402.511.851.902 1.457 1.123.573.21 1.195.231 1.861.199h.012l19.984-1.207.01-.001c.963-.068 1.794-.34 2.357-.979.556-.63.687-1.437.687-2.188V75.883c0-.533-.125-.993-.492-1.419-.245-.284-.604-.545-.957-.802l-.143-.103-.007-.006-.008-.005-5.487-3.857c-.688-.5-1.281-.862-2.036-1.033-.723-.164-1.519-.133-2.568-.043l-17.203 1.267Z"/></g><path fill="#000" fill-rule="evenodd" d="M870.25 74.918c.965.785 1.327.725 3.139.604l17.086-1.026c.362 0 .061-.361-.06-.422l-2.838-2.05c-.543-.423-1.268-.906-2.656-.785l-16.544 1.206c-.603.06-.723.362-.483.604l2.356 1.87Zm1.026 3.982v17.977c0 .966.483 1.327 1.569 1.268l18.777-1.087c1.087-.06 1.208-.724 1.208-1.509V77.693c0-.784-.301-1.206-.967-1.146l-19.622 1.146c-.724.06-.965.423-.965 1.207Zm18.536.965c.12.543 0 1.086-.545 1.147l-.904.18v13.272c-.786.422-1.51.663-2.114.663-.966 0-1.208-.302-1.932-1.206l-5.918-9.29v8.988l1.873.423s0 1.085-1.511 1.085l-4.165.242c-.121-.242 0-.844.423-.965l1.087-.301V82.218l-1.509-.12c-.122-.544.18-1.328 1.026-1.389l4.468-.3 6.158 9.41v-8.325l-1.57-.18c-.12-.665.362-1.147.966-1.207l4.167-.242Zm-22.824-9.048 17.208-1.268c2.113-.181 2.657-.06 3.985.905l5.493 3.861c.907.664 1.209.845 1.209 1.568v21.175c0 1.327-.484 2.112-2.174 2.232l-19.983 1.207c-1.269.06-1.873-.121-2.537-.966l-4.046-5.248c-.724-.966-1.026-1.689-1.026-2.534V72.927c0-1.085.484-1.99 1.871-2.11Z" clip-rule="evenodd"/><g filter="url(#t)"><rect width="52" height="52" x="854" y="305" fill="#15131D" rx="12"/><rect width="50.828" height="50.828" x="854.586" y="305.586" stroke="#fff" stroke-opacity=".15" stroke-width="1.172" rx="11.414"/></g><g filter="url(#u)"><path stroke="#fff" stroke-linejoin="round" stroke-width="1.875" d="M879.931 318.916a3.968 3.968 0 0 0-3.962-3.969v.31-.31h-.002a3.964 3.964 0 0 0-3.959 3.967 3.965 3.965 0 0 0 3.961 3.966h3.024c.518 0 .938-.42.938-.937v-3.027Zm0 0-.938-.001h.938v.001Zm-.001 8.078a3.965 3.965 0 0 0-3.961-3.968H867.906a3.965 3.965 0 0 0-3.961 3.965m15.985.003a3.965 3.965 0 0 1-3.961 3.966h-8.065a3.964 3.964 0 0 1-3.959-3.969m15.985.003h-.938m.938 0v-.001l-.938.001m-15.047-.003.938.001m-.938-.001v.002l.938-.001m0 0a3.027 3.027 0 0 1 3.024-3.029m-3.024 3.029a3.025 3.025 0 0 0 3.023 3.03h8.062a3.026 3.026 0 0 0 3.024-3.028m-11.085-3.031 11.085 3.031m-11.085-3.031h8.061-8.061Zm28.148 3.029a3.965 3.965 0 0 0-3.961-3.966h-.001l-3.024 3.966h-.937v3.03c0 .518.42.938.937.938h3.025a3.965 3.965 0 0 0 3.961-3.968Zm0 0h-.938l.938.001v-.001Zm-12.024-12.045h.002a3.965 3.965 0 0 1 3.959 3.967m-3.961-3.967 3.024 3.967m-3.024-3.967a3.965 3.965 0 0 0-3.961 3.967m3.961-3.967-3.961 3.967m7.922 0h-.937m.937 0h-.937m.937 0v8.078m-.937-8.078v8.078m.937 0h-.937m.937 0h-.937m.937 0a3.965 3.965 0 0 1-3.961 3.968h-.002a3.965 3.965 0 0 1-3.959-3.968h.938l-.937-.001 6.984.001m-6.985-8.078h.938-.938Zm7.922 24.237a3.965 3.965 0 0 0-3.961-3.967h-3.024a.938.938 0 0 0-.938.938v3.028m7.923.001a3.964 3.964 0 0 1-3.961 3.966h-.002a3.966 3.966 0 0 1-3.96-3.967m7.923.001h-.937m.937 0v-.001l-.937.001m-6.986-.001.938.001m-.938-.001v.001h.938m0 0v-2.092m0 2.092a3.028 3.028 0 0 0 3.024 3.029 3.028 3.028 0 0 0 3.024-3.029m-6.048-2.092 6.048 2.092m-6.048-2.092v-.937h3.024l-3.024.937Zm-.937-5.989a3.963 3.963 0 0 0 3.96 3.967H892.094a3.964 3.964 0 0 0 3.961-3.965m-15.985-.002a3.965 3.965 0 0 1 3.961-3.967h8.065a3.966 3.966 0 0 1 3.959 3.969m-15.985-.002v-.001l.938.001a3.026 3.026 0 0 1 3.024-3.029h8.062a3.026 3.026 0 0 1 3.023 3.03m-15.047-.001 12.023 3.03m3.962-3.028-.938-.001m.938.001v-.002l-.938.001m0 0a3.026 3.026 0 0 1-3.024 3.029m0 0h-8.062 8.062Zm-21.162-6.995c.517 0 .937.419.937.937v3.029m-.937-3.966-3.024 6.995a3.027 3.027 0 0 0 3.024-3.029h.937m-.937-3.966h-3.025a3.963 3.963 0 0 0-3.961 3.966m6.986-3.966-6.986 3.966m7.923 0a3.964 3.964 0 0 1-3.961 3.966h-.001a3.964 3.964 0 0 1-3.961-3.966m7.923 0h-7.923m12.024 12.046h-.002a3.963 3.963 0 0 1-3.959-3.968m3.961 3.968v-15.074a3.025 3.025 0 0 0-3.024 3.028h-.937m3.961 12.046a3.964 3.964 0 0 0 3.961-3.967m-3.961 3.967 3.961-3.967m-7.922-.001v-8.078m0 8.078v-.001l.937.002h-.937v-.001Zm0-8.078a3.961 3.961 0 0 1 3.961-3.965h.002a3.965 3.965 0 0 1 3.959 3.968m-7.922-.003 7.922.003m0 0v.001l-.938-.002h.938v.001Zm0 8.076-.938.001h.938v-.001Z" shape-rendering="crispEdges"/></g><path fill="#36C5F0" fill-rule="evenodd" d="M875.968 315.885a3.026 3.026 0 0 0-3.023 3.029 3.028 3.028 0 0 0 3.024 3.029h3.024v-3.028a3.028 3.028 0 0 0-3.025-3.03c.001 0 .001 0 0 0m0 8.078h-8.061a3.027 3.027 0 0 0-3.024 3.029 3.025 3.025 0 0 0 3.023 3.03h8.062a3.026 3.026 0 0 0 3.024-3.028 3.028 3.028 0 0 0-3.024-3.031Z" clip-rule="evenodd"/><path fill="#2EB67D" fill-rule="evenodd" d="M895.117 326.992a3.028 3.028 0 0 0-3.024-3.029 3.028 3.028 0 0 0-3.024 3.029v3.03h3.024a3.027 3.027 0 0 0 3.024-3.03Zm-8.063 0v-8.078a3.026 3.026 0 0 0-3.022-3.029 3.026 3.026 0 0 0-3.024 3.029v8.078a3.025 3.025 0 0 0 3.023 3.03 3.025 3.025 0 0 0 3.023-3.03Z" clip-rule="evenodd"/><path fill="#ECB22E" fill-rule="evenodd" d="M884.03 346.18a3.027 3.027 0 0 0 3.024-3.029 3.027 3.027 0 0 0-3.024-3.029h-3.024v3.029a3.028 3.028 0 0 0 3.024 3.029Zm0-8.08h8.062a3.026 3.026 0 0 0 3.024-3.029 3.026 3.026 0 0 0-3.022-3.03h-8.063a3.027 3.027 0 0 0-3.024 3.029 3.026 3.026 0 0 0 3.023 3.03Z" clip-rule="evenodd"/><path fill="#E01E5A" fill-rule="evenodd" d="M864.883 335.072a3.027 3.027 0 0 0 3.024 3.029 3.028 3.028 0 0 0 3.024-3.029v-3.029h-3.024a3.026 3.026 0 0 0-3.024 3.029Zm8.062 0v8.078a3.028 3.028 0 0 0 3.023 3.031 3.028 3.028 0 0 0 3.024-3.029v-8.078a3.027 3.027 0 0 0-3.023-3.03 3.025 3.025 0 0 0-3.024 3.028c0 .001 0 0 0 0Z" clip-rule="evenodd"/><g filter="url(#v)"><rect width="52" height="52" x="540" y="180" fill="#15131D" rx="12"/><rect width="50.828" height="50.828" x="540.586" y="180.586" stroke="#fff" stroke-opacity=".15" stroke-width="1.172" rx="11.414"/></g><g filter="url(#w)"><path stroke="#fff" stroke-linejoin="round" stroke-width="1.875" d="M556.508 190.516a1.992 1.992 0 0 0-1.368 3.44l5.849 5.524h-4.481a1.991 1.991 0 0 0-1.992 1.993v8.965a1.995 1.995 0 0 0 .624 1.448l9.492 8.965a1.996 1.996 0 0 0 2.157.381 1.995 1.995 0 0 0 1.203-1.83v-6.972h7.5c.399 0 .789-.12 1.119-.344l-.527-.776.527.776a1.991 1.991 0 0 0 .826-2.079l-.915.203.915-.203a1.993 1.993 0 0 0-.577-1.018l-5.849-5.524h4.481a1.991 1.991 0 0 0 1.992-1.992v-8.965a1.995 1.995 0 0 0-1.992-1.992h-18.984Z" shape-rendering="crispEdges"/></g><path fill="url(#x)" d="M576.547 201.473v-8.965a1.054 1.054 0 0 0-1.055-1.055h-18.984a1.057 1.057 0 0 0-1.03 1.283c.046.206.152.394.306.539l7.563 7.143h-6.839a1.054 1.054 0 0 0-1.055 1.055v8.965a1.052 1.052 0 0 0 .331.766l9.492 8.965a1.054 1.054 0 0 0 1.779-.767v-7.91h8.437a1.05 1.05 0 0 0 .98-.665 1.05 1.05 0 0 0-.256-1.156l-7.563-7.144h6.839a1.054 1.054 0 0 0 1.055-1.054Z"/><g filter="url(#y)"><rect width="52" height="52" x="889" y="180" fill="#15131D" rx="12"/><rect width="50.828" height="50.828" x="889.586" y="180.586" stroke="#fff" stroke-opacity=".15" stroke-width="1.172" rx="11.414"/></g><g filter="url(#z)"><path fill="#fff" d="M919.422 194.297a25.583 25.583 0 0 1 6.383 1.964c3.501 5.119 5.241 10.894 4.599 17.556a25.636 25.636 0 0 1-7.833 3.928 18.797 18.797 0 0 1-1.677-2.701 16.793 16.793 0 0 0 2.645-1.263 9.351 9.351 0 0 1-.647-.487 18.392 18.392 0 0 1-15.651 0c-.21.161-.426.326-.648.487.842.496 1.725.918 2.641 1.26a18.916 18.916 0 0 1-1.677 2.704 25.751 25.751 0 0 1-7.828-3.93c-.547-5.745.548-11.573 4.587-17.55a25.802 25.802 0 0 1 6.387-1.968c.302.539.575 1.094.818 1.662a23.753 23.753 0 0 1 7.083 0 17.41 17.41 0 0 1 .818-1.662Z"/><path stroke="#fff" stroke-linejoin="round" stroke-width="1.875" d="M919.578 193.373a.935.935 0 0 0-.974.466c-.201.359-.39.725-.566 1.097a24.675 24.675 0 0 0-5.95 0 19.584 19.584 0 0 0-.566-1.097.938.938 0 0 0-.976-.466 26.658 26.658 0 0 0-6.62 2.04.945.945 0 0 0-.387.327c-4.169 6.169-5.31 12.217-4.743 18.164a.938.938 0 0 0 .376.665 26.682 26.682 0 0 0 8.113 4.073.939.939 0 0 0 1.024-.338 19.792 19.792 0 0 0 1.76-2.838.801.801 0 0 0 .054-.129 19.304 19.304 0 0 0 9.881.001.932.932 0 0 0 .055.131 19.683 19.683 0 0 0 1.76 2.836.938.938 0 0 0 1.022.337 26.544 26.544 0 0 0 8.12-4.071.938.938 0 0 0 .376-.664c.665-6.899-1.143-12.89-4.759-18.176a.939.939 0 0 0-.383-.323 26.487 26.487 0 0 0-6.617-2.035Z"/></g><path fill="#5865F2" d="M925.805 196.261a25.583 25.583 0 0 0-6.383-1.964 17.41 17.41 0 0 0-.818 1.662 23.753 23.753 0 0 0-7.083 0 17.41 17.41 0 0 0-.818-1.662 25.802 25.802 0 0 0-6.387 1.968c-4.039 5.977-5.134 11.805-4.587 17.55a25.751 25.751 0 0 0 7.828 3.93 18.916 18.916 0 0 0 1.677-2.704 16.737 16.737 0 0 1-2.641-1.26c.222-.161.438-.326.648-.487a18.391 18.391 0 0 0 15.651 0c.212.173.428.338.647.487-.843.497-1.728.92-2.645 1.263a18.797 18.797 0 0 0 1.677 2.701 25.636 25.636 0 0 0 7.833-3.928c.642-6.662-1.098-12.437-4.599-17.556Zm-15.878 14.02c-1.526 0-2.786-1.384-2.786-3.087 0-1.704 1.217-3.101 2.781-3.101 1.565 0 2.816 1.397 2.789 3.101-.027 1.703-1.229 3.087-2.784 3.087Zm10.279 0c-1.529 0-2.784-1.384-2.784-3.087 0-1.704 1.216-3.101 2.784-3.101 1.567 0 2.808 1.397 2.781 3.101-.027 1.703-1.227 3.087-2.781 3.087Z"/><defs><filter id="u" width="41.484" height="41.545" x="859.258" y="312.135" color-interpolation-filters="sRGB" filterUnits="userSpaceOnUse"><feFlood floodOpacity="0" result="BackgroundImageFix"/><feColorMatrix in="SourceAlpha" result="hardAlpha" values="0 0 0 0 0 0 0 0 0 0 0 0 0 0 0 0 0 0 127 0"/><feOffset dy=".938"/><feGaussianBlur stdDeviation=".469"/><feComposite in2="hardAlpha" operator="out"/><feColorMatrix values="0 0 0 0 0 0 0 0 0 0 0 0 0 0 0 0 0 0 0.1 0"/><feBlend in2="BackgroundImageFix" result="effect1_dropShadow_426_23412"/><feColorMatrix in="SourceAlpha" result="hardAlpha" values="0 0 0 0 0 0 0 0 0 0 0 0 0 0 0 0 0 0 127 0"/><feOffset dy="1.875"/><feGaussianBlur stdDeviation="1.875"/><feComposite in2="hardAlpha" operator="out"/><feColorMatrix values="0 0 0 0 0 0 0 0 0 0 0 0 0 0 0 0 0 0 0.2 0"/><feBlend in2="effect1_dropShadow_426_23412" result="effect2_dropShadow_426_23412"/><feBlend in="SourceGraphic" in2="effect2_dropShadow_426_23412" result="shape"/></filter><filter id="b" width="54.813" height="54.813" x="713.594" y="3.297" color-interpolation-filters="sRGB" filterUnits="userSpaceOnUse"><feFlood floodOpacity="0" result="BackgroundImageFix"/><feColorMatrix in="SourceAlpha" result="hardAlpha" values="0 0 0 0 0 0 0 0 0 0 0 0 0 0 0 0 0 0 127 0"/><feOffset dy=".703"/><feGaussianBlur stdDeviation=".703"/><feComposite in2="hardAlpha" operator="out"/><feColorMatrix values="0 0 0 0 0 0 0 0 0 0 0 0 0 0 0 0 0 0 0.1 0"/><feBlend in2="BackgroundImageFix" result="effect1_dropShadow_426_23412"/><feColorMatrix in="SourceAlpha" result="hardAlpha" values="0 0 0 0 0 0 0 0 0 0 0 0 0 0 0 0 0 0 127 0"/><feOffset dy=".469"/><feGaussianBlur stdDeviation=".352"/><feComposite in2="hardAlpha" operator="out"/><feColorMatrix values="0 0 0 0 0 0 0 0 0 0 0 0 0 0 0 0 0 0 0.1 0"/><feBlend in2="effect1_dropShadow_426_23412" result="effect2_dropShadow_426_23412"/><feColorMatrix in="SourceAlpha" result="hardAlpha" values="0 0 0 0 0 0 0 0 0 0 0 0 0 0 0 0 0 0 127 0"/><feOffset dy=".117"/><feGaussianBlur stdDeviation=".117"/><feComposite in2="hardAlpha" operator="out"/><feColorMatrix values="0 0 0 0 0 0 0 0 0 0 0 0 0 0 0 0 0 0 0.1 0"/><feBlend in2="effect2_dropShadow_426_23412" result="effect3_dropShadow_426_23412"/><feBlend in="SourceGraphic" in2="effect3_dropShadow_426_23412" result="shape"/></filter><filter id="e" width="54.813" height="54.813" x="713.594" y="354.297" color-interpolation-filters="sRGB" filterUnits="userSpaceOnUse"><feFlood floodOpacity="0" result="BackgroundImageFix"/><feColorMatrix in="SourceAlpha" result="hardAlpha" values="0 0 0 0 0 0 0 0 0 0 0 0 0 0 0 0 0 0 127 0"/><feOffset dy=".703"/><feGaussianBlur stdDeviation=".703"/><feComposite in2="hardAlpha" operator="out"/><feColorMatrix values="0 0 0 0 0 0 0 0 0 0 0 0 0 0 0 0 0 0 0.1 0"/><feBlend in2="BackgroundImageFix" result="effect1_dropShadow_426_23412"/><feColorMatrix in="SourceAlpha" result="hardAlpha" values="0 0 0 0 0 0 0 0 0 0 0 0 0 0 0 0 0 0 127 0"/><feOffset dy=".469"/><feGaussianBlur stdDeviation=".352"/><feComposite in2="hardAlpha" operator="out"/><feColorMatrix values="0 0 0 0 0 0 0 0 0 0 0 0 0 0 0 0 0 0 0.1 0"/><feBlend in2="effect1_dropShadow_426_23412" result="effect2_dropShadow_426_23412"/><feColorMatrix in="SourceAlpha" result="hardAlpha" values="0 0 0 0 0 0 0 0 0 0 0 0 0 0 0 0 0 0 127 0"/><feOffset dy=".117"/><feGaussianBlur stdDeviation=".117"/><feComposite in2="hardAlpha" operator="out"/><feColorMatrix values="0 0 0 0 0 0 0 0 0 0 0 0 0 0 0 0 0 0 0.1 0"/><feBlend in2="effect2_dropShadow_426_23412" result="effect3_dropShadow_426_23412"/><feBlend in="SourceGraphic" in2="effect3_dropShadow_426_23412" result="shape"/></filter><filter id="f" width="41.016" height="41.016" x="720.492" y="362.367" color-interpolation-filters="sRGB" filterUnits="userSpaceOnUse"><feFlood floodOpacity="0" result="BackgroundImageFix"/><feColorMatrix in="SourceAlpha" result="hardAlpha" values="0 0 0 0 0 0 0 0 0 0 0 0 0 0 0 0 0 0 127 0"/><feOffset dy=".938"/><feGaussianBlur stdDeviation=".469"/><feComposite in2="hardAlpha" operator="out"/><feColorMatrix values="0 0 0 0 0 0 0 0 0 0 0 0 0 0 0 0 0 0 0.1 0"/><feBlend in2="BackgroundImageFix" result="effect1_dropShadow_426_23412"/><feColorMatrix in="SourceAlpha" result="hardAlpha" values="0 0 0 0 0 0 0 0 0 0 0 0 0 0 0 0 0 0 127 0"/><feOffset dy="1.875"/><feGaussianBlur stdDeviation="1.875"/><feComposite in2="hardAlpha" operator="out"/><feColorMatrix values="0 0 0 0 0 0 0 0 0 0 0 0 0 0 0 0 0 0 0.2 0"/><feBlend in2="effect1_dropShadow_426_23412" result="effect2_dropShadow_426_23412"/><feBlend in="SourceGraphic" in2="effect2_dropShadow_426_23412" result="shape"/></filter><filter id="h" width="54.813" height="54.813" x="584.594" y="58.297" color-interpolation-filters="sRGB" filterUnits="userSpaceOnUse"><feFlood floodOpacity="0" result="BackgroundImageFix"/><feColorMatrix in="SourceAlpha" result="hardAlpha" values="0 0 0 0 0 0 0 0 0 0 0 0 0 0 0 0 0 0 127 0"/><feOffset dy=".703"/><feGaussianBlur stdDeviation=".703"/><feComposite in2="hardAlpha" operator="out"/><feColorMatrix values="0 0 0 0 0 0 0 0 0 0 0 0 0 0 0 0 0 0 0.1 0"/><feBlend in2="BackgroundImageFix" result="effect1_dropShadow_426_23412"/><feColorMatrix in="SourceAlpha" result="hardAlpha" values="0 0 0 0 0 0 0 0 0 0 0 0 0 0 0 0 0 0 127 0"/><feOffset dy=".469"/><feGaussianBlur stdDeviation=".352"/><feComposite in2="hardAlpha" operator="out"/><feColorMatrix values="0 0 0 0 0 0 0 0 0 0 0 0 0 0 0 0 0 0 0.1 0"/><feBlend in2="effect1_dropShadow_426_23412" result="effect2_dropShadow_426_23412"/><feColorMatrix in="SourceAlpha" result="hardAlpha" values="0 0 0 0 0 0 0 0 0 0 0 0 0 0 0 0 0 0 127 0"/><feOffset dy=".117"/><feGaussianBlur stdDeviation=".117"/><feComposite in2="hardAlpha" operator="out"/><feColorMatrix values="0 0 0 0 0 0 0 0 0 0 0 0 0 0 0 0 0 0 0.1 0"/><feBlend in2="effect2_dropShadow_426_23412" result="effect3_dropShadow_426_23412"/><feBlend in="SourceGraphic" in2="effect3_dropShadow_426_23412" result="shape"/></filter><filter id="i" width="45" height="38.164" x="589.5" y="67.58" color-interpolation-filters="sRGB" filterUnits="userSpaceOnUse"><feFlood floodOpacity="0" result="BackgroundImageFix"/><feColorMatrix in="SourceAlpha" result="hardAlpha" values="0 0 0 0 0 0 0 0 0 0 0 0 0 0 0 0 0 0 127 0"/><feOffset dy=".938"/><feGaussianBlur stdDeviation=".469"/><feComposite in2="hardAlpha" operator="out"/><feColorMatrix values="0 0 0 0 0 0 0 0 0 0 0 0 0 0 0 0 0 0 0.1 0"/><feBlend in2="BackgroundImageFix" result="effect1_dropShadow_426_23412"/><feColorMatrix in="SourceAlpha" result="hardAlpha" values="0 0 0 0 0 0 0 0 0 0 0 0 0 0 0 0 0 0 127 0"/><feOffset dy="1.875"/><feGaussianBlur stdDeviation="1.875"/><feComposite in2="hardAlpha" operator="out"/><feColorMatrix values="0 0 0 0 0 0 0 0 0 0 0 0 0 0 0 0 0 0 0.2 0"/><feBlend in2="effect1_dropShadow_426_23412" result="effect2_dropShadow_426_23412"/><feBlend in="SourceGraphic" in2="effect2_dropShadow_426_23412" result="shape"/></filter><filter id="l" width="54.813" height="54.813" x="584.594" y="304.297" color-interpolation-filters="sRGB" filterUnits="userSpaceOnUse"><feFlood floodOpacity="0" result="BackgroundImageFix"/><feColorMatrix in="SourceAlpha" result="hardAlpha" values="0 0 0 0 0 0 0 0 0 0 0 0 0 0 0 0 0 0 127 0"/><feOffset dy=".703"/><feGaussianBlur stdDeviation=".703"/><feComposite in2="hardAlpha" operator="out"/><feColorMatrix values="0 0 0 0 0 0 0 0 0 0 0 0 0 0 0 0 0 0 0.1 0"/><feBlend in2="BackgroundImageFix" result="effect1_dropShadow_426_23412"/><feColorMatrix in="SourceAlpha" result="hardAlpha" values="0 0 0 0 0 0 0 0 0 0 0 0 0 0 0 0 0 0 127 0"/><feOffset dy=".469"/><feGaussianBlur stdDeviation=".352"/><feComposite in2="hardAlpha" operator="out"/><feColorMatrix values="0 0 0 0 0 0 0 0 0 0 0 0 0 0 0 0 0 0 0.1 0"/><feBlend in2="effect1_dropShadow_426_23412" result="effect2_dropShadow_426_23412"/><feColorMatrix in="SourceAlpha" result="hardAlpha" values="0 0 0 0 0 0 0 0 0 0 0 0 0 0 0 0 0 0 127 0"/><feOffset dy=".117"/><feGaussianBlur stdDeviation=".117"/><feComposite in2="hardAlpha" operator="out"/><feColorMatrix values="0 0 0 0 0 0 0 0 0 0 0 0 0 0 0 0 0 0 0.1 0"/><feBlend in2="effect2_dropShadow_426_23412" result="effect3_dropShadow_426_23412"/><feBlend in="SourceGraphic" in2="effect3_dropShadow_426_23412" result="shape"/></filter><filter id="m" width="40.313" height="40.313" x="591.756" y="312.719" color-interpolation-filters="sRGB" filterUnits="userSpaceOnUse"><feFlood floodOpacity="0" result="BackgroundImageFix"/><feColorMatrix in="SourceAlpha" result="hardAlpha" values="0 0 0 0 0 0 0 0 0 0 0 0 0 0 0 0 0 0 127 0"/><feOffset dy=".938"/><feGaussianBlur stdDeviation=".469"/><feComposite in2="hardAlpha" operator="out"/><feColorMatrix values="0 0 0 0 0 0 0 0 0 0 0 0 0 0 0 0 0 0 0.1 0"/><feBlend in2="BackgroundImageFix" result="effect1_dropShadow_426_23412"/><feColorMatrix in="SourceAlpha" result="hardAlpha" values="0 0 0 0 0 0 0 0 0 0 0 0 0 0 0 0 0 0 127 0"/><feOffset dy="1.875"/><feGaussianBlur stdDeviation="1.875"/><feComposite in2="hardAlpha" operator="out"/><feColorMatrix values="0 0 0 0 0 0 0 0 0 0 0 0 0 0 0 0 0 0 0.2 0"/><feBlend in2="effect1_dropShadow_426_23412" result="effect2_dropShadow_426_23412"/><feBlend in="SourceGraphic" in2="effect2_dropShadow_426_23412" result="shape"/></filter><filter id="r" width="54.813" height="54.813" x="852.594" y="58.297" color-interpolation-filters="sRGB" filterUnits="userSpaceOnUse"><feFlood floodOpacity="0" result="BackgroundImageFix"/><feColorMatrix in="SourceAlpha" result="hardAlpha" values="0 0 0 0 0 0 0 0 0 0 0 0 0 0 0 0 0 0 127 0"/><feOffset dy=".703"/><feGaussianBlur stdDeviation=".703"/><feComposite in2="hardAlpha" operator="out"/><feColorMatrix values="0 0 0 0 0 0 0 0 0 0 0 0 0 0 0 0 0 0 0.1 0"/><feBlend in2="BackgroundImageFix" result="effect1_dropShadow_426_23412"/><feColorMatrix in="SourceAlpha" result="hardAlpha" values="0 0 0 0 0 0 0 0 0 0 0 0 0 0 0 0 0 0 127 0"/><feOffset dy=".469"/><feGaussianBlur stdDeviation=".352"/><feComposite in2="hardAlpha" operator="out"/><feColorMatrix values="0 0 0 0 0 0 0 0 0 0 0 0 0 0 0 0 0 0 0.1 0"/><feBlend in2="effect1_dropShadow_426_23412" result="effect2_dropShadow_426_23412"/><feColorMatrix in="SourceAlpha" result="hardAlpha" values="0 0 0 0 0 0 0 0 0 0 0 0 0 0 0 0 0 0 127 0"/><feOffset dy=".117"/><feGaussianBlur stdDeviation=".117"/><feComposite in2="hardAlpha" operator="out"/><feColorMatrix values="0 0 0 0 0 0 0 0 0 0 0 0 0 0 0 0 0 0 0.1 0"/><feBlend in2="effect2_dropShadow_426_23412" result="effect3_dropShadow_426_23412"/><feBlend in="SourceGraphic" in2="effect3_dropShadow_426_23412" result="shape"/></filter><filter id="s" width="41.016" height="42.279" x="859.492" y="65.728" color-interpolation-filters="sRGB" filterUnits="userSpaceOnUse"><feFlood floodOpacity="0" result="BackgroundImageFix"/><feColorMatrix in="SourceAlpha" result="hardAlpha" values="0 0 0 0 0 0 0 0 0 0 0 0 0 0 0 0 0 0 127 0"/><feOffset dy=".938"/><feGaussianBlur stdDeviation=".469"/><feComposite in2="hardAlpha" operator="out"/><feColorMatrix values="0 0 0 0 0 0 0 0 0 0 0 0 0 0 0 0 0 0 0.1 0"/><feBlend in2="BackgroundImageFix" result="effect1_dropShadow_426_23412"/><feColorMatrix in="SourceAlpha" result="hardAlpha" values="0 0 0 0 0 0 0 0 0 0 0 0 0 0 0 0 0 0 127 0"/><feOffset dy="1.875"/><feGaussianBlur stdDeviation="1.875"/><feComposite in2="hardAlpha" operator="out"/><feColorMatrix values="0 0 0 0 0 0 0 0 0 0 0 0 0 0 0 0 0 0 0.2 0"/><feBlend in2="effect1_dropShadow_426_23412" result="effect2_dropShadow_426_23412"/><feBlend in="SourceGraphic" in2="effect2_dropShadow_426_23412" result="shape"/></filter><filter id="t" width="54.813" height="54.813" x="852.594" y="304.297" color-interpolation-filters="sRGB" filterUnits="userSpaceOnUse"><feFlood floodOpacity="0" result="BackgroundImageFix"/><feColorMatrix in="SourceAlpha" result="hardAlpha" values="0 0 0 0 0 0 0 0 0 0 0 0 0 0 0 0 0 0 127 0"/><feOffset dy=".703"/><feGaussianBlur stdDeviation=".703"/><feComposite in2="hardAlpha" operator="out"/><feColorMatrix values="0 0 0 0 0 0 0 0 0 0 0 0 0 0 0 0 0 0 0.1 0"/><feBlend in2="BackgroundImageFix" result="effect1_dropShadow_426_23412"/><feColorMatrix in="SourceAlpha" result="hardAlpha" values="0 0 0 0 0 0 0 0 0 0 0 0 0 0 0 0 0 0 127 0"/><feOffset dy=".469"/><feGaussianBlur stdDeviation=".352"/><feComposite in2="hardAlpha" operator="out"/><feColorMatrix values="0 0 0 0 0 0 0 0 0 0 0 0 0 0 0 0 0 0 0.1 0"/><feBlend in2="effect1_dropShadow_426_23412" result="effect2_dropShadow_426_23412"/><feColorMatrix in="SourceAlpha" result="hardAlpha" values="0 0 0 0 0 0 0 0 0 0 0 0 0 0 0 0 0 0 127 0"/><feOffset dy=".117"/><feGaussianBlur stdDeviation=".117"/><feComposite in2="hardAlpha" operator="out"/><feColorMatrix values="0 0 0 0 0 0 0 0 0 0 0 0 0 0 0 0 0 0 0.1 0"/><feBlend in2="effect2_dropShadow_426_23412" result="effect3_dropShadow_426_23412"/><feBlend in="SourceGraphic" in2="effect3_dropShadow_426_23412" result="shape"/></filter><filter id="c" width="31.875" height="42.188" x="725.062" y="10.723" color-interpolation-filters="sRGB" filterUnits="userSpaceOnUse"><feFlood floodOpacity="0" result="BackgroundImageFix"/><feColorMatrix in="SourceAlpha" result="hardAlpha" values="0 0 0 0 0 0 0 0 0 0 0 0 0 0 0 0 0 0 127 0"/><feOffset dy=".938"/><feGaussianBlur stdDeviation=".469"/><feComposite in2="hardAlpha" operator="out"/><feColorMatrix values="0 0 0 0 0 0 0 0 0 0 0 0 0 0 0 0 0 0 0.1 0"/><feBlend in2="BackgroundImageFix" result="effect1_dropShadow_426_23412"/><feColorMatrix in="SourceAlpha" result="hardAlpha" values="0 0 0 0 0 0 0 0 0 0 0 0 0 0 0 0 0 0 127 0"/><feOffset dy="1.875"/><feGaussianBlur stdDeviation="1.875"/><feComposite in2="hardAlpha" operator="out"/><feColorMatrix values="0 0 0 0 0 0 0 0 0 0 0 0 0 0 0 0 0 0 0.2 0"/><feBlend in2="effect1_dropShadow_426_23412" result="effect2_dropShadow_426_23412"/><feBlend in="SourceGraphic" in2="effect2_dropShadow_426_23412" result="shape"/></filter><filter id="v" width="54.813" height="54.813" x="538.594" y="179.297" color-interpolation-filters="sRGB" filterUnits="userSpaceOnUse"><feFlood floodOpacity="0" result="BackgroundImageFix"/><feColorMatrix in="SourceAlpha" result="hardAlpha" values="0 0 0 0 0 0 0 0 0 0 0 0 0 0 0 0 0 0 127 0"/><feOffset dy=".703"/><feGaussianBlur stdDeviation=".703"/><feComposite in2="hardAlpha" operator="out"/><feColorMatrix values="0 0 0 0 0 0 0 0 0 0 0 0 0 0 0 0 0 0 0.1 0"/><feBlend in2="BackgroundImageFix" result="effect1_dropShadow_426_23412"/><feColorMatrix in="SourceAlpha" result="hardAlpha" values="0 0 0 0 0 0 0 0 0 0 0 0 0 0 0 0 0 0 127 0"/><feOffset dy=".469"/><feGaussianBlur stdDeviation=".352"/><feComposite in2="hardAlpha" operator="out"/><feColorMatrix values="0 0 0 0 0 0 0 0 0 0 0 0 0 0 0 0 0 0 0.1 0"/><feBlend in2="effect1_dropShadow_426_23412" result="effect2_dropShadow_426_23412"/><feColorMatrix in="SourceAlpha" result="hardAlpha" values="0 0 0 0 0 0 0 0 0 0 0 0 0 0 0 0 0 0 127 0"/><feOffset dy=".117"/><feGaussianBlur stdDeviation=".117"/><feComposite in2="hardAlpha" operator="out"/><feColorMatrix values="0 0 0 0 0 0 0 0 0 0 0 0 0 0 0 0 0 0 0.1 0"/><feBlend in2="effect2_dropShadow_426_23412" result="effect3_dropShadow_426_23412"/><feBlend in="SourceGraphic" in2="effect3_dropShadow_426_23412" result="shape"/></filter><filter id="w" width="32.344" height="40.254" x="549.828" y="187.703" color-interpolation-filters="sRGB" filterUnits="userSpaceOnUse"><feFlood floodOpacity="0" result="BackgroundImageFix"/><feColorMatrix in="SourceAlpha" result="hardAlpha" values="0 0 0 0 0 0 0 0 0 0 0 0 0 0 0 0 0 0 127 0"/><feOffset dy=".938"/><feGaussianBlur stdDeviation=".469"/><feComposite in2="hardAlpha" operator="out"/><feColorMatrix values="0 0 0 0 0 0 0 0 0 0 0 0 0 0 0 0 0 0 0.1 0"/><feBlend in2="BackgroundImageFix" result="effect1_dropShadow_426_23412"/><feColorMatrix in="SourceAlpha" result="hardAlpha" values="0 0 0 0 0 0 0 0 0 0 0 0 0 0 0 0 0 0 127 0"/><feOffset dy="1.875"/><feGaussianBlur stdDeviation="1.875"/><feComposite in2="hardAlpha" operator="out"/><feColorMatrix values="0 0 0 0 0 0 0 0 0 0 0 0 0 0 0 0 0 0 0.2 0"/><feBlend in2="effect1_dropShadow_426_23412" result="effect2_dropShadow_426_23412"/><feBlend in="SourceGraphic" in2="effect2_dropShadow_426_23412" result="shape"/></filter><filter id="y" width="54.813" height="54.813" x="887.594" y="179.297" color-interpolation-filters="sRGB" filterUnits="userSpaceOnUse"><feFlood floodOpacity="0" result="BackgroundImageFix"/><feColorMatrix in="SourceAlpha" result="hardAlpha" values="0 0 0 0 0 0 0 0 0 0 0 0 0 0 0 0 0 0 127 0"/><feOffset dy=".703"/><feGaussianBlur stdDeviation=".703"/><feComposite in2="hardAlpha" operator="out"/><feColorMatrix values="0 0 0 0 0 0 0 0 0 0 0 0 0 0 0 0 0 0 0.1 0"/><feBlend in2="BackgroundImageFix" result="effect1_dropShadow_426_23412"/><feColorMatrix in="SourceAlpha" result="hardAlpha" values="0 0 0 0 0 0 0 0 0 0 0 0 0 0 0 0 0 0 127 0"/><feOffset dy=".469"/><feGaussianBlur stdDeviation=".352"/><feComposite in2="hardAlpha" operator="out"/><feColorMatrix values="0 0 0 0 0 0 0 0 0 0 0 0 0 0 0 0 0 0 0.1 0"/><feBlend in2="effect1_dropShadow_426_23412" result="effect2_dropShadow_426_23412"/><feColorMatrix in="SourceAlpha" result="hardAlpha" values="0 0 0 0 0 0 0 0 0 0 0 0 0 0 0 0 0 0 127 0"/><feOffset dy=".117"/><feGaussianBlur stdDeviation=".117"/><feComposite in2="hardAlpha" operator="out"/><feColorMatrix values="0 0 0 0 0 0 0 0 0 0 0 0 0 0 0 0 0 0 0.1 0"/><feBlend in2="effect2_dropShadow_426_23412" result="effect3_dropShadow_426_23412"/><feBlend in="SourceGraphic" in2="effect3_dropShadow_426_23412" result="shape"/></filter><filter id="z" width="42.188" height="34.697" x="893.973" y="190.547" color-interpolation-filters="sRGB" filterUnits="userSpaceOnUse"><feFlood floodOpacity="0" result="BackgroundImageFix"/><feColorMatrix in="SourceAlpha" result="hardAlpha" values="0 0 0 0 0 0 0 0 0 0 0 0 0 0 0 0 0 0 127 0"/><feOffset dy=".938"/><feGaussianBlur stdDeviation=".469"/><feComposite in2="hardAlpha" operator="out"/><feColorMatrix values="0 0 0 0 0 0 0 0 0 0 0 0 0 0 0 0 0 0 0.1 0"/><feBlend in2="BackgroundImageFix" result="effect1_dropShadow_426_23412"/><feColorMatrix in="SourceAlpha" result="hardAlpha" values="0 0 0 0 0 0 0 0 0 0 0 0 0 0 0 0 0 0 127 0"/><feOffset dy="1.875"/><feGaussianBlur stdDeviation="1.875"/><feComposite in2="hardAlpha" operator="out"/><feColorMatrix values="0 0 0 0 0 0 0 0 0 0 0 0 0 0 0 0 0 0 0.2 0"/><feBlend in2="effect1_dropShadow_426_23412" result="effect2_dropShadow_426_23412"/><feBlend in="SourceGraphic" in2="effect2_dropShadow_426_23412" result="shape"/></filter><linearGradient id="o" x1="623.496" x2="601.117" y1="313.028" y2="335.408" gradientUnits="userSpaceOnUse"><stop stop-color="#FF6660"/><stop offset="1" stop-color="#FB4444"/></linearGradient><linearGradient id="q" x1="623.496" x2="601.117" y1="313.028" y2="335.408" gradientUnits="userSpaceOnUse"><stop stop-color="#FF6660"/><stop offset="1" stop-color="#FB4444"/></linearGradient><linearGradient id="x" x1="566" x2="566" y1="191.453" y2="220.457" gradientUnits="userSpaceOnUse"><stop stop-color="#0788FF"/><stop offset="1" stop-color="#90F"/></linearGradient><clipPath id="d"><path fill="#fff" d="M730.688 14.473h20.625V45.41h-20.625z"/></clipPath><clipPath id="g"><rect width="29.766" height="29.766" x="726.117" y="366.117" fill="#fff" rx="5.156"/></clipPath><radialGradient id="a" cx="0" cy="0" r="1" gradientTransform="matrix(0 46 -46 0 743 207)" gradientUnits="userSpaceOnUse"><stop offset=".099" stop-color="#FFC876"/><stop offset=".427" stop-color="#79FFF7"/><stop offset=".719" stop-color="#9F53FF"/><stop offset="1" stop-color="#FF98E2"/></radialGradient></defs></svg>