<svg width="1101" height="411" viewBox="0 0 1101 411" fill="none" xmlns="http://www.w3.org/2000/svg">
<rect x="698.5" y="162.5" width="89" height="89" rx="44.5" fill="#0E0C15"/>
<rect x="698.5" y="162.5" width="89" height="89" rx="44.5" stroke="url(#paint0_angular_426_23412)" stroke-width="3"/>
<path d="M757.83 198.118L757.823 192.905L748.203 186.617V190.639L754.548 194.817L754.553 198.019L751.606 200.015L749.594 198.548V196.063L746.317 193.821V198.344L741.122 201.532L741.113 209.952L737.44 212.02L735.554 210.543V208.105L737.786 206.576V206.556V202.783L733.769 205.472L730.698 203.473L727.893 205.31L732.277 208.311V210.153L729.117 212.291L725.894 210.109V202.848L730.679 199.608L730.684 196.492L736.82 200.445L741.978 197.011L738.834 195.177L736.776 196.564L732.294 193.6L737.349 190.654L741.727 193.221V189.393L737.354 186.828L727.411 192.625L727.404 197.84L722.617 201.083V211.874L727.404 215.116L727.411 220.332L737.031 226.617V222.598L730.686 218.42L730.681 215.218L733.629 213.222L735.64 214.689V217.174L738.917 219.416V214.892L744.186 211.705L744.245 203.284L747.795 201.217L749.68 202.694V205.131L747.448 206.661V206.68V210.454L751.465 207.765L754.536 209.764L757.341 207.927L752.958 204.923V203.083L756.117 200.946L759.34 203.128V210.389L754.556 213.629L754.551 216.744L748.414 212.79L743.256 216.201L746.401 218.033L748.459 216.672L752.94 219.636L747.886 222.583L743.507 220.016V223.842L747.881 226.406L757.823 220.612L757.83 215.396L762.617 212.154V201.361L757.83 198.118Z" fill="#AC6AFF"/>
<circle cx="743" cy="207" r="119.5" stroke="#252134"/>
<circle cx="743" cy="207" r="179.5" stroke="#252134"/>
<g filter="url(#filter0_ddd_426_23412)">
<rect x="715" y="4" width="52" height="52" rx="12" fill="#15131D"/>
<rect x="715.586" y="4.58594" width="50.8281" height="50.8281" rx="11.4141" stroke="white" stroke-opacity="0.15" stroke-width="1.17188"/>
</g>
<g filter="url(#filter1_dd_426_23412)">
<path d="M749.404 24.7852C749.785 24.545 750.141 24.2615 750.465 23.9378C751.608 22.795 752.25 21.2451 752.25 19.6289C752.25 18.0127 751.608 16.4628 750.465 15.32C749.322 14.1772 747.772 13.5352 746.156 13.5352H735.844C734.228 13.5352 732.678 14.1772 731.535 15.32C730.392 16.4628 729.75 18.0127 729.75 19.6289C729.75 21.2451 730.392 22.795 731.535 23.9378C731.859 24.2615 732.215 24.545 732.596 24.7852C732.215 25.0253 731.859 25.3088 731.535 25.6325C730.392 26.7753 729.75 28.3252 729.75 29.9414C729.75 31.5576 730.392 33.1075 731.535 34.2503C731.859 34.574 732.215 34.8575 732.596 35.0977C732.215 35.3378 731.859 35.6213 731.535 35.945C730.392 37.0878 729.75 38.6377 729.75 40.2539C729.75 41.8701 730.392 43.42 731.535 44.5628C732.678 45.7056 734.228 46.3477 735.844 46.3477C737.46 46.3477 739.01 45.7056 740.153 44.5628C741.295 43.42 741.938 41.8701 741.938 40.2539V34.3387C743.071 35.4262 744.582 36.0352 746.156 36.0352C747.772 36.0352 749.322 35.3931 750.465 34.2503C751.608 33.1075 752.25 31.5576 752.25 29.9414C752.25 28.3252 751.608 26.7753 750.465 25.6325C750.141 25.3088 749.785 25.0253 749.404 24.7852Z" stroke="white" stroke-width="1.875" stroke-linejoin="round" shape-rendering="crispEdges"/>
</g>
<g clip-path="url(#clip0_426_23412)">
<path d="M741 29.9414C741 28.5739 741.543 27.2624 742.51 26.2954C743.477 25.3284 744.789 24.7852 746.156 24.7852C747.524 24.7852 748.835 25.3284 749.802 26.2954C750.769 27.2624 751.312 28.5739 751.312 29.9414C751.312 31.3089 750.769 32.6204 749.802 33.5874C748.835 34.5544 747.524 35.0977 746.156 35.0977C744.789 35.0977 743.477 34.5544 742.51 33.5874C741.543 32.6204 741 31.3089 741 29.9414Z" fill="#1ABCFE"/>
<path d="M730.688 40.2539C730.688 38.8864 731.231 37.5749 732.198 36.6079C733.165 35.6409 734.476 35.0977 735.844 35.0977H741V40.2539C741 41.6214 740.457 42.9329 739.49 43.8999C738.523 44.8669 737.211 45.4102 735.844 45.4102C734.476 45.4102 733.165 44.8669 732.198 43.8999C731.231 42.9329 730.688 41.6214 730.688 40.2539V40.2539Z" fill="#0ACF83"/>
<path d="M741 14.4727V24.7852H746.156C747.524 24.7852 748.835 24.2419 749.802 23.2749C750.769 22.3079 751.312 20.9964 751.312 19.6289C751.312 18.2614 750.769 16.9499 749.802 15.9829C748.835 15.0159 747.524 14.4727 746.156 14.4727H741Z" fill="#FF7262"/>
<path d="M730.688 19.6289C730.688 20.9964 731.231 22.3079 732.198 23.2749C733.165 24.2419 734.476 24.7852 735.844 24.7852H741V14.4727H735.844C734.476 14.4727 733.165 15.0159 732.198 15.9829C731.231 16.9499 730.688 18.2614 730.688 19.6289V19.6289Z" fill="#F24E1E"/>
<path d="M730.688 29.9414C730.688 31.3089 731.231 32.6204 732.198 33.5874C733.165 34.5544 734.476 35.0977 735.844 35.0977H741V24.7852H735.844C734.476 24.7852 733.165 25.3284 732.198 26.2954C731.231 27.2624 730.688 28.5739 730.688 29.9414V29.9414Z" fill="#A259FF"/>
</g>
<g filter="url(#filter2_ddd_426_23412)">
<rect x="715" y="355" width="52" height="52" rx="12" fill="#15131D"/>
<rect x="715.586" y="355.586" width="50.8281" height="50.8281" rx="11.4141" stroke="white" stroke-opacity="0.15" stroke-width="1.17188"/>
</g>
<g filter="url(#filter3_dd_426_23412)">
<g clip-path="url(#clip1_426_23412)">
<rect x="726.117" y="366.117" width="29.7656" height="29.7656" rx="5.15625" fill="white"/>
<path d="M750.612 366.117H731.388C728.477 366.117 726.117 368.538 726.117 371.523V390.477C726.117 393.462 728.477 395.883 731.388 395.883H750.612C753.523 395.883 755.883 393.462 755.883 390.477V371.523C755.883 368.538 753.523 366.117 750.612 366.117Z" fill="#001E36"/>
<path d="M732.094 387.801V374.715C732.094 374.619 732.134 374.571 732.214 374.571C732.426 374.571 732.621 374.568 732.914 374.561C733.206 374.554 733.522 374.547 733.862 374.541C734.202 374.534 734.561 374.527 734.94 374.52C735.32 374.513 735.696 374.51 736.068 374.51C737.08 374.51 737.932 374.639 738.624 374.899C739.249 375.116 739.819 375.472 740.292 375.943C740.693 376.352 741.003 376.844 741.2 377.387C741.387 377.916 741.482 378.474 741.48 379.036C741.48 380.128 741.234 381.029 740.741 381.739C740.245 382.452 739.548 382.991 738.744 383.285C737.906 383.606 736.974 383.715 735.949 383.715C735.656 383.715 735.449 383.712 735.33 383.705C735.21 383.698 735.03 383.695 734.791 383.695V387.781C734.794 387.806 734.792 387.831 734.784 387.855C734.776 387.879 734.763 387.901 734.746 387.919C734.728 387.937 734.707 387.95 734.684 387.958C734.66 387.966 734.635 387.969 734.611 387.965H732.234C732.14 387.965 732.094 387.911 732.094 387.801ZM734.791 377.029V381.297C734.963 381.311 735.123 381.318 735.27 381.318H735.929C736.414 381.316 736.895 381.237 737.356 381.084C737.752 380.963 738.105 380.729 738.375 380.408C738.634 380.094 738.764 379.657 738.764 379.097C738.775 378.701 738.674 378.31 738.475 377.971C738.265 377.643 737.961 377.389 737.606 377.244C737.142 377.059 736.646 376.972 736.148 376.988C735.829 376.988 735.546 376.991 735.3 376.998C735.053 377.005 734.884 377.015 734.791 377.029Z" fill="#31A8FF"/>
<path d="M749.2 380.522C748.825 380.324 748.425 380.179 748.012 380.092C747.557 379.985 747.091 379.93 746.624 379.928C746.371 379.921 746.119 379.952 745.875 380.02C745.72 380.055 745.582 380.146 745.486 380.276C745.421 380.38 745.386 380.501 745.386 380.624C745.39 380.744 745.432 380.859 745.506 380.952C745.623 381.092 745.765 381.207 745.925 381.29C746.21 381.447 746.503 381.587 746.804 381.71C747.474 381.94 748.114 382.253 748.711 382.641C749.117 382.904 749.453 383.267 749.689 383.696C749.888 384.103 749.987 384.552 749.979 385.007C749.991 385.607 749.823 386.197 749.499 386.696C749.153 387.204 748.671 387.598 748.112 387.833C747.506 388.106 746.757 388.243 745.865 388.243C745.299 388.249 744.733 388.194 744.178 388.079C743.74 387.997 743.315 387.859 742.91 387.669C742.866 387.646 742.83 387.611 742.805 387.567C742.781 387.524 742.768 387.474 742.77 387.423V385.212C742.768 385.19 742.771 385.168 742.78 385.148C742.789 385.128 742.803 385.111 742.82 385.099C742.837 385.089 742.857 385.085 742.877 385.087C742.896 385.088 742.915 385.096 742.93 385.109C743.408 385.398 743.927 385.609 744.468 385.734C744.944 385.856 745.434 385.922 745.925 385.928C746.391 385.928 746.734 385.867 746.954 385.744C747.053 385.698 747.137 385.622 747.195 385.528C747.254 385.433 747.284 385.324 747.283 385.212C747.283 385.034 747.183 384.864 746.984 384.7C746.784 384.536 746.378 384.338 745.765 384.106C745.138 383.882 744.544 383.572 743.998 383.184C743.608 382.906 743.287 382.538 743.06 382.109C742.863 381.705 742.764 381.259 742.77 380.809C742.769 380.267 742.914 379.735 743.19 379.273C743.503 378.763 743.954 378.358 744.488 378.105C745.073 377.805 745.805 377.655 746.684 377.655C747.199 377.65 747.713 377.688 748.222 377.767C748.59 377.815 748.95 377.915 749.292 378.064C749.319 378.072 749.344 378.087 749.365 378.106C749.386 378.126 749.402 378.15 749.412 378.177C749.425 378.227 749.432 378.279 749.432 378.33V380.399C749.433 380.423 749.428 380.447 749.418 380.469C749.407 380.49 749.391 380.508 749.372 380.522C749.345 380.535 749.316 380.542 749.286 380.543C749.256 380.543 749.227 380.535 749.2 380.522Z" fill="#31A8FF"/>
</g>
<rect x="725.18" y="365.18" width="31.6406" height="31.6406" rx="6.09375" stroke="white" stroke-width="1.875"/>
</g>
<g filter="url(#filter4_ddd_426_23412)">
<rect x="586" y="59" width="52" height="52" rx="12" fill="#15131D"/>
<rect x="586.586" y="59.5859" width="50.8281" height="50.8281" rx="11.4141" stroke="white" stroke-opacity="0.15" stroke-width="1.17188"/>
</g>
<g filter="url(#filter5_dd_426_23412)">
<path d="M619.947 74.9996C621.027 76.0711 621.876 77.3496 622.442 78.7571C622.451 78.7799 622.46 78.8026 622.469 78.8254C622.669 79.3317 622.83 79.8505 622.953 80.3778C623.037 80.7373 623.103 81.1006 623.151 81.4666C623.189 81.7624 623.386 82.0143 623.662 82.1276C624.715 82.5599 625.674 83.2015 626.477 84.0185C627.636 85.1978 628.419 86.6904 628.728 88.3093C629.036 89.9283 628.858 91.6017 628.213 93.1201C627.569 94.6386 626.488 95.9347 625.105 96.8462C623.722 97.7577 622.099 98.2441 620.439 98.2446L603.563 98.2446C601.325 98.2446 599.179 97.3621 597.596 95.7912C596.014 94.2203 595.125 92.0896 595.125 89.868C595.125 87.6464 596.014 85.5158 597.596 83.9449C598.278 83.268 599.065 82.7189 599.918 82.3132C600.187 82.1855 600.37 81.9246 600.393 81.6282C600.482 80.506 600.741 79.4013 601.163 78.3521C601.729 76.9473 602.577 75.6712 603.654 74.6014C604.35 73.9105 605.133 73.315 605.981 72.8285C606.265 72.6657 606.556 72.5151 606.854 72.3772C606.958 72.3289 607.063 72.2822 607.169 72.237C607.256 72.1997 607.344 72.1635 607.433 72.1284C608.317 71.7773 609.241 71.54 610.181 71.4205C610.274 71.4087 610.367 71.398 610.461 71.3885C610.933 71.3403 611.41 71.3218 611.887 71.3335C612.835 71.3566 613.773 71.4986 614.681 71.7542C615.05 71.8582 615.414 71.9809 615.771 72.1222C615.948 72.192 616.123 72.2663 616.296 72.3451C617.682 72.9753 618.924 73.8784 619.947 74.9996Z" fill="white"/>
<path d="M623.311 78.4073L623.312 78.4074L623.341 78.4814C623.558 79.0303 623.733 79.593 623.866 80.1648C623.953 80.534 624.021 80.907 624.072 81.2825C625.22 81.7623 626.267 82.4671 627.145 83.3613C628.434 84.6723 629.305 86.3322 629.649 88.1336C629.992 89.9351 629.793 91.7971 629.076 93.4864C628.359 95.1755 627.157 96.6162 625.621 97.6289C624.085 98.6415 622.282 99.1816 620.44 99.1821H620.439L603.563 99.1821C601.079 99.1821 598.695 98.2025 596.936 96.4565C595.177 94.7103 594.188 92.3405 594.188 89.868C594.188 87.3955 595.177 85.0257 596.936 83.2795C597.68 82.541 598.536 81.9396 599.464 81.4915C599.564 80.2961 599.843 79.1198 600.294 78.0018C600.907 76.4785 601.826 75.0953 602.994 73.936C603.748 73.1874 604.596 72.5422 605.514 72.0153C605.822 71.8389 606.137 71.6758 606.46 71.5265C606.573 71.4742 606.686 71.4236 606.801 71.3747C606.896 71.3343 606.991 71.2951 607.087 71.2571L623.311 78.4073ZM623.311 78.4073C622.701 76.8882 621.786 75.5083 620.624 74.3505C619.518 73.1433 618.178 72.171 616.684 71.4917L616.297 72.3438M623.311 78.4073L616.297 72.3438M616.297 72.3438L616.684 71.4917C616.497 71.4064 616.307 71.3259 616.116 71.2503C615.729 71.0974 615.335 70.9644 614.935 70.8518C613.952 70.575 612.936 70.4213 611.91 70.3962C611.393 70.3836 610.877 70.4037 610.366 70.4558C610.265 70.4661 610.164 70.4777 610.063 70.4905C609.045 70.6199 608.045 70.8768 607.087 71.2571L616.297 72.3438Z" stroke="white" stroke-width="1.875"/>
</g>
<path fill-rule="evenodd" clip-rule="evenodd" d="M619.946 74.9462C621.026 76.0255 621.874 77.3132 622.44 78.731C623.006 80.1488 623.278 81.6669 623.238 83.193C623.199 84.7191 622.849 86.2212 622.211 87.6078C621.572 88.9944 620.658 90.2366 619.524 91.2587L612.001 98.3602L604.477 91.329L604.056 90.8368C602.926 89.8135 602.017 88.5714 601.382 87.186C600.747 85.8005 600.4 84.3004 600.363 82.7769C600.325 81.2534 600.598 79.7381 601.164 78.3231C601.729 76.908 602.577 75.6227 603.654 74.5451C604.732 73.4674 606.017 72.62 607.432 72.0542C608.847 71.4883 610.363 71.2159 611.886 71.2534C613.41 71.2909 614.91 71.6376 616.295 72.2724C617.681 72.9072 618.923 73.8168 619.946 74.9462Z" fill="#1988E0"/>
<path d="M603.562 81.4844C605.8 81.4844 607.946 82.3733 609.529 83.9557C611.111 85.538 612 87.6841 612 89.9219V98.3594H603.562C601.325 98.3594 599.179 97.4704 597.596 95.8881C596.014 94.3057 595.125 92.1596 595.125 89.9219C595.125 87.6841 596.014 85.538 597.596 83.9557C599.179 82.3733 601.325 81.4844 603.562 81.4844V81.4844Z" fill="#2CD4ED"/>
<mask id="mask0_426_23412" style="mask-type:luminance" maskUnits="userSpaceOnUse" x="595" y="81" width="17" height="18">
<path d="M603.562 81.4844C605.8 81.4844 607.946 82.3733 609.529 83.9557C611.111 85.538 612 87.6841 612 89.9219V98.3594H603.562C601.325 98.3594 599.179 97.4704 597.596 95.8881C596.014 94.3057 595.125 92.1596 595.125 89.9219C595.125 87.6841 596.014 85.538 597.596 83.9557C599.179 82.3733 601.325 81.4844 603.562 81.4844V81.4844Z" fill="#0DB4E2"/>
</mask>
<g mask="url(#mask0_426_23412)">
<path fill-rule="evenodd" clip-rule="evenodd" d="M619.946 74.9462C621.026 76.0255 621.874 77.3132 622.44 78.731C623.006 80.1488 623.278 81.667 623.238 83.193C623.199 84.7191 622.849 86.2212 622.211 87.6078C621.572 88.9944 620.658 90.2366 619.524 91.2587L612.001 98.3602L604.477 91.329L604.056 90.8368C602.926 89.8135 602.017 88.5714 601.382 87.186C600.747 85.8005 600.4 84.3004 600.363 82.7769C600.325 81.2534 600.598 79.7381 601.164 78.3231C601.729 76.908 602.577 75.6227 603.654 74.5451C604.732 73.4674 606.017 72.62 607.432 72.0542C608.847 71.4883 610.363 71.2159 611.886 71.2534C613.41 71.2909 614.91 71.6376 616.295 72.2724C617.681 72.9072 618.923 73.8168 619.946 74.9462Z" fill="#0DB4E2"/>
</g>
<path d="M612 98.3594V89.7109C612.041 88.0518 612.571 86.4417 613.523 85.0822C614.475 83.7227 615.807 82.6741 617.352 82.0677C618.897 81.4613 620.587 81.324 622.209 81.673C623.832 82.022 625.315 82.8418 626.474 84.0298C627.633 85.2177 628.416 86.7211 628.725 88.3518C629.034 89.9825 628.855 91.6681 628.211 93.1976C627.566 94.7271 626.485 96.0326 625.102 96.9507C623.72 97.8689 622.097 98.3589 620.438 98.3594H612Z" fill="#3169FF"/>
<mask id="mask1_426_23412" style="mask-type:luminance" maskUnits="userSpaceOnUse" x="612" y="81" width="17" height="18">
<path d="M612 98.3594V89.7109C612.041 88.0518 612.571 86.4417 613.523 85.0822C614.475 83.7227 615.807 82.6741 617.352 82.0677C618.897 81.4613 620.587 81.324 622.209 81.673C623.832 82.022 625.315 82.8418 626.474 84.0298C627.633 85.2177 628.416 86.7211 628.725 88.3518C629.034 89.9825 628.855 91.6681 628.211 93.1976C627.566 94.7271 626.485 96.0326 625.102 96.9507C623.72 97.8689 622.097 98.3589 620.438 98.3594H612Z" fill="#3153FF"/>
</mask>
<g mask="url(#mask1_426_23412)">
<path fill-rule="evenodd" clip-rule="evenodd" d="M619.946 74.9462C621.026 76.0255 621.874 77.3132 622.44 78.731C623.006 80.1488 623.278 81.667 623.238 83.193C623.199 84.7191 622.849 86.2212 622.211 87.6078C621.572 88.9944 620.658 90.2366 619.524 91.2587L612.001 98.3602L604.477 91.329L604.056 90.8368C602.926 89.8135 602.017 88.5714 601.382 87.186C600.747 85.8005 600.4 84.3004 600.363 82.7769C600.325 81.2534 600.598 79.7381 601.164 78.3231C601.729 76.908 602.577 75.6227 603.654 74.5451C604.732 73.4674 606.017 72.62 607.432 72.0542C608.847 71.4883 610.363 71.2159 611.886 71.2534C613.41 71.2909 614.91 71.6376 616.295 72.2724C617.681 72.9072 618.923 73.8168 619.946 74.9462Z" fill="#3153FF"/>
</g>
<g filter="url(#filter6_ddd_426_23412)">
<rect x="586" y="305" width="52" height="52" rx="12" fill="#15131D"/>
<rect x="586.586" y="305.586" width="50.8281" height="50.8281" rx="11.4141" stroke="white" stroke-opacity="0.15" stroke-width="1.17188"/>
</g>
<g filter="url(#filter7_dd_426_23412)">
<mask id="path-33-outside-1_426_23412" maskUnits="userSpaceOnUse" x="595.381" y="314.469" width="33" height="33" fill="black">
<rect fill="white" x="595.381" y="314.469" width="33" height="33"/>
<path fill-rule="evenodd" clip-rule="evenodd" d="M597.672 316.815C597.865 316.6 598.15 316.469 598.462 316.469H625.36C625.674 316.469 625.955 316.6 626.151 316.813C626.333 317.003 626.443 317.265 626.443 317.55V329.366C626.443 329.506 626.418 329.638 626.37 329.758C626.331 329.858 626.279 329.95 626.213 330.031C626.211 330.033 626.209 330.036 626.207 330.038C626.196 330.053 626.184 330.068 626.17 330.081L614.165 344.332L613.799 344.767C613.799 344.77 613.799 344.77 613.797 344.77C613.354 345.198 612.764 345.477 612.112 345.523C612.046 345.529 611.98 345.531 611.912 345.531C611.18 345.531 610.515 345.24 610.027 344.769C610.026 344.769 610.026 344.769 610.026 344.769C610.026 344.769 610.025 344.769 610.025 344.769C610.025 344.769 610.025 344.769 610.025 344.768L609.659 344.332L597.671 330.103C597.664 330.099 597.658 330.091 597.654 330.083L597.605 330.027C597.603 330.025 597.602 330.023 597.6 330.021C597.599 330.019 597.598 330.017 597.596 330.015C597.538 329.936 597.487 329.851 597.454 329.758C597.41 329.647 597.385 329.527 597.381 329.403V329.33C597.381 329.307 597.383 329.283 597.387 329.26C597.408 329.016 597.512 328.799 597.671 328.628C597.867 328.417 598.15 328.284 598.462 328.284H601.103L597.651 324.189C597.637 324.173 597.622 324.155 597.608 324.137C597.545 324.055 597.492 323.964 597.453 323.864C597.41 323.754 597.385 323.634 597.381 323.507V323.434C597.388 323.163 597.497 322.92 597.671 322.735C597.866 322.52 598.149 322.388 598.462 322.388H601.124L597.679 318.298C597.673 318.292 597.667 318.286 597.664 318.28C597.64 318.257 597.619 318.232 597.6 318.205C597.543 318.133 597.499 318.055 597.464 317.972C597.463 317.969 597.462 317.966 597.46 317.963C597.458 317.957 597.456 317.951 597.454 317.945C597.41 317.834 597.384 317.714 597.381 317.587V317.515C597.389 317.245 597.497 316.998 597.672 316.815ZM606.361 328.603L611.912 335.191V335.19L606.361 328.603ZM611.912 341.109L611.91 341.111L603.81 331.497L611.91 341.112L611.912 341.11V341.109Z"/>
</mask>
<path fill-rule="evenodd" clip-rule="evenodd" d="M597.672 316.815C597.865 316.6 598.15 316.469 598.462 316.469H625.36C625.674 316.469 625.955 316.6 626.151 316.813C626.333 317.003 626.443 317.265 626.443 317.55V329.366C626.443 329.506 626.418 329.638 626.37 329.758C626.331 329.858 626.279 329.95 626.213 330.031C626.211 330.033 626.209 330.036 626.207 330.038C626.196 330.053 626.184 330.068 626.17 330.081L614.165 344.332L613.799 344.767C613.799 344.77 613.799 344.77 613.797 344.77C613.354 345.198 612.764 345.477 612.112 345.523C612.046 345.529 611.98 345.531 611.912 345.531C611.18 345.531 610.515 345.24 610.027 344.769C610.026 344.769 610.026 344.769 610.026 344.769C610.026 344.769 610.025 344.769 610.025 344.769C610.025 344.769 610.025 344.769 610.025 344.768L609.659 344.332L597.671 330.103C597.664 330.099 597.658 330.091 597.654 330.083L597.605 330.027C597.603 330.025 597.602 330.023 597.6 330.021C597.599 330.019 597.598 330.017 597.596 330.015C597.538 329.936 597.487 329.851 597.454 329.758C597.41 329.647 597.385 329.527 597.381 329.403V329.33C597.381 329.307 597.383 329.283 597.387 329.26C597.408 329.016 597.512 328.799 597.671 328.628C597.867 328.417 598.15 328.284 598.462 328.284H601.103L597.651 324.189C597.637 324.173 597.622 324.155 597.608 324.137C597.545 324.055 597.492 323.964 597.453 323.864C597.41 323.754 597.385 323.634 597.381 323.507V323.434C597.388 323.163 597.497 322.92 597.671 322.735C597.866 322.52 598.149 322.388 598.462 322.388H601.124L597.679 318.298C597.673 318.292 597.667 318.286 597.664 318.28C597.64 318.257 597.619 318.232 597.6 318.205C597.543 318.133 597.499 318.055 597.464 317.972C597.463 317.969 597.462 317.966 597.46 317.963C597.458 317.957 597.456 317.951 597.454 317.945C597.41 317.834 597.384 317.714 597.381 317.587V317.515C597.389 317.245 597.497 316.998 597.672 316.815ZM606.361 328.603L611.912 335.191V335.19L606.361 328.603ZM611.912 341.109L611.91 341.111L603.81 331.497L611.91 341.112L611.912 341.11V341.109Z" fill="#FF9D8D"/>
<path d="M597.672 316.815L599.026 318.112L599.046 318.091L599.066 318.069L597.672 316.815ZM626.151 316.813L624.769 318.081L624.783 318.096L624.797 318.111L626.151 316.813ZM626.37 329.758L624.632 329.053L624.626 329.069L624.619 329.085L626.37 329.758ZM626.213 330.031L624.754 328.854L624.749 328.86L626.213 330.031ZM626.207 330.038L627.675 331.205L627.675 331.205L626.207 330.038ZM626.17 330.081L624.845 328.755L624.788 328.812L624.736 328.873L626.17 330.081ZM614.165 344.332L612.731 343.124L612.73 343.126L614.165 344.332ZM613.799 344.767L612.364 343.561L611.924 344.084V344.767H613.799ZM613.797 344.77V342.895H613.04L612.495 343.421L613.797 344.77ZM612.112 345.523L611.979 343.653L611.965 343.654L611.951 343.655L612.112 345.523ZM611.912 345.531V347.406H611.912L611.912 345.531ZM610.027 344.769L611.328 343.419L610.783 342.894H610.027V344.769ZM610.026 344.769L610.124 342.897L610.112 342.896L610.026 344.769ZM610.025 344.769L610.785 343.055L610.776 343.051L610.025 344.769ZM610.025 344.768H611.9V344.085L611.461 343.562L610.025 344.768ZM609.659 344.332L611.095 343.126L611.093 343.124L609.659 344.332ZM597.671 330.103L599.105 328.895L598.846 328.587L598.483 328.412L597.671 330.103ZM597.654 330.083L599.317 329.218L599.216 329.023L599.072 328.856L597.654 330.083ZM597.605 330.027L599.023 328.801L599.004 328.778L598.983 328.756L597.605 330.027ZM597.6 330.021L599.109 328.908L599.109 328.908L597.6 330.021ZM597.596 330.015L596.087 331.129L596.125 331.179L596.165 331.227L597.596 330.015ZM597.454 329.758L599.221 329.131L599.208 329.092L599.193 329.055L597.454 329.758ZM597.381 329.403H595.506V329.432L595.507 329.46L597.381 329.403ZM597.387 329.26L599.234 329.584L599.248 329.503L599.255 329.421L597.387 329.26ZM597.671 328.628L599.042 329.908L599.046 329.903L597.671 328.628ZM601.103 328.284V330.159H605.136L602.536 327.075L601.103 328.284ZM597.651 324.189L599.085 322.981L599.065 322.957L599.044 322.934L597.651 324.189ZM597.608 324.137L599.087 322.984L599.087 322.983L597.608 324.137ZM597.453 323.864L599.205 323.194L599.202 323.187L599.199 323.18L597.453 323.864ZM597.381 323.507H595.506V323.534L595.507 323.562L597.381 323.507ZM597.381 323.434L595.507 323.384L595.506 323.409V323.434H597.381ZM597.671 322.735L599.036 324.021L599.049 324.007L599.061 323.994L597.671 322.735ZM601.124 322.388V324.263H605.155L602.558 321.18L601.124 322.388ZM597.679 318.298L599.113 317.09L599.062 317.028L599.005 316.972L597.679 318.298ZM597.664 318.28L599.249 317.279L599.134 317.097L598.98 316.945L597.664 318.28ZM597.6 318.205L599.135 317.128L599.107 317.088L599.077 317.05L597.6 318.205ZM597.464 317.972L595.697 318.599L595.715 318.651L595.737 318.702L597.464 317.972ZM597.46 317.963L595.72 318.66L595.72 318.66L597.46 317.963ZM597.454 317.945L599.295 317.588L599.26 317.408L599.191 317.237L597.454 317.945ZM597.381 317.587H595.506V317.612L595.507 317.637L597.381 317.587ZM597.381 317.515L595.507 317.46L595.506 317.488V317.515H597.381ZM606.361 328.603L607.795 327.395L604.928 329.811L606.361 328.603ZM611.912 335.191L610.478 336.399L613.787 340.327V335.191H611.912ZM611.912 335.19H613.787V334.506L613.346 333.982L611.912 335.19ZM611.91 341.111L610.476 342.319L611.791 343.88L613.235 342.438L611.91 341.111ZM611.912 341.109H613.787V336.588L610.587 339.783L611.912 341.109ZM603.81 331.497L605.243 330.289L602.376 332.705L603.81 331.497ZM611.91 341.112L610.476 342.32L611.792 343.882L613.236 342.437L611.91 341.112ZM611.912 341.11L613.238 342.436L613.787 341.886V341.11H611.912ZM598.462 314.594C597.621 314.594 596.828 314.949 596.277 315.562L599.066 318.069C598.902 318.251 598.679 318.344 598.462 318.344V314.594ZM625.36 314.594H598.462V318.344H625.36V314.594ZM627.532 315.546C626.988 314.953 626.209 314.594 625.36 314.594V318.344C625.139 318.344 624.922 318.247 624.769 318.081L627.532 315.546ZM628.318 317.55C628.318 316.777 628.018 316.051 627.504 315.516L624.797 318.111C624.648 317.955 624.568 317.753 624.568 317.55H628.318ZM628.318 329.366V317.55H624.568V329.366H628.318ZM628.107 330.463C628.252 330.105 628.318 329.733 628.318 329.366H624.568C624.568 329.279 624.584 329.17 624.632 329.053L628.107 330.463ZM627.672 331.209C627.866 330.968 628.014 330.705 628.12 330.43L624.619 329.085C624.648 329.011 624.691 328.931 624.754 328.854L627.672 331.209ZM627.675 331.205C627.677 331.202 627.677 331.202 627.677 331.202L624.749 328.86C624.745 328.864 624.742 328.869 624.74 328.871L627.675 331.205ZM627.496 331.407C627.597 331.306 627.675 331.205 627.675 331.205L624.74 328.871C624.732 328.882 624.742 328.868 624.755 328.852C624.771 328.834 624.802 328.798 624.845 328.755L627.496 331.407ZM615.235 345.973L615.601 345.538L612.73 343.126L612.364 343.561L615.235 345.973ZM613.797 346.645C613.797 346.645 613.797 346.645 613.798 346.645C613.798 346.645 613.799 346.645 613.799 346.645C613.801 346.645 613.803 346.645 613.806 346.645C613.812 346.645 613.823 346.644 613.837 346.644C613.858 346.644 613.924 346.642 614.007 346.633C614.122 346.62 614.662 346.559 615.127 346.094C615.59 345.629 615.65 345.09 615.663 344.975C615.672 344.893 615.674 344.828 615.674 344.806C615.674 344.792 615.674 344.781 615.674 344.776C615.674 344.773 615.674 344.771 615.674 344.77C615.674 344.769 615.674 344.768 615.674 344.768C615.674 344.768 615.674 344.768 615.674 344.768C615.674 344.767 615.674 344.767 615.674 344.767H611.924C611.924 344.814 611.922 344.69 611.936 344.562C611.948 344.448 612.008 343.909 612.472 343.445C612.936 342.98 613.475 342.919 613.59 342.906C613.719 342.892 613.843 342.895 613.797 342.895V346.645ZM612.244 347.394C613.355 347.315 614.353 346.839 615.099 346.119L612.495 343.421C612.354 343.556 612.174 343.639 611.979 343.653L612.244 347.394ZM611.912 347.406C612.014 347.406 612.136 347.403 612.273 347.391L611.951 343.655C611.956 343.655 611.947 343.656 611.912 343.656L611.912 347.406ZM608.725 346.119C609.548 346.912 610.674 347.406 611.912 347.406V343.656C611.686 343.656 611.482 343.568 611.328 343.419L608.725 346.119ZM609.928 346.642C609.965 346.644 609.995 346.644 610.007 346.644C610.014 346.644 610.019 346.644 610.022 346.644C610.024 346.644 610.025 346.644 610.026 346.644C610.026 346.644 610.026 346.644 610.026 346.644C610.027 346.644 610.027 346.644 610.027 346.644V342.894C610.024 342.894 610.034 342.894 610.046 342.894C610.057 342.895 610.086 342.895 610.124 342.897L609.928 346.642ZM609.266 346.483C609.609 346.636 609.914 346.641 609.94 346.642L610.112 342.896C610.15 342.898 610.23 342.903 610.329 342.919C610.427 342.935 610.593 342.97 610.785 343.055L609.266 346.483ZM608.15 344.768C608.15 344.768 608.15 344.768 608.15 344.768C608.15 344.768 608.15 344.768 608.15 344.768C608.15 344.768 608.15 344.768 608.15 344.769C608.15 344.769 608.15 344.77 608.15 344.771C608.15 344.773 608.15 344.777 608.15 344.782C608.15 344.79 608.15 344.809 608.151 344.833C608.152 344.867 608.156 344.987 608.186 345.136C608.217 345.292 608.293 345.568 608.496 345.855C608.718 346.167 609.003 346.369 609.275 346.487L610.776 343.051C611.047 343.169 611.332 343.372 611.554 343.683C611.757 343.97 611.832 344.246 611.863 344.401C611.893 344.55 611.898 344.67 611.899 344.704C611.9 344.743 611.9 344.778 611.9 344.768H608.15ZM608.223 345.537L608.589 345.973L611.461 343.562L611.095 343.126L608.223 345.537ZM595.99 330.948C596.047 331.058 596.29 331.52 596.86 331.793L598.483 328.412C598.778 328.554 598.973 328.743 599.09 328.88C599.206 329.016 599.278 329.142 599.317 329.218L595.99 330.948ZM596.188 331.254L596.236 331.31L599.072 328.856L599.023 328.801L596.188 331.254ZM596.091 331.133C596.091 331.133 596.092 331.135 596.094 331.137C596.095 331.139 596.098 331.143 596.101 331.147C596.107 331.155 596.116 331.167 596.128 331.182C596.152 331.213 596.185 331.253 596.228 331.299L598.983 328.756C599.06 328.839 599.115 328.915 599.109 328.908L596.091 331.133ZM596.165 331.227C596.141 331.198 596.122 331.174 596.109 331.158C596.098 331.143 596.089 331.131 596.091 331.133L599.109 328.908C599.109 328.908 599.108 328.907 599.107 328.905C599.106 328.904 599.105 328.902 599.103 328.9C599.099 328.895 599.094 328.887 599.087 328.878C599.073 328.86 599.053 328.834 599.027 328.804L596.165 331.227ZM595.687 330.385C595.799 330.7 595.954 330.949 596.087 331.129L599.105 328.902C599.121 328.924 599.176 329.002 599.221 329.131L595.687 330.385ZM595.507 329.46C595.517 329.8 595.586 330.139 595.716 330.461L599.193 329.055C599.233 329.156 599.252 329.255 599.255 329.346L595.507 329.46ZM595.506 329.33V329.403H599.256V329.33H595.506ZM595.54 328.935C595.516 329.074 595.506 329.206 595.506 329.33H599.256C599.256 329.407 599.25 329.492 599.234 329.584L595.54 328.935ZM596.301 327.349C595.877 327.803 595.578 328.407 595.519 329.098L599.255 329.421C599.237 329.625 599.148 329.794 599.042 329.908L596.301 327.349ZM598.462 326.409C597.607 326.409 596.833 326.775 596.296 327.354L599.046 329.903C598.902 330.059 598.693 330.159 598.462 330.159V326.409ZM601.103 326.409H598.462V330.159H601.103V326.409ZM596.218 325.398L599.669 329.492L602.536 327.075L599.085 322.981L596.218 325.398ZM596.129 325.289C596.144 325.308 596.195 325.374 596.259 325.445L599.044 322.934C599.064 322.956 599.078 322.973 599.084 322.98C599.089 322.987 599.092 322.99 599.087 322.984L596.129 325.289ZM595.702 324.534C595.811 324.819 595.959 325.072 596.13 325.29L599.087 322.983C599.13 323.039 599.172 323.109 599.205 323.194L595.702 324.534ZM595.507 323.562C595.517 323.907 595.587 324.239 595.708 324.549L599.199 323.18C599.234 323.268 599.252 323.361 599.255 323.451L595.507 323.562ZM595.506 323.434V323.507H599.256V323.434H595.506ZM596.307 321.449C595.835 321.95 595.527 322.627 595.507 323.384L599.255 323.484C599.249 323.7 599.159 323.89 599.036 324.021L596.307 321.449ZM598.462 320.513C597.611 320.513 596.826 320.875 596.282 321.476L599.061 323.994C598.906 324.165 598.687 324.263 598.462 324.263V320.513ZM601.124 320.513H598.462V324.263H601.124V320.513ZM596.245 319.505L599.69 323.595L602.558 321.18L599.113 317.09L596.245 319.505ZM596.078 319.281C596.16 319.41 596.239 319.502 596.281 319.547C596.303 319.572 596.322 319.592 596.333 319.603C596.344 319.614 596.353 319.623 596.353 319.623L599.005 316.972C598.995 316.962 599.026 316.993 599.06 317.03C599.096 317.07 599.171 317.156 599.249 317.279L596.078 319.281ZM596.064 319.281C596.155 319.41 596.251 319.521 596.347 319.615L598.98 316.945C599.029 316.994 599.083 317.054 599.135 317.128L596.064 319.281ZM595.737 318.702C595.831 318.925 595.957 319.147 596.122 319.359L599.077 317.05C599.13 317.118 599.167 317.186 599.191 317.242L595.737 318.702ZM595.72 318.66C595.721 318.663 595.718 318.655 595.714 318.646C595.71 318.636 595.704 318.62 595.697 318.599L599.231 317.345C599.223 317.321 599.215 317.302 599.21 317.289C599.205 317.277 599.201 317.267 599.201 317.267L595.72 318.66ZM595.614 318.301C595.635 318.412 595.662 318.501 595.684 318.563C595.694 318.594 595.703 318.618 595.709 318.634C595.712 318.641 595.715 318.648 595.717 318.652C595.718 318.656 595.719 318.659 595.72 318.66L599.201 317.267C599.197 317.256 599.214 317.297 599.23 317.345C599.25 317.401 599.275 317.485 599.295 317.588L595.614 318.301ZM595.507 317.637C595.516 317.982 595.585 318.325 595.718 318.652L599.191 317.237C599.234 317.344 599.253 317.447 599.255 317.536L595.507 317.637ZM595.506 317.515V317.587H599.256V317.515H595.506ZM596.317 315.519C595.826 316.032 595.528 316.721 595.507 317.46L599.255 317.57C599.249 317.77 599.168 317.963 599.026 318.112L596.317 315.519ZM610.037 335.19V335.191H613.787V335.19H610.037ZM613.235 342.438L613.237 342.436L610.587 339.783L610.585 339.784L613.235 342.438ZM610.586 339.785L610.584 339.786L613.236 342.437L613.238 342.436L610.586 339.785ZM610.037 341.109V341.11H613.787V341.109H610.037ZM615.599 345.54L627.604 331.289L624.736 328.873L612.731 343.124L615.599 345.54ZM596.238 331.311L608.225 345.54L611.093 343.124L599.105 328.895L596.238 331.311ZM613.346 333.983L607.795 327.395L604.928 329.811L610.478 336.399L613.346 333.983ZM604.928 329.811L610.478 336.399L613.346 333.982L607.795 327.395L604.928 329.811ZM602.376 332.705L610.476 342.319L613.344 339.903L605.243 330.289L602.376 332.705ZM613.344 339.904L605.243 330.289L602.376 332.705L610.476 342.32L613.344 339.904Z" fill="white" mask="url(#path-33-outside-1_426_23412)"/>
</g>
<mask id="mask2_426_23412" style="mask-type:luminance" maskUnits="userSpaceOnUse" x="597" y="316" width="30" height="30">
<path d="M598.46 316.469C598.148 316.469 597.863 316.6 597.67 316.815C597.495 316.998 597.387 317.245 597.379 317.515V317.587C597.382 317.714 597.407 317.834 597.452 317.945C597.454 317.954 597.458 317.962 597.462 317.972C597.497 318.055 597.541 318.133 597.598 318.205C597.617 318.232 597.638 318.257 597.662 318.28C597.665 318.286 597.671 318.292 597.677 318.298L601.122 322.387L602.366 323.864L606.09 328.284L607.334 329.758L610.668 333.716L611.91 335.19V345.531C611.978 345.531 612.044 345.529 612.11 345.523C612.762 345.477 613.352 345.198 613.795 344.77C613.797 344.77 613.797 344.77 613.797 344.767L614.163 344.332L623.107 333.716L626.168 330.081C626.184 330.066 626.197 330.048 626.211 330.031C626.277 329.95 626.329 329.858 626.367 329.758C626.416 329.638 626.441 329.506 626.441 329.366V317.55C626.441 317.265 626.331 317.003 626.149 316.813C625.953 316.6 625.672 316.469 625.358 316.469H598.46Z" fill="url(#paint1_linear_426_23412)"/>
</mask>
<g mask="url(#mask2_426_23412)">
<path fill-rule="evenodd" clip-rule="evenodd" d="M598.46 316.469C598.148 316.469 597.863 316.6 597.67 316.815C597.495 316.998 597.387 317.245 597.379 317.515V317.587C597.382 317.714 597.407 317.834 597.452 317.945C597.454 317.954 597.458 317.962 597.462 317.972C597.497 318.055 597.541 318.133 597.598 318.205C597.617 318.232 597.638 318.257 597.662 318.28C597.665 318.286 597.671 318.292 597.677 318.298L601.122 322.387L602.366 323.864L606.09 328.284L607.334 329.758L610.668 333.716L611.91 335.19V345.531C611.978 345.531 612.044 345.529 612.11 345.523C612.762 345.477 613.352 345.198 613.795 344.77C613.797 344.77 613.797 344.77 613.797 344.767L614.163 344.332L623.107 333.716L626.168 330.081C626.184 330.066 626.197 330.048 626.211 330.031C626.277 329.95 626.329 329.858 626.367 329.758C626.416 329.638 626.441 329.506 626.441 329.366V317.55C626.441 317.265 626.331 317.003 626.149 316.813C625.953 316.6 625.672 316.469 625.358 316.469H598.46Z" fill="url(#paint2_linear_426_23412)"/>
</g>
<path fill-rule="evenodd" clip-rule="evenodd" d="M611.91 341.109V345.53C611.178 345.53 610.513 345.24 610.025 344.769C610.023 344.769 610.023 344.769 610.023 344.767L609.657 344.331L600.713 333.716L597.67 330.102C597.662 330.099 597.656 330.091 597.652 330.083L597.604 330.027C597.6 330.023 597.598 330.019 597.594 330.015C597.536 329.936 597.485 329.85 597.452 329.757C597.408 329.647 597.383 329.527 597.379 329.403V329.329C597.379 329.306 597.381 329.283 597.385 329.259C597.406 329.016 597.511 328.798 597.67 328.628C597.865 328.417 598.148 328.283 598.46 328.283H601.101L602.343 329.757L605.677 333.716L611.144 340.205L611.908 341.111L611.91 341.109Z" fill="#FCD1CA"/>
<path fill-rule="evenodd" clip-rule="evenodd" d="M611.91 335.191V341.108L611.908 341.11L611.145 340.204L605.678 333.716L602.343 329.758L601.101 328.283L597.649 324.189C597.635 324.172 597.621 324.154 597.606 324.136C597.543 324.054 597.49 323.964 597.451 323.863C597.408 323.753 597.383 323.633 597.379 323.506V323.433C597.386 323.162 597.495 322.919 597.67 322.734C597.864 322.519 598.147 322.387 598.46 322.387H601.123L602.367 323.863L606.091 328.283L607.333 329.758L610.668 333.716L611.91 335.191Z" fill="#FF9D8D"/>
<g filter="url(#filter8_ddd_426_23412)">
<rect x="854" y="59" width="52" height="52" rx="12" fill="#15131D"/>
<rect x="854.586" y="59.5859" width="50.8281" height="50.8281" rx="11.4141" stroke="white" stroke-opacity="0.15" stroke-width="1.17188"/>
</g>
<g filter="url(#filter9_dd_426_23412)">
<path d="M884.196 69.5493L866.988 70.8165C865.601 70.9367 865.117 71.8419 865.117 72.9271V91.7486C865.117 92.5942 865.419 93.3169 866.143 94.2831L870.189 99.5314C870.853 100.376 871.457 100.557 872.726 100.497L892.709 99.29C894.399 99.17 894.883 98.3851 894.883 97.0581V75.8834C894.883 75.1597 894.581 74.9789 893.674 74.315L888.181 70.4542C886.853 69.4895 886.309 69.368 884.196 69.5493Z" fill="white"/>
<path d="M866.919 69.8816L866.919 69.8815L866.907 69.8825C866.009 69.9603 865.279 70.3112 864.793 70.933C864.327 71.5305 864.18 72.2592 864.18 72.9271V91.7486C864.18 92.8746 864.604 93.7927 865.393 94.8457L865.393 94.8457L865.401 94.8554L869.446 100.104L869.446 100.104L869.452 100.111C869.854 100.622 870.303 101.013 870.909 101.234C871.482 101.444 872.104 101.465 872.77 101.433L872.77 101.433L872.782 101.433L892.766 100.226L892.766 100.226L892.776 100.225C893.739 100.157 894.57 99.8856 895.133 99.2463C895.689 98.6157 895.82 97.8089 895.82 97.0581V75.8834C895.82 75.3501 895.695 74.8895 895.328 74.464C895.083 74.1802 894.724 73.9191 894.371 73.6625C894.323 73.6278 894.276 73.5933 894.228 73.5587L894.221 73.5533L894.213 73.548L888.726 69.6914C888.038 69.1919 887.445 68.8288 886.69 68.6577C885.967 68.4938 885.171 68.5249 884.122 68.6147L866.919 69.8816Z" stroke="white" stroke-width="1.875"/>
</g>
<path fill-rule="evenodd" clip-rule="evenodd" d="M870.25 74.9185C871.215 75.7026 871.577 75.6428 873.389 75.5219L890.475 74.496C890.837 74.496 890.536 74.1345 890.415 74.0744L887.577 72.0232C887.034 71.601 886.309 71.1176 884.921 71.2386L868.377 72.4452C867.774 72.505 867.654 72.8067 867.894 73.0485L870.25 74.9185ZM871.276 78.9002V96.8768C871.276 97.8429 871.759 98.2043 872.845 98.1446L891.622 97.0581C892.709 96.9983 892.83 96.3338 892.83 95.549V77.6931C892.83 76.9095 892.529 76.487 891.863 76.5473L872.241 77.6931C871.517 77.7539 871.276 78.1161 871.276 78.9002H871.276ZM889.812 79.8645C889.932 80.408 889.812 80.951 889.267 81.0121L888.363 81.1923V94.4638C887.577 94.8859 886.853 95.1273 886.249 95.1273C885.283 95.1273 885.041 94.8254 884.317 93.9211L878.399 84.631V93.6194L880.272 94.042C880.272 94.042 880.272 95.1273 878.761 95.1273L874.596 95.3689C874.475 95.1273 874.596 94.5246 875.019 94.4038L876.106 94.1026V82.2182L874.597 82.0972C874.475 81.5538 874.777 80.7702 875.623 80.7094L880.091 80.4082L886.249 89.8192V81.4939L884.679 81.3137C884.559 80.6494 885.041 80.1669 885.645 80.1071L889.812 79.8645ZM866.988 70.8165L884.196 69.5493C886.309 69.368 886.853 69.4895 888.181 70.4542L893.674 74.315C894.581 74.9789 894.883 75.1597 894.883 75.8834V97.0581C894.883 98.3851 894.399 99.17 892.709 99.29L872.726 100.497C871.457 100.557 870.853 100.376 870.189 99.5314L866.143 94.2831C865.419 93.3169 865.117 92.5942 865.117 91.7486V72.9271C865.117 71.8419 865.601 70.9367 866.988 70.8165Z" fill="black"/>
<g filter="url(#filter10_ddd_426_23412)">
<rect x="854" y="305" width="52" height="52" rx="12" fill="#15131D"/>
<rect x="854.586" y="305.586" width="50.8281" height="50.8281" rx="11.4141" stroke="white" stroke-opacity="0.15" stroke-width="1.17188"/>
</g>
<g filter="url(#filter11_dd_426_23412)">
<path d="M879.931 318.916C879.932 316.726 878.159 314.951 875.969 314.947L875.969 315.257V314.947H875.969H875.969H875.969H875.969H875.969H875.969H875.969H875.969H875.969H875.969H875.969H875.969H875.969H875.969H875.969H875.969H875.969H875.969H875.969H875.969H875.969H875.969H875.969H875.969H875.969H875.969H875.969H875.969H875.969H875.969H875.969H875.969H875.969H875.969H875.969H875.969H875.969H875.969H875.969H875.969H875.969H875.969H875.969H875.969H875.969H875.969H875.969H875.969H875.969H875.969H875.969H875.969H875.969H875.969H875.969H875.969H875.969H875.968H875.968H875.968H875.968H875.968H875.968H875.968H875.968H875.968H875.968H875.968H875.968H875.968H875.968H875.968H875.968H875.968H875.968H875.968H875.968H875.968H875.968H875.968H875.968H875.968H875.968H875.968H875.968H875.968H875.968H875.968H875.968H875.968H875.968L875.968 314.947L875.967 314.947C873.778 314.949 872.007 316.726 872.008 318.914C872.007 321.102 873.78 322.878 875.969 322.88H875.969H878.993C879.511 322.88 879.931 322.46 879.931 321.943V318.916ZM879.931 318.916L878.993 318.915H879.931V318.916ZM879.93 326.994C879.931 324.804 878.158 323.028 875.969 323.026H875.968L867.907 323.026L867.906 323.026C865.717 323.028 863.945 324.803 863.945 326.991M879.93 326.994C879.931 329.182 878.158 330.958 875.969 330.96H875.968H867.906H867.904C865.716 330.957 863.942 329.181 863.945 326.991M879.93 326.994C879.93 326.994 879.93 326.994 879.93 326.994L878.992 326.994M879.93 326.994C879.93 326.993 879.93 326.993 879.93 326.993L878.992 326.994M863.945 326.991L864.883 326.992M863.945 326.991C863.945 326.992 863.945 326.992 863.945 326.993L864.883 326.992M864.883 326.992C864.882 325.321 866.235 323.965 867.907 323.963M864.883 326.992C864.88 328.664 866.234 330.02 867.906 330.022H875.968C877.639 330.021 878.993 328.665 878.992 326.994M867.907 323.963L878.992 326.994M867.907 323.963H875.968H867.907ZM896.055 326.992C896.056 324.804 894.283 323.028 892.094 323.026L892.093 323.026L889.069 326.992H888.132V326.993V330.022C888.132 330.54 888.552 330.96 889.069 330.96H892.093H892.094C894.283 330.958 896.056 329.182 896.055 326.992ZM896.055 326.992C896.055 326.992 896.055 326.992 896.055 326.992L895.117 326.992L896.055 326.993C896.055 326.993 896.055 326.993 896.055 326.992ZM884.031 314.947L884.033 314.947C886.222 314.951 887.994 316.727 887.992 318.914M884.031 314.947L887.055 318.914M884.031 314.947C881.842 314.949 880.069 316.725 880.07 318.914M884.031 314.947L880.07 318.914M887.992 318.914L887.055 318.914M887.992 318.914V318.914H887.055M887.992 318.914V326.992M887.055 318.914V326.992M887.992 326.992L887.055 326.992M887.992 326.992V326.992H887.055M887.992 326.992C887.994 329.181 886.221 330.958 884.031 330.96L884.029 330.96C881.841 330.957 880.068 329.181 880.07 326.992V326.992H881.008L880.071 326.991L887.055 326.992M880.07 318.914L881.008 318.914H880.07V318.914ZM887.992 343.151C887.993 340.962 886.22 339.186 884.031 339.184H884.031H881.007C880.489 339.184 880.069 339.604 880.069 340.122V343.15M887.992 343.151C887.993 345.339 886.22 347.116 884.031 347.117L884.029 347.117C881.841 347.114 880.068 345.338 880.069 343.15M887.992 343.151C887.992 343.151 887.992 343.151 887.992 343.151L887.055 343.151M887.992 343.151C887.992 343.151 887.992 343.15 887.992 343.15L887.055 343.151M880.069 343.15L881.007 343.151M880.069 343.15V343.151H881.007M881.007 343.151V341.059M881.007 343.151C881.006 344.821 882.359 346.177 884.031 346.18C885.702 346.178 887.056 344.822 887.055 343.151M881.007 341.059L887.055 343.151M881.007 341.059V340.122H881.944H884.031L881.007 341.059ZM880.07 335.07C880.069 337.259 881.84 339.036 884.03 339.037H884.031H892.093H892.094C894.283 339.036 896.055 337.26 896.055 335.072M880.07 335.07C880.069 332.881 881.842 331.105 884.031 331.103H884.032H892.094H892.096C894.284 331.107 896.058 332.883 896.055 335.072M880.07 335.07C880.07 335.069 880.07 335.069 880.07 335.069L881.008 335.07C881.007 333.398 882.361 332.042 884.032 332.041H892.094C893.766 332.043 895.12 333.4 895.117 335.071M880.07 335.07L892.093 338.1M896.055 335.072L895.117 335.071M896.055 335.072C896.055 335.072 896.055 335.071 896.055 335.07L895.117 335.071M895.117 335.071C895.118 336.742 893.765 338.099 892.093 338.1M892.093 338.1H884.031H892.093ZM870.931 331.105C871.448 331.105 871.868 331.524 871.868 332.042L871.868 335.07L871.868 335.071M870.931 331.105L867.907 338.1C869.578 338.099 870.932 336.742 870.931 335.071H871.868M870.931 331.105H867.907H867.906C865.717 331.106 863.944 332.882 863.945 335.071M870.931 331.105L863.945 335.071M871.868 335.071C871.869 337.259 870.096 339.036 867.907 339.037H867.906C865.717 339.036 863.944 337.259 863.945 335.071M871.868 335.071H863.945M875.969 347.117L875.967 347.117C873.778 347.114 872.005 345.338 872.008 343.149M875.969 347.117L875.969 332.043C874.297 332.043 872.944 333.4 872.945 335.071H872.008M875.969 347.117C878.158 347.116 879.931 345.339 879.93 343.15M875.969 347.117L879.93 343.15M872.008 343.149L872.008 335.072L872.008 335.071M872.008 343.149C872.008 343.149 872.008 343.148 872.008 343.148L872.945 343.15H872.008V343.149ZM872.008 335.071C872.007 332.883 873.778 331.106 875.969 331.106H875.971C878.159 331.109 879.932 332.885 879.93 335.074M872.008 335.071L879.93 335.074M879.93 335.074C879.93 335.074 879.93 335.075 879.93 335.075L878.992 335.073H879.93V335.074ZM879.93 343.15L878.992 343.151H879.93V343.15Z" stroke="white" stroke-width="1.875" stroke-linejoin="round" shape-rendering="crispEdges"/>
</g>
<path fill-rule="evenodd" clip-rule="evenodd" d="M875.968 315.885C874.297 315.886 872.944 317.242 872.945 318.914C872.944 320.585 874.298 321.941 875.969 321.943H878.993V318.915C878.994 317.244 877.641 315.887 875.968 315.885C875.969 315.885 875.969 315.885 875.968 315.885M875.968 323.963H867.907C866.235 323.965 864.882 325.321 864.883 326.992C864.88 328.664 866.234 330.02 867.906 330.022H875.968C877.639 330.021 878.993 328.665 878.992 326.994C878.993 325.321 877.639 323.965 875.968 323.963Z" fill="#36C5F0"/>
<path fill-rule="evenodd" clip-rule="evenodd" d="M895.117 326.992C895.118 325.321 893.764 323.965 892.093 323.963C890.422 323.965 889.068 325.321 889.069 326.992V330.022H892.093C893.764 330.021 895.118 328.665 895.117 326.992ZM887.054 326.992V318.914C887.056 317.244 885.703 315.887 884.032 315.885C882.36 315.886 881.007 317.242 881.008 318.914V326.992C881.005 328.664 882.359 330.02 884.031 330.022C885.702 330.021 887.056 328.665 887.054 326.992Z" fill="#2EB67D"/>
<path fill-rule="evenodd" clip-rule="evenodd" d="M884.03 346.18C885.701 346.179 887.055 344.822 887.054 343.151C887.055 341.48 885.701 340.123 884.03 340.122H881.006V343.151C881.005 344.821 882.358 346.177 884.03 346.18ZM884.03 338.1H892.092C893.764 338.099 895.118 336.742 895.116 335.071C895.119 333.4 893.765 332.043 892.094 332.041H884.031C882.36 332.042 881.006 333.399 881.007 335.07C881.006 336.742 882.358 338.099 884.03 338.1Z" fill="#ECB22E"/>
<path fill-rule="evenodd" clip-rule="evenodd" d="M864.883 335.072C864.882 336.743 866.235 338.099 867.907 338.101C869.578 338.099 870.932 336.743 870.931 335.072V332.043H867.907C866.235 332.044 864.882 333.401 864.883 335.072ZM872.945 335.072V343.15C872.943 344.822 874.297 346.178 875.968 346.181C877.639 346.179 878.993 344.823 878.992 343.152V335.074C878.994 333.403 877.641 332.047 875.969 332.044C874.297 332.044 872.944 333.401 872.945 335.072C872.945 335.073 872.945 335.072 872.945 335.072Z" fill="#E01E5A"/>
<g filter="url(#filter12_ddd_426_23412)">
<rect x="540" y="180" width="52" height="52" rx="12" fill="#15131D"/>
<rect x="540.586" y="180.586" width="50.8281" height="50.8281" rx="11.4141" stroke="white" stroke-opacity="0.15" stroke-width="1.17188"/>
</g>
<g filter="url(#filter13_dd_426_23412)">
<path d="M556.508 190.516H556.508C556.109 190.516 555.719 190.635 555.389 190.859C555.059 191.083 554.804 191.401 554.657 191.772C554.509 192.142 554.477 192.549 554.563 192.938C554.649 193.328 554.85 193.682 555.14 193.956L555.14 193.956L560.989 199.48H556.508C555.979 199.48 555.473 199.69 555.099 200.064C554.726 200.438 554.516 200.944 554.516 201.473V210.438C554.516 210.709 554.571 210.977 554.678 211.226C554.786 211.475 554.943 211.7 555.14 211.886L564.632 220.851C564.632 220.851 564.632 220.851 564.632 220.851C564.915 221.118 565.27 221.296 565.653 221.364C566.036 221.432 566.431 221.386 566.789 221.232C567.146 221.078 567.45 220.822 567.664 220.497C567.878 220.172 567.992 219.792 567.992 219.402C567.992 219.402 567.992 219.402 567.992 219.402V212.43H575.492C575.891 212.43 576.281 212.31 576.611 212.086L576.084 211.31L576.611 212.086C576.941 211.862 577.196 211.544 577.343 211.174C577.491 210.803 577.523 210.397 577.437 210.007L576.522 210.21L577.437 210.007C577.351 209.618 577.15 209.263 576.86 208.989L576.86 208.989L571.011 203.465H575.492C576.021 203.465 576.527 203.255 576.901 202.881C577.274 202.508 577.484 202.001 577.484 201.473V192.508C577.484 191.979 577.274 191.473 576.901 191.099C576.527 190.726 576.021 190.516 575.492 190.516H556.508Z" stroke="white" stroke-width="1.875" stroke-linejoin="round" shape-rendering="crispEdges"/>
</g>
<path d="M576.547 201.473V192.508C576.547 192.228 576.436 191.96 576.238 191.762C576.04 191.564 575.772 191.453 575.492 191.453H556.508C556.297 191.453 556.09 191.517 555.916 191.635C555.741 191.754 555.606 191.922 555.528 192.118C555.45 192.314 555.432 192.529 555.478 192.736C555.524 192.942 555.63 193.13 555.784 193.275L563.347 200.418H556.508C556.228 200.418 555.96 200.529 555.762 200.727C555.564 200.925 555.453 201.193 555.453 201.473V210.438C555.453 210.581 555.482 210.723 555.539 210.855C555.596 210.987 555.679 211.106 555.784 211.204L565.276 220.169C565.426 220.311 565.614 220.405 565.816 220.441C566.019 220.477 566.228 220.452 566.417 220.371C566.607 220.289 566.768 220.154 566.881 219.982C566.994 219.81 567.055 219.608 567.055 219.402V211.492H575.492C575.703 211.492 575.91 211.429 576.084 211.31C576.259 211.192 576.394 211.023 576.472 210.827C576.55 210.631 576.568 210.416 576.522 210.21C576.476 210.003 576.37 209.816 576.216 209.671L568.653 202.527H575.492C575.772 202.527 576.04 202.416 576.238 202.218C576.436 202.021 576.547 201.752 576.547 201.473Z" fill="url(#paint3_linear_426_23412)"/>
<g filter="url(#filter14_ddd_426_23412)">
<rect x="889" y="180" width="52" height="52" rx="12" fill="#15131D"/>
<rect x="889.586" y="180.586" width="50.8281" height="50.8281" rx="11.4141" stroke="white" stroke-opacity="0.15" stroke-width="1.17188"/>
</g>
<g filter="url(#filter15_dd_426_23412)">
<path d="M919.422 194.297C921.626 194.67 923.772 195.33 925.805 196.261C929.306 201.38 931.046 207.155 930.404 213.817C928.038 215.566 925.388 216.895 922.571 217.745C921.936 216.893 921.376 215.99 920.894 215.044C921.811 214.701 922.696 214.278 923.539 213.781C923.32 213.632 923.104 213.467 922.892 213.294C920.444 214.445 917.772 215.042 915.066 215.042C912.361 215.042 909.689 214.445 907.241 213.294C907.031 213.455 906.815 213.62 906.593 213.781C907.435 214.277 908.318 214.699 909.234 215.041C908.752 215.988 908.191 216.892 907.557 217.745C904.742 216.892 902.095 215.562 899.729 213.815C899.182 208.07 900.277 202.242 904.316 196.265C906.351 195.335 908.498 194.673 910.703 194.297C911.005 194.836 911.278 195.391 911.521 195.959C913.869 195.605 916.257 195.605 918.604 195.959C918.847 195.391 919.12 194.836 919.422 194.297Z" fill="white"/>
<path d="M919.578 193.373C919.188 193.306 918.797 193.493 918.604 193.839C918.403 194.198 918.214 194.564 918.038 194.936C916.062 194.696 914.064 194.696 912.088 194.936C911.911 194.564 911.722 194.199 911.522 193.839C911.328 193.493 910.937 193.306 910.546 193.373C908.26 193.762 906.035 194.448 903.926 195.413C903.769 195.485 903.636 195.598 903.539 195.74C899.37 201.909 898.229 207.957 898.796 213.904C898.821 214.169 898.958 214.41 899.172 214.569C901.624 216.38 904.368 217.758 907.285 218.642C907.664 218.756 908.073 218.621 908.309 218.304C908.975 217.409 909.563 216.46 910.069 215.466C910.091 215.424 910.109 215.381 910.123 215.337C911.732 215.762 913.393 215.98 915.066 215.98C916.738 215.98 918.398 215.763 920.004 215.338C920.019 215.383 920.037 215.426 920.059 215.469C920.564 216.462 921.153 217.411 921.819 218.305C922.055 218.621 922.464 218.756 922.841 218.642C925.762 217.762 928.508 216.384 930.961 214.571C931.175 214.413 931.311 214.172 931.337 213.907C932.002 207.008 930.194 201.017 926.578 195.731C926.482 195.591 926.35 195.479 926.195 195.408C924.088 194.443 921.863 193.759 919.578 193.373Z" stroke="white" stroke-width="1.875" stroke-linejoin="round"/>
</g>
<path d="M925.805 196.261C923.772 195.33 921.626 194.67 919.422 194.297C919.12 194.836 918.847 195.391 918.604 195.959C916.257 195.605 913.869 195.605 911.521 195.959C911.278 195.391 911.005 194.836 910.703 194.297C908.498 194.673 906.351 195.335 904.316 196.265C900.277 202.242 899.182 208.07 899.729 213.815C902.095 215.562 904.742 216.892 907.557 217.745C908.191 216.892 908.752 215.988 909.234 215.041C908.318 214.699 907.435 214.277 906.593 213.781C906.815 213.62 907.031 213.455 907.241 213.294C909.689 214.445 912.361 215.042 915.066 215.042C917.772 215.042 920.444 214.445 922.892 213.294C923.104 213.467 923.32 213.632 923.539 213.781C922.696 214.278 921.811 214.701 920.894 215.044C921.376 215.99 921.936 216.893 922.571 217.745C925.388 216.895 928.038 215.566 930.404 213.817C931.046 207.155 929.306 201.38 925.805 196.261ZM909.927 210.281C908.401 210.281 907.141 208.897 907.141 207.194C907.141 205.49 908.358 204.093 909.922 204.093C911.487 204.093 912.738 205.49 912.711 207.194C912.684 208.897 911.482 210.281 909.927 210.281ZM920.206 210.281C918.677 210.281 917.422 208.897 917.422 207.194C917.422 205.49 918.638 204.093 920.206 204.093C921.773 204.093 923.014 205.49 922.987 207.194C922.96 208.897 921.76 210.281 920.206 210.281Z" fill="#5865F2"/>
<defs>
<filter id="filter0_ddd_426_23412" x="713.594" y="3.29688" width="54.8125" height="54.8125" filterUnits="userSpaceOnUse" color-interpolation-filters="sRGB">
<feFlood flood-opacity="0" result="BackgroundImageFix"/>
<feColorMatrix in="SourceAlpha" type="matrix" values="0 0 0 0 0 0 0 0 0 0 0 0 0 0 0 0 0 0 127 0" result="hardAlpha"/>
<feOffset dy="0.703125"/>
<feGaussianBlur stdDeviation="0.703125"/>
<feComposite in2="hardAlpha" operator="out"/>
<feColorMatrix type="matrix" values="0 0 0 0 0 0 0 0 0 0 0 0 0 0 0 0 0 0 0.1 0"/>
<feBlend mode="normal" in2="BackgroundImageFix" result="effect1_dropShadow_426_23412"/>
<feColorMatrix in="SourceAlpha" type="matrix" values="0 0 0 0 0 0 0 0 0 0 0 0 0 0 0 0 0 0 127 0" result="hardAlpha"/>
<feOffset dy="0.46875"/>
<feGaussianBlur stdDeviation="0.351562"/>
<feComposite in2="hardAlpha" operator="out"/>
<feColorMatrix type="matrix" values="0 0 0 0 0 0 0 0 0 0 0 0 0 0 0 0 0 0 0.1 0"/>
<feBlend mode="normal" in2="effect1_dropShadow_426_23412" result="effect2_dropShadow_426_23412"/>
<feColorMatrix in="SourceAlpha" type="matrix" values="0 0 0 0 0 0 0 0 0 0 0 0 0 0 0 0 0 0 127 0" result="hardAlpha"/>
<feOffset dy="0.117188"/>
<feGaussianBlur stdDeviation="0.117188"/>
<feComposite in2="hardAlpha" operator="out"/>
<feColorMatrix type="matrix" values="0 0 0 0 0 0 0 0 0 0 0 0 0 0 0 0 0 0 0.1 0"/>
<feBlend mode="normal" in2="effect2_dropShadow_426_23412" result="effect3_dropShadow_426_23412"/>
<feBlend mode="normal" in="SourceGraphic" in2="effect3_dropShadow_426_23412" result="shape"/>
</filter>
<filter id="filter1_dd_426_23412" x="725.062" y="10.7227" width="31.875" height="42.1875" filterUnits="userSpaceOnUse" color-interpolation-filters="sRGB">
<feFlood flood-opacity="0" result="BackgroundImageFix"/>
<feColorMatrix in="SourceAlpha" type="matrix" values="0 0 0 0 0 0 0 0 0 0 0 0 0 0 0 0 0 0 127 0" result="hardAlpha"/>
<feOffset dy="0.9375"/>
<feGaussianBlur stdDeviation="0.46875"/>
<feComposite in2="hardAlpha" operator="out"/>
<feColorMatrix type="matrix" values="0 0 0 0 0 0 0 0 0 0 0 0 0 0 0 0 0 0 0.1 0"/>
<feBlend mode="normal" in2="BackgroundImageFix" result="effect1_dropShadow_426_23412"/>
<feColorMatrix in="SourceAlpha" type="matrix" values="0 0 0 0 0 0 0 0 0 0 0 0 0 0 0 0 0 0 127 0" result="hardAlpha"/>
<feOffset dy="1.875"/>
<feGaussianBlur stdDeviation="1.875"/>
<feComposite in2="hardAlpha" operator="out"/>
<feColorMatrix type="matrix" values="0 0 0 0 0 0 0 0 0 0 0 0 0 0 0 0 0 0 0.2 0"/>
<feBlend mode="normal" in2="effect1_dropShadow_426_23412" result="effect2_dropShadow_426_23412"/>
<feBlend mode="normal" in="SourceGraphic" in2="effect2_dropShadow_426_23412" result="shape"/>
</filter>
<filter id="filter2_ddd_426_23412" x="713.594" y="354.297" width="54.8125" height="54.8125" filterUnits="userSpaceOnUse" color-interpolation-filters="sRGB">
<feFlood flood-opacity="0" result="BackgroundImageFix"/>
<feColorMatrix in="SourceAlpha" type="matrix" values="0 0 0 0 0 0 0 0 0 0 0 0 0 0 0 0 0 0 127 0" result="hardAlpha"/>
<feOffset dy="0.703125"/>
<feGaussianBlur stdDeviation="0.703125"/>
<feComposite in2="hardAlpha" operator="out"/>
<feColorMatrix type="matrix" values="0 0 0 0 0 0 0 0 0 0 0 0 0 0 0 0 0 0 0.1 0"/>
<feBlend mode="normal" in2="BackgroundImageFix" result="effect1_dropShadow_426_23412"/>
<feColorMatrix in="SourceAlpha" type="matrix" values="0 0 0 0 0 0 0 0 0 0 0 0 0 0 0 0 0 0 127 0" result="hardAlpha"/>
<feOffset dy="0.46875"/>
<feGaussianBlur stdDeviation="0.351562"/>
<feComposite in2="hardAlpha" operator="out"/>
<feColorMatrix type="matrix" values="0 0 0 0 0 0 0 0 0 0 0 0 0 0 0 0 0 0 0.1 0"/>
<feBlend mode="normal" in2="effect1_dropShadow_426_23412" result="effect2_dropShadow_426_23412"/>
<feColorMatrix in="SourceAlpha" type="matrix" values="0 0 0 0 0 0 0 0 0 0 0 0 0 0 0 0 0 0 127 0" result="hardAlpha"/>
<feOffset dy="0.117188"/>
<feGaussianBlur stdDeviation="0.117188"/>
<feComposite in2="hardAlpha" operator="out"/>
<feColorMatrix type="matrix" values="0 0 0 0 0 0 0 0 0 0 0 0 0 0 0 0 0 0 0.1 0"/>
<feBlend mode="normal" in2="effect2_dropShadow_426_23412" result="effect3_dropShadow_426_23412"/>
<feBlend mode="normal" in="SourceGraphic" in2="effect3_dropShadow_426_23412" result="shape"/>
</filter>
<filter id="filter3_dd_426_23412" x="720.492" y="362.367" width="41.0156" height="41.0156" filterUnits="userSpaceOnUse" color-interpolation-filters="sRGB">
<feFlood flood-opacity="0" result="BackgroundImageFix"/>
<feColorMatrix in="SourceAlpha" type="matrix" values="0 0 0 0 0 0 0 0 0 0 0 0 0 0 0 0 0 0 127 0" result="hardAlpha"/>
<feOffset dy="0.9375"/>
<feGaussianBlur stdDeviation="0.46875"/>
<feComposite in2="hardAlpha" operator="out"/>
<feColorMatrix type="matrix" values="0 0 0 0 0 0 0 0 0 0 0 0 0 0 0 0 0 0 0.1 0"/>
<feBlend mode="normal" in2="BackgroundImageFix" result="effect1_dropShadow_426_23412"/>
<feColorMatrix in="SourceAlpha" type="matrix" values="0 0 0 0 0 0 0 0 0 0 0 0 0 0 0 0 0 0 127 0" result="hardAlpha"/>
<feOffset dy="1.875"/>
<feGaussianBlur stdDeviation="1.875"/>
<feComposite in2="hardAlpha" operator="out"/>
<feColorMatrix type="matrix" values="0 0 0 0 0 0 0 0 0 0 0 0 0 0 0 0 0 0 0.2 0"/>
<feBlend mode="normal" in2="effect1_dropShadow_426_23412" result="effect2_dropShadow_426_23412"/>
<feBlend mode="normal" in="SourceGraphic" in2="effect2_dropShadow_426_23412" result="shape"/>
</filter>
<filter id="filter4_ddd_426_23412" x="584.594" y="58.2969" width="54.8125" height="54.8125" filterUnits="userSpaceOnUse" color-interpolation-filters="sRGB">
<feFlood flood-opacity="0" result="BackgroundImageFix"/>
<feColorMatrix in="SourceAlpha" type="matrix" values="0 0 0 0 0 0 0 0 0 0 0 0 0 0 0 0 0 0 127 0" result="hardAlpha"/>
<feOffset dy="0.703125"/>
<feGaussianBlur stdDeviation="0.703125"/>
<feComposite in2="hardAlpha" operator="out"/>
<feColorMatrix type="matrix" values="0 0 0 0 0 0 0 0 0 0 0 0 0 0 0 0 0 0 0.1 0"/>
<feBlend mode="normal" in2="BackgroundImageFix" result="effect1_dropShadow_426_23412"/>
<feColorMatrix in="SourceAlpha" type="matrix" values="0 0 0 0 0 0 0 0 0 0 0 0 0 0 0 0 0 0 127 0" result="hardAlpha"/>
<feOffset dy="0.46875"/>
<feGaussianBlur stdDeviation="0.351562"/>
<feComposite in2="hardAlpha" operator="out"/>
<feColorMatrix type="matrix" values="0 0 0 0 0 0 0 0 0 0 0 0 0 0 0 0 0 0 0.1 0"/>
<feBlend mode="normal" in2="effect1_dropShadow_426_23412" result="effect2_dropShadow_426_23412"/>
<feColorMatrix in="SourceAlpha" type="matrix" values="0 0 0 0 0 0 0 0 0 0 0 0 0 0 0 0 0 0 127 0" result="hardAlpha"/>
<feOffset dy="0.117188"/>
<feGaussianBlur stdDeviation="0.117188"/>
<feComposite in2="hardAlpha" operator="out"/>
<feColorMatrix type="matrix" values="0 0 0 0 0 0 0 0 0 0 0 0 0 0 0 0 0 0 0.1 0"/>
<feBlend mode="normal" in2="effect2_dropShadow_426_23412" result="effect3_dropShadow_426_23412"/>
<feBlend mode="normal" in="SourceGraphic" in2="effect3_dropShadow_426_23412" result="shape"/>
</filter>
<filter id="filter5_dd_426_23412" x="589.5" y="67.5801" width="45" height="38.1641" filterUnits="userSpaceOnUse" color-interpolation-filters="sRGB">
<feFlood flood-opacity="0" result="BackgroundImageFix"/>
<feColorMatrix in="SourceAlpha" type="matrix" values="0 0 0 0 0 0 0 0 0 0 0 0 0 0 0 0 0 0 127 0" result="hardAlpha"/>
<feOffset dy="0.9375"/>
<feGaussianBlur stdDeviation="0.46875"/>
<feComposite in2="hardAlpha" operator="out"/>
<feColorMatrix type="matrix" values="0 0 0 0 0 0 0 0 0 0 0 0 0 0 0 0 0 0 0.1 0"/>
<feBlend mode="normal" in2="BackgroundImageFix" result="effect1_dropShadow_426_23412"/>
<feColorMatrix in="SourceAlpha" type="matrix" values="0 0 0 0 0 0 0 0 0 0 0 0 0 0 0 0 0 0 127 0" result="hardAlpha"/>
<feOffset dy="1.875"/>
<feGaussianBlur stdDeviation="1.875"/>
<feComposite in2="hardAlpha" operator="out"/>
<feColorMatrix type="matrix" values="0 0 0 0 0 0 0 0 0 0 0 0 0 0 0 0 0 0 0.2 0"/>
<feBlend mode="normal" in2="effect1_dropShadow_426_23412" result="effect2_dropShadow_426_23412"/>
<feBlend mode="normal" in="SourceGraphic" in2="effect2_dropShadow_426_23412" result="shape"/>
</filter>
<filter id="filter6_ddd_426_23412" x="584.594" y="304.297" width="54.8125" height="54.8125" filterUnits="userSpaceOnUse" color-interpolation-filters="sRGB">
<feFlood flood-opacity="0" result="BackgroundImageFix"/>
<feColorMatrix in="SourceAlpha" type="matrix" values="0 0 0 0 0 0 0 0 0 0 0 0 0 0 0 0 0 0 127 0" result="hardAlpha"/>
<feOffset dy="0.703125"/>
<feGaussianBlur stdDeviation="0.703125"/>
<feComposite in2="hardAlpha" operator="out"/>
<feColorMatrix type="matrix" values="0 0 0 0 0 0 0 0 0 0 0 0 0 0 0 0 0 0 0.1 0"/>
<feBlend mode="normal" in2="BackgroundImageFix" result="effect1_dropShadow_426_23412"/>
<feColorMatrix in="SourceAlpha" type="matrix" values="0 0 0 0 0 0 0 0 0 0 0 0 0 0 0 0 0 0 127 0" result="hardAlpha"/>
<feOffset dy="0.46875"/>
<feGaussianBlur stdDeviation="0.351562"/>
<feComposite in2="hardAlpha" operator="out"/>
<feColorMatrix type="matrix" values="0 0 0 0 0 0 0 0 0 0 0 0 0 0 0 0 0 0 0.1 0"/>
<feBlend mode="normal" in2="effect1_dropShadow_426_23412" result="effect2_dropShadow_426_23412"/>
<feColorMatrix in="SourceAlpha" type="matrix" values="0 0 0 0 0 0 0 0 0 0 0 0 0 0 0 0 0 0 127 0" result="hardAlpha"/>
<feOffset dy="0.117188"/>
<feGaussianBlur stdDeviation="0.117188"/>
<feComposite in2="hardAlpha" operator="out"/>
<feColorMatrix type="matrix" values="0 0 0 0 0 0 0 0 0 0 0 0 0 0 0 0 0 0 0.1 0"/>
<feBlend mode="normal" in2="effect2_dropShadow_426_23412" result="effect3_dropShadow_426_23412"/>
<feBlend mode="normal" in="SourceGraphic" in2="effect3_dropShadow_426_23412" result="shape"/>
</filter>
<filter id="filter7_dd_426_23412" x="591.756" y="312.719" width="40.3125" height="40.3125" filterUnits="userSpaceOnUse" color-interpolation-filters="sRGB">
<feFlood flood-opacity="0" result="BackgroundImageFix"/>
<feColorMatrix in="SourceAlpha" type="matrix" values="0 0 0 0 0 0 0 0 0 0 0 0 0 0 0 0 0 0 127 0" result="hardAlpha"/>
<feOffset dy="0.9375"/>
<feGaussianBlur stdDeviation="0.46875"/>
<feComposite in2="hardAlpha" operator="out"/>
<feColorMatrix type="matrix" values="0 0 0 0 0 0 0 0 0 0 0 0 0 0 0 0 0 0 0.1 0"/>
<feBlend mode="normal" in2="BackgroundImageFix" result="effect1_dropShadow_426_23412"/>
<feColorMatrix in="SourceAlpha" type="matrix" values="0 0 0 0 0 0 0 0 0 0 0 0 0 0 0 0 0 0 127 0" result="hardAlpha"/>
<feOffset dy="1.875"/>
<feGaussianBlur stdDeviation="1.875"/>
<feComposite in2="hardAlpha" operator="out"/>
<feColorMatrix type="matrix" values="0 0 0 0 0 0 0 0 0 0 0 0 0 0 0 0 0 0 0.2 0"/>
<feBlend mode="normal" in2="effect1_dropShadow_426_23412" result="effect2_dropShadow_426_23412"/>
<feBlend mode="normal" in="SourceGraphic" in2="effect2_dropShadow_426_23412" result="shape"/>
</filter>
<filter id="filter8_ddd_426_23412" x="852.594" y="58.2969" width="54.8125" height="54.8125" filterUnits="userSpaceOnUse" color-interpolation-filters="sRGB">
<feFlood flood-opacity="0" result="BackgroundImageFix"/>
<feColorMatrix in="SourceAlpha" type="matrix" values="0 0 0 0 0 0 0 0 0 0 0 0 0 0 0 0 0 0 127 0" result="hardAlpha"/>
<feOffset dy="0.703125"/>
<feGaussianBlur stdDeviation="0.703125"/>
<feComposite in2="hardAlpha" operator="out"/>
<feColorMatrix type="matrix" values="0 0 0 0 0 0 0 0 0 0 0 0 0 0 0 0 0 0 0.1 0"/>
<feBlend mode="normal" in2="BackgroundImageFix" result="effect1_dropShadow_426_23412"/>
<feColorMatrix in="SourceAlpha" type="matrix" values="0 0 0 0 0 0 0 0 0 0 0 0 0 0 0 0 0 0 127 0" result="hardAlpha"/>
<feOffset dy="0.46875"/>
<feGaussianBlur stdDeviation="0.351562"/>
<feComposite in2="hardAlpha" operator="out"/>
<feColorMatrix type="matrix" values="0 0 0 0 0 0 0 0 0 0 0 0 0 0 0 0 0 0 0.1 0"/>
<feBlend mode="normal" in2="effect1_dropShadow_426_23412" result="effect2_dropShadow_426_23412"/>
<feColorMatrix in="SourceAlpha" type="matrix" values="0 0 0 0 0 0 0 0 0 0 0 0 0 0 0 0 0 0 127 0" result="hardAlpha"/>
<feOffset dy="0.117188"/>
<feGaussianBlur stdDeviation="0.117188"/>
<feComposite in2="hardAlpha" operator="out"/>
<feColorMatrix type="matrix" values="0 0 0 0 0 0 0 0 0 0 0 0 0 0 0 0 0 0 0.1 0"/>
<feBlend mode="normal" in2="effect2_dropShadow_426_23412" result="effect3_dropShadow_426_23412"/>
<feBlend mode="normal" in="SourceGraphic" in2="effect3_dropShadow_426_23412" result="shape"/>
</filter>
<filter id="filter9_dd_426_23412" x="859.492" y="65.7285" width="41.0156" height="42.2793" filterUnits="userSpaceOnUse" color-interpolation-filters="sRGB">
<feFlood flood-opacity="0" result="BackgroundImageFix"/>
<feColorMatrix in="SourceAlpha" type="matrix" values="0 0 0 0 0 0 0 0 0 0 0 0 0 0 0 0 0 0 127 0" result="hardAlpha"/>
<feOffset dy="0.9375"/>
<feGaussianBlur stdDeviation="0.46875"/>
<feComposite in2="hardAlpha" operator="out"/>
<feColorMatrix type="matrix" values="0 0 0 0 0 0 0 0 0 0 0 0 0 0 0 0 0 0 0.1 0"/>
<feBlend mode="normal" in2="BackgroundImageFix" result="effect1_dropShadow_426_23412"/>
<feColorMatrix in="SourceAlpha" type="matrix" values="0 0 0 0 0 0 0 0 0 0 0 0 0 0 0 0 0 0 127 0" result="hardAlpha"/>
<feOffset dy="1.875"/>
<feGaussianBlur stdDeviation="1.875"/>
<feComposite in2="hardAlpha" operator="out"/>
<feColorMatrix type="matrix" values="0 0 0 0 0 0 0 0 0 0 0 0 0 0 0 0 0 0 0.2 0"/>
<feBlend mode="normal" in2="effect1_dropShadow_426_23412" result="effect2_dropShadow_426_23412"/>
<feBlend mode="normal" in="SourceGraphic" in2="effect2_dropShadow_426_23412" result="shape"/>
</filter>
<filter id="filter10_ddd_426_23412" x="852.594" y="304.297" width="54.8125" height="54.8125" filterUnits="userSpaceOnUse" color-interpolation-filters="sRGB">
<feFlood flood-opacity="0" result="BackgroundImageFix"/>
<feColorMatrix in="SourceAlpha" type="matrix" values="0 0 0 0 0 0 0 0 0 0 0 0 0 0 0 0 0 0 127 0" result="hardAlpha"/>
<feOffset dy="0.703125"/>
<feGaussianBlur stdDeviation="0.703125"/>
<feComposite in2="hardAlpha" operator="out"/>
<feColorMatrix type="matrix" values="0 0 0 0 0 0 0 0 0 0 0 0 0 0 0 0 0 0 0.1 0"/>
<feBlend mode="normal" in2="BackgroundImageFix" result="effect1_dropShadow_426_23412"/>
<feColorMatrix in="SourceAlpha" type="matrix" values="0 0 0 0 0 0 0 0 0 0 0 0 0 0 0 0 0 0 127 0" result="hardAlpha"/>
<feOffset dy="0.46875"/>
<feGaussianBlur stdDeviation="0.351562"/>
<feComposite in2="hardAlpha" operator="out"/>
<feColorMatrix type="matrix" values="0 0 0 0 0 0 0 0 0 0 0 0 0 0 0 0 0 0 0.1 0"/>
<feBlend mode="normal" in2="effect1_dropShadow_426_23412" result="effect2_dropShadow_426_23412"/>
<feColorMatrix in="SourceAlpha" type="matrix" values="0 0 0 0 0 0 0 0 0 0 0 0 0 0 0 0 0 0 127 0" result="hardAlpha"/>
<feOffset dy="0.117188"/>
<feGaussianBlur stdDeviation="0.117188"/>
<feComposite in2="hardAlpha" operator="out"/>
<feColorMatrix type="matrix" values="0 0 0 0 0 0 0 0 0 0 0 0 0 0 0 0 0 0 0.1 0"/>
<feBlend mode="normal" in2="effect2_dropShadow_426_23412" result="effect3_dropShadow_426_23412"/>
<feBlend mode="normal" in="SourceGraphic" in2="effect3_dropShadow_426_23412" result="shape"/>
</filter>
<filter id="filter11_dd_426_23412" x="859.258" y="312.135" width="41.4844" height="41.5449" filterUnits="userSpaceOnUse" color-interpolation-filters="sRGB">
<feFlood flood-opacity="0" result="BackgroundImageFix"/>
<feColorMatrix in="SourceAlpha" type="matrix" values="0 0 0 0 0 0 0 0 0 0 0 0 0 0 0 0 0 0 127 0" result="hardAlpha"/>
<feOffset dy="0.9375"/>
<feGaussianBlur stdDeviation="0.46875"/>
<feComposite in2="hardAlpha" operator="out"/>
<feColorMatrix type="matrix" values="0 0 0 0 0 0 0 0 0 0 0 0 0 0 0 0 0 0 0.1 0"/>
<feBlend mode="normal" in2="BackgroundImageFix" result="effect1_dropShadow_426_23412"/>
<feColorMatrix in="SourceAlpha" type="matrix" values="0 0 0 0 0 0 0 0 0 0 0 0 0 0 0 0 0 0 127 0" result="hardAlpha"/>
<feOffset dy="1.875"/>
<feGaussianBlur stdDeviation="1.875"/>
<feComposite in2="hardAlpha" operator="out"/>
<feColorMatrix type="matrix" values="0 0 0 0 0 0 0 0 0 0 0 0 0 0 0 0 0 0 0.2 0"/>
<feBlend mode="normal" in2="effect1_dropShadow_426_23412" result="effect2_dropShadow_426_23412"/>
<feBlend mode="normal" in="SourceGraphic" in2="effect2_dropShadow_426_23412" result="shape"/>
</filter>
<filter id="filter12_ddd_426_23412" x="538.594" y="179.297" width="54.8125" height="54.8125" filterUnits="userSpaceOnUse" color-interpolation-filters="sRGB">
<feFlood flood-opacity="0" result="BackgroundImageFix"/>
<feColorMatrix in="SourceAlpha" type="matrix" values="0 0 0 0 0 0 0 0 0 0 0 0 0 0 0 0 0 0 127 0" result="hardAlpha"/>
<feOffset dy="0.703125"/>
<feGaussianBlur stdDeviation="0.703125"/>
<feComposite in2="hardAlpha" operator="out"/>
<feColorMatrix type="matrix" values="0 0 0 0 0 0 0 0 0 0 0 0 0 0 0 0 0 0 0.1 0"/>
<feBlend mode="normal" in2="BackgroundImageFix" result="effect1_dropShadow_426_23412"/>
<feColorMatrix in="SourceAlpha" type="matrix" values="0 0 0 0 0 0 0 0 0 0 0 0 0 0 0 0 0 0 127 0" result="hardAlpha"/>
<feOffset dy="0.46875"/>
<feGaussianBlur stdDeviation="0.351562"/>
<feComposite in2="hardAlpha" operator="out"/>
<feColorMatrix type="matrix" values="0 0 0 0 0 0 0 0 0 0 0 0 0 0 0 0 0 0 0.1 0"/>
<feBlend mode="normal" in2="effect1_dropShadow_426_23412" result="effect2_dropShadow_426_23412"/>
<feColorMatrix in="SourceAlpha" type="matrix" values="0 0 0 0 0 0 0 0 0 0 0 0 0 0 0 0 0 0 127 0" result="hardAlpha"/>
<feOffset dy="0.117188"/>
<feGaussianBlur stdDeviation="0.117188"/>
<feComposite in2="hardAlpha" operator="out"/>
<feColorMatrix type="matrix" values="0 0 0 0 0 0 0 0 0 0 0 0 0 0 0 0 0 0 0.1 0"/>
<feBlend mode="normal" in2="effect2_dropShadow_426_23412" result="effect3_dropShadow_426_23412"/>
<feBlend mode="normal" in="SourceGraphic" in2="effect3_dropShadow_426_23412" result="shape"/>
</filter>
<filter id="filter13_dd_426_23412" x="549.828" y="187.703" width="32.3438" height="40.2539" filterUnits="userSpaceOnUse" color-interpolation-filters="sRGB">
<feFlood flood-opacity="0" result="BackgroundImageFix"/>
<feColorMatrix in="SourceAlpha" type="matrix" values="0 0 0 0 0 0 0 0 0 0 0 0 0 0 0 0 0 0 127 0" result="hardAlpha"/>
<feOffset dy="0.9375"/>
<feGaussianBlur stdDeviation="0.46875"/>
<feComposite in2="hardAlpha" operator="out"/>
<feColorMatrix type="matrix" values="0 0 0 0 0 0 0 0 0 0 0 0 0 0 0 0 0 0 0.1 0"/>
<feBlend mode="normal" in2="BackgroundImageFix" result="effect1_dropShadow_426_23412"/>
<feColorMatrix in="SourceAlpha" type="matrix" values="0 0 0 0 0 0 0 0 0 0 0 0 0 0 0 0 0 0 127 0" result="hardAlpha"/>
<feOffset dy="1.875"/>
<feGaussianBlur stdDeviation="1.875"/>
<feComposite in2="hardAlpha" operator="out"/>
<feColorMatrix type="matrix" values="0 0 0 0 0 0 0 0 0 0 0 0 0 0 0 0 0 0 0.2 0"/>
<feBlend mode="normal" in2="effect1_dropShadow_426_23412" result="effect2_dropShadow_426_23412"/>
<feBlend mode="normal" in="SourceGraphic" in2="effect2_dropShadow_426_23412" result="shape"/>
</filter>
<filter id="filter14_ddd_426_23412" x="887.594" y="179.297" width="54.8125" height="54.8125" filterUnits="userSpaceOnUse" color-interpolation-filters="sRGB">
<feFlood flood-opacity="0" result="BackgroundImageFix"/>
<feColorMatrix in="SourceAlpha" type="matrix" values="0 0 0 0 0 0 0 0 0 0 0 0 0 0 0 0 0 0 127 0" result="hardAlpha"/>
<feOffset dy="0.703125"/>
<feGaussianBlur stdDeviation="0.703125"/>
<feComposite in2="hardAlpha" operator="out"/>
<feColorMatrix type="matrix" values="0 0 0 0 0 0 0 0 0 0 0 0 0 0 0 0 0 0 0.1 0"/>
<feBlend mode="normal" in2="BackgroundImageFix" result="effect1_dropShadow_426_23412"/>
<feColorMatrix in="SourceAlpha" type="matrix" values="0 0 0 0 0 0 0 0 0 0 0 0 0 0 0 0 0 0 127 0" result="hardAlpha"/>
<feOffset dy="0.46875"/>
<feGaussianBlur stdDeviation="0.351562"/>
<feComposite in2="hardAlpha" operator="out"/>
<feColorMatrix type="matrix" values="0 0 0 0 0 0 0 0 0 0 0 0 0 0 0 0 0 0 0.1 0"/>
<feBlend mode="normal" in2="effect1_dropShadow_426_23412" result="effect2_dropShadow_426_23412"/>
<feColorMatrix in="SourceAlpha" type="matrix" values="0 0 0 0 0 0 0 0 0 0 0 0 0 0 0 0 0 0 127 0" result="hardAlpha"/>
<feOffset dy="0.117188"/>
<feGaussianBlur stdDeviation="0.117188"/>
<feComposite in2="hardAlpha" operator="out"/>
<feColorMatrix type="matrix" values="0 0 0 0 0 0 0 0 0 0 0 0 0 0 0 0 0 0 0.1 0"/>
<feBlend mode="normal" in2="effect2_dropShadow_426_23412" result="effect3_dropShadow_426_23412"/>
<feBlend mode="normal" in="SourceGraphic" in2="effect3_dropShadow_426_23412" result="shape"/>
</filter>
<filter id="filter15_dd_426_23412" x="893.973" y="190.547" width="42.1875" height="34.6973" filterUnits="userSpaceOnUse" color-interpolation-filters="sRGB">
<feFlood flood-opacity="0" result="BackgroundImageFix"/>
<feColorMatrix in="SourceAlpha" type="matrix" values="0 0 0 0 0 0 0 0 0 0 0 0 0 0 0 0 0 0 127 0" result="hardAlpha"/>
<feOffset dy="0.9375"/>
<feGaussianBlur stdDeviation="0.46875"/>
<feComposite in2="hardAlpha" operator="out"/>
<feColorMatrix type="matrix" values="0 0 0 0 0 0 0 0 0 0 0 0 0 0 0 0 0 0 0.1 0"/>
<feBlend mode="normal" in2="BackgroundImageFix" result="effect1_dropShadow_426_23412"/>
<feColorMatrix in="SourceAlpha" type="matrix" values="0 0 0 0 0 0 0 0 0 0 0 0 0 0 0 0 0 0 127 0" result="hardAlpha"/>
<feOffset dy="1.875"/>
<feGaussianBlur stdDeviation="1.875"/>
<feComposite in2="hardAlpha" operator="out"/>
<feColorMatrix type="matrix" values="0 0 0 0 0 0 0 0 0 0 0 0 0 0 0 0 0 0 0.2 0"/>
<feBlend mode="normal" in2="effect1_dropShadow_426_23412" result="effect2_dropShadow_426_23412"/>
<feBlend mode="normal" in="SourceGraphic" in2="effect2_dropShadow_426_23412" result="shape"/>
</filter>
<radialGradient id="paint0_angular_426_23412" cx="0" cy="0" r="1" gradientUnits="userSpaceOnUse" gradientTransform="translate(743 207) rotate(90) scale(46)">
<stop offset="0.0993526" stop-color="#FFC876"/>
<stop offset="0.427081" stop-color="#79FFF7"/>
<stop offset="0.718753" stop-color="#9F53FF"/>
<stop offset="1" stop-color="#FF98E2"/>
</radialGradient>
<linearGradient id="paint1_linear_426_23412" x1="623.496" y1="313.028" x2="601.117" y2="335.408" gradientUnits="userSpaceOnUse">
<stop stop-color="#FF6660"/>
<stop offset="1" stop-color="#FB4444"/>
</linearGradient>
<linearGradient id="paint2_linear_426_23412" x1="623.496" y1="313.028" x2="601.117" y2="335.408" gradientUnits="userSpaceOnUse">
<stop stop-color="#FF6660"/>
<stop offset="1" stop-color="#FB4444"/>
</linearGradient>
<linearGradient id="paint3_linear_426_23412" x1="566" y1="191.453" x2="566" y2="220.457" gradientUnits="userSpaceOnUse">
<stop stop-color="#0788FF"/>
<stop offset="1" stop-color="#9900FF"/>
</linearGradient>
<clipPath id="clip0_426_23412">
<rect width="20.625" height="30.9375" fill="white" transform="translate(730.688 14.4727)"/>
</clipPath>
<clipPath id="clip1_426_23412">
<rect x="726.117" y="366.117" width="29.7656" height="29.7656" rx="5.15625" fill="white"/>
</clipPath>
</defs>
</svg>
