<svg xmlns="http://www.w3.org/2000/svg" width="225" height="48" fill="none"><path fill="#AC6AFF" d="m39.213 15.501-.007-5.213L29.586 4v4.022L35.93 12.2l.005 3.202-2.948 1.996-2.01-1.467v-2.485L27.7 11.204v4.523l-5.195 3.188-.01 8.42-3.673 2.068-1.885-1.477v-2.438l2.232-1.529v-3.793l-4.017 2.688-3.07-1.998-2.806 1.837 4.383 3.001v1.842L10.5 29.674l-3.223-2.182V20.23l4.785-3.24.004-3.115 6.137 3.952 5.158-3.433-3.145-1.835-2.057 1.388-4.482-2.964 5.054-2.947 4.379 2.567V6.775l-4.374-2.564-9.942 5.797-.007 5.215L4 18.465v10.792l4.787 3.242.007 5.215L18.414 44v-4.02l-6.345-4.177-.005-3.203 2.948-1.995 2.01 1.467v2.485l3.278 2.241v-4.523l5.268-3.187.06-8.42 3.55-2.069 1.885 1.477v2.438l-2.232 1.53v3.793l4.017-2.689 3.07 1.998 2.806-1.837-4.383-3.003v-1.84L37.5 18.33l3.223 2.182v7.261l-4.785 3.24-.004 3.115-6.137-3.954-5.158 3.41 3.145 1.833 2.057-1.36 4.482 2.963-5.054 2.947L24.89 37.4v3.826l4.374 2.564 9.942-5.794.007-5.216L44 29.537V18.743l-4.787-3.242Z"/><path fill="#fff" d="M60 34.704V14.34h8.492c1.524 0 2.8.216 3.828.646 1.034.431 1.81 1.035 2.326 1.81.524.776.786 1.674.786 2.695 0 .775-.163 1.468-.487 2.078a4.288 4.288 0 0 1-1.343 1.501 5.36 5.36 0 0 1-1.978.835v.2a4.94 4.94 0 0 1 2.277.666 4.595 4.595 0 0 1 1.69 1.69c.424.716.636 1.564.636 2.545 0 1.094-.278 2.072-.835 2.934-.557.855-1.362 1.53-2.416 2.028-1.054.49-2.334.736-3.838.736H60Zm4.922-3.968h3.043c1.067 0 1.852-.202 2.356-.606.51-.404.766-.968.766-1.69 0-.524-.123-.975-.368-1.353a2.367 2.367 0 0 0-1.044-.885c-.451-.212-.991-.318-1.621-.318h-3.132v4.852Zm0-8.024h2.724c.537 0 1.014-.09 1.432-.268a2.21 2.21 0 0 0 .975-.776c.238-.338.358-.745.358-1.223 0-.683-.242-1.22-.726-1.61-.484-.392-1.137-.587-1.96-.587h-2.803v4.464Zm12.552 11.992V19.43h4.723v2.784h.159c.278-1.007.732-1.756 1.362-2.247.63-.497 1.362-.746 2.197-.746.226 0 .458.017.697.05.238.027.46.07.666.13v4.225a4.653 4.653 0 0 0-.915-.189 8.109 8.109 0 0 0-.994-.07c-.577 0-1.097.13-1.561.388a2.786 2.786 0 0 0-1.084 1.064c-.259.451-.388.981-.388 1.591v8.293h-4.862Zm14.396.258c-.974 0-1.84-.162-2.595-.487a4.043 4.043 0 0 1-1.78-1.491c-.43-.67-.646-1.508-.646-2.516 0-.848.149-1.564.447-2.148a3.824 3.824 0 0 1 1.233-1.422 5.803 5.803 0 0 1 1.81-.825 11.75 11.75 0 0 1 2.187-.388c.869-.08 1.568-.162 2.098-.248.53-.093.915-.222 1.154-.388a.836.836 0 0 0 .368-.726v-.05c0-.51-.176-.904-.527-1.183-.352-.278-.826-.417-1.422-.417-.643 0-1.16.139-1.551.417a1.84 1.84 0 0 0-.746 1.154l-4.485-.16A5.303 5.303 0 0 1 88.44 21.6c.556-.736 1.319-1.313 2.287-1.73.974-.425 2.144-.637 3.51-.637a9.89 9.89 0 0 1 2.694.348c.822.226 1.538.557 2.148.995.61.43 1.08.96 1.412 1.59.338.63.507 1.35.507 2.158v10.38h-4.574v-2.127h-.12a4.326 4.326 0 0 1-1.043 1.313 4.16 4.16 0 0 1-1.482.805c-.563.179-1.2.268-1.909.268Zm1.501-3.182c.524 0 .995-.106 1.412-.318a2.61 2.61 0 0 0 1.015-.875c.251-.378.377-.815.377-1.312v-1.452a2.89 2.89 0 0 1-.507.199c-.192.06-.404.116-.636.17a11.5 11.5 0 0 1-.716.138c-.245.04-.48.077-.706.11a4.395 4.395 0 0 0-1.173.338 1.852 1.852 0 0 0-.736.596 1.46 1.46 0 0 0-.248.855c0 .504.178.889.536 1.154.365.265.826.398 1.382.398Zm9.48 2.924V19.43h4.862v15.273h-4.862Zm2.436-17.053a2.512 2.512 0 0 1-1.76-.676c-.49-.457-.736-1.007-.736-1.65 0-.637.246-1.18.736-1.631a2.491 2.491 0 0 1 1.76-.686c.689 0 1.276.229 1.76.686.49.45.736.994.736 1.63 0 .644-.246 1.194-.736 1.651-.484.45-1.071.676-1.76.676Zm9.263 8.343v8.71h-4.862V19.43h4.624v2.804h.169a4.284 4.284 0 0 1 1.73-2.197c.815-.537 1.786-.806 2.913-.806 1.074 0 2.005.242 2.794.726a4.843 4.843 0 0 1 1.85 2.009c.444.855.662 1.856.656 3.003v9.734h-4.862v-8.78c.006-.848-.209-1.511-.647-1.989-.431-.477-1.031-.715-1.799-.715-.511 0-.962.112-1.353.338a2.244 2.244 0 0 0-.895.944c-.205.411-.311.908-.318 1.492Zm14.618 8.71L125.19 19.43h4.883l2.058 9.784h.129l2.207-9.784h4.763l2.267 9.715h.13l1.998-9.715h4.882l-3.987 15.273h-5.2l-2.387-8.9h-.169l-2.386 8.9h-5.21Zm24.476.258c-.974 0-1.839-.162-2.595-.487a4.04 4.04 0 0 1-1.78-1.491c-.431-.67-.646-1.508-.646-2.516 0-.848.149-1.564.447-2.148a3.819 3.819 0 0 1 1.233-1.422 5.805 5.805 0 0 1 1.81-.825 11.755 11.755 0 0 1 2.187-.388c.869-.08 1.568-.162 2.098-.248.531-.093.915-.222 1.154-.388a.837.837 0 0 0 .368-.726v-.05c0-.51-.176-.904-.527-1.183-.352-.278-.826-.417-1.422-.417-.643 0-1.16.139-1.551.417-.392.279-.64.663-.746 1.154l-4.485-.16a5.3 5.3 0 0 1 1.025-2.485c.556-.736 1.319-1.313 2.287-1.73.974-.425 2.144-.637 3.509-.637a9.89 9.89 0 0 1 2.695.348c.822.226 1.538.557 2.148.995.61.43 1.08.96 1.412 1.59.338.63.507 1.35.507 2.158v10.38h-4.574v-2.127h-.119c-.272.517-.62.955-1.044 1.313a4.167 4.167 0 0 1-1.482.805c-.563.179-1.2.268-1.909.268Zm1.501-3.182c.524 0 .995-.106 1.412-.318a2.608 2.608 0 0 0 1.015-.875c.251-.378.377-.815.377-1.312v-1.452c-.139.073-.308.14-.507.199-.192.06-.404.116-.636.17-.232.052-.471.099-.716.138-.245.04-.481.077-.706.11a4.397 4.397 0 0 0-1.173.338 1.852 1.852 0 0 0-.736.596 1.46 1.46 0 0 0-.249.855c0 .504.179.889.537 1.154.365.265.826.398 1.382.398Zm23.748-12.349-5.24 15.273h-5.568l-5.23-15.273h5.121l2.814 10.52h.159l2.824-10.52h5.12Zm7.392 15.561c-1.598 0-2.977-.315-4.137-.944a6.534 6.534 0 0 1-2.664-2.715c-.617-1.18-.925-2.582-.925-4.206 0-1.578.311-2.956.934-4.136a6.757 6.757 0 0 1 2.635-2.764c1.134-.663 2.47-.995 4.008-.995 1.087 0 2.081.17 2.982.507a6.407 6.407 0 0 1 2.337 1.502c.656.663 1.167 1.481 1.531 2.456.365.968.547 2.078.547 3.33v1.214h-13.274v-2.824h8.75a2.74 2.74 0 0 0-.368-1.382 2.498 2.498 0 0 0-.984-.945c-.411-.232-.885-.348-1.422-.348-.544 0-1.031.123-1.462.368a2.704 2.704 0 0 0-1.024.985 2.77 2.77 0 0 0-.398 1.402v2.873c0 .623.123 1.17.368 1.64.246.465.594.826 1.044 1.084.451.259.988.388 1.611.388.431 0 .822-.06 1.173-.179.352-.119.653-.295.905-.527.252-.232.441-.517.567-.855l4.465.13a5.533 5.533 0 0 1-1.223 2.615c-.624.735-1.442 1.309-2.456 1.72-1.015.404-2.188.606-3.52.606Z"/></svg>